<svg width="20" height="20" viewBox="0 0 20 20" xmlns="http://www.w3.org/2000/svg">
<path fill-rule="evenodd" clip-rule="evenodd" d="M0 10C0 4.47714 4.47607 0 10 0C15.5229 0 20 4.47607 20 10C20 15.5229 15.5239 20 10 20C4.47714 20 0 15.5239 0 10ZM12.3286 11.2447L11.502 12.0713C11.3775 12.1958 11.1153 12.2304 10.9647 12.1426C10.9187 12.1188 10.88 12.0984 10.8217 12.065C10.7199 12.0069 10.6038 11.935 10.4762 11.8489C10.107 11.6001 9.72365 11.2889 9.34712 10.9124C8.97044 10.5357 8.65976 10.1528 8.4113 9.78448C8.32536 9.65711 8.11526 9.29187 8.11526 9.29187C8.02695 9.14483 8.06169 8.8838 8.18822 8.75741L9.01469 7.9308C9.45636 7.48926 9.50354 6.75223 9.12043 6.25962L7.56629 4.54016C7.15558 4.01212 6.50575 3.81191 6.03168 4.28597L4.79047 5.52733C3.36093 6.95686 5.09306 10.5609 7.43011 12.898C9.76675 15.2348 13.3026 16.8984 14.7323 15.4689L15.9735 14.2277C16.4473 13.7539 16.3277 13.1426 15.7988 12.7313L13.9998 11.139C13.5079 10.7564 12.7703 10.803 12.3287 11.2447L12.3286 11.2447Z"/>
</svg>
