<svg width="30" height="30" viewBox="0 0 30 30" xmlns="http://www.w3.org/2000/svg">
<path d="M1.5 13.5C0.671572 13.5 -6.91883e-07 14.1716 -6.55671e-07 15C-6.19459e-07 15.8284 0.671572 16.5 1.5 16.5L13.5 16.5L13.5 28.5C13.5 29.3284 14.1716 30 15 30C15.8284 30 16.5 29.3284 16.5 28.5L16.5 16.5L28.5 16.5C29.3284 16.5 30 15.8284 30 15C30 14.1716 29.3284 13.5 28.5 13.5L16.5 13.5L16.5 1.5C16.5 0.671573 15.8284 -6.91883e-07 15 -6.55671e-07C14.1716 -6.19459e-07 13.5 0.671573 13.5 1.5L13.5 13.5L1.5 13.5Z"/>
</svg>
