<svg xmlns="http://www.w3.org/2000/svg" xmlns:xlink="http://www.w3.org/1999/xlink" xmlns:svgjs="http://svgjs.com/svgjs" version="1.1" width="512" height="512" x="0" y="0" viewBox="0 0 64 64" style="enable-background:new 0 0 512 512" xml:space="preserve"><g><path d="M9 49h2v8H9zM9 47h10l-5-3.75zM13 49h2v8h-2zM23 33h4.586L23 28.414z" fill="#000000" data-original="#000000"/><path d="M21 34v-7H3v34h26V35h-7a1 1 0 0 1-1-1zM9 29h10v2H9zm8 6v-2h2v2zm2 2v2H9v-2zM5 29h2v2H5zm0 4h10v2H5zm0 4h2v2H5zm17.949 11.316A1 1 0 0 1 22 49h-1v8h2v2H5v-2h2v-8H6a1 1 0 0 1-.6-1.8l8-6a.996.996 0 0 1 1.2 0l8 6a1 1 0 0 1 .349 1.116z" fill="#000000" data-original="#000000"/><path d="M17 49h2v8h-2zM41 23h10l-5-3.75zM41 25h2v8h-2zM49 25h2v8h-2zM45 25h2v8h-2z" fill="#000000" data-original="#000000"/><path d="M54 11a1 1 0 0 1-1-1V3H35v34h26V11zM41 5h10v2H41zm8 6V9h2v2zm2 2v2H41v-2zM37 5h2v2h-2zm0 4h10v2H37zm0 4h2v2h-2zm18 20v2H37v-2h2v-8h-1a1 1 0 0 1-.6-1.8l8-6a.996.996 0 0 1 1.2 0l8 6A1 1 0 0 1 54 25h-1v8z" fill="#000000" data-original="#000000"/><path d="M55 4.414V9h4.586zM52.414 47H54a1 1 0 0 1 1 1v10a1 1 0 0 1-1 1H34v2h23V48a1 1 0 0 1 1-1h1.586L56 43.414zM7 16a1 1 0 0 1-1 1H4.414L8 20.586 11.586 17H10a1 1 0 0 1-1-1V6a1 1 0 0 1 1-1h20V3H7z" fill="#000000" data-original="#000000"/></g></svg>