<svg width="35" height="25" viewBox="0 0 35 25" fill="none" xmlns="http://www.w3.org/2000/svg">
<path d="M34.7231 7.14039C30.1226 2.54005 24.006 0.00634766 17.5 0.00634766C10.994 0.00634766 4.87736 2.54005 0.277022 7.14039C-0.0921779 7.50971 -0.0921779 8.10818 0.277022 8.4775C0.64634 8.84658 1.24493 8.84682 1.61425 8.4775C5.85745 4.2343 11.4992 1.89714 17.5001 1.89714C23.501 1.89714 29.1429 4.23418 33.3861 8.4775C33.5708 8.66222 33.8126 8.75452 34.0547 8.75452C34.2966 8.75452 34.5386 8.66222 34.7232 8.4775C35.0923 8.1083 35.0923 7.50971 34.7231 7.14039Z" fill="white"/>
<path d="M17.5 5.26147C12.3976 5.26147 7.60063 7.24846 3.99278 10.8562C3.62358 11.2255 3.62358 11.8242 3.99278 12.1933C4.1775 12.378 4.41942 12.4703 4.66134 12.4703C4.90337 12.4703 5.14529 12.378 5.32989 12.1933C8.5806 8.9426 12.9026 7.15238 17.5 7.15238C22.0972 7.15238 26.4193 8.9426 29.67 12.1933C30.0393 12.5624 30.6378 12.5624 31.0071 12.1933C31.3763 11.824 31.3763 11.2255 31.0071 10.8562C27.3993 7.24835 22.6023 5.26147 17.5 5.26147Z" fill="white"/>
<path d="M17.4999 10.4116C13.7733 10.4116 10.2695 11.863 7.63432 14.4981C7.26512 14.8674 7.26512 15.4661 7.63432 15.8352C8.00364 16.2043 8.60211 16.2043 8.97143 15.8352C11.2494 13.5573 14.2781 12.3024 17.4998 12.3024C20.7214 12.3024 23.7502 13.5571 26.0281 15.8352C26.2128 16.0199 26.4546 16.1122 26.6967 16.1122C26.9386 16.1122 27.1806 16.0199 27.3651 15.8352C27.7344 15.4661 27.7344 14.8674 27.3652 14.4982C24.7303 11.863 21.2268 10.4116 17.4999 10.4116Z" fill="white"/>
<path d="M17.4999 15.6143C15.163 15.6143 12.9659 16.5244 11.3132 18.1771C10.944 18.5462 10.944 19.1449 11.3133 19.5141C11.6824 19.8832 12.281 19.8835 12.6503 19.5141C13.9457 18.2187 15.668 17.5053 17.4998 17.5053C19.3317 17.5053 21.054 18.2187 22.3494 19.5141C22.5341 19.6989 22.7759 19.7912 23.0179 19.7912C23.2598 19.7912 23.5019 19.6989 23.6864 19.5141C24.0557 19.1451 24.0557 18.5463 23.6865 18.1771C22.0342 16.5245 19.8371 15.6143 17.4999 15.6143Z" fill="white"/>
<path d="M17.5 21.2114C17.0159 21.2114 16.5319 21.3961 16.1627 21.7652C15.4243 22.5036 15.4243 23.7012 16.1627 24.4393C16.5319 24.8086 17.016 24.9935 17.5 24.9935C17.9839 24.9935 18.4679 24.8086 18.8371 24.4393C19.5755 23.7012 19.5755 22.5036 18.8371 21.7652C18.468 21.396 17.9839 21.2114 17.5 21.2114Z" fill="white"/>
</svg>
