<svg width="33" height="33" viewBox="0 0 33 33" fill="none" xmlns="http://www.w3.org/2000/svg">
<path d="M1.9167 16.5001C1.9163 13.7615 2.68716 11.0782 4.14098 8.75738C5.59481 6.43656 7.67284 4.57208 10.1371 3.37744C12.6014 2.1828 15.3523 1.7063 18.0748 2.0025C20.7973 2.29869 23.3814 3.35562 25.5311 5.05224H23.3128C23.1206 5.0541 22.937 5.13174 22.8017 5.26828C22.6665 5.40482 22.5906 5.58923 22.5906 5.7814C22.5906 5.97357 22.6665 6.15797 22.8017 6.29451C22.937 6.43105 23.1206 6.50869 23.3128 6.51055H27.4375C27.6309 6.51055 27.8164 6.43373 27.9531 6.29698C28.0899 6.16023 28.1667 5.97475 28.1667 5.78136V1.65649C28.1648 1.46433 28.0872 1.28067 27.9507 1.14544C27.8141 1.01022 27.6297 0.934359 27.4375 0.934359C27.2454 0.934359 27.061 1.01022 26.9244 1.14544C26.7879 1.28067 26.7102 1.46433 26.7084 1.65649V4.12563C23.5289 1.50277 19.4618 0.204386 15.3507 0.499773C11.2395 0.795159 7.39985 2.66165 4.62798 5.71212C1.85611 8.76258 0.364768 12.7629 0.463265 16.8835C0.561762 21.004 2.24254 24.9286 5.157 27.8431C5.29426 27.9773 5.47888 28.0519 5.67079 28.0508C5.86271 28.0496 6.04645 27.9729 6.18216 27.8372C6.31786 27.7015 6.39459 27.5178 6.3957 27.3258C6.39681 27.1339 6.3222 26.9493 6.18806 26.8121C4.82964 25.461 3.75267 23.854 3.01949 22.0839C2.28631 20.3139 1.91148 18.416 1.9167 16.5001Z" fill="white"/>
<path d="M10.1269 29.622C9.71322 29.4208 9.30375 29.1968 8.91013 28.9569C8.74508 28.8561 8.54676 28.8251 8.3588 28.8705C8.17084 28.916 8.00864 29.0343 7.90788 29.1993C7.80712 29.3644 7.77606 29.5627 7.82153 29.7507C7.86699 29.9386 7.98526 30.1008 8.15032 30.2016C8.58365 30.4661 9.03434 30.7122 9.48975 30.9336C9.57587 30.9754 9.66939 30.9999 9.76497 31.0056C9.86055 31.0113 9.95632 30.9981 10.0468 30.9668C10.1373 30.9355 10.2207 30.8867 10.2924 30.8231C10.364 30.7596 10.4224 30.6825 10.4642 30.5964C10.5061 30.5103 10.5305 30.4168 10.5362 30.3212C10.5419 30.2256 10.5288 30.1299 10.4975 30.0394C10.4662 29.9489 10.4173 29.8654 10.3538 29.7938C10.2902 29.7222 10.2132 29.6638 10.1271 29.622H10.1269Z" fill="white"/>
<path d="M29.6282 10.1406C29.67 10.2267 29.7283 10.3038 29.7998 10.3675C29.8714 10.4311 29.9547 10.4801 30.0452 10.5115C30.1356 10.5429 30.2314 10.5562 30.327 10.5506C30.4226 10.545 30.5162 10.5207 30.6023 10.4789C30.6885 10.4372 30.7656 10.3789 30.8293 10.3073C30.8929 10.2358 30.9419 10.1524 30.9733 10.062C31.0047 9.9715 31.018 9.87574 31.0124 9.78015C31.0068 9.68455 30.9825 9.59099 30.9407 9.50481C30.721 9.05084 30.4754 8.60015 30.2108 8.16497C30.1611 8.08315 30.0957 8.01193 30.0184 7.95539C29.9411 7.89884 29.8534 7.85807 29.7603 7.83541C29.5724 7.78964 29.374 7.8204 29.2088 7.92093C29.0435 8.02145 28.925 8.1835 28.8792 8.37142C28.8334 8.55935 28.8642 8.75776 28.9647 8.92301C29.2052 9.3186 29.4285 9.72828 29.6282 10.1406Z" fill="white"/>
<path d="M18.23 30.9813C17.7697 31.036 17.3039 31.0685 16.8454 31.0796C16.6555 31.0868 16.476 31.1679 16.345 31.3056C16.214 31.4433 16.142 31.6266 16.1442 31.8166C16.1464 32.0066 16.2227 32.1883 16.3568 32.3229C16.491 32.4575 16.6723 32.5344 16.8623 32.5372C16.868 32.5372 16.8741 32.5372 16.8798 32.5369C17.3839 32.5251 17.8955 32.489 18.4011 32.4293C18.593 32.4065 18.768 32.3084 18.8876 32.1566C19.0072 32.0048 19.0616 31.8117 19.039 31.6198C19.0163 31.4279 18.9184 31.2528 18.7668 31.133C18.6151 31.0133 18.4221 30.9586 18.2302 30.981L18.23 30.9813Z" fill="white"/>
<path d="M14.0801 30.8824C13.6265 30.8066 13.1704 30.7079 12.7247 30.5885C12.5378 30.5385 12.3387 30.5648 12.1713 30.6617C12.0038 30.7585 11.8817 30.9179 11.8317 31.1047C11.7818 31.2916 11.8081 31.4907 11.9049 31.6581C12.0017 31.8256 12.1611 31.9477 12.348 31.9977C12.8386 32.1287 13.3406 32.2373 13.8401 32.3206C13.9346 32.3364 14.0312 32.3334 14.1245 32.3118C14.2178 32.2902 14.3059 32.2504 14.3838 32.1948C14.4618 32.1392 14.528 32.0687 14.5787 31.9875C14.6294 31.9062 14.6636 31.8158 14.6793 31.7214C14.6951 31.6269 14.6921 31.5303 14.6705 31.437C14.6489 31.3437 14.6091 31.2556 14.5535 31.1777C14.4979 31.0998 14.4274 31.0336 14.3462 30.9829C14.265 30.9322 14.1745 30.898 14.0801 30.8822V30.8824Z" fill="white"/>
<path d="M31.8257 16.1487C31.6324 16.144 31.4451 16.2162 31.3051 16.3495C31.165 16.4828 31.0836 16.6663 31.0787 16.8596C31.067 17.3207 31.0335 17.7863 30.9787 18.2442C30.9558 18.4363 31.0101 18.6295 31.1297 18.7815C31.2493 18.9335 31.4243 19.0319 31.6163 19.0549C31.6454 19.0581 31.6746 19.0598 31.7039 19.0599C31.8821 19.0596 32.0541 18.9941 32.1873 18.8757C32.3205 18.7573 32.4058 18.5943 32.427 18.4173C32.4868 17.9142 32.5238 17.4026 32.5364 16.896C32.5388 16.8002 32.5223 16.7049 32.4879 16.6156C32.4535 16.5262 32.4019 16.4445 32.3359 16.3751C32.2699 16.3057 32.1908 16.2499 32.1033 16.2111C32.0158 16.1722 31.9214 16.151 31.8257 16.1487Z" fill="white"/>
<path d="M29.5876 24.489C29.4276 24.3805 29.2311 24.34 29.0412 24.3762C28.8513 24.4125 28.6835 24.5226 28.5747 24.6823C28.3155 25.0637 28.0353 25.4372 27.7412 25.7921C27.6786 25.8656 27.6314 25.9509 27.602 26.0428C27.5727 26.1348 27.562 26.2317 27.5704 26.3279C27.5788 26.424 27.6062 26.5175 27.6511 26.603C27.696 26.6885 27.7573 26.7642 27.8317 26.8258C27.9061 26.8873 27.9919 26.9335 28.0842 26.9616C28.1766 26.9897 28.2736 26.9992 28.3696 26.9896C28.4657 26.9799 28.5589 26.9512 28.6437 26.9053C28.7286 26.8593 28.8035 26.7969 28.8641 26.7218C29.1874 26.3316 29.4961 25.921 29.7809 25.5016C29.8347 25.4225 29.8724 25.3335 29.8918 25.2397C29.9112 25.146 29.9119 25.0493 29.894 24.9553C29.876 24.8613 29.8397 24.7717 29.7872 24.6917C29.7346 24.6117 29.6668 24.5428 29.5876 24.489Z" fill="white"/>
<path d="M30.5924 12.7381C30.7105 13.1821 30.8088 13.6382 30.8847 14.0939C30.9129 14.2641 31.0006 14.4188 31.1321 14.5305C31.2637 14.6421 31.4306 14.7035 31.6031 14.7038C31.6433 14.7037 31.6834 14.7004 31.7231 14.6938C31.8176 14.6781 31.908 14.644 31.9893 14.5934C32.0706 14.5427 32.1411 14.4766 32.1968 14.3987C32.2525 14.3208 32.2924 14.2327 32.314 14.1394C32.3357 14.0461 32.3387 13.9494 32.323 13.855C32.24 13.3537 32.1316 12.8514 32.0017 12.3628C31.952 12.1759 31.83 12.0165 31.6627 11.9195C31.4953 11.8226 31.2963 11.7961 31.1095 11.8458C30.9226 11.8956 30.7631 12.0176 30.6662 12.1849C30.5692 12.3522 30.5427 12.5512 30.5925 12.7381H30.5924Z" fill="white"/>
<path d="M25.7795 27.7514C25.423 28.0462 25.0496 28.3264 24.6697 28.5838C24.5905 28.6375 24.5226 28.7063 24.4699 28.7863C24.4172 28.8663 24.3809 28.9558 24.3628 29.0498C24.3448 29.1439 24.3454 29.2405 24.3647 29.3343C24.384 29.4281 24.4216 29.5171 24.4753 29.5964C24.529 29.6756 24.5979 29.7435 24.6778 29.7962C24.7578 29.8488 24.8473 29.8852 24.9414 29.9033C25.0354 29.9213 25.132 29.9207 25.2258 29.9014C25.3196 29.8821 25.4086 29.8445 25.4879 29.7908C25.9059 29.5077 26.3164 29.1997 26.7087 28.8758C26.8578 28.7525 26.9519 28.5751 26.9702 28.3826C26.9885 28.19 26.9295 27.998 26.8063 27.8489C26.683 27.6998 26.5056 27.6058 26.3131 27.5875C26.1205 27.5692 25.9286 27.6282 25.7795 27.7514Z" fill="white"/>
<path d="M31.3055 20.4796C31.1213 20.421 30.9213 20.438 30.7496 20.5267C30.5779 20.6154 30.4484 20.7686 30.3895 20.9527C30.2499 21.3902 30.0868 21.8272 29.9049 22.2519C29.8651 22.3402 29.8433 22.4356 29.8408 22.5324C29.8383 22.6292 29.8551 22.7255 29.8902 22.8158C29.9253 22.906 29.9781 22.9884 30.0454 23.058C30.1127 23.1276 30.1932 23.1832 30.2822 23.2213C30.3712 23.2595 30.467 23.2796 30.5638 23.2803C30.6607 23.2811 30.7567 23.2626 30.8463 23.2258C30.9359 23.1891 31.0173 23.1348 31.0857 23.0663C31.1541 22.9977 31.2081 22.9162 31.2447 22.8265C31.4455 22.359 31.625 21.8774 31.7784 21.3956C31.8075 21.3044 31.8184 21.2084 31.8104 21.113C31.8024 21.0176 31.7757 20.9247 31.7318 20.8396C31.6879 20.7545 31.6276 20.6789 31.5545 20.6171C31.4813 20.5554 31.3967 20.5086 31.3055 20.4796Z" fill="white"/>
<path d="M22.238 29.9109C21.8175 30.0911 21.3803 30.2538 20.9384 30.3948C20.8472 30.4239 20.7626 30.4706 20.6895 30.5324C20.6163 30.5942 20.5561 30.6698 20.5121 30.7548C20.4682 30.8399 20.4414 30.9328 20.4334 31.0282C20.4254 31.1236 20.4362 31.2197 20.4653 31.3109C20.4943 31.4021 20.5411 31.4867 20.6029 31.5598C20.6647 31.633 20.7402 31.6933 20.8253 31.7372C20.9104 31.7811 21.0033 31.8079 21.0987 31.8159C21.1941 31.824 21.2901 31.8131 21.3813 31.7841C21.8673 31.6292 22.3487 31.4501 22.8119 31.2518C22.9897 31.1757 23.13 31.032 23.2019 30.8524C23.2738 30.6729 23.2714 30.4721 23.1952 30.2943C23.1191 30.1165 22.9754 29.9762 22.7958 29.9043C22.6163 29.8324 22.4155 29.8348 22.2377 29.9109H22.238Z" fill="white"/>
<path d="M10.3334 15.0105C10.3334 13.8154 9.54765 12.8579 8.33146 12.5708C7.66334 12.4125 6.9613 12.4854 6.33995 12.7776C5.71859 13.0697 5.21462 13.5638 4.91028 14.1793C4.86682 14.265 4.84073 14.3585 4.83351 14.4543C4.82629 14.5502 4.83809 14.6465 4.86823 14.7378C4.89836 14.829 4.94624 14.9134 5.00911 14.9861C5.07198 15.0588 5.1486 15.1184 5.23456 15.1614C5.32052 15.2044 5.41414 15.2299 5.51001 15.2366C5.60589 15.2433 5.70215 15.2309 5.79324 15.2003C5.88433 15.1697 5.96847 15.1213 6.04082 15.058C6.11316 14.9948 6.17228 14.9178 6.21478 14.8316C6.37047 14.5085 6.63235 14.2486 6.95665 14.0955C7.28095 13.9423 7.648 13.9051 7.99643 13.9901C8.20261 14.0387 8.87513 14.2562 8.87513 15.0105C8.87513 15.771 7.99678 16.3576 7.06682 16.9787C6.01969 17.6776 4.83338 18.4698 4.83338 19.7814C4.83338 19.9748 4.91019 20.1603 5.04693 20.297C5.18366 20.4338 5.36912 20.5106 5.5625 20.5106H9.60425C9.79641 20.5088 9.98007 20.4311 10.1153 20.2946C10.2505 20.158 10.3264 19.9736 10.3264 19.7815C10.3264 19.5893 10.2505 19.4049 10.1153 19.2684C9.98007 19.1318 9.79641 19.0542 9.60425 19.0523H6.71538C7.02088 18.7629 7.4527 18.4745 7.8764 18.1914C9.02832 17.4224 10.3334 16.5508 10.3334 15.0105Z" fill="white"/>
<path d="M17.2292 17.4116C17.2292 17.2182 17.1523 17.0327 17.0156 16.896C16.8788 16.7593 16.6934 16.6824 16.5 16.6824H15.9075V12.8087C15.9075 12.6577 15.8606 12.5104 15.7733 12.3872C15.686 12.264 15.5625 12.1709 15.4201 12.1208C15.2776 12.0708 15.1231 12.0662 14.9779 12.1077C14.8327 12.1491 14.7039 12.2347 14.6094 12.3525L10.918 16.9555C10.8322 17.0628 10.7783 17.1921 10.7627 17.3286C10.7471 17.4651 10.7704 17.6032 10.8298 17.7271C10.8893 17.8509 10.9825 17.9554 11.0988 18.0286C11.215 18.1018 11.3496 18.1407 11.487 18.1408H14.4492V20.1915C14.4483 20.2879 14.4665 20.3835 14.5027 20.4727C14.5389 20.562 14.5925 20.6432 14.6603 20.7117C14.7281 20.7802 14.8088 20.8345 14.8977 20.8716C14.9866 20.9087 15.082 20.9278 15.1784 20.9278C15.2747 20.9278 15.3701 20.9087 15.459 20.8716C15.548 20.8345 15.6287 20.7802 15.6965 20.7117C15.7643 20.6432 15.8178 20.562 15.8541 20.4727C15.8903 20.3835 15.9085 20.2879 15.9075 20.1915V18.1408H16.5C16.6934 18.1408 16.8789 18.0639 17.0156 17.9272C17.1524 17.7904 17.2292 17.605 17.2292 17.4116ZM14.4492 16.6824H13.0068L14.4492 14.8834V16.6824Z" fill="white"/>
<path d="M20.9611 11.6836C20.8672 11.6646 20.7705 11.6644 20.6765 11.6829C20.5825 11.7014 20.493 11.7383 20.4133 11.7914C20.3336 11.8445 20.2652 11.9129 20.2119 11.9925C20.1587 12.0722 20.1217 12.1616 20.1031 12.2556L18.4625 20.4587C18.4245 20.6483 18.4634 20.8452 18.5707 21.0062C18.6779 21.1671 18.8447 21.2788 19.0343 21.3167C19.0816 21.3262 19.1296 21.3309 19.1778 21.331C19.3463 21.3308 19.5094 21.2723 19.6396 21.1655C19.7698 21.0587 19.859 20.9101 19.8921 20.7449L21.5327 12.5418C21.5515 12.4479 21.5517 12.3512 21.5332 12.2573C21.5147 12.1633 21.4778 12.074 21.4247 11.9943C21.3716 11.9146 21.3034 11.8461 21.2238 11.7928C21.1443 11.7395 21.055 11.7024 20.9611 11.6836Z" fill="white"/>
<path d="M24.7028 20.511C24.8468 20.5109 24.9876 20.4682 25.1074 20.3883C25.2272 20.3084 25.3207 20.1949 25.3761 20.062L28.1105 13.4995C28.1567 13.3887 28.1748 13.2682 28.1633 13.1487C28.1518 13.0292 28.1109 12.9144 28.0443 12.8145C27.9777 12.7146 27.8875 12.6326 27.7816 12.576C27.6758 12.5193 27.5576 12.4897 27.4375 12.4897H23.7461C23.554 12.4916 23.3703 12.5692 23.2351 12.7058C23.0998 12.8423 23.024 13.0267 23.024 13.2189C23.024 13.4111 23.0998 13.5955 23.2351 13.732C23.3703 13.8686 23.554 13.9462 23.7461 13.9481H26.3438L24.0302 19.5012C23.9842 19.612 23.9662 19.7324 23.9778 19.8518C23.9894 19.9712 24.0303 20.0859 24.0968 20.1858C24.1633 20.2857 24.2534 20.3676 24.3591 20.4244C24.4648 20.4811 24.5828 20.511 24.7028 20.5112V20.511Z" fill="white"/>
</svg>
