<svg width="20" height="20" viewBox="0 0 20 20" xmlns="http://www.w3.org/2000/svg">
<path clip-rule="evenodd" d="M20 10C20 15.5228 15.5228 20 10 20C4.47715 20 0 15.5228 0 10C0 4.47715 4.47715 0 10 0C15.5228 0 20 4.47715 20 10ZM4.35 10.053L6.7905 10.8482C6.83163 10.8553 6.87387 10.8528 6.91384 10.8407L6.91522 10.8398C7.4773 10.4848 12.4994 7.31341 12.7893 7.20675C12.835 7.19292 12.869 7.2085 12.86 7.24009C12.7437 7.64775 8.37492 11.5311 8.37492 11.5311C8.37492 11.5311 8.33242 11.5795 8.34017 11.6186C8.34195 11.6336 8.34693 11.6481 8.35478 11.661C8.36263 11.674 8.37316 11.6851 8.38567 11.6936C8.94008 12.0644 11.4491 13.7506 12.175 14.375C12.2403 14.4384 12.3176 14.4879 12.4024 14.5207C12.4873 14.5535 12.5778 14.5689 12.6687 14.566C13.0387 14.5521 13.1419 14.1458 13.1419 14.1458C13.1419 14.1458 14.8676 7.20175 14.9252 6.27134C14.9275 6.23607 14.93 6.20575 14.9322 6.1782C14.9358 6.13459 14.9389 6.09791 14.9393 6.0595C14.9423 5.98706 14.9352 5.91456 14.9182 5.84409C14.9095 5.80419 14.8904 5.76731 14.8628 5.73722C14.8352 5.70713 14.8001 5.68491 14.7611 5.67284C14.6034 5.61292 14.3361 5.703 14.3361 5.703C14.3361 5.703 4.868 9.10608 4.32725 9.483C4.21059 9.56392 4.17159 9.611 4.15225 9.66634C4.05834 9.93467 4.35 10.053 4.35 10.053Z"/>
</svg>
