<svg width="45" height="45" viewBox="0 0 45 45" fill="none" xmlns="http://www.w3.org/2000/svg">
<path fill-rule="evenodd" clip-rule="evenodd" d="M22.5 45C34.9264 45 45 34.9264 45 22.5C45 10.0736 34.9264 0 22.5 0C10.0736 0 0 10.0736 0 22.5C0 34.9264 10.0736 45 22.5 45ZM23 34C26.866 34 30 30.8065 30 26.8664V26.8661C30 24.9522 28.7746 22.9799 27.3069 20.6179C25.9004 18.3541 24.2713 15.7324 23.2854 12.4608C23.183 12.1208 23.1077 12 22.942 12C22.8063 12 22.7633 12.119 22.6556 12.4172C22.6486 12.4367 22.6413 12.4569 22.6337 12.4779C21.328 16.0691 19.7743 18.6381 18.4989 20.7471C17.0764 23.0993 16 24.8792 16 26.8664C16 30.8062 19.134 34 23 34Z" fill="#63C018"/>
<defs>
</defs>
</svg>
