<svg width="46" height="21" viewBox="0 0 46 21" fill="none" xmlns="http://www.w3.org/2000/svg">
<path d="M14.7577 2.67404L12.1934 19.1514L12.4202 20.4766H9.08836L9.31513 19.1514L7.6405 8.77678L6.0182 19.1514L6.24498 20.4766H2.94805L3.17482 19.1514L0.55821 2.70891L0 1.01758H3.01782L2.84338 1.83709L4.58779 13.7287L6.3322 1.83709L6.12287 1.01758H9.17558L8.96625 1.83709L10.7281 13.7287L12.4725 1.83709L12.2632 1.01758H15.3159L14.7577 2.67404Z" fill="white"/>
<path d="M24.7876 20.4765H17.4785L17.7925 19.2734V2.18568L17.4785 1H24.7876L25.2237 3.68521L23.9677 3.40622H20.4789L20.1998 3.68521V9.21255L20.4789 9.49153H21.4558L22.6594 9.17767V12.229L21.4558 11.9152H20.4789L20.1998 12.229V17.7389L20.4789 18.0179H23.9677L25.2237 17.7389L24.7876 20.4765Z" fill="white"/>
<path d="M27.8238 2.18568L27.5098 1H33.8943L35.1328 2.20311V9.50897L33.8768 10.7121L35.1328 11.9501V19.2734L33.8943 20.4765H27.5272L27.8412 19.2734V2.18568H27.8238ZM30.2659 3.68521V9.21255L30.545 9.49153H32.4115L32.6907 9.21255V3.68521L32.4115 3.40622H30.545L30.2659 3.68521ZM32.7081 12.229L32.429 11.9501H30.5625L30.2834 12.229V17.7389L30.5625 18.0179H32.4115L32.6907 17.7389V12.229H32.7081Z" fill="white"/>
<path d="M45.9996 15.6117L45.6856 16.7974V20.4939H38.3765V10.7295L39.5801 9.5264H42.9643L43.2434 9.24742V3.73752L42.9643 3.45853H41.0629L40.7838 3.73752V4.67908L41.1152 5.86476H38.0625L38.3765 4.67908V2.23798L39.5801 1H44.447L45.6856 2.23798V10.747L44.447 11.9849H41.0629L40.7838 12.2639V17.7389L41.0629 18.0179H42.9643L43.2434 17.7389V16.7974L42.9294 15.6117H45.9996Z" fill="white"/>
</svg>
