<svg width="114" height="32" viewBox="0 0 114 32" fill="none" xmlns="http://www.w3.org/2000/svg">
<path fill-rule="evenodd" clip-rule="evenodd" d="M74.6354 0L50.217 20.977V32L74.6354 11.118V19.4091H67.7335L58.8563 27.0587H74.6354V31.9525H83.3937V28.5316H82.4179V18.7439L83.3937 17.9124V0H74.6354Z" fill="#ECEAE8"/>
<path fill-rule="evenodd" clip-rule="evenodd" d="M105.218 32H114V8.07722L105.218 15.3467V19.4091H97.8877L114 5.53527V0H107.503L84.7742 19.4091V27.0587H105.218V32Z" fill="#ECEAE8"/>
<path fill-rule="evenodd" clip-rule="evenodd" d="M11.4714 26.1559C11.4714 27.6763 10.8764 29.1255 9.78163 30.1945C8.71065 31.2636 7.25886 31.8813 5.73569 31.8813C4.21252 31.8813 2.76075 31.2873 1.68977 30.1945C0.618787 29.1255 0 27.6763 0 26.1559C0 24.6355 0.594987 23.1864 1.68977 22.1173C2.76075 21.0483 4.21252 20.4306 5.73569 20.4306C7.25886 20.4306 8.71065 21.0245 9.78163 22.1173C10.8526 23.1864 11.4714 24.6355 11.4714 26.1559Z" fill="#ECEAE8"/>
<path fill-rule="evenodd" clip-rule="evenodd" d="M44.4101 26.2747C44.4101 27.7951 43.8151 29.2442 42.7204 30.3133C41.6494 31.3823 40.1976 32 38.6744 32C37.1513 32 35.6995 31.4061 34.6285 30.3133C33.5575 29.2442 32.9387 27.7951 32.9387 26.2747C32.9387 24.7543 33.5337 23.3051 34.6285 22.2361C35.6995 21.167 37.1513 20.5494 38.6744 20.5494C40.1976 20.5494 41.6494 21.1433 42.7204 22.2361C43.7913 23.3051 44.4101 24.7543 44.4101 26.2747Z" fill="#ECEAE8"/>
<path fill-rule="evenodd" clip-rule="evenodd" d="M27.2744 26.1796C27.2744 27.7001 26.6794 29.1492 25.5846 30.2182C24.5136 31.2873 23.0618 31.905 21.5387 31.905C20.0155 31.905 18.5637 31.311 17.4927 30.2182C16.4218 29.1492 15.803 27.7001 15.803 26.1796C15.803 24.6592 16.398 23.2101 17.4927 22.141C18.5637 21.072 20.0155 20.4543 21.5387 20.4543C23.0618 20.4543 24.5136 21.0482 25.5846 22.141C26.6556 23.2101 27.2744 24.6592 27.2744 26.1796Z" fill="#ECEAE8"/>
</svg>
