<svg width="1360" height="559" viewBox="0 0 1360 559" fill="none" xmlns="http://www.w3.org/2000/svg">
<g opacity="0.05" clip-path="url(#clip0_29_2353)">
<path d="M13.568 466.44C19.6267 334.856 103.509 238.899 170.923 161.8L175.701 156.339C183.509 148.104 201.557 126.088 200.149 99.5066C199.296 83.3359 191.275 68.6586 176.299 55.944C167.339 48.3066 159.061 41.2239 151.168 34.4399C116.309 4.48792 88.7467 -19.1494 45.9947 -48.8027C30.3787 -59.6401 14.976 -69.88 -9.08089e-06 -79.5227V-77.9867C14.7627 -68.472 29.9093 -58.4027 45.2693 -47.7361C87.9787 -18.1254 115.499 5.51197 150.315 35.4213C158.208 42.2053 166.485 49.3306 175.445 56.9253C190.123 69.3839 197.973 83.72 198.827 99.5493C200.235 125.661 182.443 147.336 174.72 155.485L169.899 160.989C102.357 238.216 18.304 334.344 12.2027 466.397C11.5627 480.477 6.10132 489.053 -0.0853424 491.997V493.533C6.57066 490.803 12.7573 482.099 13.4827 466.483L13.568 466.44Z" fill="#417940"/>
<path d="M43.392 467.805C48.9813 346.632 129.067 255.069 193.408 181.469L198.229 175.965C211.755 160.52 222.677 146.781 230.784 135.261C240.811 120.925 259.413 94.2586 215.424 51.8053C167.979 5.9813 116.693 -36.0881 63.0613 -73.2934C41.1733 -88.4827 20.1387 -102.136 0.0426667 -114.424V-112.931C19.9253 -100.771 40.704 -87.2454 62.336 -72.2694C115.925 -35.1067 167.125 6.96259 214.528 52.7013C257.749 94.4293 239.531 120.499 229.717 134.493C221.653 146.013 210.731 159.667 197.248 175.112L192.427 180.616C127.957 254.344 47.7013 346.12 42.112 467.72C39.5093 524.125 29.4827 556.936 10.5813 571.016C6.82667 573.789 3.28533 575.325 0 575.667V576.947C3.584 576.605 7.33867 575.027 11.3493 572.04C30.592 557.747 40.7467 524.595 43.392 467.763V467.805Z" fill="#417940"/>
<path d="M11.0507 274.568C22.528 254.344 37.4613 235.997 51.8827 218.248C72.6613 192.648 94.1653 166.195 105.728 133.683C126.123 76.3387 86.144 49.8853 43.776 21.8106C39.8507 19.208 35.9253 16.6053 32 13.96C25.0027 9.22399 18.432 4.78663 11.9467 0.263965C8.74667 -1.9547 4.82134 -4.77068 -0.0426636 -8.31201V-6.73337C4.43734 -3.44803 8.192 -0.760035 11.2213 1.33063C17.7067 5.8533 24.32 10.2907 31.3173 15.0267C35.2427 17.672 39.168 20.2746 43.0507 22.8773C84.9493 50.6533 124.544 76.8506 104.491 133.256C92.9707 165.555 71.552 191.923 50.816 217.437C36.352 235.229 21.4187 253.619 9.89867 273.928C6.44267 280.029 3.28534 287.923 -0.0426636 296.328V299.784C0.29867 298.931 0.640003 298.035 0.981336 297.181C4.352 288.691 7.552 280.669 11.008 274.568H11.0507Z" fill="#417940"/>
<path d="M115.328 180.616C117.248 178.355 119.168 176.051 121.131 173.747C148.608 141.448 176.981 108.04 144.725 68.1039C119.765 37.2132 82.0907 11.7413 48.8107 -10.7441C41.9413 -15.3947 35.4133 -19.7894 29.0133 -24.2268C24.704 -27.2134 18.9013 -31.4801 12.1173 -36.3867C8.40534 -39.0747 4.352 -42.0614 3.09372e-06 -45.2188V-43.64C4.05334 -40.696 7.89334 -37.9228 11.3493 -35.3628C18.0907 -30.4134 23.936 -26.1894 28.2453 -23.2027C34.6453 -18.7654 41.1733 -14.3707 48.0427 -9.67741C81.1947 12.7653 118.827 38.1946 143.659 68.9146C175.275 108.04 147.2 141.021 120.107 172.936C118.144 175.24 116.224 177.501 114.304 179.805C90.4533 208.221 59.9893 246.28 35.8827 288.691C21.248 314.419 9.216 341.469 -0.0426636 369.203V373.384C9.30134 344.371 21.7173 316.125 36.992 289.288C61.056 247.005 91.4773 208.989 115.285 180.616H115.328Z" fill="#417940"/>
<path d="M403.755 244.488C401.621 248.029 399.616 251.357 397.867 253.832C376.277 284.253 350.72 311.219 321.963 340.829C318.08 344.797 314.112 348.851 310.101 352.904C286.379 376.883 261.803 401.672 247.125 430.984C241.451 442.333 239.659 451.208 242.048 456.627C243.115 459.101 244.992 460.723 247.637 461.448C248.704 461.747 249.941 461.917 251.264 461.917C256.512 461.917 263.509 459.357 271.445 454.579C287.232 445.021 302.208 433.245 316.715 421.811C328.576 412.467 340.864 402.781 353.536 394.419C404.608 360.584 438.357 338.184 454.144 275.08C457.429 261.981 459.349 232.2 449.237 219.229C445.739 214.792 441.173 212.659 435.541 212.915C422.4 213.597 411.648 231.432 403.755 244.445V244.488ZM436.523 214.195C441.259 214.195 445.227 216.157 448.213 220.04C458.027 232.627 456.107 261.896 452.907 274.781C437.248 337.416 403.669 359.645 352.811 393.352C340.096 401.757 327.808 411.443 315.904 420.829C301.44 432.221 286.464 443.997 270.763 453.512C261.205 459.315 253.013 461.704 247.979 460.253C245.717 459.613 244.139 458.205 243.2 456.115C241.024 451.123 242.816 442.419 248.235 431.581C262.827 402.44 287.317 377.736 310.955 353.8C314.965 349.747 318.976 345.693 322.859 341.725C351.659 312.072 377.216 285.064 398.891 254.6C400.683 252.083 402.688 248.755 404.821 245.213C412.544 232.413 423.083 214.92 435.541 214.28C435.84 214.28 436.181 214.28 436.48 214.28L436.523 214.195Z" fill="#417940"/>
<path d="M73.6427 469.213C78.7627 358.621 154.965 271.453 216.192 201.437L221.013 195.933C293.845 112.563 290.901 83.4641 256.725 49.7574C219.264 12.8081 160.213 -42.7439 80.2987 -98.1679C53.0347 -117.069 26.0267 -134.349 0 -149.752V-147.277C25.6427 -132.088 52.224 -115.021 79.0613 -96.4186C158.848 -41.08 217.813 14.3867 255.232 51.2934C288.427 84.0187 291.115 112.477 219.435 194.568L214.613 200.072C153.173 270.344 76.672 357.811 71.552 469.171C66.7307 573.661 27.392 604.381 0.0426667 612.957V615.176C28.032 606.643 68.7787 575.795 73.6853 469.256L73.6427 469.213Z" fill="#417940"/>
<path d="M429.483 173.448C410.752 178.056 394.411 203.997 381.227 224.819C376.619 232.115 372.267 238.984 368.469 243.891C347.307 271.24 323.413 295.859 300.288 319.624C294.272 325.811 286.677 332.851 278.699 340.275C254.891 362.333 225.28 389.811 216.277 414.941C208.725 436.061 213.163 456.243 217.472 475.699C221.013 491.699 224.683 508.253 221.781 525.405C219.989 536.072 213.547 546.568 206.677 557.661C198.485 570.973 190.037 584.712 189.525 599.517C189.355 604.552 190.123 609.501 191.829 614.28C197.461 630.109 203.349 637.448 210.347 637.448C217.344 637.448 224.811 630.237 235.989 612.616C246.656 595.763 250.837 576.264 254.891 557.405C258.944 538.461 263.168 518.877 273.92 501.939C294.4 469.683 330.496 445.875 362.325 424.925C365.013 423.176 367.659 421.384 370.304 419.677C423.168 384.648 464.939 356.957 483.584 282.419C488.533 262.707 487.211 212.445 467.157 186.76C457.429 174.259 444.629 169.736 429.525 173.448H429.483ZM465.451 188.04C483.413 211.08 486.997 259.763 481.493 281.864C463.061 355.592 421.589 383.069 369.109 417.843C366.507 419.592 363.819 421.341 361.131 423.091C329.088 444.168 292.779 468.104 272.085 500.744C261.12 518.024 256.896 537.779 252.757 556.936C248.747 575.624 244.608 594.952 234.155 611.464C226.688 623.24 218.027 635.315 210.347 635.315C204.459 635.315 199.083 628.189 193.835 613.555C192.213 608.989 191.488 604.381 191.659 599.56C192.171 585.352 200.448 571.827 208.512 558.771C215.467 547.464 222.037 536.797 223.872 525.747C226.859 508.168 223.147 491.4 219.563 475.229C215.125 455.133 210.901 436.189 218.283 415.624C227.115 391.005 256.512 363.741 280.149 341.811C288.171 334.344 295.765 327.347 301.824 321.075C324.992 297.224 348.928 272.563 370.176 245.128C374.059 240.136 378.411 233.181 383.061 225.885C396.032 205.405 412.117 179.891 429.995 175.453C433.237 174.643 436.395 174.259 439.381 174.259C449.536 174.259 458.325 178.867 465.451 187.997V188.04Z" fill="#417940"/>
<path d="M449.109 80.8188C438.955 66.1842 430.123 64.3068 420.736 62.3014C414.293 60.9361 407.595 59.4855 399.957 53.7255L399.317 53.0001C377.557 28.6375 304.555 -50.8079 279.851 -50.8079C276.949 -50.8079 274.688 -49.7839 273.109 -47.7359C269.824 -43.4265 269.995 -34.7652 273.621 -21.2398C275.797 -13.2185 296.448 -2.12521 318.336 9.65079C336.555 19.4215 355.413 29.5335 361.813 37.1281C367.531 43.9548 375.083 53.3842 374.4 56.6268C374.229 57.5228 373.248 58.0348 371.584 58.8455C367.787 60.7228 362.027 63.6241 365.099 77.0641C367.232 86.3655 372.992 95.6241 378.539 104.584C383.744 112.904 388.651 120.797 390.613 128.435C396.075 149.427 361.685 187.955 338.944 213.427C331.435 221.832 324.949 229.085 320.811 234.589C304.256 256.563 283.563 276.957 263.595 296.627C224.725 334.941 184.576 374.536 170.411 429.192C149.291 510.899 145.067 583.048 157.909 643.635C164.736 675.976 188.288 721.032 211.115 721.032C225.323 721.032 235.691 703.965 241.877 670.259C265.771 540.467 330.923 497.288 393.984 455.517C449.835 418.525 502.571 383.581 525.269 292.787C533.803 258.525 520.661 205.875 503.552 176.733C495.915 163.72 486.315 156.424 477.013 149.341C468.864 143.112 461.141 137.267 455.168 127.88C450.944 121.267 451.712 113.501 452.48 105.352C453.291 96.9042 454.144 88.1575 449.024 80.7335L449.109 80.8188ZM452.736 129.587C458.965 139.4 466.901 145.416 475.307 151.816C484.352 158.728 493.739 165.853 501.077 178.355C517.888 206.984 530.816 258.653 522.453 292.189C500.053 381.832 447.787 416.477 392.405 453.128C328.875 495.24 263.125 538.803 239.019 669.832C233.216 701.448 223.573 718.173 211.157 718.173C191.787 718.173 168.192 677.811 160.853 643.123C148.139 583.005 152.32 511.283 173.355 430.045C187.264 376.157 227.157 336.861 265.728 298.845C285.781 279.091 306.517 258.653 323.243 236.467C327.296 231.091 333.739 223.88 341.205 215.517C365.781 187.997 399.403 150.28 393.515 127.795C391.381 119.688 386.389 111.667 381.056 103.133C375.595 94.3868 370.005 85.3842 368 76.5522C365.44 65.3735 369.408 63.4108 372.907 61.6615C374.827 60.6801 376.832 59.6988 377.344 57.3522C377.984 54.2375 376.021 49.4588 364.117 35.3361C357.376 27.3148 338.261 17.0748 319.787 7.13348C300.373 -3.27719 278.4 -15.0959 276.565 -21.8799C272.384 -37.3252 273.707 -43.3838 275.541 -45.7732C276.523 -47.0532 277.931 -47.6505 279.893 -47.6505C298.539 -47.6505 352.683 5.46947 397.141 55.1335C397.696 55.7308 397.995 56.0721 398.037 56.0721C406.357 62.3868 413.696 63.9655 420.139 65.3308C429.269 67.2935 437.163 68.9575 446.677 82.6535C451.2 89.1388 450.432 96.9895 449.621 105.267C448.811 113.587 447.957 122.205 452.736 129.715V129.587Z" fill="#417940"/>
<path d="M0 -196.131C143.872 -114.723 298.923 14.8133 327.168 79.1973C344.107 117.853 303.019 164.061 251.008 222.557C191.872 289.032 118.315 371.763 113.707 471.048C108.117 592.093 48.128 641.8 0 656.819V659.933C49.2373 644.915 111.019 594.568 116.693 471.176C121.216 372.957 194.432 290.653 253.227 224.52C305.963 165.213 347.605 118.408 329.899 77.96C301.44 13.1067 144.896 -117.581 0 -199.373V-196.173L0 -196.131Z" fill="#417940"/>
<path d="M39.8507 109.235C37.76 95.4961 28.2453 83.1654 10.8373 71.6454C7.25333 69.2987 3.66933 66.9094 0 64.3921V65.9281C3.41333 68.2321 6.784 70.4934 10.1547 72.7121C27.264 84.0187 36.5653 96.0508 38.6133 109.405C41.984 131.549 25.1733 154.333 4.56533 179.763C3.15733 181.469 1.62133 183.603 0.0426667 185.864V188.083C2.048 185.224 3.88267 182.621 5.58933 180.573C26.4107 154.931 43.392 131.891 39.936 109.235H39.8507Z" fill="#417940"/>
<path d="M77.6107 123.699C88.704 92.552 77.5253 80.0079 27.3067 46.7706C23.3387 44.1253 19.328 41.4799 15.232 38.7066C9.984 35.1653 4.94933 31.752 0 28.3386V29.8746C4.736 33.1173 9.51467 36.3599 14.5493 39.7733C18.6027 42.5039 22.6133 45.1919 26.624 47.7946C76.16 80.6053 87.2107 92.8933 76.416 123.229C66.6453 150.707 47.744 173.96 27.7333 198.579C18.432 210.056 8.91733 221.747 0 234.248V236.467C9.17333 223.453 19.0293 211.293 28.7147 199.389C48.8107 174.685 67.7547 151.304 77.6107 123.656V123.699Z" fill="#417940"/>
<path d="M414.165 284.509H413.867C407.808 284.509 401.664 292.189 397.184 297.821C396.203 299.016 395.349 300.125 394.581 300.979C390.357 305.8 386.261 310.877 382.336 315.827C379.776 319.027 377.259 322.184 374.656 325.299L374.357 325.683C365.824 335.795 362.368 342.365 363.733 345.779C364.117 346.717 365.056 347.912 367.36 348.168C367.701 348.168 368.043 348.211 368.384 348.211H368.597C385.664 347.827 399.488 332.381 406.229 323.208C412.629 314.461 417.195 304.989 418.816 297.267C419.2 295.475 420.224 289.331 417.792 286.259C416.939 285.149 415.701 284.552 414.208 284.467L414.165 284.509ZM416.683 296.883C415.147 304.307 410.709 313.48 404.48 321.971C397.995 330.846 384.683 345.779 368.512 346.12L368.341 347.187V346.12C368.085 346.12 367.829 346.12 367.573 346.077C366.037 345.907 365.781 345.224 365.696 345.011C365.227 343.816 365.312 339.72 375.979 327.048L376.32 326.664C378.923 323.507 381.483 320.349 384.043 317.149C387.968 312.243 392.021 307.165 396.245 302.387C397.013 301.533 397.909 300.381 398.891 299.144C402.859 294.152 408.875 286.643 414.123 286.643C414.976 286.643 415.616 286.984 416.128 287.624C417.621 289.501 417.365 293.811 416.725 296.883H416.683Z" fill="#417940"/>
<path d="M864.299 716.765C920.917 710.323 981.632 644.744 982.4 589.192C983.595 504.029 934.656 435.976 887.296 370.184C879.275 359.005 870.955 347.443 863.104 336.093L858.368 329.267C836.096 297.181 810.837 260.787 802.603 221.491C795.648 188.168 785.024 110.643 796.587 83.848C805.077 64.2213 829.227 53 852.565 42.1627C868.693 34.6534 883.925 27.5707 894.635 17.8854L895.147 17.416C919.552 -4.68531 940.075 -16.0204 956.715 -16.5893C964.267 -16.8453 973.653 -17.1867 986.923 -18.424C1004.71 -20.088 1015.21 -22.6906 1022.89 -24.568C1027.75 -25.7626 1031.3 -26.6587 1034.41 -26.6587C1042.09 -26.6587 1048.53 -21.1973 1069.82 -3.19199C1132.76 50.0987 1131.56 142.771 1130.45 232.413C1129 345.181 1127.51 461.832 1255.17 498.739C1273.51 504.029 1291.39 506.76 1308.29 506.76C1356.29 506.76 1397.12 485.299 1426.43 444.765C1469.44 385.245 1480.87 292.403 1454.85 213.683C1394.82 32.008 1251.37 -71.8853 1097.09 -170.872C956.843 -260.856 823.296 -285.645 709.077 -301.816C700.8 -302.968 692.949 -303.565 685.696 -303.565C639.403 -303.565 617.387 -280.013 589.525 -250.189C578.859 -238.755 567.808 -226.979 554.112 -214.904C538.411 -201.123 518.485 -191.693 499.157 -182.563C467.669 -167.672 437.931 -153.635 425.643 -122.36C399.573 -56.0133 463.616 -4.34402 520.149 41.3093C546.304 62.4293 571.008 82.3547 585.515 102.28C642.901 181.299 625.749 314.547 573.696 389.427C557.44 412.808 526.293 441.693 493.312 472.328C438.699 523.016 376.789 580.488 365.867 628.744C360.747 651.443 362.069 667.315 369.963 677.213C376.576 685.491 387.712 689.501 404.011 689.501C430.848 689.501 469.248 678.451 509.909 666.76C559.616 652.467 615.979 636.253 664.021 636.253C686.933 636.253 705.92 639.795 722.005 647.133C740.523 655.581 756.224 667.741 771.371 679.56C796.416 699.016 820.053 717.405 853.504 717.405C857.003 717.405 860.629 717.192 864.256 716.765H864.299ZM722.944 645.171C706.56 637.704 687.317 634.077 664.064 634.077C615.723 634.077 559.189 650.333 509.355 664.669C468.821 676.317 430.549 687.325 404.011 687.325C388.395 687.325 377.813 683.571 371.669 675.848C364.203 666.504 362.965 651.229 367.957 629.213C378.752 581.597 440.405 524.381 494.763 473.864C527.829 443.187 559.061 414.173 575.445 390.621C627.925 315.144 645.163 180.744 587.221 101C572.587 80.8613 547.755 60.808 521.472 39.6027C465.536 -5.53866 402.133 -56.7386 427.605 -121.592C439.595 -152.056 468.949 -165.965 500.053 -180.643C519.509 -189.816 539.605 -199.331 555.52 -213.325C569.301 -225.443 580.395 -237.304 591.104 -248.739C618.624 -278.179 640.341 -301.432 685.739 -301.432C692.907 -301.432 700.672 -300.835 708.821 -299.683C822.784 -283.555 956.075 -258.808 1095.98 -169.037C1249.92 -70.264 1393.07 33.3733 1452.89 214.408C1478.7 292.531 1467.39 384.605 1424.77 443.571C1395.88 483.549 1355.61 504.669 1308.33 504.669C1291.65 504.669 1273.98 502.024 1255.81 496.733C1199.27 480.392 1163.48 446.771 1146.45 394.035C1131.18 346.803 1131.95 288.691 1132.67 232.499C1133.82 142.387 1135.02 49.2027 1071.32 -4.77063C1040.9 -30.5413 1040.04 -30.968 1022.46 -26.616C1014.87 -24.7387 1004.42 -22.1786 986.795 -20.5146C973.611 -19.2773 964.224 -18.936 956.715 -18.68C939.563 -18.0827 918.585 -6.56265 893.781 15.88L893.269 16.3494C882.816 25.8214 867.712 32.8614 851.712 40.2854C827.989 51.2934 803.456 62.728 794.667 83.08C782.891 110.344 793.557 188.424 800.555 222.003C808.832 261.725 834.219 298.291 856.619 330.589L861.355 337.416C869.205 348.765 877.525 360.328 885.589 371.507C932.736 437.043 981.504 504.755 980.309 589.235C979.541 643.891 919.808 708.36 864.085 714.717C860.544 715.101 857.003 715.315 853.589 715.315C820.864 715.315 797.525 697.139 772.779 677.939C757.504 666.077 741.717 653.789 722.987 645.256L722.944 645.171Z" fill="#417940"/>
<path d="M830.933 950.963C820.139 967.261 806.699 987.485 811.349 1001.48C813.227 1007.2 818.005 1011.46 825.515 1014.15C826.923 1014.66 828.501 1014.92 830.165 1014.92C846.635 1014.92 872.747 989.448 895.787 967.005C910.421 952.712 924.288 939.229 932.608 935.432C972.373 917.384 1027.24 908.808 1075.63 901.213C1094.74 898.227 1112.79 895.411 1129.43 892.125C1167.4 884.701 1204.05 880.904 1238.4 880.904C1350.78 880.904 1445.12 921.352 1518.85 1001.1C1527.13 1010.06 1539.11 1014.58 1554.6 1014.58C1602.73 1014.58 1685.29 967.731 1743.4 880.904C1778.18 828.979 1828.69 722.781 1776.17 595.251C1755.14 544.136 1723.86 520.328 1677.74 520.328C1642.67 520.328 1602.65 533.213 1556.31 548.147C1499.31 566.536 1434.67 587.357 1365.12 587.357C1310.98 587.357 1261.27 574.856 1213.14 549.213C1064.66 470.024 1060.35 325.597 1073.15 208.605C1078.14 163.123 1070.04 127.112 1049.77 104.456C1035.43 88.456 1015.94 80.0081 993.323 80.0081C950.485 80.0081 897.024 113.245 877.739 176.819C859.605 236.637 902.613 291.037 952.405 354.013C1008.6 425.011 1072.26 505.48 1059.88 612.872C1053.74 666.12 1034.33 717.192 1007.87 749.533C987.819 774.067 970.112 776.243 951.339 778.547C937.003 780.296 922.197 782.131 904.832 793.139C891.563 801.544 887.424 815.88 883.029 831.027C880 841.48 876.843 852.275 870.485 861.149C866.987 866.013 860.885 867.08 854.485 868.189C845.995 869.683 836.352 871.347 831.275 882.312C827.733 889.949 832.427 898.952 836.949 907.656C840.747 914.909 844.629 922.419 843.477 928.648C842.539 933.64 837.248 941.661 831.104 950.92L830.933 950.963ZM838.997 906.589C834.56 898.056 830.336 889.949 833.365 883.421C837.931 873.608 846.507 872.115 854.784 870.664C861.44 869.512 868.267 868.317 872.363 862.643C878.976 853.427 882.176 842.419 885.291 831.795C889.557 817.075 893.611 803.208 906.069 795.315C922.965 784.605 937.515 782.813 951.552 781.064C970.837 778.675 989.013 776.456 1009.71 751.155C1036.42 718.472 1056.09 666.888 1062.27 613.213C1074.73 504.797 1010.73 423.901 954.283 352.52C904.917 290.099 862.251 236.168 880.043 177.587C898.987 115.165 951.339 82.5254 993.28 82.5254C1015.17 82.5254 1034.07 90.6747 1047.89 106.12C1067.69 128.221 1075.58 163.549 1070.68 208.349C1057.79 326.109 1062.19 471.517 1211.95 551.389C1260.46 577.245 1310.55 589.832 1365.12 589.832C1435.05 589.832 1499.86 568.925 1557.03 550.493C1603.16 535.603 1643.01 522.76 1677.7 522.76C1723.31 522.76 1752.96 545.416 1773.87 596.147C1825.96 722.653 1775.83 827.955 1741.35 879.496C1685.76 962.483 1602.73 1012.1 1554.56 1012.1C1539.84 1012.1 1528.41 1007.84 1520.64 999.432C1446.44 919.176 1351.47 878.472 1238.4 878.472C1203.93 878.472 1167.1 882.269 1128.96 889.736C1112.36 892.979 1094.31 895.795 1075.24 898.781C1026.69 906.376 971.691 914.995 931.584 933.171C922.88 937.139 909.525 950.152 894.08 965.213C871.381 987.357 845.653 1012.45 830.165 1012.45C828.8 1012.45 827.52 1012.23 826.368 1011.85C819.541 1009.37 815.403 1005.75 813.739 1000.71C809.472 987.869 822.528 968.157 833.024 952.328C839.339 942.813 844.757 934.621 845.781 929.16C847.104 922.077 843.008 914.227 839.04 906.589H838.997Z" fill="#417940"/>
<path d="M891.648 906.12C894.379 906.845 899.285 907.187 905.515 907.187C918.485 907.187 966.656 905.267 1041.79 880.435C1104.6 859.699 1178.07 848.264 1248.6 848.264C1364.74 848.264 1441.88 865.672 1541.25 960.776C1548.29 967.517 1557.76 970.931 1569.32 970.931C1612.5 970.931 1677.82 923.912 1718.02 863.88C1749.42 816.989 1795.07 721.245 1747.93 606.771C1727.62 557.491 1702.14 550.707 1677.65 550.707C1647.36 550.707 1609.47 562.909 1565.57 577.075C1506.43 596.147 1439.36 617.736 1365.03 617.736C1305.77 617.736 1251.37 604.083 1198.72 576.008C1032.28 487.261 1030.02 321.885 1042.82 205.235C1046.78 169.096 1041.15 140.509 1027.03 124.765C1018.54 115.293 1007.15 110.472 993.237 110.472C961.621 110.472 921.771 136.285 906.795 185.651C893.269 230.237 931.712 278.835 976.213 335.112C1033.09 407.005 1103.87 496.477 1090.05 616.371C1086.08 650.717 1076.95 683.357 1062.83 713.395C1040.34 761.224 1010.65 801.8 974.507 834.013C950.656 855.261 926.72 870.152 909.269 880.989C893.355 890.888 883.755 896.819 884.437 901.384C884.736 903.432 887.04 904.968 891.648 906.12ZM909.952 882.099C927.445 871.219 951.424 856.328 975.36 834.995C1011.63 802.653 1041.45 761.949 1064.02 713.992C1078.23 683.827 1087.4 651.016 1091.37 616.584C1105.24 496.179 1034.28 406.451 977.237 334.387C932.949 278.408 894.72 230.067 908.032 186.12C922.837 137.352 962.091 111.837 993.237 111.837C1006.76 111.837 1017.81 116.488 1026.09 125.704C1040 141.192 1045.46 169.437 1041.58 205.192C1028.78 322.227 1031.04 488.115 1198.17 577.245C1251.03 605.448 1305.64 619.144 1365.08 619.144C1439.62 619.144 1506.77 597.512 1566.04 578.397C1609.81 564.275 1647.57 552.115 1677.7 552.115C1701.76 552.115 1726.76 558.813 1746.77 607.368C1793.66 721.288 1748.22 816.605 1716.99 863.283C1677.7 921.992 1611.43 969.736 1569.37 969.736C1558.1 969.736 1548.97 966.451 1542.14 959.923C1493.97 913.843 1449.17 884.531 1401.09 867.677C1359.7 853.213 1314.09 847.027 1248.55 847.027C1177.86 847.027 1104.26 858.461 1041.32 879.24C966.4 903.987 918.4 905.907 905.472 905.907C899.371 905.907 894.549 905.523 891.947 904.84C888.021 903.816 885.931 902.579 885.675 901.128C885.12 897.416 895.531 890.973 909.909 882.013L909.952 882.099Z" fill="#417940"/>
<path d="M993.237 139.955C970.368 139.955 945.237 163.08 937.003 183.859C931.541 197.64 935.723 221.149 948.139 246.835C959.83 271.027 975.446 289.629 986.966 293.085C988.715 293.597 990.507 293.896 992.214 293.896C994.134 293.896 996.054 293.555 997.888 292.915C1012.74 287.752 1012.39 278.621 1011.67 258.653C1011.2 246.365 1010.6 229.555 1013.12 206.472C1016.53 175.453 1011.67 151.816 1005.1 144.52C1003.01 142.173 1000.11 139.997 993.237 139.997V139.955ZM1010.99 206.216C1008.43 229.469 1009.07 246.408 1009.54 258.739C1010.26 278.749 1010.56 286.259 997.163 290.909C994.048 291.976 990.805 292.061 987.52 291.08C976.555 287.795 961.494 269.661 950.016 245.939C937.856 220.808 933.718 197.896 938.966 184.669C946.944 164.531 971.179 142.131 993.237 142.088C999.253 142.088 1001.73 143.923 1003.52 145.885C1009.75 152.84 1014.36 175.795 1010.99 206.173V206.216Z" fill="#417940"/>
<path d="M754.816 414.984C751.957 412.381 749.397 411.144 747.008 411.144C741.035 411.144 736.853 418.739 730.539 430.216C723.968 442.12 715.008 458.419 699.477 474.931L694.912 479.752C677.12 498.611 668.971 507.229 670.976 511.88C671.872 513.971 674.645 514.909 679.893 514.909C684.373 514.909 690.944 514.269 701.909 512.733C706.432 512.093 711.04 511.795 715.605 511.795C752.597 511.795 783.445 532.531 805.973 547.677C819.157 556.552 829.568 563.549 837.035 563.549C840.149 563.549 842.709 562.312 844.629 559.837C868.267 529.501 785.621 442.931 754.816 414.984ZM842.965 558.515C841.472 560.477 839.509 561.416 837.035 561.416C830.208 561.416 820.053 554.589 807.168 545.885C784.427 530.568 753.28 509.619 715.605 509.619C710.955 509.619 706.219 509.96 701.611 510.6C690.773 512.136 684.245 512.776 679.893 512.776C675.797 512.776 673.451 512.179 672.939 511.027C671.488 507.699 681.429 497.16 696.491 481.203L701.056 476.381C716.757 459.699 725.845 443.229 732.416 431.24C738.389 420.403 742.315 413.277 747.051 413.277C748.885 413.277 750.976 414.344 753.408 416.563C791.68 451.251 863.915 531.635 842.965 558.515Z" fill="#417940"/>
<path d="M755.413 450.568C740.48 450.568 721.237 474.12 721.152 485.299C721.152 489.864 723.968 492.552 728.96 492.637C750.976 493.021 774.229 506.973 791.211 517.171C801.28 523.187 808.533 527.581 812.843 527.581C814.208 527.581 815.317 527.155 816.085 526.301C817.067 525.235 817.451 523.613 817.28 521.352C815.701 500.829 776.747 459.741 760.96 451.848C759.296 450.995 757.419 450.611 755.456 450.611L755.413 450.568ZM814.293 521.523C814.421 523.315 814.08 523.997 813.867 524.211C813.781 524.296 813.568 524.552 812.8 524.552C809.301 524.552 801.621 519.944 792.704 514.568C775.424 504.2 751.787 490.035 729.003 489.651C725.632 489.608 724.139 488.243 724.139 485.299C724.224 475.315 742.101 453.512 755.413 453.512C756.949 453.512 758.357 453.811 759.595 454.451C776.619 462.941 812.843 502.92 814.293 521.48V521.523Z" fill="#417940"/>
<path d="M702.635 63.5813C706.304 63.5813 709.248 58.376 712.107 46.728C722.816 3.16531 758.187 -54.4773 813.141 -85.112C868.736 -116.131 905.771 -124.195 925.696 -128.504C935.595 -130.637 940.544 -131.747 941.739 -134.349C942.208 -135.331 942.037 -136.525 941.312 -137.891C937.472 -144.888 868.608 -183.416 769.579 -191.437L765.397 -191.779C756.48 -192.504 748.757 -193.144 741.376 -193.144C715.52 -193.144 694.699 -185.933 646.059 -144.845C638.379 -138.36 630.528 -132.344 622.933 -126.499C599.424 -108.451 579.115 -92.92 580.437 -75.2134C581.461 -61.6454 594.901 -48.1627 622.72 -32.8453C653.525 -15.864 672.299 17.8426 684.715 40.1146C692.608 54.2373 697.771 63.5813 702.72 63.5813H702.635ZM623.232 -33.9547C596.181 -48.8454 582.571 -62.3707 581.589 -75.2987C580.309 -92.2801 600.363 -107.64 623.616 -125.432C631.211 -131.277 639.104 -137.293 646.784 -143.821C695.083 -184.653 715.733 -191.821 741.248 -191.821C748.587 -191.821 756.267 -191.181 765.184 -190.456L769.365 -190.115C866.133 -182.307 936.448 -143.907 940.075 -137.251C940.8 -135.885 940.672 -135.245 940.459 -134.861C939.52 -132.856 934.187 -131.661 925.312 -129.741C905.344 -125.389 868.181 -117.325 812.416 -86.2214C757.163 -55.3734 721.536 2.65331 710.784 46.472C708.139 57.1387 705.451 62.344 702.549 62.344C698.368 62.344 692.779 52.2747 685.653 39.56C673.152 17.16 654.293 -16.76 623.147 -33.912L623.232 -33.9547Z" fill="#417940"/>
<path d="M710.699 136.84C714.411 136.84 716.971 132.403 718.763 122.845C729.856 64.0933 753.877 -19.1067 834.133 -63.48C858.923 -77.2187 886.955 -88.056 919.765 -96.7173C926.379 -98.4666 933.419 -103.203 940.288 -107.811C949.12 -113.784 958.293 -119.928 966.741 -119.928C967.723 -119.928 968.704 -119.843 969.6 -119.672C974.336 -118.819 977.877 -116.088 981.291 -113.443C985.131 -110.456 988.757 -107.64 993.792 -107.64C995.669 -107.64 997.632 -108.024 999.723 -108.877C1003.31 -110.285 1005.18 -113.059 1006.98 -115.747C1009.54 -119.544 1011.93 -123.128 1019.18 -122.488C1026.39 -121.891 1030.27 -116.387 1034.37 -110.584C1037.23 -106.531 1040.21 -102.307 1044.44 -99.96C1047.51 -98.2533 1053.06 -96.4187 1057.96 -96.4187C1061.38 -96.4187 1063.81 -97.3146 1065.17 -99.1066C1066.45 -100.813 1066.71 -103.245 1065.86 -106.275C1063.04 -116.344 1041.49 -125.731 1027.2 -131.96C1022.98 -133.795 1019.35 -135.373 1017 -136.611C995.755 -147.875 974.549 -157.389 956.629 -165.24C881.024 -198.307 812.075 -218.488 745.899 -226.936C738.432 -227.875 731.989 -228.344 726.144 -228.344C693.547 -228.344 668.288 -214.093 618.027 -167.331C605.696 -155.853 592.981 -145.997 580.736 -136.483C553.259 -115.149 531.541 -98.296 532.053 -77.0907C532.48 -60.3653 546.987 -42.5306 577.792 -20.984C627.371 13.704 660.267 66.3974 682.069 101.256C695.509 122.717 704.341 136.925 710.784 136.925L710.699 136.84ZM578.432 -22.136C548.011 -43.4266 533.632 -60.9626 533.248 -77.2613C532.736 -97.8266 554.24 -114.509 581.461 -135.629C593.749 -145.187 606.464 -155.043 618.837 -166.563C668.843 -213.069 693.888 -227.235 726.101 -227.235C731.904 -227.235 738.304 -226.765 745.685 -225.827C811.733 -217.421 880.555 -197.24 956.032 -164.216C973.952 -156.365 995.115 -146.851 1016.32 -135.629C1018.71 -134.349 1022.38 -132.771 1026.6 -130.936C1040.64 -124.835 1061.89 -115.576 1064.53 -106.104C1065.26 -103.459 1065.13 -101.411 1064.06 -100.045C1062.7 -98.2533 1059.93 -97.8693 1057.88 -97.8693C1053.44 -97.8693 1048.02 -99.576 1044.99 -101.283C1041.02 -103.459 1038.17 -107.555 1035.35 -111.523C1031.25 -117.325 1027.03 -123.299 1019.22 -123.981C1011.2 -124.707 1008.51 -120.568 1005.87 -116.643C1004.07 -113.997 1002.41 -111.523 999.211 -110.243C997.248 -109.475 995.499 -109.091 993.749 -109.091C989.184 -109.091 985.685 -111.779 982.016 -114.595C978.475 -117.325 974.805 -120.184 969.771 -121.037C968.789 -121.208 967.723 -121.293 966.699 -121.293C957.867 -121.293 948.565 -115.021 939.563 -108.963C932.523 -104.227 925.824 -99.704 919.467 -98.04C886.528 -89.3786 858.453 -78.456 833.536 -64.6746C752.811 -20.0453 728.661 63.5387 717.525 122.547C715.861 131.251 713.643 135.517 710.699 135.517C704.939 135.517 695.765 120.797 683.051 100.445C661.205 65.5013 628.224 12.6801 578.432 -22.1786V-22.136Z" fill="#417940"/>
<path d="M868.309 672.179C897.493 668.851 924.971 648.797 938.368 621.107C950.571 595.805 957.184 552.883 919.296 492.125C903.04 466.013 885.291 439.688 868.139 414.216C819.072 341.384 772.736 272.563 753.579 203.528C731.947 125.448 749.312 61.0213 808.277 0.818637C859.349 -51.32 926.805 -81.2294 993.408 -81.2294C1043.46 -81.2294 1088.13 -63.608 1119.15 -31.6507C1153.24 3.46397 1170.3 54.8773 1168.43 116.957C1168 131.379 1167.32 146.269 1166.59 162.056C1164.03 218.12 1161.09 281.651 1170.13 334.515C1180.54 395.315 1205.25 432.861 1245.61 449.331C1267.24 458.163 1287.72 462.6 1306.54 462.6C1340.71 462.6 1369.81 447.667 1390.68 419.464C1426.13 371.464 1434.62 289.288 1411.84 214.963C1362.9 55.4746 1245.23 -39.7147 1071.27 -141.688C939.136 -219.128 827.52 -243.021 726.613 -257.315C719.104 -258.381 711.936 -258.936 705.323 -258.936C663.168 -258.936 643.115 -237.475 617.728 -210.296C607.957 -199.843 597.888 -189.091 585.344 -178.04C570.923 -165.368 558.379 -157.645 547.285 -150.819C529.493 -139.896 514.176 -130.467 497.237 -105.208C463.701 -55.0747 508.587 -24.3121 556.075 8.24259C581.163 25.4373 607.147 43.2293 621.056 64.3066C708.437 196.701 673.195 337.928 611.029 425.949C593.28 451.123 567.339 474.888 539.861 500.019C506.283 530.781 471.552 562.568 451.712 598.109C443.179 613.384 440.747 623.752 444.288 629.811C446.891 634.248 452.651 636.381 461.824 636.381C478.208 636.381 504.235 629.597 534.4 621.704C576.683 610.696 629.291 596.957 675.797 596.957C700.416 596.957 721.536 600.883 738.56 608.605C755.499 616.328 769.835 627.464 783.701 638.259C806.528 656.008 828.032 672.733 858.496 672.733C861.696 672.733 864.981 672.563 868.267 672.179H868.309ZM739.115 607.453C721.707 599.517 701.013 595.677 675.84 595.677C629.205 595.677 576.469 609.416 534.144 620.467C504.064 628.317 478.123 635.059 461.867 635.101C453.163 635.101 447.787 633.139 445.397 629.128C442.112 623.496 444.544 613.555 452.821 598.707C472.576 563.379 507.221 531.635 540.757 500.957C568.277 475.741 594.261 451.976 612.096 426.675C648.533 375.091 670.037 316.253 674.261 256.52C679.125 188.253 661.589 123.315 622.123 63.5813C608.085 42.3333 582.016 24.4559 556.8 7.17593C509.824 -25.0374 465.451 -55.416 498.304 -104.525C515.029 -129.571 530.304 -138.915 547.925 -149.752C559.061 -156.579 571.648 -164.344 586.155 -177.101C598.741 -188.152 608.853 -198.989 618.624 -209.443C643.797 -236.365 663.723 -257.656 705.28 -257.656C711.808 -257.656 718.933 -257.101 726.4 -256.077C827.179 -241.784 938.667 -217.933 1070.59 -140.621C1244.29 -38.8614 1361.75 56.1999 1410.56 215.261C1433.26 289.245 1424.85 370.952 1389.61 418.653C1369 446.515 1340.29 461.277 1306.5 461.277C1287.85 461.277 1267.54 456.84 1246.08 448.093C1206.14 431.795 1181.7 394.589 1171.37 334.259C1162.33 281.523 1165.27 218.035 1167.83 162.056C1168.55 146.269 1169.24 131.379 1169.66 116.957C1171.54 54.4933 1154.39 2.7813 1120.04 -32.5894C1088.77 -64.8027 1043.8 -82.5521 993.408 -82.5521C926.464 -82.5521 858.624 -52.5147 807.339 -0.120035C776.021 31.88 756.693 64.8613 748.203 100.787C740.651 132.872 741.973 166.536 752.299 203.827C771.499 273.075 817.877 341.939 867.029 414.899C884.181 440.371 901.931 466.696 918.187 492.765C955.776 553.053 949.248 595.507 937.173 620.509C923.989 647.816 896.896 667.613 868.139 670.856C864.896 671.24 861.653 671.411 858.496 671.411C828.501 671.411 807.125 654.771 784.512 637.192C770.603 626.355 756.181 615.176 739.115 607.368V607.453Z" fill="#417940"/>
<path d="M896.299 619.272C907.477 611.123 914.048 599.731 915.755 585.437C920.832 543.496 883.627 482.269 850.219 442.632C808.533 393.139 767.147 340.317 746.88 289.203C745.899 286.685 744.363 279.56 742.443 270.557C735.915 240.179 725.035 189.363 709.248 189.363C707.797 189.363 706.304 189.789 704.853 190.685C698.283 194.568 696.363 202.248 698.923 214.067C701.013 223.752 705.835 234.931 710.101 244.787C714.624 255.197 718.507 264.2 718.421 269.32C718.251 282.504 712.107 288.307 706.176 293.939C701.525 298.333 696.747 302.856 694.997 310.749C692.779 320.904 696.96 328.541 701.013 335.923C704.768 342.749 708.608 349.789 707.413 358.877C705.152 375.56 652.331 435.677 605.781 488.755C567.211 532.659 533.931 570.589 534.485 577.843C534.485 578.397 534.741 578.824 535.083 579.123C538.283 581.768 544.043 583.048 552.789 583.048C566.571 583.048 585.728 579.976 607.957 576.392C634.88 572.083 665.387 567.176 691.883 567.176C712.576 567.176 728.064 570.12 739.2 576.179C745.259 579.464 752.043 583.389 759.168 587.528C790.997 606.045 830.592 629.043 864.128 629.043C876.544 629.043 887.381 625.758 896.256 619.315L896.299 619.272ZM739.883 574.984C728.533 568.84 712.832 565.811 691.968 565.811C665.387 565.811 634.837 570.717 607.829 575.027C585.685 578.568 566.528 581.64 552.875 581.64C544.469 581.64 538.923 580.445 535.979 578.013C535.979 578.013 535.851 577.885 535.808 577.629C535.296 570.888 570.027 531.379 606.763 489.48C653.483 436.275 706.389 375.987 708.736 358.963C710.016 349.448 706.048 342.237 702.208 335.24C698.069 327.731 694.187 320.648 696.32 310.963C697.941 303.453 702.421 299.272 707.115 294.835C713.259 289.032 719.616 283.016 719.787 269.32C719.872 263.944 715.904 254.813 711.339 244.232C707.115 234.419 702.293 223.325 700.203 213.768C697.771 202.547 699.52 195.336 705.536 191.752C706.773 191.027 708.053 190.643 709.291 190.643C724.053 190.643 735.232 242.781 741.205 270.813C743.211 280.243 744.661 287.027 745.728 289.672C766.037 340.957 807.509 393.864 849.28 443.443C882.517 482.909 919.552 543.709 914.517 585.267C912.811 599.219 906.453 610.312 895.573 618.248C886.912 624.563 876.373 627.72 864.213 627.72C831.061 627.72 791.595 604.808 759.893 586.376C752.725 582.237 745.984 578.312 739.883 574.984Z" fill="#417940"/>
<path d="M881.707 565.725C885.504 530.568 847.872 475.443 829.056 454.237C796.587 417.672 773.931 386.482 758.955 365.874C744.107 345.437 735.915 334.131 730.624 334.131C726.997 334.131 724.992 338.824 723.755 350.387C714.453 437.256 658.261 484.317 624.683 512.392C609.963 524.723 600.277 532.829 599.851 539.528C599.723 541.448 600.405 543.24 601.899 544.776C604.971 548.019 609.792 549.555 617.173 549.555C625.451 549.555 635.904 547.635 648.021 545.416C663.723 542.515 681.557 539.272 699.776 539.272C724.608 539.272 744.619 545.459 761.003 558.173C784.085 576.093 818.219 595.251 844.971 595.251C854.613 595.251 862.848 592.819 869.504 587.955C876.544 582.835 880.683 575.325 881.707 565.683V565.725ZM844.971 594.013C818.56 594.013 784.725 575.027 761.813 557.235C745.173 544.307 724.907 538.035 699.819 538.035C681.472 538.035 663.595 541.32 647.808 544.221C635.776 546.44 625.365 548.317 617.216 548.317C610.219 548.317 605.653 546.909 602.88 543.923C601.643 542.6 601.088 541.192 601.173 539.613C601.557 533.469 611.627 525.021 625.536 513.373C659.243 485.128 715.691 437.896 725.035 350.515C726.144 340.061 727.893 335.411 730.624 335.411C735.275 335.411 743.808 347.144 757.931 366.6C772.907 387.251 795.605 418.44 828.075 455.048C846.763 476.125 884.181 530.824 880.427 565.555C879.403 574.813 875.477 582.024 868.736 586.931C862.293 591.624 854.315 593.971 844.928 593.971L844.971 594.013Z" fill="#417940"/>
<path d="M1246.25 214.664C1241.86 281.395 1261.01 327.347 1280.43 348.04C1289.3 357.512 1299.03 362.76 1307.86 362.76C1320.28 362.76 1329.62 352.989 1334.14 335.24C1363.29 221.021 1264.04 100.616 1251.88 90.5467C1248.38 87.6454 1245.95 87.2614 1244.37 89.0107C1241.51 92.1254 1242.41 102.323 1244.03 120.797C1245.95 142.685 1248.81 175.752 1246.25 214.664ZM1245.95 90.4614C1246.17 90.2054 1246.38 90.12 1246.72 90.12C1247.32 90.12 1248.47 90.504 1250.56 92.2107C1262.63 102.195 1361.02 221.533 1332.14 334.728C1327.87 351.411 1319.3 360.627 1307.9 360.627C1299.71 360.627 1290.5 355.635 1282.05 346.589C1262.93 326.195 1244.07 280.84 1248.43 214.792C1250.99 175.709 1248.13 142.557 1246.21 120.627C1244.8 104.499 1243.78 92.8934 1245.99 90.4614H1245.95Z" fill="#417940"/>
<path d="M1213.23 210.824C1208.28 275.549 1221.08 327.944 1249.24 358.365C1263.96 374.28 1282.05 383.027 1300.18 383.027C1326.04 383.027 1346.69 365.064 1352.87 337.288C1370.84 256.051 1343.02 183.005 1316.57 135.987C1285.42 80.776 1245.61 41.6933 1226.41 28.8933C1219.41 24.2427 1214.46 21.3413 1211.48 21.3413C1210.37 21.3413 1209.51 21.7253 1208.87 22.4506C1206.4 25.224 1207.42 33.16 1209.43 48.8613C1212.97 76.7226 1219.58 128.52 1213.27 210.824H1213.23ZM1209.77 23.2613C1210.15 22.792 1210.71 22.5786 1211.43 22.5786C1214.08 22.5786 1219.07 25.5226 1225.69 29.9173C1268.99 58.8026 1384.02 190.387 1351.59 336.947C1345.58 364.125 1325.4 381.704 1300.18 381.704C1282.39 381.704 1264.64 373.085 1250.18 357.469C1222.27 327.347 1209.6 275.293 1214.51 210.909C1220.82 128.477 1214.21 76.5519 1210.62 48.6479C1208.79 34.2693 1207.68 25.608 1209.77 23.2187V23.2613Z" fill="#417940"/>
<path d="M1188.69 215.005C1183.79 295.56 1199.19 359.219 1232.13 394.205C1249.15 412.296 1269.8 421.853 1291.9 421.853C1334.14 421.853 1369.9 387.677 1380.95 336.819C1397.21 261.811 1383.21 187.955 1339.39 117.299C1294.98 45.7468 1233.54 -0.503946 1200.85 -21.7519C1184.21 -32.5466 1177.09 -37.0692 1174.36 -33.7839C1172.1 -31.0532 1173.59 -23.2879 1176.49 -7.84257C1182.81 25.6508 1195.99 95.3254 1188.69 214.92V215.005ZM1175.34 -32.888C1175.68 -33.3146 1176.15 -33.4853 1176.87 -33.4853C1180.33 -33.4853 1187.8 -28.6213 1200.17 -20.5999C1309.06 50.0561 1413.38 181.043 1379.67 336.563C1368.79 386.824 1333.5 420.573 1291.9 420.573C1270.19 420.573 1249.83 411.144 1233.07 393.309C1200.38 358.579 1185.11 295.261 1189.97 215.048C1197.27 95.2827 1184.09 25.5227 1177.73 -8.01327C1175.04 -22.1359 1173.46 -30.6266 1175.3 -32.888H1175.34Z" fill="#417940"/>
<path d="M734.805 -54.2214C763.861 -107.171 816.981 -125.645 859.989 -135.843C864.128 -136.824 864.512 -138.957 864.384 -140.109C863.36 -148.728 823.083 -165.24 762.965 -165.24C756.181 -165.24 749.227 -165.027 742.357 -164.6C714.88 -162.936 650.112 -124.621 626.859 -96.248C620.8 -88.8667 618.069 -82.7654 618.709 -78.0294C620.331 -66.2534 630.784 -61.048 642.944 -54.9893C655.787 -48.5893 670.336 -41.336 677.461 -24.44C681.6 -14.584 687.019 -9.59202 693.589 -9.59202C704.725 -9.59202 718.635 -24.6107 734.848 -54.1787L734.805 -54.2214ZM679.381 -25.2934C672 -42.9147 657.067 -50.3814 643.883 -56.952C632.277 -62.712 622.251 -67.704 620.8 -78.3707C620.245 -82.424 622.891 -88.1413 628.48 -94.9253C651.477 -122.957 715.435 -160.845 742.485 -162.467C749.355 -162.893 756.224 -163.107 762.965 -163.107C822.059 -163.107 861.44 -146.765 862.251 -139.853C862.379 -138.744 860.587 -138.147 859.52 -137.891C816.085 -127.608 762.453 -108.92 732.971 -55.2453C708.48 -10.6587 690.091 0.135948 679.424 -25.2934H679.381Z" fill="#417940"/>
<path d="M1296.17 311.645C1298.43 311.645 1300.39 310.067 1302.06 306.995C1310.38 291.421 1310.21 237.491 1288.15 204.68C1285.29 200.413 1281.15 200.968 1277.99 206.344C1269.72 220.595 1266.22 265.907 1288.79 305.459C1291.14 309.555 1293.61 311.645 1296.13 311.645H1296.17ZM1280.6 207.837C1281.71 205.96 1282.86 204.808 1283.75 204.808C1284.52 204.808 1285.29 205.747 1285.67 206.344C1306.75 237.747 1307.22 290.952 1299.41 305.587C1298.35 307.549 1297.19 308.659 1296.17 308.659C1294.85 308.659 1293.1 306.952 1291.39 303.965C1269.72 265.949 1272.83 221.192 1280.6 207.837Z" fill="#417940"/>
<path d="M860.16 772.829C923.691 765.576 999.339 690.099 1019.61 632.413C1054.81 532.275 992.213 451.635 931.669 373.64C873.259 298.376 818.048 227.293 844.885 140.723C868.267 65.3307 943.787 24.6267 1002.97 24.6267C1034.88 24.6267 1062.44 35.9334 1080.66 56.4987C1102.29 80.9041 1110.78 117.981 1105.24 163.72C1086.17 320.861 1080.49 492.765 1255.68 543.453C1275.78 549.256 1295.62 552.2 1314.69 552.2C1388.46 552.2 1435.52 509.96 1462.02 474.504C1512.83 406.536 1530.5 304.861 1505.92 221.533C1485.1 150.877 1444.1 82.312 1380.65 11.9974C1286.31 -92.536 1157.8 -182.392 987.819 -262.776L980.48 -266.275C908.971 -300.109 835.029 -335.096 757.163 -354.381C752.555 -355.533 747.435 -356.899 741.973 -358.349C717.909 -364.749 688 -372.685 662.315 -372.685C652.032 -372.685 643.115 -371.363 635.861 -368.76C624.768 -364.792 618.539 -357.197 612.48 -349.859C607.957 -344.397 603.307 -338.723 596.651 -334.669C592.341 -332.024 583.893 -328.781 575.019 -325.325C560.64 -319.779 545.707 -314.019 541.013 -308.472C531.925 -297.805 534.443 -291.405 536.832 -285.176C538.581 -280.739 540.203 -276.515 538.069 -270.243L536.405 -265.293C527.787 -239.949 513.55 -224.404 493.696 -218.659C487.936 -216.995 480.768 -214.904 472.277 -212.216C447.744 -204.408 437.675 -192.376 427.947 -180.728C420.48 -171.768 413.397 -163.32 400.043 -156.493C399.701 -156.493 399.275 -156.493 398.848 -156.493C383.488 -156.493 267.008 -148.813 258.048 -120.184C255.659 -112.461 260.864 -104.099 273.621 -95.2666C289.579 -84.216 301.653 -82.936 309.376 -82.936C313.131 -82.936 316.544 -83.2773 319.829 -83.5759C322.645 -83.8319 325.291 -84.088 327.808 -84.088C337.195 -84.088 346.667 -81.4426 359.637 -49.4C362.837 -41.5066 365.312 -35.064 367.36 -29.688C377.429 -3.31999 377.771 -2.97862 403.328 7.94405C409.685 10.632 417.579 14.0027 427.605 18.6534C460.544 33.8427 467.285 51.08 475.819 72.9254C480.341 84.4454 485.461 97.544 495.147 112.264C505.515 128.008 517.675 140.68 529.451 152.925C550.315 174.643 570.027 195.165 576.299 229.427C587.179 288.776 554.965 345.437 518.528 397.832C500.864 423.261 464.555 452.829 426.112 484.147C360.832 537.309 286.848 597.597 286.592 653.405C286.421 685.277 294.613 709.725 310.912 726.109C328.661 743.944 355.627 752.605 393.387 752.605C448.128 752.605 515.371 734.131 574.72 717.875C621.44 705.075 661.803 693.981 687.573 693.981C693.419 693.981 698.368 694.579 702.251 695.731C727.125 703.112 746.837 718.899 765.952 734.173C791.253 754.44 815.189 773.555 849.365 773.555C852.864 773.555 856.448 773.341 860.032 772.957L860.16 772.829ZM703.232 692.744C698.965 691.464 693.888 690.867 687.701 690.867C661.504 690.867 620.971 702.003 574.037 714.845C514.859 731.059 447.787 749.491 393.472 749.491C356.565 749.491 330.283 741.128 313.131 723.891C297.429 708.104 289.536 684.381 289.664 653.32C289.92 598.92 363.307 539.101 428.075 486.365C466.688 454.92 503.125 425.224 521.045 399.453C557.824 346.504 590.379 289.203 579.285 228.787C572.843 193.629 552.832 172.808 531.669 150.749C519.979 138.589 507.904 126.003 497.707 110.515C488.192 96.0507 483.115 83.1654 478.677 71.7307C469.888 49.2454 462.933 31.5387 428.928 15.8373C418.859 11.1867 410.923 7.81605 404.565 5.08539C388.124 -1.94039 376.661 -13.9298 370.176 -30.8826C368.128 -36.2586 365.653 -42.7439 362.453 -50.6373C350.037 -81.2293 340.352 -87.2026 327.851 -87.2026C325.205 -87.2026 322.475 -86.9466 319.573 -86.648C316.373 -86.3493 313.045 -86.008 309.419 -86.008C301.483 -86.008 290.475 -87.3306 275.371 -97.784C263.808 -105.763 258.987 -113.016 260.949 -119.331C268.715 -144.205 377.301 -153.549 398.891 -153.549C399.403 -153.549 399.744 -153.549 399.957 -153.549L400.299 -154.915L400.939 -153.592C415.104 -160.76 422.827 -169.933 430.251 -178.851C440.149 -190.669 449.493 -201.848 473.216 -209.4C481.664 -212.088 488.789 -214.136 494.549 -215.8C525.568 -224.76 525.952 -225.229 539.264 -264.355L540.928 -269.304C543.403 -276.6 541.397 -281.72 539.648 -286.285C537.344 -292.173 535.381 -297.251 543.317 -306.552C547.541 -311.501 562.731 -317.389 576.128 -322.552C585.173 -326.051 593.707 -329.336 598.272 -332.109C605.355 -336.419 610.176 -342.264 614.827 -347.939C620.885 -355.277 626.603 -362.232 636.885 -365.901C643.84 -368.376 652.416 -369.656 662.357 -369.656C687.659 -369.656 717.355 -361.763 741.248 -355.405C746.709 -353.955 751.829 -352.589 756.48 -351.437C834.048 -332.237 907.861 -297.293 979.243 -263.544L986.581 -260.045C1156.18 -179.875 1284.39 -90.232 1378.47 14.0027C1441.62 83.976 1482.41 152.157 1503.1 222.387C1527.42 304.861 1509.97 405.469 1459.67 472.712C1433.56 507.613 1387.22 549.213 1314.73 549.213C1295.96 549.213 1276.42 546.312 1256.58 540.552C1083.65 490.547 1089.32 320.008 1108.27 164.061C1113.94 117.469 1105.19 79.5814 1082.97 54.536C1064.19 33.3307 1035.82 21.6827 1003.05 21.6827C942.805 21.6827 865.92 63.112 842.112 139.912C814.805 227.933 873.045 302.984 929.408 375.56C989.44 452.915 1051.56 532.915 1016.87 631.517C996.864 688.392 922.368 762.845 859.904 769.971C856.405 770.355 852.949 770.568 849.579 770.568C816.427 770.568 792.917 751.752 768 731.827C748.715 716.381 728.747 700.424 703.317 692.829L703.232 692.744Z" fill="#417940"/>
<path d="M1250.05 -455.587C1235.58 -445.389 1215.79 -440.397 1189.5 -440.397C1158.66 -440.397 1124.1 -447.309 1093.67 -453.411C1075.71 -456.995 1058.77 -460.408 1044.91 -461.859C1038.12 -462.584 1019.9 -464.248 997.461 -464.248C955.904 -464.248 902.571 -458.616 884.693 -431.779C876.885 -420.131 876.587 -405.453 883.755 -388.216C887.125 -380.109 895.829 -375.715 904.235 -371.448C910.891 -368.077 917.76 -364.621 921.6 -359.416C926.123 -353.272 928.811 -344.653 931.371 -336.291C934.827 -325.197 938.368 -313.72 946.432 -306.936C956.459 -298.531 967.424 -294.605 981.035 -294.605C990.464 -294.605 1000.11 -296.525 1009.41 -298.36C1018.62 -300.195 1028.14 -302.072 1037.35 -302.072C1046.57 -302.072 1053.87 -300.323 1060.86 -296.739C1077.8 -287.992 1084.97 -276.216 1091.84 -264.867C1100.84 -250.019 1109.33 -236.024 1137.32 -229.453C1195.9 -215.757 1211.99 -201.421 1250.77 -166.819C1255.77 -162.339 1261.14 -157.56 1267.03 -152.397C1280.98 -140.152 1291.31 -126.157 1301.29 -112.632C1310.17 -100.557 1319.38 -88.0987 1331.24 -76.6641C1345.79 -62.6267 1359.53 -56.3974 1372.8 -50.3814C1390.46 -42.3601 1407.19 -34.7654 1422.34 -8.73876L1424.68 -4.64273C1443.75 28.2959 1463 58.8026 1474.86 58.8026C1476.78 58.8026 1478.4 58.0772 1479.77 56.5839C1484.03 51.8906 1485.18 39.4746 1483.31 18.6106C1482.2 6.36525 1473.37 -4.55743 1464.79 -15.1388C1455.57 -26.5308 1446.87 -37.3254 1447.38 -49.2294C1448.02 -63.4801 1456.64 -70.5201 1465.77 -77.9441C1472.47 -83.3628 1479.38 -88.9948 1483.43 -97.7414C1493.16 -118.691 1495.51 -137.421 1497.81 -155.555C1500.97 -180.813 1503.96 -204.621 1526.57 -231.587C1566.98 -279.843 1623.68 -316.28 1686.23 -334.243C1707.05 -340.216 1726.34 -343.117 1745.15 -343.117C1809.07 -343.117 1854.89 -308.344 1903.45 -271.565C1908.95 -267.384 1914.5 -263.203 1920.09 -259.021V-262.733C1915.09 -266.488 1910.14 -270.2 1905.24 -273.912C1856.3 -311.032 1810.05 -346.061 1745.15 -346.061C1726.04 -346.061 1706.5 -343.117 1685.38 -337.059C1622.27 -318.968 1565.06 -282.189 1524.22 -233.464C1501.06 -205.816 1498.03 -181.581 1494.78 -155.896C1492.52 -137.976 1490.22 -119.459 1480.66 -98.9787C1476.91 -90.8721 1470.25 -85.4961 1463.85 -80.2481C1454.59 -72.7387 1445.03 -64.9307 1444.35 -49.3147C1443.8 -36.3014 1453.27 -24.5681 1462.4 -13.2188C1470.68 -2.97877 1479.21 7.60255 1480.23 18.9092C1482.45 43.4852 1479.98 51.8906 1477.46 54.5786C1476.69 55.4319 1475.84 55.8159 1474.77 55.8159C1463.04 55.8159 1437.91 12.3812 1427.2 -6.13609L1424.81 -10.2321C1409.19 -37.0695 1392.04 -44.8347 1373.95 -53.1121C1360.9 -59.0427 1347.41 -65.1867 1333.25 -78.8401C1321.6 -90.0614 1312.47 -102.435 1303.64 -114.424C1293.57 -128.077 1283.16 -142.2 1268.95 -154.659C1263.06 -159.821 1257.69 -164.6 1252.69 -169.08C1213.48 -204.067 1197.27 -218.531 1137.92 -232.397C1111.13 -238.669 1102.93 -252.152 1094.31 -266.445C1087.19 -278.179 1079.85 -290.296 1062.14 -299.427C1054.72 -303.267 1046.61 -305.101 1037.27 -305.101C1027.93 -305.101 1018.11 -303.181 1008.77 -301.347C999.595 -299.512 990.08 -297.677 980.949 -297.677C968.107 -297.677 957.739 -301.389 948.267 -309.325C940.885 -315.555 937.429 -326.605 934.144 -337.315C931.499 -345.891 928.725 -354.765 923.904 -361.336C919.68 -367.096 912.469 -370.723 905.515 -374.264C897.237 -378.445 889.387 -382.413 886.443 -389.496C879.701 -405.752 879.915 -419.491 887.125 -430.285C904.32 -456.013 956.587 -461.432 997.419 -461.432C1019.73 -461.432 1037.78 -459.768 1044.52 -459.043C1058.22 -457.592 1075.11 -454.179 1092.99 -450.637C1123.58 -444.493 1158.27 -437.581 1189.42 -437.581C1216.34 -437.581 1236.69 -442.744 1251.67 -453.325C1289 -479.736 1278.29 -519.544 1267.93 -558.029C1256.87 -599.16 1245.44 -641.699 1291.43 -669.432C1296.94 -672.76 1304.32 -674.467 1313.32 -674.467C1340.84 -674.467 1379.58 -659.448 1417.05 -644.899C1449.69 -632.227 1480.49 -620.28 1500.54 -619.811C1503.45 -619.725 1506.3 -619.725 1509.21 -619.725C1552.3 -619.725 1595.86 -627.149 1638.02 -634.36C1680.09 -641.528 1723.56 -648.952 1766.49 -648.952C1796.52 -648.952 1823.66 -645.368 1849.39 -638.029C1873.19 -631.245 1896.66 -622.243 1919.87 -612.003V-615.245C1896.96 -625.357 1873.75 -634.189 1850.2 -640.888C1824.17 -648.312 1796.78 -651.939 1766.49 -651.939C1723.31 -651.939 1679.66 -644.515 1637.5 -637.304C1595.48 -630.136 1552.04 -622.712 1509.21 -622.712C1506.3 -622.627 1503.49 -622.712 1500.59 -622.797C1481.05 -623.267 1450.5 -635.128 1418.11 -647.672C1380.39 -662.307 1341.4 -677.453 1313.32 -677.453C1303.59 -677.453 1295.96 -675.661 1289.86 -671.992C1241.94 -643.064 1253.67 -599.459 1265.02 -557.261C1275.56 -518.008 1285.55 -480.973 1249.92 -455.757L1250.05 -455.587Z" fill="#417940"/>
</g>
<defs>
<clipPath id="clip0_29_2353">
<rect width="1920" height="1920" fill="white" transform="translate(0 -779)"/>
</clipPath>
</defs>
</svg>
