<svg width="14" height="14" viewBox="0 0 14 14" xmlns="http://www.w3.org/2000/svg">
<path d="M9.11862 8.39843L7.74822 9.75043C7.03354 9.31963 6.36963 8.80975 5.76902 8.23043C5.19059 7.62875 4.6808 6.96468 4.24902 6.25043L5.59942 4.88083C5.68124 4.7978 5.7365 4.69229 5.75816 4.57774C5.77981 4.4632 5.76688 4.3448 5.72102 4.23763L4.31302 0.955227C4.25745 0.825843 4.15725 0.720734 4.03067 0.659058C3.90408 0.597381 3.75955 0.583245 3.62342 0.619227L1.04182 1.30243C0.912905 1.33589 0.799174 1.41213 0.71924 1.51866C0.639306 1.62519 0.597906 1.7557 0.601816 1.88883C0.765948 4.89134 2.01415 7.73227 4.11462 9.88403C6.26675 11.9856 9.10865 13.2344 12.1122 13.3984C12.2456 13.403 12.3765 13.3618 12.4833 13.2818C12.5901 13.2018 12.6663 13.0877 12.6994 12.9584L13.381 10.3752C13.4171 10.2392 13.403 10.0947 13.3415 9.96816C13.28 9.84159 13.1751 9.74133 13.0458 9.68563L9.76342 8.27763C9.65612 8.23131 9.53744 8.21807 9.42257 8.23959C9.30771 8.26111 9.20187 8.31641 9.11862 8.39843Z" stroke-width="1.2" stroke-miterlimit="10" stroke-linecap="square"/>
</svg>
