<svg width="20" height="20" viewBox="0 0 20 20" xmlns="http://www.w3.org/2000/svg">
<path fill-rule="evenodd" clip-rule="evenodd" d="M0 10C0 4.47714 4.47607 0 10 0C15.5229 0 20 4.47607 20 10C20 15.5229 15.5239 20 10 20C4.47714 20 0 15.5239 0 10ZM10 16.4096C10 16.4096 14.8718 11.4086 14.8718 8.71786C14.8718 6.02729 12.6906 3.84607 10 3.84607C7.30943 3.84607 5.12821 6.02729 5.12821 8.71786C5.12821 11.4086 10 16.4096 10 16.4096ZM10 10.6571C11.3186 10.6571 12.3876 9.58821 12.3876 8.26957C12.3876 6.95093 11.3186 5.88189 10 5.88189C8.68136 5.88189 7.61243 6.95096 7.61243 8.26957C7.61243 9.58818 8.68136 10.6571 10 10.6571Z"/>
</svg>
