<svg width="26" height="14" viewBox="0 0 26 14" xmlns="http://www.w3.org/2000/svg">
<path fill-rule="evenodd" clip-rule="evenodd" d="M22.3767 8.8475C23.2392 9.6258 24.1494 10.3581 24.923 11.2149C25.2647 11.5956 25.5882 11.9885 25.8357 12.4304C26.1863 13.0585 25.8687 13.7497 25.2594 13.7872L21.4716 13.7856C20.4947 13.8606 19.7154 13.497 19.0601 12.8796C18.5356 12.3859 18.05 11.8604 17.5457 11.35C17.339 11.1414 17.1226 10.9451 16.8641 10.79C16.3471 10.4798 15.8982 10.5747 15.6027 11.0732C15.3018 11.5802 15.2335 12.1416 15.204 12.7066C15.1634 13.5311 14.8938 13.7478 13.9979 13.7856C12.0831 13.869 10.266 13.6013 8.57789 12.7085C7.08962 11.9214 5.93552 10.8103 4.93101 9.55237C2.9752 7.10296 1.47744 4.41147 0.131309 1.64456C-0.171694 1.02118 0.0498986 0.686546 0.794037 0.674702C2.02971 0.652515 3.26522 0.654094 4.50234 0.673123C5.00456 0.679914 5.33703 0.946165 5.53095 1.38471C6.19949 2.90413 7.01752 4.34972 8.04433 5.68966C8.31777 6.0464 8.5966 6.40314 8.99366 6.65424C9.43291 6.93225 9.76735 6.84011 9.974 6.38783C10.1051 6.10104 10.1625 5.79215 10.1921 5.485C10.29 4.42828 10.3029 3.37338 10.1312 2.32038C10.0258 1.6632 9.62529 1.23776 8.91583 1.1134C8.5538 1.05 8.60771 0.925478 8.783 0.734475C9.08745 0.405055 9.3738 0.199997 9.94461 0.199997H14.2254C14.8993 0.322937 15.0489 0.60277 15.1412 1.22955L15.1449 5.62468C15.1375 5.86732 15.276 6.58736 15.7488 6.74796C16.1273 6.86229 16.3767 6.58246 16.6038 6.36066C17.6287 5.35519 18.3602 4.16693 19.0137 2.9365C19.3037 2.39547 19.5531 1.83359 19.7947 1.27219C19.9738 0.855599 20.2547 0.650619 20.7624 0.6597L24.8824 0.663095C25.0046 0.663095 25.1282 0.664753 25.2465 0.683467C25.9407 0.792826 26.131 1.06887 25.9166 1.69549C25.5787 2.67862 24.9214 3.4979 24.2786 4.32098C23.5915 5.19972 22.8567 6.04838 22.1754 6.93233C21.5494 7.73954 21.5991 8.14641 22.3767 8.8475Z"/>
</svg>
