<svg width="20" height="20" viewBox="0 0 20 20" xmlns="http://www.w3.org/2000/svg">
<path fill-rule="evenodd" clip-rule="evenodd" d="M9.9975 0H10.0025C15.5162 0 20 4.48625 20 10C20 15.5138 15.5162 20 10.0025 20C7.96875 20 6.0825 19.395 4.50125 18.3475L0.6575 19.5763L1.90375 15.8612C0.705 14.215 0 12.1875 0 10C0 4.485 4.48375 0 9.9975 0ZM13.8602 15.5326C14.6239 15.3676 15.5814 14.8026 15.8227 14.1213C16.0639 13.4388 16.0639 12.8576 15.9939 12.7338C15.9374 12.6356 15.8037 12.5713 15.6042 12.4752C15.5522 12.4502 15.4958 12.423 15.4352 12.3926C15.1414 12.2463 13.7127 11.5401 13.4427 11.4463C13.1777 11.3463 12.9252 11.3813 12.7252 11.6638C12.6871 11.7171 12.6492 11.7704 12.6114 11.8235C12.3701 12.1629 12.1374 12.4902 11.9439 12.6988C11.7677 12.8863 11.4802 12.9101 11.2389 12.8101C11.2126 12.7991 11.1825 12.7869 11.1487 12.7733C10.7667 12.619 9.91947 12.2768 8.8939 11.3638C8.0289 10.5938 7.44141 9.63507 7.27141 9.34757C7.1045 9.05916 7.24847 8.89004 7.38153 8.73374C7.38399 8.73085 7.38645 8.72796 7.38891 8.72507C7.47469 8.61893 7.55795 8.53054 7.64161 8.44172C7.7018 8.37782 7.76219 8.3137 7.8239 8.24257C7.83307 8.23201 7.84199 8.22176 7.85067 8.21177C7.9817 8.06111 8.05973 7.97139 8.14766 7.78382C8.24765 7.59007 8.1764 7.39007 8.10515 7.24257C8.05613 7.13927 7.7533 6.40451 7.49333 5.77376C7.38209 5.50386 7.2787 5.25301 7.20641 5.07882C7.01266 4.61507 6.86516 4.59757 6.57141 4.58507C6.56241 4.58462 6.55332 4.58416 6.54414 4.5837C6.45129 4.579 6.34902 4.57382 6.23641 4.57382C5.85391 4.57382 5.45516 4.68632 5.21391 4.93257C5.20548 4.94118 5.19669 4.95012 5.18757 4.95939C4.87893 5.27328 4.19141 5.9725 4.19141 7.36632C4.19141 8.76283 5.18229 10.1144 5.36563 10.3644C5.37068 10.3713 5.37512 10.3774 5.37891 10.3826C5.38994 10.3971 5.41073 10.4272 5.44099 10.471C5.81534 11.0131 7.6387 13.6536 10.3577 14.7801C12.6552 15.7326 13.3377 15.6438 13.8602 15.5326Z"/>
</svg>
