<svg xmlns="http://www.w3.org/2000/svg" xmlns:xlink="http://www.w3.org/1999/xlink" xmlns:svgjs="http://svgjs.com/svgjs" version="1.1" width="512" height="512" x="0" y="0" viewBox="0 0 64 64" style="enable-background:new 0 0 512 512" xml:space="preserve"><g><path d="M32 5.838 2.994 16.142v31.714L32 58.162l29.006-10.306V16.142zm27.006 11.784-.027-.077.027.01zm-1.994-.777-7.945 2.825-24.418-9.098L32 7.96zM32 25.736 6.98 16.848l7.291-2.59 24.98 8.9zm11.262-1.88 5.172-1.839v8.58c-1.734.613-3.455 1.227-5.172 1.84zm-1.028-1.757-24.98-8.9 4.461-1.584 24.42 9.098zM33 55.684V39.157h-2v16.526L4.994 46.444v-28.18L31 27.504v8.903h2v-8.903l8.262-2.937v10.708l1.563-.559c2.305-.822 4.611-1.646 6.941-2.469l.668-.235V21.307l8.572-3.048v28.186z" fill="#000000" data-original="#000000"/></g></svg>