<svg xmlns="http://www.w3.org/2000/svg" xmlns:xlink="http://www.w3.org/1999/xlink" xmlns:svgjs="http://svgjs.com/svgjs" version="1.1" width="512" height="512" x="0" y="0" viewBox="0 0 512 512" style="enable-background:new 0 0 512 512" xml:space="preserve"><g><path d="M488.023 76.672a42.518 42.518 0 0 0-32.457-15.015h-49.282l2.543-10.558h1.212c14.088 0 25.55-11.462 25.55-25.55C435.59 11.462 424.128 0 410.04 0H102.269c-14.088 0-25.55 11.462-25.55 25.55s11.462 25.55 25.55 25.55h1.204L106 61.657H56.434a42.516 42.516 0 0 0-32.457 15.015 42.509 42.509 0 0 0-9.564 34.461c5.225 31.856 16.861 78.208 42.6 118.93v164.134c-.188 5.916 7.146 9.708 11.867 6.126l33.868-24.061 33.868 24.061c4.713 3.58 12.058-.21 11.867-6.126v-89.65c11.936 3.885 24.49 6.398 37.58 7.531a106.053 106.053 0 0 0 41.104 22.325V434.62a23.062 23.062 0 0 1-19.03 22.728l-24.743 4.417c-22.32 3.985-40.78 18.888-49.38 39.867-2.103 4.736 1.774 10.514 6.953 10.365h230.374c5.419.156 9.246-6.067 6.748-10.855-8.686-20.778-27.111-35.53-49.286-39.46l-24.603-4.361a23.058 23.058 0 0 1-19.059-22.733V334.31a106.095 106.095 0 0 0 40.792-22.232c13.205-1.143 25.863-3.693 37.892-7.635v89.754c-.19 5.917 7.153 9.705 11.867 6.126l33.868-24.061 33.868 24.061c4.721 3.582 12.055-.212 11.867-6.126v-63.919a7.515 7.515 0 1 0-15.03 0v49.363l-26.353-18.723a7.514 7.514 0 0 0-8.704 0l-26.353 18.723v-80.997a154.968 154.968 0 0 0 19.279-10.263c15.542-9.753 29.644-22.422 42.132-37.782v49.621a7.515 7.515 0 1 0 15.03 0v-70.648c25.522-40.602 37.087-86.71 42.291-118.438a42.51 42.51 0 0 0-9.564-34.462zm-92.601 30.073h57.181c-4.087 23.562-13.995 65.325-36.327 100.188-15.537 24.255-34.775 41.394-57.324 51.127.081-.321.172-.639.249-.961zM35.432 86.402a27.512 27.512 0 0 1 21.002-9.715h53.165l3.599 15.029H56.434c-7.51-.178-13.75 7.175-12.36 14.553 2.091 12.745 6.1 32.444 13.328 53.911 3.034 9.322 17.478 4.369 14.243-4.795-6.378-18.944-10.136-36.465-12.249-48.64h57.4l35.968 150.213c.089.37.192.735.285 1.103-22.549-9.734-41.788-26.873-57.325-51.128-4.745-7.407-9.206-15.583-13.261-24.3a7.514 7.514 0 0 0-9.983-3.644 7.514 7.514 0 0 0-3.644 9.983c4.338 9.326 9.127 18.097 14.233 26.068 19.962 31.163 45.667 51.811 76.443 61.431a105.84 105.84 0 0 0 10.647 18.21c-17.441-3.46-33.629-9.821-48.305-19.03-19.761-12.4-37.068-30.065-51.441-52.505-24.884-38.846-36.123-83.677-41.17-114.445a27.506 27.506 0 0 1 6.189-22.299zm98.02 293.238-26.353-18.723a7.514 7.514 0 0 0-8.704 0L72.041 379.64V250.978c12.412 15.189 26.41 27.73 41.824 37.402a154.986 154.986 0 0 0 19.587 10.4zm142.53-58.499a7.514 7.514 0 0 0-5.869 7.332v106.115a38.069 38.069 0 0 0 31.465 37.532l24.603 4.361c13.31 2.359 24.868 9.768 32.504 20.488H153.639c7.618-10.665 19.123-18.038 32.396-20.407l24.743-4.417a38.077 38.077 0 0 0 31.418-37.524V328.547a7.514 7.514 0 0 0-5.893-7.337c-33.804-7.473-60.857-34.067-68.922-67.752L118.927 51.1h188.841a7.515 7.515 0 1 0 0-15.03H102.269c-5.801 0-10.52-4.72-10.52-10.52 0-5.801 4.72-10.521 10.52-10.521H410.04c5.801 0 10.521 4.72 10.521 10.521s-4.72 10.52-10.521 10.52h-72.214a7.515 7.515 0 1 0 0 15.03h55.542L344.59 253.58a90.918 90.918 0 0 1-24.909 43.832 91.118 91.118 0 0 1-43.699 23.729zm206.775-212.44c-5.047 30.768-16.286 75.599-41.17 114.444-14.373 22.44-31.68 40.105-51.441 52.505-14.676 9.209-30.865 15.571-48.307 19.03 4.15-5.701 7.712-11.8 10.648-18.209 30.777-9.619 56.482-30.268 76.445-61.432 24.739-38.62 35.049-84.726 38.993-108.77 1.392-7.383-4.854-14.731-12.359-14.553h-56.523l3.621-15.029h52.902c16.506-.397 30.254 15.791 27.191 32.014z" fill="#000000" data-original="#000000"/><path d="M317.092 167.208c5.034-4.908 6.813-12.111 4.64-18.797-2.173-6.687-7.845-11.469-14.803-12.48l-22.108-3.212a3.305 3.305 0 0 1-2.49-1.81l-9.887-20.033c-3.112-6.305-9.413-10.222-16.444-10.222s-13.332 3.917-16.444 10.222l-9.887 20.034a3.307 3.307 0 0 1-2.49 1.809l-22.108 3.212c-6.958 1.011-12.63 5.793-14.803 12.48-2.173 6.686-.394 13.889 4.64 18.797l15.997 15.594c.78.76 1.135 1.854.951 2.927l-3.776 22.019c-1.188 6.93 1.607 13.802 7.295 17.935 5.704 4.145 13.112 4.657 19.311 1.396l19.773-10.396a3.307 3.307 0 0 1 3.079 0l19.774 10.395c6.223 3.273 13.623 2.738 19.31-1.395 5.688-4.133 8.484-11.005 7.296-17.935l-3.776-22.019a3.308 3.308 0 0 1 .951-2.928zm-26.489 4.831a18.333 18.333 0 0 0-5.274 16.23l3.776 22.019c.113 3.134-1.853 4.563-4.799 3.487l-19.774-10.396a18.34 18.34 0 0 0-17.066 0l-19.774 10.396c-2.943 1.075-4.913-.353-4.799-3.487l3.776-22.018a18.331 18.331 0 0 0-5.274-16.231L205.4 156.445c-1.933-2.468-1.183-4.781 1.833-5.642l22.108-3.212a18.333 18.333 0 0 0 13.806-10.031l9.887-20.033c1.75-2.602 4.181-2.603 5.932 0l9.887 20.033a18.333 18.333 0 0 0 13.806 10.031l22.108 3.212c3.015.861 3.767 3.173 1.834 5.642z" fill="#000000" data-original="#000000"/></g></svg>