<svg xmlns="http://www.w3.org/2000/svg" xmlns:xlink="http://www.w3.org/1999/xlink" xmlns:svgjs="http://svgjs.com/svgjs" version="1.1" width="512" height="512" x="0" y="0" viewBox="0 0 496 496" style="enable-background:new 0 0 512 512" xml:space="preserve" class=""><g><path d="M16 48h240v56c0 4.426 3.574 8 8 8h56v64h16v-72a7.986 7.986 0 0 0-2.352-5.664l-63.976-63.977A7.992 7.992 0 0 0 264 32H48V16h304v176h16V8c0-4.426-3.574-8-8-8H40a7.99 7.99 0 0 0-8 8v24H8a7.99 7.99 0 0 0-8 8v448c0 4.426 3.574 8 8 8h272v-16H16zm256 11.313L308.688 96H272zm0 0" fill="#000000" data-original="#000000" class=""/><path d="M440 240h-12.047c-35.723 0-69.32-15.734-92.183-43.168l-1.618-1.945c-3.03-3.657-9.265-3.657-12.297 0l-1.617 1.937C297.368 224.266 263.77 240 228.047 240H216a7.99 7.99 0 0 0-8 8v129.566c0 31.504 16.992 60.786 44.344 76.41l71.687 40.97a7.988 7.988 0 0 0 7.938 0l71.687-40.97C431.008 438.353 448 409.07 448 377.567V248c0-4.426-3.574-8-8-8zm-8 137.566c0 25.778-13.895 49.73-36.281 62.512L328 478.793l-67.719-38.703C237.895 427.297 224 403.344 224 377.566V256h4.047c38.176 0 74.226-15.863 99.953-43.77 25.719 27.907 61.777 43.77 99.953 43.77H432zm0 0" fill="#000000" data-original="#000000" class=""/><path d="M328 264c-48.52 0-88 39.48-88 88s39.48 88 88 88 88-39.48 88-88-39.48-88-88-88zm0 160c-39.703 0-72-32.297-72-72s32.297-72 72-72 72 32.297 72 72-32.297 72-72 72zm0 0" fill="#000000" data-original="#000000" class=""/><path d="m324.184 376.871-14.528-14.527-11.312 11.312 24 24A7.98 7.98 0 0 0 328 400c.648 0 1.305-.078 1.953-.238a8.028 8.028 0 0 0 5.711-5.465l24-80-15.328-4.594zM32 128h208v16H32zM32 160h208v16H32zM32 192h208v16H32zM32 224h160v16H32zM32 256h160v16H32zM32 288h160v16H32zM32 384h160v16H32zM32 416h160v16H32zM32 448h160v16H32zM40 64h16v16H40zM72 64h16v16H72zM104 64h16v16h-16zM136 64h104v16H136zm0 0" fill="#000000" data-original="#000000" class=""/></g></svg>