<svg width="45" height="45" viewBox="0 0 45 45" fill="none" xmlns="http://www.w3.org/2000/svg">
<circle cx="22.5" cy="22.5" r="22.5" fill="url(#paint0_linear_281_4470)"/>
<path fill-rule="evenodd" clip-rule="evenodd" d="M26.1312 8.00061C26.1045 7.99942 26.0776 8.00002 26.0509 8.002C25.8447 8.01927 25.6575 8.13561 25.543 8.31746L16.1139 23.3918C15.9754 23.6106 15.9622 23.8921 16.0799 24.1239C16.1975 24.3558 16.4267 24.5001 16.6757 24.4994H20.5902L19.1376 34.1803C19.0895 34.511 19.2661 34.8326 19.5618 34.9525C19.8575 35.0726 20.1924 34.9589 20.3665 34.6791L29.7942 19.6104C29.9337 19.3918 29.947 19.1097 29.8294 18.8774C29.7117 18.645 29.482 18.5004 29.2324 18.5014H25.3193L26.7719 8.82054C26.8014 8.61982 26.7482 8.41553 26.6257 8.25888C26.5033 8.10225 26.3234 8.00814 26.1311 8.0006L26.1312 8.00061Z" fill="white"/>
<defs>
<linearGradient id="paint0_linear_281_4470" x1="0" y1="0" x2="54.2406" y2="20.2565" gradientUnits="userSpaceOnUse">
<stop stop-color="#63C018"/>
<stop offset="1" stop-color="#068B30"/>
</linearGradient>
</defs>
</svg>
