<svg xmlns="http://www.w3.org/2000/svg" xmlns:xlink="http://www.w3.org/1999/xlink" xmlns:svgjs="http://svgjs.com/svgjs" version="1.1" width="512" height="512" x="0" y="0" viewBox="0 0 512.002 512.002" style="enable-background:new 0 0 512 512" xml:space="preserve" class=""><g><path d="M275.2 400.77a7.299 7.299 0 0 0-7.299 7.299v15.084a7.299 7.299 0 0 0 7.299 7.299 7.299 7.299 0 0 0 7.299-7.299v-15.084a7.3 7.3 0 0 0-7.299-7.299zM181.52 342.376h-48.63c-5.645 0-10.237 4.592-10.237 10.237v61.427h-.001c0 5.645 4.593 10.237 10.237 10.237h48.631c5.645 0 10.237-4.592 10.237-10.237v-61.427c0-5.645-4.593-10.237-10.237-10.237zm-4.36 67.304h-39.91v-52.707h39.91v52.707zM379.11 342.376h-48.632c-5.644 0-10.236 4.592-10.236 10.237v61.427c0 5.645 4.592 10.237 10.236 10.237h48.632c5.644 0 10.236-4.592 10.236-10.237v-61.427c0-5.645-4.592-10.237-10.236-10.237zm-4.361 67.304H334.84v-52.707h39.909v52.707zM181.52 203.487h-48.63c-5.645 0-10.237 4.592-10.237 10.237v61.427h-.001c0 5.645 4.593 10.237 10.237 10.237h48.631c5.645 0 10.237-4.592 10.237-10.237v-61.427c0-5.645-4.593-10.237-10.237-10.237zm-4.36 67.304h-39.91v-52.707h39.91v52.707zM280.315 203.487h-48.631c-5.645 0-10.237 4.592-10.237 10.237v61.427c0 5.645 4.593 10.237 10.237 10.237h48.631c5.645 0 10.237-4.592 10.237-10.237v-61.427c0-5.645-4.592-10.237-10.237-10.237zm-4.36 67.304h-39.91v-52.707h39.91v52.707zM379.11 203.487h-48.632c-5.644 0-10.236 4.592-10.236 10.237v61.427c0 5.645 4.592 10.237 10.236 10.237h48.632c5.644 0 10.236-4.592 10.236-10.237v-61.427c0-5.645-4.592-10.237-10.236-10.237zm-4.361 67.304H334.84v-52.707h39.909v52.707zM181.521 75.792H132.89c-5.645 0-10.237 4.592-10.237 10.237v61.427c-.001 5.645 4.592 10.237 10.237 10.237h48.631c5.645 0 10.237-4.592 10.237-10.237V86.029c0-5.645-4.593-10.237-10.237-10.237zm-4.361 67.304h-39.91V90.389h39.91v52.707zM280.315 75.792h-48.631c-5.645 0-10.237 4.592-10.237 10.237v61.427c0 5.645 4.593 10.237 10.237 10.237h48.631c5.645 0 10.237-4.592 10.237-10.237V86.029c0-5.645-4.592-10.237-10.237-10.237zm-4.36 67.304h-39.91V90.389h39.91v52.707zM379.111 75.792h-48.632c-5.644 0-10.236 4.592-10.236 10.237v61.427c-.001 5.645 4.591 10.237 10.236 10.237h48.632c5.644 0 10.236-4.592 10.236-10.237V86.029c0-5.645-4.592-10.237-10.236-10.237zm-4.362 67.304H334.84V90.389h39.909v52.707z" fill="#000000" data-original="#000000"/><path d="M468.287 472.101H456.95c-1.429-18.844-14.642-34.438-32.275-39.416l-.245-388.682h8.853c5.231 0 9.486-4.255 9.486-9.485V9.485c0-5.23-4.255-9.485-9.486-9.485h-50.8c-4.031 0-7.299 3.267-7.299 7.299s3.267 7.299 7.299 7.299h45.688v14.808H83.83V14.598h253.005c4.031 0 7.299-3.267 7.299-7.299S340.866 0 336.835 0H78.717c-5.23 0-9.485 4.255-9.485 9.485v25.034c0 5.23 4.255 9.485 9.485 9.485h8.571l.155 245.467a7.298 7.298 0 0 0 7.299 7.294h.005a7.3 7.3 0 0 0 7.294-7.304l-.155-245.458h307.946l.244 387.075c-.024.001-.047.005-.071.006-.254.014-.506.044-.759.063-.601.045-1.202.09-1.797.158-.325.037-.645.091-.968.135-.519.071-1.039.14-1.553.23-.349.06-.694.136-1.041.204-.481.095-.963.189-1.439.3-.359.083-.712.179-1.068.271-.459.119-.917.237-1.37.37-.358.105-.712.221-1.067.335a43.64 43.64 0 0 0-1.323.442c-.354.126-.704.261-1.055.396-.429.166-.857.334-1.28.513-.349.147-.694.3-1.038.456a42.452 42.452 0 0 0-3.457 1.751c-.328.185-.654.372-.977.565-.395.236-.784.48-1.172.729-.315.202-.629.404-.939.613-.385.261-.763.532-1.14.805-.299.217-.599.432-.893.656-.376.287-.744.586-1.111.886-.282.23-.566.456-.842.693-.37.317-.729.647-1.089.977-.26.238-.523.47-.777.715-.371.356-.728.728-1.087 1.098-.229.236-.464.465-.688.707-.389.419-.762.854-1.136 1.29-.18.21-.368.411-.545.625a45.356 45.356 0 0 0-1.58 2.02c-.834.173-1.656.381-2.469.611-.268.076-.529.166-.795.248-.542.168-1.081.34-1.612.533-.305.11-.604.23-.905.349a34.824 34.824 0 0 0-2.344 1.017 34.37 34.37 0 0 0-1.381.701c-.284.151-.568.3-.848.459-.484.275-.957.567-1.426.863-.232.147-.47.286-.699.438a35.5 35.5 0 0 0-2.011 1.43c-.042.032-.081.068-.122.1-.612.474-1.207.968-1.786 1.479-.209.185-.408.381-.613.57a35.48 35.48 0 0 0-1.187 1.14c-.225.228-.442.463-.661.697a36.097 36.097 0 0 0-1.66 1.9c-.327.402-.642.813-.951 1.229-.189.254-.379.506-.561.765-.325.463-.633.937-.937 1.416-.142.225-.292.444-.43.671a35.601 35.601 0 0 0-1.219 2.179c-.027.053-.05.109-.077.162-.35.692-.677 1.398-.983 2.115-.11.259-.206.524-.31.785-.154.385-.317.765-.457 1.157h-47.31V354.786c0-6.843-5.567-12.41-12.41-12.41h-69.3c-6.843 0-12.41 5.567-12.41 12.41v117.316h-47.308c-.141-.392-.304-.773-.458-1.159-.104-.261-.2-.526-.31-.783a35.473 35.473 0 0 0-.972-2.092c-.031-.061-.057-.125-.088-.187a35.41 35.41 0 0 0-1.216-2.173c-.14-.233-.293-.456-.439-.686a36.883 36.883 0 0 0-.927-1.401c-.184-.263-.377-.517-.568-.775a36.962 36.962 0 0 0-.943-1.218 35.668 35.668 0 0 0-1.661-1.901c-.22-.236-.439-.472-.666-.702-.384-.389-.78-.763-1.181-1.134-.207-.191-.408-.389-.619-.575a35.563 35.563 0 0 0-1.787-1.479c-.041-.032-.079-.067-.121-.099a36.077 36.077 0 0 0-2.013-1.431c-.227-.151-.462-.288-.692-.434a35.872 35.872 0 0 0-1.433-.867c-.278-.158-.56-.306-.842-.456-.458-.244-.919-.48-1.388-.705a40.69 40.69 0 0 0-.899-.415c-.477-.212-.96-.411-1.447-.603-.298-.117-.595-.236-.897-.345a37.034 37.034 0 0 0-1.621-.536c-.263-.081-.522-.171-.788-.246a35.62 35.62 0 0 0-2.47-.612 45.13 45.13 0 0 0-1.576-2.015c-.178-.215-.366-.417-.547-.628a44.446 44.446 0 0 0-1.128-1.28c-.227-.245-.465-.478-.697-.717-.355-.365-.708-.732-1.074-1.084-.256-.246-.52-.48-.781-.72a43.04 43.04 0 0 0-1.081-.971c-.277-.238-.561-.466-.844-.696-.365-.298-.73-.594-1.103-.88-.295-.225-.595-.442-.894-.66a44.622 44.622 0 0 0-1.135-.801c-.309-.21-.622-.412-.936-.614a45.583 45.583 0 0 0-1.17-.728 44.647 44.647 0 0 0-4.427-2.317c-.34-.154-.681-.308-1.025-.454-.427-.181-.858-.35-1.291-.517-.345-.133-.689-.268-1.037-.392-.444-.159-.894-.304-1.344-.449-.346-.111-.69-.227-1.039-.33-.466-.138-.938-.258-1.41-.381-.341-.088-.679-.183-1.022-.263-.504-.118-1.015-.217-1.524-.317-.317-.063-.631-.134-.949-.19a44.102 44.102 0 0 0-1.826-.27c-.23-.03-.457-.072-.688-.099a45.22 45.22 0 0 0-2.507-.223l-.06-95.362a7.298 7.298 0 0 0-7.299-7.294h-.005a7.3 7.3 0 0 0-7.294 7.304l.061 96.888c-17.738 4.913-31.05 20.557-32.484 39.476H43.713c-11 0-19.949 8.949-19.949 19.949 0 11.001 8.949 19.949 19.949 19.949h424.575c11.001 0 19.949-8.949 19.949-19.949 0-11.003-8.949-19.952-19.95-19.952zm-101.03-.847.037-.05c.306-.396.631-.778.963-1.151.084-.095.17-.188.256-.282a21.62 21.62 0 0 1 1.006-1.025l.053-.052a21.326 21.326 0 0 1 1.43-1.221c.376-.296.76-.583 1.155-.853.02-.014.039-.029.059-.042a21.12 21.12 0 0 1 1.611-.982c.424-.236.855-.462 1.297-.668l.051-.026a21.244 21.244 0 0 1 1.764-.717c.47-.168.944-.326 1.428-.462.01-.003.02-.007.031-.009a20.79 20.79 0 0 1 1.885-.425 20.805 20.805 0 0 1 1.55-.229 7.301 7.301 0 0 0 5.424-3.387c5.51-8.808 14.987-14.066 25.351-14.066.599 0 1.216.022 1.843.063l.096.007c.625.043 1.26.104 1.904.187.028.004.056.003.083.006 13.522 1.783 24.226 12.637 25.769 26.233h-75.648c.198-.287.392-.575.602-.849zm-78.794-114.281v115.128h-64.926V356.973h64.926zM95.69 445.842l.032-.002a31.683 31.683 0 0 1 1.81-.169l.106-.008a28.243 28.243 0 0 1 1.755-.057c10.363 0 19.841 5.258 25.352 14.066a7.286 7.286 0 0 0 3.231 2.792 7.28 7.28 0 0 0 2.198.596 21.176 21.176 0 0 1 1.932.302 20.79 20.79 0 0 1 1.499.351l.032.01a20.32 20.32 0 0 1 1.796.598c.472.179.94.369 1.395.581.014.006.027.014.041.021a20.678 20.678 0 0 1 1.644.864c.433.251.86.511 1.274.791.016.01.03.022.046.033a21.49 21.49 0 0 1 1.468 1.102c.387.315.766.639 1.129.981l.046.045c.35.33.685.676 1.011 1.03a22.72 22.72 0 0 1 1.218 1.43l.047.063c.208.271.399.556.594.837h-75.65c1.551-13.668 12.365-24.565 25.994-26.257zm372.597 51.561H43.713c-2.951 0-5.352-2.401-5.352-5.352s2.401-5.352 5.352-5.352h424.574c2.951 0 5.352 2.401 5.352 5.352s-2.401 5.352-5.352 5.352z" fill="#000000" data-original="#000000"/></g></svg>