<svg width="41" height="41" viewBox="0 0 41 41" fill="none" xmlns="http://www.w3.org/2000/svg">
<g clip-path="url(#clip0_1153_994)">
<path d="M0 16.8423C0 16.3319 0 15.8216 0 15.3112C0 14.8008 0.170124 14.4606 0.170124 13.9502C0.510373 11.3983 1.361 9.18672 2.72199 7.14523C4.42324 4.59336 6.80498 2.72199 9.52697 1.361C12.5892 0 15.8216 -0.340249 19.2241 0.340249C22.6266 1.02075 25.6888 2.72199 28.0705 5.44398C30.4523 8.16598 31.8133 11.2282 32.1535 14.971C32.4938 18.5436 31.6432 21.9461 29.6017 25.0083C29.6017 25.1784 29.4315 25.1784 29.4315 25.3485C30.2822 25.5187 30.7925 26.029 31.473 26.5394C34.3651 29.4315 37.2573 32.3237 39.9793 35.2158C40.1494 35.3859 40.3195 35.556 40.4896 35.8963C41.3402 37.0871 41.3402 38.7884 40.4896 39.9793C39.9792 40.6598 39.1286 41.1701 38.278 41.3402C37.9378 41.3402 37.7676 41.3402 37.4274 41.3402C36.4066 41.1701 35.556 40.4896 34.8755 39.8091C32.3236 37.2573 29.9419 34.8755 27.39 32.3237C26.5394 31.473 25.6888 30.7925 25.3485 29.6017C25.1784 29.7718 25.0083 29.7718 25.0083 29.7718C22.9668 31.1328 20.7552 31.9834 18.3734 32.3237C15.3112 32.6639 12.249 32.3237 9.52697 30.9627C4.25311 28.4108 1.19087 24.1577 0.340249 18.3734C0.170124 17.6929 0 17.3527 0 16.8423ZM28.0705 15.9917C28.0705 9.35685 22.6266 4.08299 15.9917 4.08299C9.35685 4.08299 4.08299 9.52697 4.08299 15.9917C4.08299 22.6266 9.52697 28.0705 15.9917 27.9004C22.6266 28.0705 28.0705 22.6266 28.0705 15.9917Z" fill="#351266"/>
</g>
<defs>
<clipPath id="clip0_1153_994">
<rect width="41" height="41" fill="white"/>
</clipPath>
</defs>
</svg>
