<svg width="20" height="20" viewBox="0 0 20 20" fill="none" xmlns="http://www.w3.org/2000/svg">
<path fill-rule="evenodd" clip-rule="evenodd" d="M10 0C4.47607 0 0 4.47714 0 10C0 15.5239 4.47714 20 10 20C15.5239 20 20 15.5229 20 10C20 4.47607 15.5229 0 10 0ZM4.27057 6.5638C4.44572 6.25049 4.78095 6.03893 5.16571 6.03893H15.0132C15.3626 6.03893 15.6713 6.2138 15.8562 6.4807L9.98701 10.375L4.27057 6.5638ZM4.14114 8.01838V13.0963C4.14114 13.6614 4.60025 14.1196 5.16571 14.1196H15.0132C15.5791 14.1196 16.0378 13.662 16.0378 13.0963V7.89883L10.1611 11.7981L10.0532 11.96L9.9853 11.9148L9.92003 11.9581L9.81671 11.8024L4.14114 8.01838Z" fill="white"/>
</svg>
