<svg xmlns="http://www.w3.org/2000/svg" xmlns:xlink="http://www.w3.org/1999/xlink" xmlns:svgjs="http://svgjs.com/svgjs" version="1.1" width="512" height="512" x="0" y="0" viewBox="0 0 512 512" style="enable-background:new 0 0 512 512" xml:space="preserve" class=""><g><path d="M504.485 72.141H353.961l-90.447-45.223V7.515a7.515 7.515 0 1 0-15.029 0v19.403l-90.447 45.223H7.515A7.514 7.514 0 0 0 0 79.656v32.063a7.515 7.515 0 0 0 7.515 7.515h16.532V384.25a7.515 7.515 0 0 0 7.515 7.515h216.924v68.511l-59.637 37.865c-3.457 2.195-4.511 6.916-2.316 10.373 2.195 3.457 6.914 4.508 10.372 2.317l51.581-32.751v26.406a7.515 7.515 0 1 0 15.03 0v-26.52l52.628 32.892c3.754 2.346 8.846.855 10.76-3.124 1.637-3.405.407-7.621-2.794-9.621l-60.593-37.871v-68.477h116.394a7.515 7.515 0 1 0 0-15.03H39.076V119.233h433.847v257.503h-56.277a7.515 7.515 0 1 0 0 15.03h63.792a7.515 7.515 0 0 0 7.515-7.515V119.233h16.532a7.515 7.515 0 0 0 7.515-7.515V79.656a7.514 7.514 0 0 0-7.515-7.515zm-240.97-.501V43.72l56.841 28.42H263.49c.011-.165.025-.331.025-.5zm-15.03-27.92v27.92c0 .169.014.335.025.501h-56.866l56.841-28.421zm248.486 60.483H15.029V87.17H496.97v17.033z" fill="#000000" data-original="#000000"/><path d="M384.25 320.626h-40.579V175.843a7.515 7.515 0 0 0-7.515-7.515h-32.063a7.515 7.515 0 0 0-7.515 7.515v144.783h-17.033v-112.72a7.515 7.515 0 0 0-7.515-7.515h-32.063a7.515 7.515 0 0 0-7.515 7.515v112.72h-17.033v-88.673a7.515 7.515 0 0 0-7.515-7.515h-32.063a7.515 7.515 0 0 0-7.515 7.515v88.673h-33.065V159.812a7.515 7.515 0 1 0-15.03 0v168.329a7.515 7.515 0 0 0 7.515 7.515H384.25a7.515 7.515 0 1 0 0-15.03zm-183.859 0h-17.033v-81.159h17.033v81.159zm64.126 0h-17.033V215.421h17.033v105.205zm64.125 0h-17.033V183.358h17.033v137.268z" fill="#000000" data-original="#000000"/></g></svg>