<svg width="33" height="33" viewBox="0 0 33 33" fill="none" xmlns="http://www.w3.org/2000/svg">
<path d="M16.5 0.640625C7.75 0.640625 0.640625 7.75 0.640625 16.5C0.640625 25.25 7.75 32.3594 16.5 32.3594C25.25 32.3594 32.3594 25.25 32.3594 16.5C32.3594 7.75 25.25 0.640625 16.5 0.640625ZM16.5 30.7188C8.65234 30.7188 2.28125 24.3477 2.28125 16.5C2.28125 8.65234 8.65234 2.28125 16.5 2.28125C24.3477 2.28125 30.7188 8.65234 30.7188 16.5C30.7188 24.3477 24.3477 30.7188 16.5 30.7188Z" fill="white"/>
<path d="M17.0469 10.2109H13.7656C13.3008 10.2109 12.9453 10.5664 12.9453 11.0312V23.3359C12.9453 23.8008 13.3008 24.1562 13.7656 24.1562C14.2305 24.1562 14.5859 23.8008 14.5859 23.3359V19.5078H17.0469C19.6172 19.5078 21.6953 17.4297 21.6953 14.8594C21.6953 12.2891 19.6172 10.2109 17.0469 10.2109ZM17.0469 17.8672H14.5859V11.8516H17.0469C18.7148 11.8516 20.0547 13.1914 20.0547 14.8594C20.0547 16.5273 18.7148 17.8672 17.0469 17.8672Z" fill="white"/>
</svg>
