<svg width="29" height="35" viewBox="0 0 29 35" fill="none" xmlns="http://www.w3.org/2000/svg">
<path d="M16.5592 17.0066C16.2761 17.0066 16.0466 17.2361 16.0466 17.5193C16.0466 18.3721 15.3528 19.0659 14.5 19.0659C13.6472 19.0659 12.9534 18.3721 12.9534 17.5193C12.9534 17.2361 12.7239 17.0066 12.4407 17.0066C12.1576 17.0066 11.928 17.2361 11.928 17.5193C11.928 18.9375 13.0818 20.0912 14.5 20.0912C15.9182 20.0912 17.0719 18.9375 17.0719 17.5193C17.0719 17.2361 16.8424 17.0066 16.5592 17.0066Z" fill="white"/>
<path d="M12.2482 15.0645C12.2482 13.6965 11.1352 12.5835 9.76717 12.5835C8.39916 12.5835 7.28613 13.6965 7.28613 15.0645C7.28613 15.3477 7.51568 15.5772 7.79883 15.5772C8.08197 15.5772 8.31152 15.3477 8.31152 15.0645C8.31152 14.2619 8.96449 13.6089 9.76717 13.6089C10.5698 13.6089 11.2228 14.2619 11.2228 15.0645C11.2228 15.3477 11.4524 15.5772 11.7355 15.5772C12.0187 15.5772 12.2482 15.3477 12.2482 15.0645Z" fill="white"/>
<path d="M19.2329 12.5835C17.8649 12.5835 16.7519 13.6965 16.7519 15.0645C16.7519 15.3477 16.9814 15.5772 17.2646 15.5772C17.5477 15.5772 17.7773 15.3477 17.7773 15.0645C17.7773 14.2619 18.4303 13.6089 19.2329 13.6089C20.0355 13.6089 20.6886 14.2619 20.6886 15.0645C20.6886 15.3477 20.9181 15.5772 21.2013 15.5772C21.4844 15.5772 21.714 15.3477 21.714 15.0645C21.714 13.6965 20.601 12.5835 19.2329 12.5835Z" fill="white"/>
<path d="M24.4819 10.0712C23.961 7.49875 22.4572 5.21719 20.2355 3.71267C20.0105 2.44528 19.143 1.46822 18.0436 0.809785C17.8005 0.664248 17.4857 0.743272 17.3403 0.986289C17.1948 1.22917 17.2738 1.54403 17.5167 1.68957C17.9133 1.92698 18.1131 2.13787 18.187 2.18818C18.7646 2.61488 19.2342 3.46746 19.257 4.17067C19.2772 4.76725 19.1102 5.43368 18.6463 5.76919C18.642 5.77233 18.6377 5.77548 18.6336 5.77869C18.244 6.07927 17.9613 6.48771 17.9613 6.9758C17.9613 6.97908 17.9617 6.98236 17.9617 6.98558C17.9649 7.39389 18.1401 7.62508 18.3372 7.94951C17.4915 7.59671 16.7454 7.19783 16.109 6.75753C15.3475 6.23082 14.4446 6.83334 14.168 7.54619C13.9338 8.13777 14.1833 8.53125 14.4552 8.97887C13.2368 8.4698 12.219 7.86379 11.4674 7.19537C10.5113 6.34505 10.0059 5.40818 10.0059 4.48622C10.0059 3.89402 10.0047 3.96881 10.0095 3.8675C10.0782 2.41391 11.7209 0.706631 15.4639 1.06265C15.7461 1.08958 15.996 0.882656 16.0228 0.600811C16.0496 0.318965 15.8428 0.0687012 15.5609 0.0419043C15.1714 0.00478516 14.819 0 14.5554 0C14.3888 0 14.2279 0.0021875 14.1025 0.0021875C11.4633 0.0021875 9.28459 1.55593 9.01027 3.54416C7.63392 4.41752 6.4794 5.61695 5.66155 7.02803C5.11324 7.97405 4.72496 9.00368 4.50757 10.072C2.54764 10.2221 0.998413 11.8637 0.998413 13.8615C0.998413 15.8589 2.54703 17.5002 4.50648 17.6509C4.97037 19.9282 6.20172 21.9295 7.91727 23.3731C5.84038 24.9759 4.62002 27.4351 4.62002 30.0874V31.0896C4.62002 31.3728 4.84958 31.6023 5.13272 31.6023C5.41586 31.6023 5.64542 31.3728 5.64542 31.0896V30.0874C5.64542 28.2226 6.33195 26.4666 7.54068 25.1169V25.8606C7.54068 29.7055 10.6687 32.8336 14.5137 32.8336C18.3586 32.8336 21.4867 29.7055 21.4867 25.8606V25.1178C22.0323 25.7278 22.4762 26.4256 22.7992 27.1917C22.7994 27.1922 22.7997 27.1927 22.7999 27.1932C23.1862 28.1099 23.382 29.0836 23.382 30.0874V33.9746H5.64535V33.4821C5.64535 33.199 5.4158 32.9695 5.13265 32.9695C4.84951 32.9695 4.61996 33.199 4.61996 33.4821V34.4873C4.61996 34.7705 4.84951 35 5.13265 35H23.8946C24.1778 35 24.4073 34.7705 24.4073 34.4873V30.0874C24.4073 28.946 24.1844 27.8383 23.7447 26.7948C23.7445 26.7943 23.7442 26.7938 23.744 26.7933C23.1743 25.442 22.2754 24.2767 21.124 23.3842C21.1138 23.3764 21.1039 23.3684 21.0937 23.3607C21.0924 23.3596 21.091 23.3585 21.0896 23.3574C22.7953 21.9153 24.0195 19.9205 24.4818 17.6517C26.4468 17.5068 28.0017 15.8628 28.0017 13.8614C28.0017 11.8601 26.4469 10.2162 24.4819 10.0712ZM4.34987 16.6013C3.03238 16.3855 2.0238 15.239 2.0238 13.8614C2.0238 12.4837 3.03238 11.3373 4.34987 11.1215C4.29245 11.7197 4.26585 15.7253 4.34987 16.6013ZM20.4613 25.8605C20.4613 29.14 17.7931 31.8081 14.5136 31.8081C11.2341 31.8081 8.566 29.14 8.566 25.8605V24.168C8.63306 24.1164 8.70087 24.0665 8.7691 24.0176C9.05429 24.2104 9.35008 24.3887 9.6549 24.5523V25.8606C9.6549 28.5396 11.8345 30.7193 14.5137 30.7193C17.1928 30.7193 19.3725 28.5396 19.3725 25.8606V24.5318C19.6708 24.37 19.96 24.1937 20.2394 24.0038C20.314 24.057 20.3882 24.1114 20.4614 24.1677L20.4613 25.8605ZM10.6803 25.8605V25.0305C12.0022 25.5588 13.2405 25.7487 14.564 25.7487C15.9008 25.7487 17.1777 25.4876 18.347 25.0147V25.8605C18.347 27.9742 16.6273 29.6938 14.5136 29.6938C12.3999 29.6938 10.6803 27.9742 10.6803 25.8605ZM23.5487 17.0486C22.843 21.5266 18.9512 24.7233 14.5 24.7233C11.1593 24.7233 9.20003 22.9766 8.9605 22.8946C7.11542 21.5039 5.81467 19.4281 5.43972 17.0486C5.29562 16.13 5.32843 15.7214 5.32843 12.0955C5.32843 9.30843 6.6475 6.5532 8.99414 4.79903C9.24495 7.67758 12.7483 9.56621 15.4974 10.4543C15.9486 10.6001 16.338 10.1032 16.0932 9.70026L15.1548 8.15568C15.1387 8.12916 15.1268 8.10407 15.1186 8.08001C15.077 7.97993 15.1497 7.86522 15.1531 7.85928C15.202 7.77725 15.2871 7.68927 15.4026 7.60382C15.4544 7.57511 15.5026 7.58194 15.5256 7.60074C15.758 7.76152 16.0038 7.91663 16.2614 8.06661C16.6524 8.29432 17.0711 8.50965 17.5178 8.71131C18.094 8.97148 18.7153 9.20944 19.3787 9.42382C19.5825 9.48965 19.8059 9.42184 19.9386 9.25381C20.0714 9.08578 20.0857 8.85281 19.9745 8.66982L19.0362 7.1253C18.8571 6.83074 19.232 6.63592 19.4569 6.42708C19.8715 6.04187 20.1109 5.52535 20.2187 4.96986C22.3991 6.69778 23.6597 9.30904 23.6597 12.0955C23.66 15.897 23.6894 16.1512 23.5487 17.0486ZM24.6384 16.6033C24.7229 15.7255 24.6967 11.7267 24.6387 11.1197C25.9619 11.3307 26.9763 12.4799 26.9763 13.8614C26.9763 15.2432 25.9616 16.3924 24.6384 16.6033Z" fill="white"/>
</svg>
