<svg width="31" height="33" viewBox="0 0 31 33" fill="none" xmlns="http://www.w3.org/2000/svg">
<path d="M3.3086 3.5352C3.25782 3.48442 3.19753 3.44413 3.13118 3.41665C3.06483 3.38916 2.99371 3.37502 2.92189 3.37502C2.85008 3.37502 2.77896 3.38916 2.71261 3.41665C2.64626 3.44413 2.58597 3.48442 2.53519 3.5352L0.894561 5.17583C0.843776 5.22661 0.803491 5.2869 0.776006 5.35325C0.748521 5.4196 0.734375 5.49072 0.734375 5.56254C0.734375 5.63436 0.748521 5.70547 0.776006 5.77182C0.803491 5.83818 0.843776 5.89846 0.894561 5.94925L5.9766 11.0313H4.56252C4.41748 11.0313 4.27838 11.0889 4.17582 11.1915C4.07326 11.294 4.01564 11.4331 4.01564 11.5782V13.7657C4.01564 13.9107 4.07326 14.0498 4.17582 14.1524C4.27838 14.2549 4.41748 14.3125 4.56252 14.3125V17.0469C4.56399 18.3518 5.08301 19.6029 6.00572 20.5256C6.92844 21.4483 8.17948 21.9673 9.4844 21.9688H12.5391L10.5995 23.9083C9.64511 23.2642 8.49496 22.9754 7.34952 23.0924C6.20407 23.2093 5.13599 23.7245 4.33146 24.5482C3.52694 25.3719 3.03699 26.4518 2.94704 27.5996C2.85708 28.7475 3.17283 29.8906 3.83923 30.8295C4.50563 31.7684 5.48042 32.4437 6.59366 32.7377C7.70691 33.0316 8.888 32.9255 9.93105 32.4379C10.9741 31.9503 11.8129 31.1121 12.3014 30.0694C12.7898 29.0268 12.8968 27.8457 12.6037 26.7323L16.3819 22.9545C16.8777 23.0985 17.4043 23.0985 17.9001 22.9545L22.8083 27.8627C22.5337 28.6816 22.5438 29.5692 22.837 30.3816C23.1301 31.194 23.6892 31.8835 24.4235 32.3382C25.1578 32.793 26.0241 32.9863 26.8821 32.8868C27.74 32.7873 28.5391 32.4009 29.1498 31.7901C29.7606 31.1794 30.147 30.3803 30.2465 29.5224C30.346 28.6644 30.1527 27.7981 29.6979 27.0638C29.2432 26.3295 28.5537 25.7704 27.7413 25.4773C26.9289 25.1841 26.0413 25.174 25.2224 25.4486L21.7422 21.9688H24.7969C26.1018 21.9673 27.3529 21.4483 28.2756 20.5256C29.1983 19.6029 29.7173 18.3518 29.7188 17.0469V14.3125C29.8638 14.3125 30.0029 14.2549 30.1055 14.1524C30.208 14.0498 30.2656 13.9107 30.2656 13.7657V11.5782C30.2656 11.4331 30.208 11.294 30.1055 11.1915C30.0029 11.0889 29.8638 11.0313 29.7188 11.0313H29.4557C28.1764 9.11155 28.6099 6.78651 28.6144 6.76354C28.642 6.62573 28.6154 6.4826 28.5403 6.36384C28.4651 6.24509 28.3471 6.15983 28.2108 6.12575C24.3226 5.15375 24.2512 1.87147 24.25 1.73441C24.25 1.64605 24.2286 1.55901 24.1876 1.48073C24.1466 1.40246 24.0873 1.33528 24.0146 1.28495C23.942 1.23463 23.8583 1.20265 23.7706 1.19175C23.6829 1.18086 23.5939 1.19138 23.5111 1.2224C19.4723 2.7367 15.8532 0.220731 15.8179 0.195643C15.7534 0.149833 15.6798 0.118576 15.602 0.104035C15.5243 0.0894931 15.4443 0.0920146 15.3677 0.111424V0.110126L13.1802 0.657001C13.1099 0.674527 13.0438 0.705836 12.9858 0.74911C12.9277 0.792384 12.8788 0.84676 12.8419 0.909084C12.805 0.971407 12.7809 1.04044 12.7709 1.11216C12.7609 1.18389 12.7652 1.25689 12.7837 1.32692L15.3375 11.0313H10.8047L3.3086 3.5352ZM15.0549 18.5628L4.24219 7.75004L5.1094 6.88283L16.0486 17.822C15.6653 17.9901 15.3254 18.2434 15.0549 18.5628ZM2.92189 4.69526L4.33598 6.10941L3.46877 6.97662L2.05462 5.56254L2.92189 4.69526ZM5.1094 12.125H7.07035L8.1641 13.2188H5.1094V12.125ZM9.4844 20.875C8.46946 20.8739 7.49643 20.4702 6.77876 19.7525C6.0611 19.0349 5.65741 18.0618 5.65627 17.0469V14.3125H9.25785L14.5143 19.5694C14.465 19.7397 14.4325 19.9143 14.4172 20.091L13.6329 20.875H9.4844ZM7.84377 31.8125C7.08664 31.8125 6.34651 31.588 5.71698 31.1674C5.08745 30.7467 4.59679 30.1489 4.30704 29.4494C4.0173 28.7499 3.94149 27.9802 4.0892 27.2376C4.23691 26.495 4.6015 25.8129 5.13688 25.2775C5.67225 24.7421 6.35436 24.3776 7.09694 24.2298C7.83952 24.0821 8.60923 24.1579 9.30873 24.4477C10.0082 24.7374 10.6061 25.2281 11.0267 25.8576C11.4474 26.4872 11.6719 27.2273 11.6719 27.9844C11.6708 28.9993 11.2671 29.9724 10.5494 30.69C9.83174 31.4077 8.8587 31.8114 7.84377 31.8125ZM12.1627 25.6264C11.9627 25.2621 11.7175 24.9245 11.433 24.6215L14.6345 21.42C14.8026 21.8033 15.0559 22.1431 15.3753 22.4136L12.1627 25.6264ZM15.5 20.3282C15.5 20.0037 15.5962 19.6865 15.7765 19.4167C15.9568 19.1469 16.213 18.9366 16.5128 18.8124C16.8126 18.6882 17.1425 18.6558 17.4607 18.7191C17.779 18.7824 18.0713 18.9386 18.3007 19.1681C18.5302 19.3975 18.6864 19.6898 18.7497 20.0081C18.813 20.3263 18.7806 20.6562 18.6564 20.956C18.5322 21.2558 18.3219 21.512 18.0521 21.6923C17.7823 21.8726 17.4651 21.9688 17.1406 21.9688C16.7057 21.9683 16.2887 21.7953 15.9811 21.4877C15.6735 21.1801 15.5005 20.7631 15.5 20.3282ZM29.1719 29.0782C29.1719 29.619 29.0115 30.1476 28.7111 30.5973C28.4106 31.047 27.9836 31.3974 27.4839 31.6044C26.9843 31.8114 26.4345 31.8655 25.9041 31.76C25.3737 31.6545 24.8864 31.3941 24.504 31.0117C24.1216 30.6292 23.8612 30.142 23.7557 29.6116C23.6502 29.0812 23.7043 28.5314 23.9113 28.0318C24.1182 27.5321 24.4687 27.1051 24.9184 26.8046C25.368 26.5042 25.8967 26.3438 26.4375 26.3438C27.1625 26.3446 27.8575 26.6329 28.3701 27.1456C28.8827 27.6582 29.1711 28.3532 29.1719 29.0782ZM23.334 26.8415L18.9064 22.4139C19.2257 22.1434 19.4791 21.8035 19.6471 21.4203L24.2012 25.9743C23.8678 26.2153 23.575 26.5081 23.334 26.8415ZM28.625 17.0469C28.6239 18.0618 28.2202 19.0349 27.5025 19.7525C26.7849 20.4702 25.8118 20.8739 24.7969 20.875H20.6484L19.8641 20.0906C19.8074 19.4504 19.5273 18.8505 19.0728 18.396C18.6183 17.9415 18.0184 17.6614 17.3782 17.6047L14.0859 14.3125H28.625V17.0469ZM28.1886 11.0313H20.551L27.4442 7.58468C27.4246 8.45722 27.5384 9.76124 28.1886 11.0313ZM26.6681 6.74987L19.5709 10.2985L23.4577 3.30224C23.5423 3.5513 23.6436 3.79437 23.7609 4.02978C24.2057 4.91941 25.0578 6.03121 26.6681 6.74987ZM22.5821 2.62596L18.429 10.1016L16.3408 1.74966C17.6539 2.38608 19.9523 3.17133 22.5821 2.62596ZM13.9824 1.58402L15.1022 1.30375L17.534 11.0313H16.4685L13.9824 1.58402ZM29.1719 12.125V13.2188H12.9922L11.8984 12.125H29.1719Z" fill="white"/>
<path d="M26.4375 30.7188C26.762 30.7188 27.0792 30.6225 27.349 30.4423C27.6188 30.262 27.8291 30.0057 27.9532 29.706C28.0774 29.4062 28.1099 29.0763 28.0466 28.7581C27.9833 28.4398 27.827 28.1475 27.5976 27.918C27.3682 27.6886 27.0758 27.5323 26.7576 27.469C26.4393 27.4057 26.1094 27.4382 25.8097 27.5624C25.5099 27.6866 25.2536 27.8968 25.0734 28.1666C24.8931 28.4364 24.7969 28.7536 24.7969 29.0781C24.7974 29.5131 24.9704 29.9301 25.278 30.2377C25.5855 30.5452 26.0025 30.7182 26.4375 30.7188ZM26.4375 28.5313C26.5457 28.5313 26.6514 28.5633 26.7413 28.6234C26.8313 28.6835 26.9014 28.7689 26.9427 28.8688C26.9841 28.9688 26.995 29.0787 26.9739 29.1848C26.9528 29.2909 26.9007 29.3883 26.8242 29.4648C26.7477 29.5413 26.6503 29.5934 26.5442 29.6145C26.4381 29.6356 26.3281 29.6248 26.2282 29.5834C26.1283 29.542 26.0429 29.4719 25.9828 29.382C25.9227 29.292 25.8906 29.1863 25.8906 29.0781C25.8908 28.9331 25.9485 28.7941 26.051 28.6916C26.1535 28.5891 26.2925 28.5314 26.4375 28.5313Z" fill="white"/>
<path d="M7.84375 25.25C7.30294 25.25 6.77428 25.4104 6.32461 25.7108C5.87495 26.0113 5.52448 26.4383 5.31752 26.938C5.11056 27.4376 5.05641 27.9874 5.16192 28.5178C5.26742 29.0482 5.52785 29.5355 5.91026 29.9179C6.29267 30.3003 6.77988 30.5607 7.3103 30.6662C7.84072 30.7717 8.39051 30.7176 8.89015 30.5106C9.38979 30.3036 9.81684 29.9532 10.1173 29.5035C10.4178 29.0538 10.5781 28.5252 10.5781 27.9844C10.5773 27.2594 10.289 26.5644 9.77635 26.0518C9.26373 25.5392 8.5687 25.2508 7.84375 25.25ZM7.84375 29.625C7.51927 29.625 7.20207 29.5288 6.93227 29.3485C6.66247 29.1682 6.45219 28.912 6.32801 28.6122C6.20384 28.3124 6.17135 27.9826 6.23465 27.6643C6.29795 27.3461 6.45421 27.0537 6.68365 26.8243C6.9131 26.5948 7.20543 26.4386 7.52368 26.3753C7.84193 26.312 8.17181 26.3445 8.47159 26.4686C8.77138 26.5928 9.02761 26.8031 9.20788 27.0729C9.38816 27.3427 9.48438 27.6599 9.48438 27.9844C9.48387 28.4193 9.31086 28.8363 9.00329 29.1439C8.69572 29.4515 8.27872 29.6245 7.84375 29.625Z" fill="white"/>
</svg>
