<svg width="31" height="35" viewBox="0 0 31 35" fill="none" xmlns="http://www.w3.org/2000/svg">
<path d="M29.4367 19.5489H27.4733C27.2121 17.155 26.2559 14.8697 24.7149 13.0035C24.5346 12.785 24.2115 12.7541 23.9931 12.9346C23.7746 13.1148 23.7439 13.4379 23.9242 13.6564C25.3135 15.3389 26.184 17.3934 26.4407 19.5489H3.84922C4.51359 13.9087 9.32598 9.51822 15.1456 9.51822C17.7702 9.51822 20.2354 10.3861 22.2753 12.0278C22.4958 12.2053 22.8187 12.1703 22.996 11.9498C23.1736 11.7292 23.1386 11.4064 22.9183 11.2288C21.0758 9.74599 18.8319 8.82341 16.4885 8.56653V8.02606C17.1627 7.69201 17.6012 7.10882 17.6012 6.4319C17.6012 5.36966 16.5227 4.5376 15.1456 4.5376C13.7685 4.5376 12.69 5.36966 12.69 6.4319C12.69 7.10882 13.1285 7.69201 13.8027 8.02606V8.56573C8.03383 9.18977 3.4396 13.7832 2.81769 19.5489H0.854492C0.383186 19.5489 0 19.9323 0 20.4034V21.5124C0 21.9837 0.383186 22.3668 0.854492 22.3668H1.60671C1.62941 22.4106 1.65478 22.4542 1.68442 22.4972L2.64305 23.8876C2.95147 24.3348 3.59341 24.6721 4.13681 24.6721H6.58279L7.65812 26.7376C7.96333 27.3234 8.6544 28.0356 9.23119 28.3582L12.9255 30.4244H12.8281C12.3568 30.4244 11.9736 30.8076 11.9736 31.2789V34.1455C11.9736 34.6168 12.3568 35 12.8281 35H22.3068C22.7781 35 23.1613 34.6168 23.1613 34.1455V31.2789C23.1613 30.8076 22.7781 30.4244 22.3068 30.4244H21.742V30.2319C21.742 29.7331 21.9081 28.9245 22.1046 28.4663L23.6334 24.9017C23.666 24.8251 23.6911 24.7485 23.71 24.6718H26.1547C26.6978 24.6718 27.34 24.3348 27.6484 23.8876L28.6068 22.4972C28.6364 22.4542 28.6618 22.4106 28.6845 22.3668H29.4367C29.908 22.3668 30.2912 21.9837 30.2912 21.5124V20.4034C30.2912 19.9323 29.908 19.5489 29.4367 19.5489ZM15.4631 8.49737C15.3574 8.4947 15.2516 8.49283 15.1456 8.49283C15.0396 8.49283 14.9336 8.49443 14.8281 8.4971V8.31071C14.932 8.32059 15.0377 8.3262 15.1456 8.3262C15.2535 8.3262 15.3592 8.32059 15.4631 8.31071V8.49737ZM13.7154 6.4319C13.7154 5.91974 14.4692 5.56299 15.1456 5.56299C15.822 5.56299 16.5758 5.91974 16.5758 6.4319C16.5758 6.94406 15.822 7.30081 15.1456 7.30081C14.4692 7.30081 13.7154 6.94406 13.7154 6.4319ZM22.1359 31.4498V33.9746H20.17V31.4498H22.1359ZM21.1623 28.062C20.9124 28.6447 20.7166 29.598 20.7166 30.2319V30.4244H18.4269C18.1438 30.4244 17.9142 30.6538 17.9142 30.9371C17.9142 31.2202 18.1438 31.4498 18.4269 31.4498H19.1446V33.9746H12.999V31.4498H16.0343C16.3173 31.4498 16.547 31.2202 16.547 30.9371C16.547 30.6538 16.3173 30.4244 16.0343 30.4244H14.454C14.2521 30.1117 13.988 29.8437 13.694 29.6792L9.73186 27.4631C9.32625 27.2364 8.78231 26.6759 8.56789 26.2639L7.73903 24.6718H9.41463L9.68914 25.2144C10.0085 25.8462 10.7586 26.4826 11.4336 26.6948L14.2855 27.5915C14.8762 27.7774 15.8239 27.9229 16.4428 27.9229H17.6565C18.3937 27.9229 19.2675 27.4668 19.6891 26.8623L21.0635 24.8916C21.1164 24.8158 21.1885 24.7415 21.2723 24.6718H22.6163L21.1623 28.062ZM10.5637 24.6718H19.9663L18.848 26.2759C18.621 26.6011 18.0533 26.8975 17.6565 26.8975H16.4426C15.9296 26.8975 15.0826 26.7675 14.5929 26.6134L11.7413 25.7167C11.3372 25.5896 10.7952 25.1295 10.604 24.7517L10.5637 24.6718ZM26.8041 23.3055C26.6853 23.4777 26.3638 23.6464 26.1547 23.6464H4.13681C3.92746 23.6464 3.60596 23.4777 3.48713 23.3055L2.84012 22.3668H27.4511L26.8041 23.3055ZM29.2658 21.3415H1.02539V20.5743H29.2658V21.3415Z" fill="white"/>
<path d="M6.355 8.13341H8.22714C8.51019 8.13341 8.73984 7.90376 8.73984 7.62071C8.73984 7.33739 8.51019 7.10802 8.22714 7.10802H6.355C5.7128 7.10802 5.19049 6.58491 5.19049 5.94244C5.19049 5.2997 5.7128 4.77686 6.355 4.77686H7.60363C7.88668 4.77686 8.11633 4.54721 8.11633 4.26416C8.11633 3.98084 7.88668 3.75146 7.60363 3.75146H6.355C5.1475 3.75146 4.1651 4.7344 4.1651 5.94244C4.1651 7.15047 5.1475 8.13341 6.355 8.13341Z" fill="white"/>
<path d="M9.36151 1.02539H11.0155C11.7661 1.02539 12.3771 1.63689 12.3771 2.38831C12.3771 3.13999 11.7661 3.75149 11.0155 3.75149H10.0187C9.73562 3.75149 9.50597 3.98087 9.50597 4.26418C9.50597 4.54723 9.73562 4.77688 10.0187 4.77688H11.0155C12.3317 4.77688 13.4025 3.70529 13.4025 2.38831C13.4025 1.07159 12.3317 0 11.0155 0H9.36151C9.07819 0 8.84882 0.229378 8.84882 0.512695C8.84882 0.796013 9.07819 1.02539 9.36151 1.02539Z" fill="white"/>
<path d="M19.3839 8.16895C19.6669 8.16895 19.8966 7.93957 19.8966 7.65625V6.63967C19.8966 6.21964 20.2378 5.87811 20.6571 5.87811H23.6726C24.7934 5.87811 25.7047 4.96593 25.7047 3.84468C25.7047 2.72369 24.7931 1.81152 23.6726 1.81152H22.6243C22.341 1.81152 22.1116 2.0409 22.1116 2.32422C22.1116 2.60754 22.341 2.83691 22.6243 2.83691H23.6726C24.2278 2.83691 24.6793 3.28899 24.6793 3.84468C24.6793 4.40063 24.2278 4.85271 23.6726 4.85271H20.6571C19.6723 4.85271 18.8712 5.65434 18.8712 6.63967V7.65625C18.8712 7.93957 19.1008 8.16895 19.3839 8.16895Z" fill="white"/>
<path d="M14.8038 32.0264H13.9151C13.6321 32.0264 13.4024 32.2557 13.4024 32.5391C13.4024 32.8224 13.6321 33.0518 13.9151 33.0518H14.8038C15.0869 33.0518 15.3165 32.8224 15.3165 32.5391C15.3165 32.2557 15.0869 32.0264 14.8038 32.0264Z" fill="white"/>
</svg>
