<svg width="21" height="20" viewBox="0 0 21 20" fill="none" xmlns="http://www.w3.org/2000/svg">
<g clip-path="url(#clip0_1161_1122)">
<path d="M0 7.66621C0.0617526 7.53939 0.111155 7.40849 0.189375 7.28985C0.419918 6.93395 0.778083 6.81123 1.18153 6.77441C2.82827 6.63123 4.475 6.47987 6.12174 6.3326C6.36463 6.31215 6.61165 6.2876 6.85866 6.27533C7.01921 6.26715 7.10567 6.2017 7.17154 6.05033C7.9208 4.29128 8.68242 2.53632 9.43168 0.777273C9.57989 0.433645 9.8022 0.175923 10.1645 0.0613805C10.7326 -0.118615 11.3048 0.155469 11.5519 0.728184C12.1076 2.0127 12.6552 3.29722 13.2068 4.58173C13.4209 5.08081 13.6432 5.5758 13.849 6.07897C13.9026 6.20988 13.9767 6.26306 14.1166 6.27533C14.94 6.34487 15.7634 6.41851 16.5867 6.49214C17.7312 6.59441 18.8716 6.69668 20.012 6.81123C20.4854 6.86032 20.8106 7.13031 20.9506 7.5803C21.0988 8.04665 20.9629 8.45164 20.5924 8.77482C19.8226 9.4498 19.0527 10.1207 18.2829 10.7916C17.5789 11.4052 16.879 12.0229 16.1668 12.6284C16.0557 12.7225 16.0557 12.8084 16.0845 12.927C16.5168 14.8047 16.9449 16.6783 17.3772 18.556C17.546 19.2964 17.1549 19.8977 16.4262 20.0041C16.1421 20.045 15.891 19.9509 15.6481 19.8078C14.3266 19.0182 13.001 18.2328 11.6754 17.4473C11.346 17.251 11.0167 17.0628 10.6914 16.8583C10.5597 16.7724 10.465 16.7724 10.325 16.8542C8.67418 17.8401 7.02333 18.8219 5.37248 19.8037C5.08841 19.9755 4.792 20.0614 4.45442 19.9877C3.89041 19.8609 3.48696 19.2964 3.60635 18.7319C3.87806 17.4719 4.17036 16.2201 4.45854 14.9642C4.61498 14.2851 4.7673 13.602 4.92786 12.9229C4.95668 12.7961 4.93609 12.7184 4.83317 12.6284C3.39639 11.3848 1.96785 10.1289 0.526956 8.88527C0.279945 8.67255 0.0988042 8.43528 0.00411684 8.12847C0 7.96484 0 7.81348 0 7.66621Z"/>
</g>
<defs>
<clipPath id="clip0_1161_1122">
<rect width="21" height="20"/>
</clipPath>
</defs>
</svg>
