<svg xmlns="http://www.w3.org/2000/svg" xmlns:xlink="http://www.w3.org/1999/xlink" xmlns:svgjs="http://svgjs.com/svgjs" version="1.1" width="512" height="512" x="0" y="0" viewBox="0 0 64 64" style="enable-background:new 0 0 512 512" xml:space="preserve" class=""><g><path d="M32 9C19.32 9 9 19.32 9 32s10.32 23 23 23 23-10.32 23-23S44.68 9 32 9zm0 44c-11.58 0-21-9.42-21-21s9.42-21 21-21 21 9.42 21 21-9.42 21-21 21z" fill="#000000" data-original="#000000" class=""/><path d="M32 17c.55 0 1-.45 1-1v-2c0-.55-.45-1-1-1s-1 .45-1 1v2c0 .55.45 1 1 1zM44.02 18.57l-1.41 1.41a.996.996 0 0 0 .71 1.7c.26 0 .51-.1.71-.29l1.41-1.41a.996.996 0 1 0-1.41-1.41zM50 31h-2c-.55 0-1 .45-1 1s.45 1 1 1h2c.55 0 1-.45 1-1s-.45-1-1-1zM44.02 42.61a.996.996 0 1 0-1.41 1.41l1.41 1.41c.2.2.45.29.71.29s.51-.1.71-.29a.996.996 0 0 0 0-1.41l-1.41-1.41zM32 47c-.55 0-1 .45-1 1v2c0 .55.45 1 1 1s1-.45 1-1v-2c0-.55-.45-1-1-1zM19.98 42.61l-1.41 1.41a.996.996 0 0 0 .71 1.7c.26 0 .51-.1.71-.29l1.41-1.41a.996.996 0 1 0-1.41-1.41zM16 31h-2c-.55 0-1 .45-1 1s.45 1 1 1h2c.55 0 1-.45 1-1s-.45-1-1-1zM19.98 18.57a.996.996 0 1 0-1.41 1.41l1.41 1.41c.2.2.45.29.71.29s.51-.1.71-.29a.996.996 0 0 0 0-1.41l-1.41-1.41zM33 31.59V19c0-.55-.45-1-1-1s-1 .45-1 1v13c0 .13.03.26.08.38s.12.23.22.33l7 7c.2.2.45.29.71.29s.51-.1.71-.29a.996.996 0 0 0 0-1.41l-6.71-6.71zM13.67 16c.27 0 .54-.11.73-.32 1.51-1.62 3.23-3.03 5.12-4.18.47-.29.62-.9.33-1.37s-.9-.62-1.37-.33a25.962 25.962 0 0 0-5.54 4.53.996.996 0 0 0 .05 1.41c.19.18.44.27.68.27zM44.48 11.5c1.89 1.15 3.61 2.56 5.12 4.18.2.21.46.32.73.32.24 0 .49-.09.68-.27.4-.38.43-1.01.05-1.41-1.63-1.76-3.5-3.28-5.54-4.53a.992.992 0 0 0-1.37.33.992.992 0 0 0 .33 1.37z" fill="#000000" data-original="#000000" class=""/></g></svg>