<svg width="19" height="19" viewBox="0 0 19 19" fill="none" xmlns="http://www.w3.org/2000/svg">
<path d="M2.97954 3.96931C2.97954 9.41305 3.5734 18.321 5.94885 18.321C8.3243 18.321 9.90794 18.321 10.4028 18.321M1 3.96931C3.70571 3.96931 3.73803 3.96931 6.44374 3.96931M10.4028 3.96931C10.4028 3.96931 8.56965 3.96931 6.44374 3.96931M6.44374 3.96931C6.93862 2.81458 6.93862 1 8.91817 1C10.8977 1 10.7327 1 10.4028 1"  stroke-linecap="round" fill="transparent"/>
<path d="M16.0478 3.96931C16.0478 9.41305 15.4539 18.321 13.0785 18.321C10.703 18.321 9.11941 18.321 8.62452 18.321M18.0273 3.96931C15.3216 3.96931 15.2893 3.96931 12.5836 3.96931M8.62452 3.96931C8.62452 3.96931 10.4577 3.96931 12.5836 3.96931M12.5836 3.96931C12.0887 2.81458 12.0887 1 10.1092 1C8.12964 1 8.2946 1 8.62452 1" stroke-linecap="round" fill="transparent"/>
</svg>
