<svg width="11" height="6" viewBox="0 0 11 6" fill="none" xmlns="http://www.w3.org/2000/svg">
<g clip-path="url(#clip0_1118_613)">
<path d="M11.0001 0.84044C10.9513 1.0711 10.8019 1.2346 10.6343 1.39518C9.11902 2.84336 7.60682 4.29153 6.09158 5.74263C5.85377 5.97037 5.57634 6.06672 5.25316 5.95577C5.13731 5.91489 5.02146 5.8419 4.93304 5.75723C3.36902 4.26818 1.81109 2.77329 0.253164 1.2784C0.0153595 1.05358 -0.0639087 0.782045 0.0549937 0.478396C0.16475 0.195184 0.393408 0.0346002 0.707433 0.00248343C0.96353 -0.0208742 1.1739 0.0754761 1.35073 0.247739C1.71353 0.595184 2.07329 0.93679 2.43304 1.28132C3.4239 2.23022 4.4178 3.18205 5.40865 4.13095C5.43609 4.15723 5.46048 4.18643 5.51841 4.25358C5.5489 4.20102 5.56414 4.16015 5.59158 4.13095C6.93914 2.83752 8.28975 1.54701 9.63731 0.253578C9.86902 0.0346002 10.1373 -0.0588304 10.4574 0.0375199C10.7105 0.113432 10.8782 0.276936 10.9574 0.519272C10.9696 0.557228 10.9849 0.595184 10.9971 0.63606C11.0001 0.703213 11.0001 0.770367 11.0001 0.84044Z"/>
</g>
<defs>
<clipPath id="clip0_1118_613">
<rect width="11" height="6"/>
</clipPath>
</defs>
</svg>
