<svg width="30" height="30" viewBox="0 0 30 30" fill="none" xmlns="http://www.w3.org/2000/svg">
<path d="M15.9348 30C15.3086 30 14.6825 30 14.0564 30C13.9859 29.9844 13.9076 29.9531 13.8372 29.9531C12.4988 29.8592 11.1918 29.5775 9.93166 29.1158C2.5119 26.4476 -1.56584 18.529 0.563038 10.939C3.20065 1.52588 14.0172 -2.89508 22.5171 2.04231C26.5244 4.36625 28.9272 7.88737 29.7725 12.4492C29.8742 12.9813 29.9212 13.529 29.9994 14.0689C29.9994 14.6714 29.9994 15.2817 29.9994 15.8842C29.9838 15.9781 29.9603 16.072 29.9525 16.1659C29.8742 16.7528 29.8194 17.3474 29.7099 17.9343C28.5358 23.975 23.6598 28.7402 17.5862 29.7731C17.0383 29.867 16.4826 29.9218 15.9348 30ZM16.6392 12.6761C16.6392 12.1518 16.6627 11.6198 16.6392 11.0955C16.6157 10.5165 16.3652 10.227 15.8017 10.2035C14.7999 10.1565 13.7902 10.1487 12.7884 10.1722C12.5223 10.18 12.2249 10.3365 12.0057 10.5008C11.7162 10.7199 11.7788 10.9077 12.131 11.0094C12.6319 11.1503 12.8667 11.432 12.8902 11.9562C12.9215 12.59 12.9528 13.2238 12.9371 13.8576C12.9215 14.2567 12.8432 14.6479 12.7493 15.0392C12.6867 15.3208 12.4675 15.3913 12.2327 15.2191C12.0527 15.0861 11.8883 14.9296 11.7475 14.7575C10.9257 13.709 10.2682 12.5587 9.78295 11.3146C9.58728 10.806 9.23508 10.5634 8.68721 10.5634C7.85757 10.5634 7.02793 10.5478 6.1983 10.5478C5.69739 10.5478 5.50172 10.8373 5.69739 11.2911C6.71486 13.5994 7.85757 15.8373 9.41509 17.8404C11.0509 19.9452 13.1563 21.0329 15.8643 20.8138C16.3809 20.7747 16.5766 20.5556 16.6548 20.047C16.7175 19.6323 16.7957 19.2176 16.8975 18.8107C17.0149 18.3647 17.3749 18.2473 17.7506 18.5212C17.9306 18.6542 18.095 18.8107 18.2515 18.975C18.6507 19.3897 19.042 19.8122 19.4412 20.2269C19.8482 20.6416 20.3491 20.8529 20.9361 20.8607C21.3274 20.8686 21.7187 20.8842 22.1101 20.8842C22.6188 20.8842 23.1276 20.892 23.6285 20.8529C24.3016 20.806 24.5677 20.2739 24.2468 19.6792C24.2077 19.6088 24.1607 19.5462 24.1216 19.4836C23.5111 18.5368 22.6893 17.7856 21.9066 16.9953C21.1787 16.2755 21.1709 16.0955 21.7735 15.2661C22.3371 14.4914 22.9319 13.7403 23.4641 12.95C23.7928 12.457 24.0746 11.9327 24.3016 11.385C24.5129 10.8764 24.3329 10.6104 23.7772 10.5869C22.6658 10.5556 21.5544 10.5712 20.443 10.5712C20.1612 10.5712 19.9734 10.7277 19.8638 10.986C19.809 11.1111 19.7542 11.2363 19.7073 11.3615C19.1907 12.6448 18.5176 13.842 17.5706 14.867C17.414 15.0392 17.2731 15.313 16.9836 15.2269C16.6783 15.1331 16.6705 14.8122 16.6627 14.5618C16.6235 13.9437 16.6392 13.3099 16.6392 12.6761Z"/>
</svg>
