<svg width="20" height="20" viewBox="0 0 20 20" fill="none" xmlns="http://www.w3.org/2000/svg">
<path fill-rule="evenodd" clip-rule="evenodd" d="M1.72 14.8403L0 20L5.6 18.5266C6.96586 19.2459 8.52103 19.6552 10.1724 19.6552C15.6 19.6552 20 15.2552 20 9.82759C20 4.4 15.6 0 10.1724 0C4.74483 0 0.344828 4.4 0.344828 9.82759C0.344828 11.6593 0.847241 13.3724 1.72 14.8403ZM14.3149 11.26C14.3149 11.26 15.9883 12.2407 16.4421 13.0983C16.6352 13.4628 16.568 13.9107 16.2763 14.2031L15.6701 14.8093C13.747 16.7324 11.5759 15.7855 9.65282 13.8624L7.89523 12.1048L6.13765 10.3472C4.21454 8.42413 3.26764 6.2531 5.19075 4.32999L5.79696 3.72378C6.08868 3.43206 6.53661 3.36447 6.90144 3.55758C7.75903 4.01137 8.73972 5.68482 8.73972 5.68482C8.95558 6.06344 8.97972 6.51999 8.59489 6.7362C8.59489 6.7362 7.94282 7.27999 7.84903 7.41827C7.4211 8.04999 7.43765 8.63517 8.02834 9.22586L9.4011 10.5986L10.7739 11.9714C11.3645 12.5621 11.9497 12.5786 12.5814 12.1507C12.7197 12.0569 13.2635 11.4048 13.2635 11.4048C13.4794 11.02 13.9363 11.0441 14.3149 11.26Z" fill="white"/>
</svg>
