<svg width="30" height="30" viewBox="0 0 30 30" fill="none" xmlns="http://www.w3.org/2000/svg">
<g clip-path="url(#clip0_1193_124)">
<path d="M16.1117 29.9999C15.3288 29.9999 14.5459 29.9999 13.7709 29.9999C13.7239 29.9059 13.6378 29.9451 13.5673 29.9373C11.9076 29.765 10.3027 29.3734 8.79958 28.653C3.95355 26.3116 1.06472 22.4979 0.156576 17.1886C0.101775 16.8676 0.13309 16.5387 0 16.2254C0 15.3875 0 14.5496 0 13.7039C0.0939457 13.6726 0.0548017 13.5943 0.0626305 13.5316C0.125261 13.0461 0.187891 12.5684 0.281837 12.0829C1.51096 5.66161 6.97547 0.681187 13.5125 0.0625497C16.7458 -0.242854 19.7677 0.422769 22.5861 2.05159C27.7531 5.04297 30.6968 11.0806 29.8669 16.9929C29.452 19.9451 28.2855 22.5684 26.3205 24.8159C23.8935 27.5958 20.8481 29.2716 17.1921 29.8355C16.8319 29.8981 16.4562 29.8824 16.1117 29.9999ZM7.53131 22.4979C8.79958 22.169 10.0052 21.8558 11.2109 21.5347C11.3909 21.4878 11.5475 21.4956 11.7119 21.5817C13.0585 22.263 14.4833 22.5058 15.9708 22.31C20.0652 21.7853 22.9306 18.0422 22.3904 13.9388C21.7563 9.07586 16.5658 6.13929 12.0799 8.11267C8.07933 9.86678 6.44311 14.5653 8.4786 18.4337C8.55689 18.5825 8.57255 18.7156 8.52557 18.8801C8.40031 19.3108 8.28288 19.7415 8.16545 20.1722C7.9619 20.9318 7.75052 21.6914 7.53131 22.4979Z"/>
<path d="M15.0235 8.7549C18.2412 8.74707 20.8873 11.206 21.1848 14.4636C21.4666 17.5646 19.2119 20.4777 16.0961 21.018C14.6008 21.2764 13.1838 21.018 11.8763 20.2506C11.7198 20.1566 11.5867 20.1331 11.4144 20.1801C10.8038 20.3524 10.1931 20.5012 9.5825 20.6656C9.37112 20.7204 9.33198 20.6656 9.38678 20.462C9.54335 19.9217 9.68427 19.3735 9.84868 18.8332C9.92697 18.5748 9.90348 18.3712 9.75473 18.1284C7.55484 14.4088 9.5825 9.78857 13.8022 8.88019C14.2093 8.79406 14.6164 8.77056 15.0235 8.7549ZM16.9964 18.52C17.1451 18.5043 17.3095 18.4887 17.4739 18.4573C18.2646 18.2929 18.797 17.6821 18.8048 16.9381C18.8048 16.7894 18.7813 16.6719 18.6326 16.6014C18.1394 16.3665 17.6462 16.1316 17.1608 15.8966C16.9572 15.8027 16.8163 15.8575 16.6911 16.0454C16.5423 16.249 16.3701 16.437 16.2135 16.6406C16.0726 16.8285 15.916 16.8442 15.7046 16.758C14.7887 16.3587 14.0293 15.7713 13.4656 14.9413C13.1133 14.4244 13.1133 14.4244 13.5047 13.9389C13.583 13.845 13.6457 13.7353 13.7161 13.6257C13.8022 13.4926 13.8022 13.3516 13.7396 13.2028C13.5439 12.7486 13.3638 12.2866 13.1681 11.8246C13.1211 11.7071 13.0585 11.5975 12.9332 11.5427C12.6357 11.4174 12.1269 11.5192 11.8998 11.7541C11.2579 12.4119 11.0543 13.2107 11.4066 14.0407C12.1269 15.7635 13.356 17.0556 15.0157 17.917C15.6185 18.2381 16.2683 18.4887 16.9964 18.52Z"/>
</g>
<defs>
<clipPath id="clip0_1193_124">
<rect width="30" height="30"/>
</clipPath>
</defs>
</svg>
