<svg width="40" height="17" viewBox="0 0 40 17" fill="none" xmlns="http://www.w3.org/2000/svg">
<path d="M12.8328 1.45968L10.603 15.8291L10.8002 16.9847H7.90292L8.10011 15.8291L6.64391 6.78168L5.23322 15.8291L5.43041 16.9847H2.56352L2.76071 15.8291L0.4854 1.49009L0 0.0151367H2.62419L2.47251 0.729806L3.98938 11.1001L5.50626 0.729806L5.32423 0.0151367H7.97876L7.79674 0.729806L9.32878 11.1001L10.8457 0.729806L10.6636 0.0151367H13.3182L12.8328 1.45968Z" fill="url(#paint0_linear_281_4371)"/>
<path d="M21.5549 16.9848H15.1992L15.4723 15.9356V1.03399L15.1992 0H21.5549L21.9341 2.34168L20.842 2.09839H17.8082L17.5655 2.34168V7.1619L17.8082 7.40519H18.6577L19.7043 7.13148V9.79249L18.6577 9.51878H17.8082L17.5655 9.79249V14.5975L17.8082 14.8408H20.842L21.9341 14.5975L21.5549 16.9848Z" fill="url(#paint1_linear_281_4371)"/>
<path d="M24.1949 1.03399L23.9219 0H29.4736L30.5506 1.04919V7.42039L29.4585 8.46959L30.5506 9.5492V15.9356L29.4736 16.9848H23.937L24.2101 15.9356V1.03399H24.1949ZM26.3185 2.34168V7.1619L26.5612 7.40519H28.1843L28.427 7.1619V2.34168L28.1843 2.09839H26.5612L26.3185 2.34168ZM28.4422 9.79249L28.1995 9.5492H26.5764L26.3337 9.79249V14.5975L26.5764 14.8408H28.1843L28.427 14.5975V9.79249H28.4422Z" fill="url(#paint2_linear_281_4371)"/>
<path d="M39.9994 12.7424L39.7264 13.7764V17H33.3707V8.48479L34.4173 7.4356H37.3601L37.6028 7.19231V2.3873L37.3601 2.14401H35.7067L35.464 2.3873V3.20841L35.7522 4.2424H33.0977L33.3707 3.20841V1.07961L34.4173 0H38.6494L39.7264 1.07961V8.5L38.6494 9.57961H35.7067L35.464 9.8229V14.5975L35.7067 14.8408H37.3601L37.6028 14.5975V13.7764L37.3297 12.7424H39.9994Z" fill="url(#paint3_linear_281_4371)"/>
<mask id="mask0_281_4371" style="mask-type:alpha" maskUnits="userSpaceOnUse" x="0" y="0" width="40" height="17">
<path d="M12.8328 1.45968L10.603 15.8291L10.8002 16.9847H7.90292L8.10011 15.8291L6.64391 6.78168L5.23322 15.8291L5.43041 16.9847H2.56352L2.76071 15.8291L0.4854 1.49009L0 0.0151367H2.62419L2.47251 0.729806L3.98938 11.1001L5.50626 0.729806L5.32423 0.0151367H7.97876L7.79674 0.729806L9.32878 11.1001L10.8457 0.729806L10.6636 0.0151367H13.3182L12.8328 1.45968Z" fill="url(#paint4_linear_281_4371)"/>
<path d="M21.5549 16.9848H15.1992L15.4723 15.9356V1.03399L15.1992 0H21.5549L21.9341 2.34168L20.842 2.09839H17.8082L17.5655 2.34168V7.1619L17.8082 7.40519H18.6577L19.7043 7.13148V9.79249L18.6577 9.51878H17.8082L17.5655 9.79249V14.5975L17.8082 14.8408H20.842L21.9341 14.5975L21.5549 16.9848Z" fill="url(#paint5_linear_281_4371)"/>
<path d="M24.1949 1.03399L23.9219 0H29.4736L30.5506 1.04919V7.42039L29.4585 8.46959L30.5506 9.5492V15.9356L29.4736 16.9848H23.937L24.2101 15.9356V1.03399H24.1949ZM26.3185 2.34168V7.1619L26.5612 7.40519H28.1843L28.427 7.1619V2.34168L28.1843 2.09839H26.5612L26.3185 2.34168ZM28.4422 9.79249L28.1995 9.5492H26.5764L26.3337 9.79249V14.5975L26.5764 14.8408H28.1843L28.427 14.5975V9.79249H28.4422Z" fill="url(#paint6_linear_281_4371)"/>
<path d="M39.9994 12.7424L39.7264 13.7764V17H33.3707V8.48479L34.4173 7.4356H37.3601L37.6028 7.19231V2.3873L37.3601 2.14401H35.7067L35.464 2.3873V3.20841L35.7522 4.2424H33.0977L33.3707 3.20841V1.07961L34.4173 0H38.6494L39.7264 1.07961V8.5L38.6494 9.57961H35.7067L35.464 9.8229V14.5975L35.7067 14.8408H37.3601L37.6028 14.5975V13.7764L37.3297 12.7424H39.9994Z" fill="url(#paint7_linear_281_4371)"/>
</mask>
<g mask="url(#mask0_281_4371)">
<rect opacity="0.15" x="-89" y="-69" width="1738" height="798" fill="url(#paint8_linear_281_4371)"/>
</g>
<defs>
<linearGradient id="paint0_linear_281_4371" x1="0" y1="0.0151367" x2="16.8448" y2="4.95233" gradientUnits="userSpaceOnUse">
<stop stop-color="#63C018"/>
<stop offset="1" stop-color="#068B30"/>
</linearGradient>
<linearGradient id="paint1_linear_281_4371" x1="15.1992" y1="0" x2="24.2509" y2="1.34042" gradientUnits="userSpaceOnUse">
<stop stop-color="#63C018"/>
<stop offset="1" stop-color="#068B30"/>
</linearGradient>
<linearGradient id="paint2_linear_281_4371" x1="23.9219" y1="0" x2="32.8368" y2="1.29936" gradientUnits="userSpaceOnUse">
<stop stop-color="#63C018"/>
<stop offset="1" stop-color="#068B30"/>
</linearGradient>
<linearGradient id="paint3_linear_281_4371" x1="33.0977" y1="0" x2="42.3639" y2="1.40494" gradientUnits="userSpaceOnUse">
<stop stop-color="#63C018"/>
<stop offset="1" stop-color="#068B30"/>
</linearGradient>
<linearGradient id="paint4_linear_281_4371" x1="0.590201" y1="2.79312" x2="19.1289" y2="17.0892" gradientUnits="userSpaceOnUse">
<stop stop-color="#00D4D1"/>
<stop offset="1" stop-color="#00B9D4"/>
</linearGradient>
<linearGradient id="paint5_linear_281_4371" x1="4.49173" y1="-2.26603" x2="23.0305" y2="12.0301" gradientUnits="userSpaceOnUse">
<stop stop-color="#00D4D1"/>
<stop offset="1" stop-color="#00B9D4"/>
</linearGradient>
<linearGradient id="paint6_linear_281_4371" x1="7.61017" y1="-6.30911" x2="26.1489" y2="7.98696" gradientUnits="userSpaceOnUse">
<stop stop-color="#00D4D1"/>
<stop offset="1" stop-color="#00B9D4"/>
</linearGradient>
<linearGradient id="paint7_linear_281_4371" x1="11.0934" y1="-10.8278" x2="29.6322" y2="3.46824" gradientUnits="userSpaceOnUse">
<stop stop-color="#00D4D1"/>
<stop offset="1" stop-color="#00B9D4"/>
</linearGradient>
<linearGradient id="paint8_linear_281_4371" x1="-89" y1="-69" x2="1347.64" y2="1099.51" gradientUnits="userSpaceOnUse">
<stop stop-color="#63C018"/>
<stop offset="1" stop-color="#068B30"/>
</linearGradient>
</defs>
</svg>
