<svg width="440" height="195" viewBox="0 0 440 195" fill="none" xmlns="http://www.w3.org/2000/svg">
<g clip-path="url(#clip0_26_1477)">
<path d="M215.094 145.118C211.938 132.624 186.432 129.269 156.892 125.408C149.588 124.447 142.041 123.47 134.721 122.297C102.334 117.182 72.6957 100.91 44.0339 85.1583C29.6867 77.2745 15.0141 69.2278 0 62.6145V63.8525C14.8027 70.4169 29.2963 78.3659 43.4808 86.1682C72.224 101.952 101.959 118.29 134.542 123.437C141.894 124.594 149.442 125.587 156.746 126.548C184.659 130.213 211.011 133.667 213.988 145.411C216.298 154.565 204.391 168.46 177.583 187.876C139.958 215.127 108.401 227.816 78.2427 227.816C61.0976 227.816 44.1152 223.549 27.7347 215.16C17.5355 209.931 8.57253 203.579 0.0162667 197.161V198.578C8.40987 204.849 17.2264 211.039 27.2304 216.17C43.7736 224.656 60.9349 228.957 78.2589 228.957C108.661 228.957 140.446 216.202 178.266 188.805C205.887 168.802 217.583 154.94 215.11 145.134L215.094 145.118Z" fill="#417940" fill-opacity="0.1"/>
<path d="M254.964 99.2482C252.166 99.2482 248.213 101.04 245.301 109.543C242.032 119.121 248.327 121.336 254.996 123.698C256.167 124.105 257.371 124.545 258.542 125.017C261.161 126.076 263.374 126.614 265.098 126.614C267.017 126.614 268.4 125.962 269.197 124.691C271.686 120.733 267.701 111.986 265.862 108.419C262.902 102.685 258.819 99.2645 254.947 99.2645L254.964 99.2482ZM268.514 124.252C267.213 126.32 263.927 126.304 258.835 124.252C257.648 123.779 256.428 123.339 255.257 122.932C248.717 120.619 243.057 118.616 246.066 109.803C248.246 103.418 251.32 100.046 254.947 100.046C258.575 100.046 262.316 103.304 265.13 108.761C268.807 115.944 270.075 121.727 268.498 124.235L268.514 124.252Z" fill="#417940" fill-opacity="0.1"/>
<path d="M34.6968 201.494C47.0594 207.83 57.5677 210.794 67.7506 210.794C77.9336 210.794 87.905 207.586 98.885 203.872C105.115 201.77 112.175 199.376 120.178 197.356C124.245 196.33 127.775 196.216 130.085 196.216C131.63 196.216 133.126 196.281 134.558 196.33C135.924 196.379 137.209 196.444 138.478 196.444C145.066 196.444 150.32 194.88 156.062 187.11C159.934 181.865 161.398 177.809 162.667 174.242C164.586 168.899 166.099 164.681 174.525 158.637C176.689 157.09 179.779 155.868 182.789 154.696C187.603 152.79 191.768 151.161 191.947 148.375C192.093 146.128 189.474 143.619 183.699 140.475C176.802 136.729 166.945 136.224 158.21 136.224C154.322 136.224 150.223 136.338 146.27 136.452C142.301 136.566 138.185 136.696 134.265 136.696C125.497 136.696 119.365 136.094 114.355 134.725C86.0506 127.021 59.5034 112.458 36.0794 99.5902C23.7818 92.8466 11.8584 86.2985 -0.0488281 80.6788V81.5747C11.7282 87.1455 23.5216 93.6285 35.689 100.307C59.1456 113.191 85.7253 127.786 114.143 135.507C119.218 136.892 125.432 137.511 134.265 137.511C138.202 137.511 142.317 137.397 146.302 137.266C150.255 137.152 154.338 137.038 158.21 137.038C166.831 137.038 176.558 137.527 183.309 141.192C188.612 144.075 191.247 146.486 191.133 148.327C190.987 150.591 186.855 152.22 182.496 153.93C179.454 155.135 176.314 156.373 174.07 157.97C165.432 164.159 163.805 168.704 161.918 173.965C160.65 177.484 159.218 181.474 155.412 186.622C149.865 194.115 144.822 195.63 138.478 195.63C137.226 195.63 135.941 195.581 134.59 195.515C133.143 195.45 131.646 195.401 130.085 195.401C127.726 195.401 124.131 195.515 119.983 196.558C111.947 198.578 104.871 200.972 98.6248 203.09C87.7098 206.787 78.2914 209.98 67.7506 209.98C57.2098 209.98 47.3034 207.048 35.0546 200.777C23.8632 195.027 13.7941 187.387 4.05037 179.992C2.70024 178.966 1.35011 177.94 -0.0162948 176.914V177.94C1.18744 178.836 2.37491 179.748 3.56237 180.644C13.3224 188.055 23.424 195.727 34.6805 201.494H34.6968Z" fill="#417940" fill-opacity="0.1"/>
<path d="M42.1957 186.85C54.2168 193.023 65.9939 196.02 78.2264 196.02C85.0747 196.02 99.8611 193.219 112.744 188.544C124.033 184.439 137.502 177.63 137.535 168.476C137.567 157.693 116.778 151.698 104.351 148.115C101.65 147.333 99.308 146.665 97.7627 146.095C75.5099 138.016 53.4197 127.819 28.2552 114.006C18.6416 108.728 9.272 103.581 0.0325317 98.955V99.5088C9.19066 104.102 18.4952 109.201 28.0275 114.446C53.2245 128.275 75.3309 138.488 97.6 146.567C99.1779 147.137 101.52 147.805 104.221 148.587C116.518 152.122 137.095 158.051 137.063 168.476C137.014 184.309 92.4435 195.532 78.2427 195.532C66.0915 195.532 54.3795 192.551 42.4397 186.41C32.5008 181.312 23.0011 174.096 13.8267 167.14C9.38586 163.768 4.81493 160.299 0.0325317 156.927V157.53C4.70106 160.836 9.1744 164.225 13.5339 167.531C22.7408 174.519 32.2405 181.735 42.2283 186.85H42.1957Z" fill="#417940" fill-opacity="0.1"/>
<path d="M47.3847 176.702C57.7466 182.028 67.832 184.602 78.2264 184.618C87.2544 184.618 99.0314 181.931 103.57 176.05C105.538 173.493 106.107 170.496 105.229 167.14C103.163 159.24 86.6525 153.653 74.5826 149.581C70.6786 148.261 67.3114 147.121 65.2456 146.16C51.305 139.677 37.5109 132.103 24.1722 124.789L22.6919 123.975C14.9815 119.74 7.43381 115.602 -5.94361e-05 111.758V112.312C7.35247 116.123 14.8189 120.212 22.4479 124.415L23.9282 125.229C37.2669 132.559 51.0773 140.133 65.0178 146.616C67.1162 147.594 70.4834 148.734 74.4037 150.053C85.6928 153.865 102.74 159.631 104.725 167.271C105.554 170.48 105.034 173.33 103.163 175.757C98.7224 181.507 87.1242 184.13 78.1776 184.13C67.897 184.13 57.8767 181.556 47.5799 176.262C38.5357 171.62 29.4426 164.713 20.6423 158.035C14.2821 153.213 7.45007 148.033 -0.0325928 143.147V143.733C7.33621 148.571 14.0706 153.669 20.3495 158.442C29.1498 165.12 38.2591 172.043 47.3522 176.702H47.3847Z" fill="#417940" fill-opacity="0.1"/>
<path d="M288.701 9.75704C289.514 6.46669 290.311 3.2252 291.059 0H290.23C289.498 3.16004 288.717 6.33638 287.92 9.56158C286.423 15.6048 284.878 21.8434 283.626 28.2286C279.461 49.4856 275.866 77.3559 285.155 104.395C288.928 115.39 298.347 124.366 306.643 132.282C314.028 139.335 320.404 145.427 319.835 150.542C319.575 152.888 317.851 154.989 314.581 156.943C313.068 157.839 310.498 158.295 306.919 158.295C294.427 158.295 272.402 152.773 256.102 147.3C238.372 141.355 216.542 131.875 213.158 120.505C212.085 116.889 212.963 113.224 215.794 109.641C219.421 105.031 223.309 100.991 227.066 97.0655C234.468 89.3608 241.462 82.0797 246.098 71.2802C252.703 55.8709 253.5 39.7938 248.473 23.5049C247.253 19.563 246.033 15.9305 244.943 12.7216C243.349 7.98156 241.95 3.84418 241.007 0H240.161C241.121 3.92562 242.536 8.14444 244.179 12.9822C245.252 16.1912 246.489 19.8073 247.692 23.7492C252.654 39.8426 251.857 55.7243 245.334 70.9544C240.763 81.6236 233.817 88.8559 226.464 96.4954C222.691 100.421 218.787 104.493 215.127 109.136C212.134 112.947 211.19 116.856 212.345 120.75C215.826 132.445 237.916 142.072 255.81 148.082C272.174 153.572 294.296 159.11 306.887 159.11C310.612 159.11 313.329 158.621 314.971 157.644C318.469 155.559 320.323 153.262 320.616 150.64C321.234 145.118 314.727 138.895 307.18 131.696C298.949 123.844 289.612 114.934 285.903 104.119C276.68 77.2582 280.258 49.5182 284.406 28.3752C285.659 22.0226 287.188 15.7839 288.684 9.75704H288.701Z" fill="#417940" fill-opacity="0.1"/>
<path d="M52.4925 166.701C55.7295 168.362 64.8551 171.343 71.4594 171.343C73.8181 171.343 75.6237 170.952 76.8111 170.17C79.3813 168.492 80.5199 166.929 80.2922 165.365C79.7717 161.928 72.3053 159.859 66.3191 158.198C63.8466 157.514 61.7319 156.911 60.5119 156.357C46.2298 149.727 32.273 142.055 18.7717 134.644L17.2751 133.83C11.4191 130.621 5.66074 127.461 -0.0163261 124.447V125.376C5.53061 128.324 11.1589 131.419 16.8847 134.546L18.3813 135.361C31.8989 142.788 45.8719 150.46 60.1703 157.106C61.4391 157.693 63.6026 158.295 66.0914 158.996C71.557 160.511 79.0234 162.596 79.4789 165.511C79.6578 166.701 78.6167 168.052 76.3557 169.502C75.2983 170.186 73.6554 170.528 71.4431 170.528C65.0503 170.528 55.9247 167.564 52.8341 165.984C44.7007 161.814 36.0306 155.233 27.6207 148.848C19.6013 142.772 10.4919 135.849 -0.0325928 129.546V130.507C10.2805 136.713 19.2597 143.521 27.149 149.516C35.5589 155.901 44.2615 162.498 52.4599 166.717L52.4925 166.701Z" fill="#417940" fill-opacity="0.1"/>
<path d="M207.628 14.0898C218.77 48.8502 223.309 67.7454 195.639 83.7573C191.101 86.3798 185.944 88.3345 180.316 89.5236C175.55 90.5335 170.296 91.0548 164.733 91.0548C113.297 91.0548 42.6675 48.0195 4.70107 24.9056L3.39973 24.1237C2.2448 23.4233 1.10613 22.7229 0 22.055V22.9998C0.976 23.5862 1.96827 24.1889 2.9768 24.8078L4.27813 25.5897C42.2933 48.7525 113.07 91.8529 164.733 91.8692C170.361 91.8692 175.664 91.348 180.495 90.3218C186.205 89.1001 191.442 87.1291 196.046 84.4578C224.252 68.1363 219.681 49.0131 208.409 13.8291C206.977 9.38227 205.497 4.73994 204.13 -0.0164185H203.285C204.667 4.82138 206.18 9.54516 207.628 14.0735V14.0898Z" fill="#417940" fill-opacity="0.1"/>
<path d="M142.691 9.12177C143.017 10.3434 143.472 11.8583 143.993 13.5523C145.457 18.3739 145.196 21.6153 143.212 23.2117C142.219 24.0098 140.772 24.417 138.901 24.417C130.963 24.417 117.754 17.3314 113.411 14.9858C111.297 13.8455 109.686 12.9985 108.434 12.3633L101.764 9.0729C95.648 6.07575 89.6781 3.04601 83.9034 -7.49744e-06H82.8624C88.8973 3.19261 95.1437 6.36895 101.553 9.5127L108.222 12.8031C109.475 13.422 111.069 14.2853 113.183 15.4093C117.559 17.7549 130.849 24.8894 138.917 24.8894C140.902 24.8894 142.463 24.4496 143.537 23.5863C145.701 21.8597 146.01 18.439 144.481 13.4057C143.96 11.7117 143.505 10.2131 143.179 8.97517C142.398 6.02688 141.601 3.04601 140.869 -0.0162964H140.365C141.113 3.09488 141.91 6.12462 142.707 9.10548L142.691 9.12177Z" fill="#417940" fill-opacity="0.1"/>
<path d="M192.288 19.0254C196.794 33.099 201.121 50.7562 194.37 62.419C191.036 68.2016 185.163 72.0132 176.965 73.7561C173.289 74.538 169.173 74.9452 164.733 74.9452C117.819 74.9452 49.6784 33.4411 13.0784 11.1416L6.31147 7.02051C4.2456 5.76627 2.13093 4.59347 0 3.48582V4.03964C2.0496 5.09842 4.06667 6.22236 6.06747 7.42773L12.8181 11.5325C49.4669 33.8483 117.673 75.4013 164.733 75.4176C169.206 75.4176 173.37 75.0103 177.063 74.2285C185.407 72.453 191.377 68.5599 194.793 62.6471C201.642 50.8213 197.298 33.0339 192.76 18.8625C190.808 12.7868 188.889 6.46669 187.229 0H186.725C188.384 6.53185 190.336 12.9008 192.305 19.0254H192.288Z" fill="#417940" fill-opacity="0.1"/>
<path d="M153.704 6.18979C153.996 7.29744 154.419 8.64941 154.891 10.2294C157.25 17.9829 160.828 29.6947 157.445 35.1026C156.062 37.3016 153.931 38.7513 151.117 39.3865C149.979 39.6472 148.71 39.7775 147.327 39.7775C135.452 39.7775 117.608 30.1996 108.027 25.0523C106.172 24.0587 104.562 23.1954 103.358 22.5927L102.529 22.1855C101.585 21.7131 100.707 21.2733 99.8935 20.8824L96.7541 19.3349C83.8058 12.9823 71.5082 6.48299 60.1703 0.0325928H59.1943C70.7437 6.62959 83.3015 13.2917 96.5426 19.7747L99.6821 21.3222C100.495 21.7131 101.374 22.1529 102.317 22.6253L103.147 23.0325C104.351 23.6352 105.945 24.4985 107.799 25.4921C117.413 30.6557 135.322 40.2824 147.327 40.2824C148.742 40.2824 150.044 40.1521 151.215 39.8915C154.175 39.2237 156.404 37.7088 157.852 35.3958C161.349 29.8087 157.738 17.9667 155.347 10.1317C154.875 8.56797 154.452 7.21599 154.159 6.10835C153.622 4.10481 153.086 2.08499 152.581 0.0325928H152.077C152.598 2.11757 153.151 4.18626 153.687 6.22237L153.704 6.18979Z" fill="#417940" fill-opacity="0.1"/>
<path d="M164.7 3.25778C167.01 11.9398 169.401 20.9312 169.645 30.1996C169.97 42.1882 165.302 49.0458 155.786 50.5933C154.371 50.8213 152.825 50.9354 151.199 50.9354C134.655 50.9354 110.987 39.1096 98.2669 32.757C97.0307 32.138 95.892 31.5679 94.8509 31.0629L91.7115 29.5155C71.9312 19.8399 53.5824 9.77333 37.8363 0H36.9091C52.8179 9.90364 71.4107 20.1331 91.5 29.9878L94.6395 31.5353C95.6643 32.0402 96.8029 32.6104 98.0555 33.2293C110.809 39.5983 134.558 51.4566 151.215 51.4566C152.874 51.4566 154.452 51.3426 155.883 51.0982C165.692 49.5019 170.491 42.4814 170.149 30.1996C169.889 20.8661 167.498 11.8583 165.188 3.14376C164.911 2.10127 164.635 1.05878 164.358 0.0162889H163.854C164.147 1.10764 164.423 2.199 164.716 3.27407L164.7 3.25778Z" fill="#417940" fill-opacity="0.1"/>
<path d="M181.455 22.5112C181.699 23.2605 181.943 24.0098 182.187 24.7591C184.789 32.6755 187.473 40.8688 183.13 48.7852C179.503 55.3822 172.166 60.7413 164.423 62.419C163.626 62.5982 162.829 62.7285 162.049 62.81C160.113 63.038 158.079 63.152 156.014 63.152C134.167 63.152 108.547 50.5444 89.8408 41.3412L86.7013 39.81C62.6755 28.0006 39.4629 13.8618 18.9832 1.38455C18.1211 0.863304 17.3728 0.407215 16.7059 -7.49744e-06H15.7624C17.3077 0.944748 18.7229 1.80806 18.7229 1.80806C39.2027 14.2853 62.4315 28.4241 86.4899 40.2336L89.6131 41.7647C108.369 50.9842 134.037 63.6244 155.997 63.6244C158.096 63.6244 160.145 63.5104 162.097 63.2823C162.894 63.1846 163.708 63.0543 164.521 62.8751C172.394 61.1648 179.861 55.7243 183.553 48.997C187.994 40.9014 185.277 32.6103 182.642 24.5799C182.398 23.8306 182.154 23.0813 181.91 22.3321C179.617 15.1975 177.372 7.72093 175.501 -0.0162964H174.997C176.867 7.76979 179.145 15.3116 181.438 22.495L181.455 22.5112Z" fill="#417940" fill-opacity="0.1"/>
<path d="M276.322 0.0977333C276.322 0.0977333 276.371 0.0325778 276.403 0H275.736C274.711 1.09136 273.687 2.23158 272.971 3.89304C270.954 8.6494 271.523 13.6012 272.076 18.3902C272.385 21.0615 272.711 23.8144 272.581 26.5183C272.385 30.7697 271.507 35.1677 270.677 39.4354C269.994 42.9538 269.278 46.5862 268.937 50.1372C266.855 71.6874 268.742 91.1689 274.532 108.044C275.736 111.546 280.454 116.938 285.447 122.639C291.824 129.936 298.428 137.478 298.688 142.055C298.754 143.082 298.493 143.88 297.891 144.515C296.167 146.339 291.547 146.681 284.146 145.509C278.778 144.662 273.605 142.414 268.611 140.231C265.7 138.961 262.674 137.641 259.665 136.631C258.819 136.338 257.94 136.061 257.03 135.752C246.212 132.184 231.41 127.281 229.279 118.713C228.27 114.625 230.255 109.95 235.183 104.819C242.943 96.7397 250.978 88.3835 256.411 75.6945C261.617 63.5267 267.619 39.8589 265.326 27.0558C264.854 24.4333 263.764 22.6578 262.707 20.9475C261.291 18.6508 259.958 16.4844 260.559 12.5587C261.015 9.65931 262.137 7.96527 263.13 6.48298C264.317 4.6912 265.358 3.06231 265.065 0H264.577C264.87 2.91571 263.894 4.43058 262.723 6.22236C261.698 7.75351 260.543 9.49642 260.088 12.4936C259.453 16.5984 260.836 18.8462 262.3 21.2081C263.341 22.8859 264.398 24.6125 264.854 27.1536C267.131 39.8752 261.161 63.4126 255.972 75.5153C250.572 88.1229 242.568 96.4465 234.842 104.493C229.799 109.755 227.766 114.576 228.823 118.844C231.003 127.672 245.968 132.624 256.899 136.24C257.81 136.533 258.689 136.827 259.535 137.12C262.528 138.13 265.537 139.433 268.432 140.703C273.459 142.886 278.648 145.15 284.081 146.014C286.993 146.47 289.498 146.714 291.547 146.714C294.898 146.714 297.094 146.111 298.249 144.873C298.933 144.14 299.242 143.196 299.176 142.055C298.9 137.315 292.247 129.708 285.805 122.346C280.844 116.677 276.159 111.318 274.988 107.914C269.213 91.1038 267.343 71.6874 269.408 50.2186C269.75 46.7002 270.466 43.0678 271.149 39.5657C271.995 35.2817 272.857 30.8674 273.052 26.5835C273.182 23.8469 272.857 21.0615 272.548 18.3739C271.979 13.422 271.426 8.76342 273.41 4.12109C274.142 2.41076 275.232 1.25424 276.306 0.114022L276.322 0.0977333Z" fill="#417940" fill-opacity="0.1"/>
<path d="M222.951 9.15436C233.248 41.2598 243.886 74.4402 203.691 97.717C197.689 101.203 190.938 103.744 183.667 105.291C177.795 106.546 171.418 107.181 164.733 107.181C110.369 107.181 42.3909 66.7193 0 40.9177V42.2534C42.5373 68.1201 110.321 108.321 164.716 108.321C171.499 108.321 177.941 107.686 183.895 106.415C191.296 104.835 198.144 102.245 204.261 98.7107C245.253 74.9778 234.468 41.3412 224.041 8.81229C223.097 5.84771 222.154 2.91571 221.259 0H220.072C220.999 3.02973 221.975 6.07576 222.967 9.15436H222.951Z" fill="#417940" fill-opacity="0.1"/>
<path d="M110.922 1.61259C113.981 3.16004 118.145 5.27759 121.837 5.27759C123.383 5.27759 124.717 4.90295 125.823 4.13737C125.92 4.07221 126.002 4.00706 126.099 3.9419C127.303 2.98086 128.084 1.58001 128.555 -7.49863e-06H127.71C127.27 1.35197 126.603 2.50848 125.595 3.30664C125.53 3.37179 125.449 3.42066 125.367 3.46953C124.407 4.12108 123.22 4.46315 121.837 4.46315C118.34 4.46315 114.257 2.39446 111.28 0.879592C110.825 0.651548 110.418 0.439793 110.028 0.244326C110.028 0.244326 109.816 0.146593 109.507 -0.0162964H107.653L109.67 0.977326C110.06 1.17279 110.483 1.38455 110.922 1.61259Z" fill="#417940" fill-opacity="0.1"/>
<path d="M329.514 571.04C351.1 568.58 374.247 543.544 374.54 522.336C374.995 489.823 356.338 463.842 338.282 438.725C335.223 434.457 332.051 430.043 329.058 425.71L327.253 423.104C318.762 410.855 309.132 396.96 305.992 381.958C303.341 369.237 299.29 339.64 303.699 329.41C306.936 321.917 316.143 317.633 325.041 313.496C331.189 310.629 336.996 307.925 341.079 304.228L341.275 304.048C350.579 295.611 358.403 291.283 364.747 291.066C367.627 290.968 371.205 290.838 376.264 290.366C383.047 289.73 387.049 288.737 389.977 288.02C391.831 287.564 393.182 287.222 394.369 287.222C397.297 287.222 399.753 289.307 407.87 296.181C431.864 316.526 431.408 351.905 430.985 386.128C430.432 429.18 429.863 473.713 478.533 487.803C485.527 489.823 492.343 490.866 498.785 490.866C517.085 490.866 532.652 482.672 543.827 467.198C560.224 444.475 564.583 409.03 554.661 378.977C531.774 309.619 477.085 269.956 418.265 232.166C364.796 197.812 313.882 188.348 270.336 182.175C267.18 181.735 264.187 181.507 261.422 181.507C243.772 181.507 235.379 190.499 224.756 201.884C220.69 206.25 216.477 210.746 211.255 215.355C205.269 220.617 197.672 224.217 190.304 227.702C178.299 233.387 166.961 238.746 162.276 250.686C152.337 276.015 176.754 295.741 198.307 313.17C208.278 321.233 217.697 328.84 223.227 336.447C245.106 366.614 238.567 417.484 218.722 446.071C212.524 454.998 200.649 466.025 188.075 477.721C167.254 497.072 143.651 519.013 139.487 537.436C137.535 546.101 138.039 552.161 141.048 555.94C143.57 559.1 147.815 560.631 154.029 560.631C164.261 560.631 178.901 556.412 194.403 551.949C213.354 546.492 234.842 540.302 253.158 540.302C261.893 540.302 269.132 541.654 275.265 544.456C282.324 547.681 288.31 552.324 294.085 556.836C303.634 564.263 312.645 571.284 325.398 571.284C326.732 571.284 328.115 571.202 329.498 571.04H329.514ZM275.622 543.707C269.376 540.856 262.04 539.472 253.174 539.472C234.744 539.472 213.191 545.678 194.191 551.151C178.738 555.598 164.147 559.8 154.029 559.8C148.075 559.8 144.041 558.367 141.699 555.419C138.852 551.851 138.38 546.02 140.284 537.615C144.399 519.436 167.905 497.593 188.628 478.307C201.235 466.595 213.142 455.519 219.388 446.527C239.396 417.712 245.968 366.402 223.878 335.958C218.299 328.27 208.831 320.614 198.811 312.519C177.486 295.285 153.313 275.738 163.025 250.979C167.595 239.349 178.787 234.039 190.645 228.435C198.063 224.933 205.724 221.301 211.792 215.958C217.046 211.332 221.275 206.804 225.358 202.438C235.85 191.199 244.13 182.322 261.438 182.322C264.171 182.322 267.131 182.55 270.238 182.989C313.686 189.147 364.503 198.594 417.842 232.866C476.532 270.575 531.107 310.14 553.912 379.254C563.754 409.079 559.443 444.231 543.193 466.742C532.18 482.005 516.825 490.068 498.801 490.068C492.441 490.068 485.706 489.058 478.777 487.038C457.223 480.799 443.576 467.963 437.085 447.83C431.262 429.799 431.555 407.613 431.831 386.161C432.27 351.759 432.726 316.184 408.44 295.578C396.842 285.74 396.516 285.577 389.814 287.238C386.919 287.955 382.934 288.932 376.215 289.568C371.189 290.04 367.61 290.17 364.747 290.268C358.208 290.496 350.21 294.894 340.754 303.462L340.559 303.641C336.574 307.257 330.815 309.945 324.715 312.779C315.671 316.982 306.318 321.347 302.967 329.117C298.477 339.526 302.544 369.334 305.211 382.154C308.367 397.319 318.046 411.278 326.586 423.609L328.391 426.215C331.385 430.548 334.557 434.962 337.631 439.23C355.606 464.25 374.198 490.1 373.743 522.352C373.45 543.218 350.677 567.831 329.433 570.258C328.082 570.404 326.732 570.486 325.431 570.486C312.954 570.486 304.056 563.547 294.622 556.217C288.798 551.688 282.78 546.997 275.639 543.739L275.622 543.707Z" fill="#417940" fill-opacity="0.1"/>
<path d="M673.521 65.0415C671.39 65.0415 669.308 65.0252 667.259 65.009C665.29 65.009 663.355 64.9764 661.451 64.9764C650.358 64.9764 641.525 65.5791 631.797 68.5274C626.706 70.0748 621.94 72.5018 617.32 74.8637C609.626 78.7894 602.338 82.5032 593.636 82.5032C592.188 82.5032 590.724 82.4055 589.293 82.1937C582.867 81.2653 578.069 77.47 573.416 73.805C568.195 69.6839 563.25 65.7908 556.336 65.7908C555.702 65.7908 555.067 65.8234 554.417 65.8886C550.139 66.3284 543.307 70.1725 536.686 73.9027C532.424 76.2972 528.406 78.5613 525.56 79.6038C521.412 81.135 518.305 81.868 516.044 82.4218C509.212 84.0507 508.35 84.6534 505.015 97.261C504.104 100.747 503.437 104.005 502.786 107.148C500.395 118.844 498.508 128.08 486.064 136.892C477.671 142.837 467.016 145.72 453.482 145.72C440.078 145.72 426.073 142.919 413.71 140.427C407.252 139.123 401.136 137.902 396.614 137.429C393.979 137.152 389.912 136.973 385.748 136.973C373.808 136.973 359.819 141.355 358.843 147.626C358.387 150.607 360.697 155.07 374.394 159.452L375.923 159.941C428.09 176.702 464.478 198.562 501.501 235.407C511.717 245.571 519.525 250.311 526.048 250.311C527.577 250.311 529.09 250.034 530.505 249.513C537.451 246.923 542.51 238.144 548.382 227.979C551.407 222.734 554.84 216.789 558.906 211.055C578.557 183.331 606.747 163.068 638.288 154.011C647.592 151.34 656.685 149.988 665.29 149.988C693.383 149.988 713.212 163.768 731.984 177.94V176.914C713.245 162.791 693.415 149.174 665.29 149.174C656.604 149.174 647.446 150.542 638.06 153.23C606.34 162.335 577.987 182.712 558.239 210.583C554.156 216.333 550.724 222.311 547.682 227.572C541.891 237.606 536.898 246.255 530.228 248.748C528.894 249.253 527.495 249.497 526.048 249.497C519.736 249.497 512.123 244.838 502.071 234.837C464.95 197.894 428.464 175.969 376.167 159.175L374.638 158.686C364.39 155.412 359.07 151.519 359.656 147.773C360.469 142.56 372.913 137.804 385.764 137.804C389.896 137.804 393.93 137.967 396.533 138.244C401.022 138.716 407.122 139.938 413.564 141.241C425.959 143.733 440.013 146.551 453.498 146.551C467.195 146.551 478.012 143.619 486.552 137.576C499.256 128.568 501.176 119.186 503.6 107.327C504.25 104.184 504.901 100.942 505.828 97.4727C509.13 84.914 509.814 84.7511 516.255 83.2199C518.549 82.6661 521.672 81.9331 525.869 80.3857C528.781 79.3106 532.831 77.0302 537.109 74.6194C543.339 71.1173 550.415 67.1265 554.514 66.703C555.133 66.6378 555.751 66.6053 556.352 66.6053C562.989 66.6053 567.821 70.4169 572.945 74.4402C577.678 78.1704 582.574 82.0308 589.211 82.9919C590.691 83.2036 592.204 83.3177 593.685 83.3177C602.582 83.3177 610.293 79.392 617.727 75.5967C622.314 73.2674 627.047 70.8404 632.058 69.3255C641.704 66.3935 650.455 65.8071 661.468 65.8071C663.371 65.8071 665.29 65.8071 667.259 65.8397C669.308 65.856 671.39 65.8723 673.521 65.8723C683.46 65.8723 692.342 67.0288 700.703 69.4232C711.26 72.4367 721.622 76.6555 732 81.5748V80.6789C721.703 75.8248 711.423 71.6385 700.931 68.6414C692.505 66.2306 683.542 65.0578 673.521 65.0578V65.0415Z" fill="#417940" fill-opacity="0.1"/>
<path d="M302.365 0H301.177C298.672 8.77971 296.915 18.3902 295.891 28.9616C294.085 47.3355 292.491 71.3942 296.248 94.5733C298.981 111.481 304.479 119.007 314.06 119.007C320.177 119.007 327.285 116.042 335.532 112.589C341.258 110.194 347.179 107.735 353.491 105.943C354.093 105.764 354.695 105.601 355.313 105.438C373.32 100.6 393.621 99.916 415.158 103.418C420.932 104.363 426.788 105.976 432.465 107.539C440.729 109.82 449.269 112.182 457.939 112.573C462.64 112.784 465.991 112.296 468.35 111.123C475.263 107.67 471.896 99.0527 468.35 89.931C466.251 84.5393 464.072 78.9522 463.714 73.9516C461.811 47.3681 476.646 23.1465 496.247 0H494.751C475.296 23.0976 460.672 47.3355 462.591 74.033C462.966 79.2129 465.162 84.8814 467.309 90.3545C470.822 99.3622 473.848 107.132 467.862 110.113C465.698 111.188 462.429 111.644 458.004 111.449C449.464 111.074 440.989 108.728 432.791 106.464C427.098 104.884 421.209 103.255 415.369 102.311C393.67 98.7921 373.206 99.4925 355.052 104.363C354.434 104.526 353.832 104.689 353.214 104.868C346.822 106.676 340.868 109.168 335.126 111.563C327.009 114.951 319.982 117.883 314.093 117.883C305.179 117.883 300.022 110.634 297.403 94.3941C293.662 71.329 295.256 47.3681 297.046 29.0757C298.087 18.4553 299.86 8.81229 302.397 0L302.365 0Z" fill="#417940" fill-opacity="0.1"/>
<path d="M362.779 46.6025C364.959 46.6025 367.48 46.2767 370.506 45.6089C373.499 44.941 376.346 44.3058 378.899 43.9637C383.259 43.3773 387.472 43.133 391.213 42.9212C395.491 42.6769 399.33 41.5204 402.958 39.4028C418.102 30.5417 424.43 12.3958 426.447 5.01697C426.935 3.24148 427.423 1.5963 427.895 -7.49863e-06H427.39C426.935 1.54744 426.463 3.16004 425.991 4.88666C423.991 12.2167 417.712 30.1996 402.73 38.9793C399.168 41.0643 395.41 42.1882 391.181 42.4325C387.456 42.6443 383.226 42.8886 378.851 43.475C376.264 43.8171 373.418 44.4524 370.408 45.1202C367.431 45.7881 364.943 46.0975 362.795 46.0975C359.201 46.0975 356.695 45.1691 355.134 43.2633C352.824 40.4453 352.499 35.412 354.093 27.4142L354.353 26.1111C356.517 15.0998 360.258 6.61328 366.13 -0.0162964H365.479C359.705 6.62957 356.029 15.0835 353.865 26.0133L353.605 27.3165C351.978 35.4772 352.336 40.6408 354.743 43.5728C356.403 45.5926 359.022 46.5862 362.779 46.5862V46.6025Z" fill="#417940" fill-opacity="0.1"/>
<path d="M365.919 29.4177C367.171 31.8448 369.871 33.0827 373.938 33.0827C374.995 33.0827 376.167 33.0013 377.403 32.8221C382.169 32.1868 386.626 31.9262 390.579 31.6982C391.75 31.633 392.84 31.4538 393.897 31.1606C395.069 30.8186 396.191 30.3462 397.281 29.7109C406.081 24.5636 416.475 9.3987 416.817 0.0162964H416.004C415.646 9.02405 405.3 24.075 396.874 29.0105C395.833 29.6132 394.792 30.0693 393.67 30.3788C392.661 30.6557 391.636 30.8349 390.481 30.9C386.545 31.1281 382.071 31.3887 377.273 32.0402C371.645 32.8058 368.017 31.7796 366.618 29.0594C364.715 25.3781 366.976 18.2598 372.507 10.5063C375.516 6.28752 379.566 2.86685 384.934 0.0325853H383.226C378.411 2.78541 374.67 6.05947 371.84 10.034C366.049 18.1621 363.82 25.4107 365.886 29.434L365.919 29.4177Z" fill="#417940" fill-opacity="0.1"/>
<path d="M327.936 592.443C352.157 589.674 380.998 560.859 388.725 538.836C402.145 500.606 378.281 469.82 355.199 440.044C332.93 411.311 311.881 384.173 322.113 351.123C331.027 322.341 359.819 306.801 382.381 306.801C394.548 306.801 405.056 311.118 412.002 318.969C420.249 328.286 423.486 342.441 421.372 359.903C414.101 419.895 411.937 485.523 478.728 504.874C486.39 507.089 493.954 508.213 501.225 508.213C529.35 508.213 547.292 492.087 557.394 478.551C576.767 452.603 583.502 413.787 574.132 381.974C566.194 355 550.562 328.824 526.373 301.98C490.407 262.072 441.412 227.768 376.606 197.079L373.808 195.744C346.545 182.827 318.355 169.47 288.668 162.107C286.911 161.667 284.959 161.146 282.877 160.592C273.703 158.149 262.3 155.119 252.507 155.119C248.587 155.119 245.187 155.624 242.422 156.618C238.193 158.133 235.818 161.032 233.508 163.834C231.784 165.919 230.011 168.085 227.473 169.633C225.83 170.642 222.609 171.88 219.226 173.2C213.744 175.317 208.051 177.516 206.261 179.634C202.797 183.706 203.756 186.149 204.667 188.528C205.334 190.222 205.952 191.834 205.139 194.229L204.505 196.118C201.219 205.794 195.791 211.728 188.222 213.922C186.026 214.557 183.293 215.355 180.056 216.382C170.702 219.363 166.863 223.956 163.155 228.403C160.308 231.824 157.608 235.049 152.516 237.655C152.386 237.655 152.223 237.655 152.061 237.655C146.205 237.655 101.797 240.587 98.3808 251.517C97.4698 254.465 99.4544 257.658 104.318 261.029C110.402 265.248 115.005 265.737 117.95 265.737C119.381 265.737 120.682 265.607 121.935 265.493C123.009 265.395 124.017 265.297 124.977 265.297C128.555 265.297 132.167 266.307 137.112 278.54C138.332 281.553 139.275 284.013 140.056 286.066C143.895 296.132 144.025 296.262 153.769 300.432C156.193 301.459 159.202 302.745 163.025 304.521C175.582 310.32 178.153 316.9 181.406 325.24C183.13 329.638 185.082 334.639 188.775 340.259C192.727 346.269 197.363 351.107 201.853 355.782C209.807 364.073 217.323 371.908 219.714 384.988C223.862 407.646 211.581 429.277 197.689 449.28C190.954 458.988 177.111 470.277 162.455 482.233C137.567 502.529 109.361 525.545 109.263 546.851C109.198 559.018 112.321 568.352 118.535 574.607C125.302 581.416 135.583 584.722 149.979 584.722C170.849 584.722 196.485 577.669 219.112 571.463C236.924 566.576 252.312 562.341 262.137 562.341C264.366 562.341 266.253 562.569 267.733 563.009C277.217 565.827 284.732 571.854 292.019 577.685C301.665 585.423 310.791 592.72 323.821 592.72C325.154 592.72 326.521 592.639 327.887 592.492L327.936 592.443ZM268.107 561.869C266.481 561.38 264.545 561.152 262.186 561.152C252.198 561.152 236.745 565.404 218.852 570.307C196.29 576.496 170.719 583.533 150.011 583.533C135.941 583.533 125.92 580.341 119.381 573.76C113.395 567.733 110.386 558.676 110.434 546.818C110.532 526.05 138.511 503.213 163.203 483.08C177.925 471.075 191.817 459.738 198.649 449.899C212.67 429.685 225.082 407.809 220.853 384.744C218.396 371.322 210.767 363.373 202.699 354.951C198.242 350.309 193.638 345.504 189.751 339.591C186.123 334.069 184.187 329.15 182.496 324.784C179.145 316.2 176.493 309.44 163.529 303.446C159.69 301.67 156.664 300.383 154.241 299.341C147.972 296.659 143.602 292.082 141.13 285.609C140.349 283.557 139.405 281.081 138.185 278.068C133.452 266.389 129.759 264.108 124.993 264.108C123.985 264.108 122.943 264.206 121.837 264.32C120.617 264.434 119.349 264.564 117.966 264.564C114.94 264.564 110.743 264.059 104.985 260.068C100.577 257.022 98.7386 254.253 99.4869 251.843C102.447 242.346 143.846 238.779 152.077 238.779C152.272 238.779 152.402 238.779 152.484 238.779L152.614 238.258L152.858 238.763C158.258 236.026 161.203 232.524 164.033 229.12C167.807 224.608 171.369 220.34 180.414 217.457C183.634 216.431 186.351 215.649 188.547 215.013C200.373 211.593 200.519 211.414 205.594 196.477L206.229 194.587C207.172 191.802 206.408 189.847 205.741 188.104C204.862 185.856 204.114 183.918 207.14 180.367C208.75 178.477 214.541 176.23 219.649 174.259C223.097 172.923 226.351 171.669 228.091 170.61C230.791 168.965 232.63 166.733 234.403 164.567C236.713 161.765 238.892 159.11 242.813 157.709C245.464 156.764 248.734 156.276 252.524 156.276C262.17 156.276 273.491 159.289 282.601 161.716C284.683 162.27 286.635 162.791 288.408 163.231C317.981 170.561 346.122 183.902 373.336 196.786L376.134 198.122C440.794 228.729 489.675 262.952 525.543 302.745C549.618 329.459 565.169 355.489 573.058 382.3C582.33 413.787 575.677 452.196 556.499 477.867C546.544 491.191 528.878 507.073 501.241 507.073C494.084 507.073 486.634 505.965 479.07 503.766C413.141 484.676 415.304 419.569 422.527 360.033C424.69 342.246 421.356 327.781 412.881 318.22C405.723 310.124 394.906 305.677 382.413 305.677C359.445 305.677 330.132 321.494 321.055 350.814C310.645 384.418 332.849 413.07 354.337 440.777C377.224 470.309 400.908 500.851 387.683 538.494C380.054 560.208 351.653 588.632 327.838 591.352C326.505 591.498 325.187 591.58 323.902 591.58C311.263 591.58 302.3 584.397 292.8 576.79C285.447 570.893 277.835 564.801 268.14 561.902L268.107 561.869Z" fill="#417940" fill-opacity="0.1"/>
<path d="M355.947 59.2916C361.478 59.2916 367.594 57.9396 372.978 56.7342C375.744 56.1152 378.346 55.5451 380.429 55.2519C384.365 54.7144 388.188 54.5026 391.88 54.2909C399.574 53.8511 406.846 53.4276 412.62 50.1372C417.273 47.4821 420.656 43.133 422.982 36.7966C427.163 25.4269 432.319 12.6565 439.623 -0.0162964H439.054C431.799 12.6076 426.675 25.3129 422.51 36.6337C420.233 42.8398 416.915 47.1238 412.36 49.7137C406.683 52.9389 399.477 53.3624 391.848 53.8022C388.139 54.0139 384.316 54.242 380.363 54.7632C378.265 55.0401 375.646 55.6265 372.865 56.2455C367.497 57.4346 361.429 58.7866 355.947 58.7866C350.465 58.7866 346.757 57.4835 344.3 54.7795C338.314 48.2151 341.324 33.2293 342.934 25.1663L343.194 23.8958C345.016 14.6111 347.96 6.71102 352.108 -0.0162964H351.539C347.456 6.71102 344.544 14.5785 342.722 23.8143L342.462 25.0849C340.835 33.2293 337.81 48.3617 343.959 55.1216C346.513 57.9233 350.449 59.2916 355.963 59.2916H355.947Z" fill="#417940" fill-opacity="0.1"/>
<path d="M481.867 0H480.745C478.728 2.15013 476.987 4.12109 475.686 5.91287C457.744 30.3299 449.79 52.8737 451.367 74.8312C451.986 83.3665 450.928 89.0188 448.163 92.1137C446.406 94.0846 443.885 95.0294 440.485 95.0294C435.751 95.0294 429.912 93.2213 423.747 91.3155C418.135 89.5726 412.344 87.7808 406.878 87.1781C402.763 86.722 398.647 86.5103 394.271 86.5103C380.494 86.5103 367.383 88.7093 353.523 91.0386C351.197 91.4295 348.855 91.8205 346.496 92.2114L346.317 92.244C341.454 93.0421 335.939 93.938 330.571 93.938C320.421 93.938 313.93 90.5662 310.71 83.6272C303.991 69.1463 305.878 51.7009 307.521 36.3242C307.749 34.2555 307.96 32.2031 308.172 30.1833C309.278 18.944 311.214 8.9426 314.077 0.0162889H313.215C310.384 8.9426 308.465 18.9114 307.359 30.1019C307.163 32.1217 306.936 34.1741 306.724 36.2428C305.065 51.7335 303.162 69.2929 309.978 83.9855C313.345 91.2341 320.079 94.7688 330.571 94.7688C336.004 94.7688 341.551 93.8566 346.447 93.0747L346.626 93.0421C348.985 92.6512 351.327 92.2603 353.654 91.8693C367.48 89.5563 380.542 87.3573 394.271 87.3573C398.615 87.3573 402.698 87.5691 406.78 88.0252C412.181 88.6116 417.939 90.4033 423.503 92.13C429.733 94.0683 435.621 95.8927 440.485 95.8927C444.129 95.8927 446.845 94.8502 448.765 92.7001C451.676 89.4423 452.799 83.5946 452.164 74.8149C450.619 53.0692 458.508 30.7046 476.337 6.43411C477.736 4.52831 479.639 2.37818 481.867 0.0325778V0Z" fill="#417940" fill-opacity="0.1"/>
<path d="M476.581 123.47C471.066 127.363 463.519 129.269 453.498 129.269C441.738 129.269 428.562 126.63 416.963 124.3C410.115 122.932 403.657 121.629 398.371 121.075C395.784 120.798 388.838 120.163 380.282 120.163C364.438 120.163 344.105 122.313 337.289 132.559C334.313 137.006 334.199 142.609 336.931 149.19C338.217 152.285 341.535 153.963 344.739 155.591C347.277 156.878 349.896 158.198 351.36 160.185C353.084 162.53 354.109 165.821 355.085 169.013C356.403 173.249 357.753 177.63 360.827 180.22C364.65 183.429 368.83 184.928 374.019 184.928C377.614 184.928 381.291 184.195 384.837 183.494C388.35 182.794 391.978 182.077 395.491 182.077C399.005 182.077 401.787 182.745 404.454 184.113C410.912 187.452 413.645 191.948 416.264 196.281C419.696 201.95 422.933 207.292 433.604 209.801C455.938 215.03 462.071 220.503 476.857 233.713C478.761 235.423 480.81 237.248 483.055 239.219C488.374 243.893 492.311 249.236 496.117 254.4C499.501 259.01 503.014 263.766 507.536 268.131C513.083 273.49 518.321 275.869 523.38 278.165C530.114 281.228 536.491 284.127 542.266 294.063L543.16 295.627C550.431 308.202 557.768 319.849 562.29 319.849C563.022 319.849 563.64 319.572 564.161 319.002C565.787 317.21 566.226 312.47 565.511 304.504C565.088 299.83 561.721 295.66 558.451 291.62C554.937 287.271 551.619 283.15 551.814 278.605C552.058 273.165 555.344 270.477 558.825 267.643C561.379 265.574 564.014 263.424 565.559 260.085C569.268 252.087 570.163 244.936 571.041 238.013C572.245 228.37 573.384 219.281 582.005 208.986C597.41 190.564 619.028 176.653 642.875 169.795C650.813 167.515 658.166 166.407 665.339 166.407C689.707 166.407 707.177 179.683 725.689 193.724C727.787 195.32 729.902 196.916 732.032 198.513V197.096C730.129 195.662 728.242 194.245 726.372 192.828C707.714 178.656 690.081 165.283 665.339 165.283C658.052 165.283 650.602 166.407 642.55 168.72C618.491 175.627 596.678 189.668 581.11 208.27C572.278 218.825 571.123 228.077 569.886 237.883C569.024 244.724 568.146 251.794 564.502 259.612C563.071 262.707 560.533 264.76 558.093 266.763C554.563 269.63 550.919 272.611 550.659 278.573C550.448 283.541 554.059 288.02 557.54 292.353C560.696 296.262 563.949 300.302 564.339 304.618C565.185 314.001 564.242 317.21 563.282 318.236C562.989 318.562 562.664 318.708 562.257 318.708C557.784 318.708 548.203 302.126 544.12 295.057L543.209 293.493C537.255 283.247 530.716 280.283 523.819 277.123C518.842 274.859 513.701 272.513 508.301 267.301C503.86 263.017 500.379 258.293 497.012 253.716C493.173 248.503 489.204 243.112 483.787 238.355C481.542 236.384 479.493 234.56 477.589 232.85C462.64 219.493 456.459 213.971 433.832 208.677C423.617 206.282 420.493 201.135 417.207 195.678C414.491 191.199 411.693 186.573 404.942 183.087C402.112 181.621 399.021 180.921 395.459 180.921C391.897 180.921 388.155 181.654 384.593 182.354C381.095 183.054 377.468 183.755 373.987 183.755C369.091 183.755 365.138 182.338 361.527 179.308C358.713 176.93 357.395 172.711 356.142 168.623C355.134 165.348 354.077 161.96 352.238 159.452C350.628 157.253 347.879 155.868 345.227 154.516C342.072 152.92 339.079 151.405 337.956 148.701C335.386 142.495 335.467 137.25 338.217 133.129C344.772 123.307 364.699 121.238 380.266 121.238C388.773 121.238 395.654 121.873 398.224 122.15C403.446 122.704 409.887 124.007 416.703 125.359C428.366 127.705 441.591 130.344 453.466 130.344C463.73 130.344 471.489 128.373 477.199 124.333C491.432 114.25 487.349 99.0527 483.397 84.3601C479.183 68.6576 474.824 52.4176 492.359 41.8298C494.458 40.5593 497.272 39.9077 500.704 39.9077C511.196 39.9077 525.966 45.6414 540.249 51.1959C552.693 56.0337 564.437 60.5946 572.082 60.7738C573.189 60.8064 574.278 60.8064 575.385 60.8064C591.814 60.8064 608.422 57.9721 624.494 55.2193C640.533 52.4828 657.108 49.6485 673.472 49.6485C684.924 49.6485 695.27 51.0168 705.079 53.8185C714.155 56.4084 723.102 59.8453 731.951 63.7547V62.5167C723.216 58.6563 714.367 55.2844 705.388 52.7271C695.465 49.8928 685.022 48.5083 673.472 48.5083C657.011 48.5083 640.37 51.3425 624.298 54.0954C608.276 56.8319 591.716 59.6662 575.385 59.6662C574.278 59.6987 573.205 59.6662 572.099 59.6336C564.649 59.4544 553.002 54.9261 540.655 50.1372C526.275 44.5501 511.408 38.7675 500.704 38.7675C496.995 38.7675 494.084 39.4517 491.758 40.8525C473.49 51.8964 477.963 68.5436 482.29 84.6533C486.308 99.6391 490.115 113.778 476.532 123.405L476.581 123.47Z" fill="#417940" fill-opacity="0.1"/>
<path d="M338.233 81.868C341.714 81.868 345.748 81.4444 351.734 80.4345C366.911 77.8935 381.974 76.7044 399.151 76.7044C403.462 76.7044 407.887 76.7695 412.702 76.9324C414.377 76.9813 415.825 77.0139 417.142 77.0139C425.097 77.0139 429.733 76.0528 433.149 73.6746C437.232 70.8404 439.672 65.8886 441.266 57.0763C444.942 36.878 453.027 18.7322 466.707 0H466.105C452.522 18.6834 444.454 36.8129 440.794 56.9948C439.216 65.6605 436.841 70.5309 432.872 73.2674C429.538 75.5804 424.983 76.5089 417.142 76.5089C415.825 76.5089 414.377 76.4763 412.718 76.4275C407.903 76.2809 403.478 76.1994 399.151 76.1994C381.958 76.1994 366.862 77.3885 351.653 79.9459C345.699 80.9395 341.681 81.3793 338.233 81.3793C328.424 81.3793 321.397 78.0889 318.941 62.0281C316.598 46.684 318.68 30.4276 320.827 19.4978C322.21 12.4447 324.146 5.96173 326.553 0H326.049C323.642 5.92916 321.738 12.3633 320.356 19.4164C318.192 30.3788 316.11 46.7002 318.469 62.1095C320.616 76.1506 326.342 81.868 338.233 81.868Z" fill="#417940" fill-opacity="0.1"/>
<path d="M344.935 69.635C346.464 69.635 348.107 69.4884 349.847 69.1952C362.779 67.0288 376.606 65.742 390.969 65.3999C394.32 65.3184 397.541 65.3999 400.615 65.4813C402.681 65.5302 404.633 65.5791 406.537 65.5791C412.393 65.5791 418.444 65.123 423.112 61.8489C426.984 59.1287 429.749 54.6004 431.555 48.0359C436.451 30.1996 443.462 14.4157 452.897 0H452.311C442.941 14.3831 435.963 30.1182 431.083 47.9056C429.31 54.356 426.61 58.7866 422.836 61.4417C418.265 64.6506 412.295 65.0904 406.537 65.0904C404.633 65.0904 402.698 65.0415 400.632 64.9927C397.557 64.9112 394.32 64.8298 390.969 64.9112C376.59 65.2696 362.714 66.5401 349.766 68.7228C342.332 69.9771 336.801 68.4785 333.353 64.2759C325.496 54.7144 329.725 33.2456 332.003 21.7131C333.597 13.6501 335.956 6.4504 339.095 0H338.542C335.435 6.43411 333.093 13.6012 331.515 21.6154C329.221 33.2293 324.976 54.8284 332.962 64.5691C335.712 67.9247 339.746 69.6187 344.918 69.6187L344.935 69.635Z" fill="#417940" fill-opacity="0.1"/>
</g>
<defs>
<clipPath id="clip0_26_1477">
<rect width="732" height="733" fill="white"/>
</clipPath>
</defs>
</svg>
