<svg width="51" height="76" viewBox="0 0 51 76" fill="none" xmlns="http://www.w3.org/2000/svg">
<path fill-rule="evenodd" clip-rule="evenodd" d="M25.5177 34.2884C25.0507 34.2884 24.6269 34.0046 24.4352 33.5642C23.7723 32.0349 22.7563 30.6617 21.4966 29.5919L15.4439 24.4606C15.0865 24.1578 14.9321 23.6672 15.0492 23.2051C15.1659 22.7429 15.5324 22.3928 15.9881 22.3091C17.3756 22.0532 18.3069 21.5158 19.2927 20.9466C20.7845 20.0852 22.4759 19.1096 25.6964 19.1096C28.9168 19.1096 30.6077 20.0852 32.0994 20.9466C33.0259 21.4823 33.9004 21.9869 35.1471 22.2573C35.5936 22.3537 35.9472 22.7061 36.0557 23.1638C36.1648 23.6215 36.0093 24.1032 35.6568 24.402L29.5381 29.593C28.2797 30.6623 27.2636 32.0349 26.6 33.5641C26.4084 34.0046 25.9846 34.2884 25.5176 34.2884L25.5177 34.2884ZM18.6655 24.0229L23.003 27.7003C23.9688 28.5204 24.8181 29.4876 25.5177 30.5559C26.2174 29.4877 27.0655 28.5204 28.0315 27.7008L32.492 23.917C31.9208 23.6488 31.4155 23.3578 30.9414 23.0846C29.5236 22.2656 28.2992 21.5588 25.6964 21.5588C23.0957 21.5588 21.8707 22.2651 20.4527 23.0826L20.4492 23.0846C19.911 23.3957 19.3349 23.7279 18.6655 24.0229Z" fill="#417940"/>
<path fill-rule="evenodd" clip-rule="evenodd" d="M45.8873 10.4885H45.0387V20.5551C45.0387 22.7852 44.0777 24.8819 42.4013 26.3086L33.1562 34.1405C32.6163 34.5966 32.1666 35.1959 31.8551 35.8743C31.5479 36.5411 31.3919 37.2597 31.3919 38.0107C31.3919 39.516 32.036 40.9271 33.1583 41.8832L42.399 49.7102C44.0776 51.1391 45.0391 53.2359 45.0391 55.4659L45.0388 65.5327H45.8873C48.6753 65.5327 50.9428 67.8742 50.9428 70.7532C50.9428 73.6322 48.6753 75.9749 45.8873 75.9749H5.14815C2.36015 75.9749 0.0926514 73.6322 0.0926514 70.7532C0.0926514 67.8742 2.36015 65.5327 5.14815 65.5327H5.99673V55.466C5.99673 53.236 6.95773 51.1392 8.63408 49.7126L17.8792 41.8807C18.4191 41.4246 18.8688 40.8253 19.1803 40.1469C19.4875 39.4806 19.6435 38.762 19.6435 38.011C19.6435 36.5057 18.9995 35.0946 17.8771 34.1385L8.63639 26.3116C6.95782 24.8826 5.99628 22.7859 5.99628 20.5558L5.99676 10.4885H5.14815C2.36015 10.4885 0.0926514 8.14694 0.0926514 5.26793C0.0926514 2.38892 2.36015 0.0462646 5.14815 0.0462646H45.8873C48.6753 0.0462646 50.9428 2.38892 50.9428 5.26793C50.9428 8.14694 48.6753 10.4885 45.8873 10.4885ZM8.36845 65.5327H11.7057L11.7052 58.6261C11.7052 57.9498 12.2365 57.4013 12.8914 57.4013C15.5282 57.4013 16.7531 56.6943 18.172 55.8743C19.6621 55.0129 21.3514 54.0373 24.5686 54.0373C27.7911 54.0373 29.4821 55.0129 30.9749 55.8748C32.3933 56.6938 33.6188 57.4007 36.2227 57.4007C36.8765 57.4007 37.4412 57.3583 37.9481 57.2708C38.2915 57.2111 38.644 57.3115 38.9102 57.5445C39.1758 57.7776 39.3297 58.1188 39.3297 58.4789L39.3293 65.5327H42.667V55.466C42.667 53.9703 42.0202 52.5625 40.8929 51.6025L31.6523 43.7756C29.9786 42.3506 29.0203 40.2505 29.0203 38.0109C29.0203 36.8931 29.2535 35.8204 29.713 34.823C30.174 33.8206 30.8451 32.9291 31.6533 32.2462L40.8951 24.4165C42.0202 23.4587 42.667 22.051 42.667 20.5551V10.4885H8.36853V20.5553C8.36853 22.051 9.01531 23.4588 10.1426 24.4188L19.3833 32.2457C21.0569 33.6713 22.0152 35.7714 22.0152 38.011C22.0152 39.1288 21.782 40.2015 21.3226 41.1989C20.8615 42.2013 20.1904 43.0928 19.3822 43.7757L10.1404 51.6048C9.01531 52.5626 8.36857 53.9703 8.36857 55.4662L8.36845 65.5327ZM36.9575 65.5327V59.8341C36.721 59.8452 36.4764 59.8508 36.2227 59.8508C33.0001 59.8508 31.3091 58.8752 29.8163 58.0132C28.398 57.1943 27.1725 56.4874 24.5686 56.4874C21.9695 56.4874 20.7462 57.1938 19.3301 58.0128L19.3293 58.0133C18.0262 58.7658 16.5718 59.6057 14.0775 59.8069V65.5327H36.9575ZM5.14815 2.49539C3.66776 2.49539 2.46436 3.73919 2.46436 5.26736C2.46436 6.79606 3.6683 8.03875 5.14815 8.03875H45.8873C47.3677 8.03875 48.5711 6.79551 48.5711 5.26736C48.5711 3.73865 47.3672 2.49539 45.8873 2.49539H5.14815ZM2.46436 70.7532C2.46436 69.2251 3.66776 67.9818 5.14815 67.9818H45.8873C47.3672 67.9818 48.5711 69.2245 48.5711 70.7532C48.5711 72.2814 47.3677 73.5252 45.8873 73.5252H5.14815C3.6683 73.5252 2.46436 72.2819 2.46436 70.7532Z" fill="#417940"/>
</svg>
