<svg width="75" height="76" viewBox="0 0 75 76" fill="none" xmlns="http://www.w3.org/2000/svg">
<path fill-rule="evenodd" clip-rule="evenodd" d="M9.93691 38.1801C9.28357 38.1801 8.75394 38.7176 8.75394 39.3807V50.4265C8.75394 51.0896 9.28357 51.6272 9.93691 51.6272H65.0631C65.7164 51.6272 66.2461 51.0896 66.2461 50.4265V39.3807C66.2461 38.7176 65.7164 38.1801 65.0631 38.1801H9.93691ZM11.4286 40.8947V48.9125H22.9495V40.8947H11.4286ZM36.1987 48.9125H25.6242V40.8947H36.1987V48.9125ZM38.8734 48.9125H49.4479V40.8947H38.8734V48.9125ZM63.5714 48.9125H52.1226L52.1226 40.8947H63.5714V48.9125Z" fill="#417940"/>
<path fill-rule="evenodd" clip-rule="evenodd" d="M10.5341 23.966L13.3563 1.05171C13.4303 0.450881 13.9335 0 14.5301 0H25.2208C25.816 0 26.3185 0.448794 26.3942 1.04795L28.5777 18.3334L37.1522 15.6567C37.3788 15.586 37.6212 15.586 37.8478 15.6567L74.1648 26.9936C74.6612 27.1486 75 27.6141 75 28.1412V74.7994C75 75.4625 74.4704 76 73.817 76H1.18297C0.529632 76 0 75.4625 0 74.7994V28.1412C0 27.6141 0.338772 27.1486 0.835197 26.9936L10.5341 23.966ZM13.3397 23.072L15.847 2.71463H23.9082L25.9834 19.1433L24.7035 19.5428L13.3397 23.072ZM72.3253 73.2854H48.5016V59.3112C48.5016 58.6481 47.9719 58.1106 47.3186 58.1106H27.6814C27.0281 58.1106 26.4984 58.6481 26.4984 59.3112V73.2854H2.67468V29.2595L25.4871 22.1383L27.9694 21.3674C28.0003 21.3578 28.0306 21.347 28.0603 21.3351L37.5 18.3883L72.3253 29.2595V73.2854ZM45.8269 60.8252V73.2854H29.1731V60.8252H45.8269Z" fill="#417940"/>
</svg>
