<svg width="68" height="76" viewBox="0 0 68 76" fill="none" xmlns="http://www.w3.org/2000/svg">
<path d="M65.4731 17.3546C64.8639 16.6867 64.1593 16.1139 63.382 15.6545L50.2082 8.03027L38.576 1.28248C37.9627 0.932778 37.3099 0.658954 36.6321 0.466301C34.869 -0.0509627 32.9931 -0.0322802 31.2409 0.520013C30.6218 0.70742 30.0248 0.96313 29.4609 1.28249L17.8915 7.99127L4.65249 15.6609C1.86037 17.3266 0.13393 20.3321 0.0961304 23.5927V52.3636C0.101362 55.6324 1.83715 58.6526 4.65368 60.2914L10.0157 63.3997L11.1121 64.0378L20.3795 69.4125L20.3888 69.4201C20.4463 69.4551 20.5044 69.4855 20.5632 69.5182L29.4608 74.6739C30.8566 75.4539 32.4216 75.876 34.0184 75.9035C34.7113 75.8982 35.4019 75.8141 36.0757 75.6524C36.9529 75.4528 37.7958 75.1235 38.576 74.6739L47.4672 69.5188C47.526 69.4861 47.5847 69.4557 47.6416 69.4207L47.6509 69.4131L56.916 64.0408H56.9254L57.9124 63.4669L63.3815 60.2943L63.3809 60.2937C66.1992 58.6549 67.9361 55.6342 67.9408 52.3636V23.5927C67.9333 21.2749 67.0514 19.0459 65.4731 17.3546ZM46.0702 67.3113C46.0388 67.3271 46.0074 67.3463 45.9778 67.3621L45.8632 67.4234V67.424C43.5903 68.5368 40.9063 68.3943 38.7624 67.0474C36.6185 65.7006 35.3176 63.3385 35.3198 60.7987V51.0155C35.7779 51.0523 36.2051 51.0558 36.6219 51.0558C43.832 51.0558 45.737 42.5017 45.737 37.9781C45.737 37.5251 45.5039 37.1036 45.1197 36.8654C44.736 36.6266 44.2564 36.605 43.853 36.8076C41.9806 37.6127 39.9605 38.0114 37.9241 37.9781C37.6898 37.9781 37.4788 37.9992 37.2585 38.012C36.8748 35.6482 35.8796 33.426 34.3717 31.57C33.3922 30.5074 32.7829 29.153 32.6377 27.7122C32.6377 27.4167 32.6598 27.1459 32.6795 26.9042C32.6987 26.6619 32.7156 26.4138 32.7156 26.2083C32.7156 25.7885 32.5144 25.3938 32.1755 25.148C31.836 24.9022 31.4 24.8351 31.003 24.967C26.7257 26.3951 22.2983 32.1417 22.2983 39.286C22.2983 42.9138 23.8075 47.644 30.9356 49.6593C31.514 49.9501 32.1081 50.2081 32.7156 50.4323V60.7987C32.7168 63.3371 31.4158 65.6969 29.2736 67.0438C27.1309 68.3901 24.4486 68.5338 22.1757 67.4227L22.0612 67.3614C22.031 67.3457 22.0001 67.3264 21.9688 67.3106L12.4218 61.7795C11.2376 61.0713 10.5127 59.7893 10.5139 58.4056V25.109C10.5104 24.6385 10.7587 24.2018 11.165 23.9665L33.3672 11.0967C33.7689 10.8585 34.2676 10.8585 34.6693 11.0967L56.8685 23.9637C57.2749 24.1995 57.5237 24.6368 57.5196 25.1079V58.406C57.5208 59.789 56.797 61.0711 55.614 61.7799L46.0702 67.3113ZM33.1864 73.229H33.187C32.3336 73.1192 31.5104 72.839 30.7663 72.4052L27.5603 70.5416C28.6503 70.2917 29.6914 69.8603 30.6395 69.2654C32.0382 68.3961 33.1985 67.191 34.0176 65.7589C34.8361 67.1928 35.997 68.399 37.3956 69.2688C38.3437 69.8637 39.3848 70.2952 40.4748 70.5456L37.2728 72.4051C36.6304 72.7746 35.93 73.0303 35.201 73.1611C34.5359 73.2878 33.8546 73.3106 33.1827 73.2277L33.1864 73.229ZM34.8716 48.3231C36.3273 47.5595 37.6666 46.5909 38.8485 45.446C39.342 44.9328 39.3351 44.1172 38.8328 43.6128C38.3305 43.1083 37.5184 43.1013 37.0074 43.597C35.7233 44.809 34.2473 45.7975 32.6399 46.5225C32.6399 46.4087 32.6504 46.2896 32.6579 46.1681C32.6579 46.1133 32.6579 46.0595 32.6695 46.0035C32.6823 45.8359 32.7009 45.666 32.7242 45.4921V45.4343C32.7503 45.2445 32.7841 45.0524 32.823 44.8574C32.8358 44.7932 32.8532 44.7267 32.8683 44.6624C32.8968 44.5317 32.9294 44.4009 32.966 44.2701C32.9893 44.1907 33.0143 44.1107 33.0404 44.0307C33.0782 43.9128 33.1201 43.7966 33.1631 43.6804C33.1945 43.5993 33.2259 43.517 33.2607 43.437C33.3131 43.3167 33.3712 43.2005 33.4299 43.0838C33.4665 43.0131 33.4991 42.9413 33.5392 42.8718L33.5398 42.8724C33.6386 42.6978 33.749 42.5297 33.8694 42.3691C33.9124 42.3102 33.9647 42.2582 34.0101 42.2016C34.0984 42.0942 34.1897 41.9897 34.2885 41.8904C34.3513 41.8274 34.4187 41.7701 34.4891 41.71C34.5867 41.6248 34.6884 41.5442 34.7948 41.4666C34.8704 41.4117 34.9483 41.3591 35.0291 41.3095C35.1558 41.2336 35.2866 41.1641 35.4198 41.1017C35.4994 41.0637 35.5732 41.0246 35.6569 40.9907C35.8808 40.8985 36.111 40.8238 36.3458 40.7671L36.3784 40.7578C36.8853 40.6428 37.4044 40.5879 37.9241 40.5943C39.6373 40.5961 41.3423 40.3602 42.9909 39.8931C42.6212 42.9133 41.3097 48.4409 36.622 48.4409C36.0348 48.4566 35.4477 48.4169 34.8682 48.3218L34.8716 48.3231ZM34.581 38.6107H34.5816C34.2554 38.7479 33.9404 38.9113 33.6398 39.0982C33.555 39.1519 33.4695 39.2027 33.3887 39.2593C33.0759 39.4712 32.7818 39.7094 32.5097 39.9721C32.4795 40.0037 32.4551 40.0364 32.4237 40.0679V40.0673C32.1923 40.3073 31.9778 40.563 31.7819 40.8327C31.7261 40.9109 31.6697 40.9868 31.6168 41.0668H31.6162C31.4139 41.3651 31.2314 41.6769 31.071 42.0003C31.0605 42.0214 31.0541 42.0424 31.0448 42.0616C30.8966 42.3728 30.7664 42.6922 30.6542 43.0179C30.6228 43.1084 30.5931 43.1983 30.5641 43.29C30.46 43.6169 30.3676 43.9439 30.2961 44.2784L30.2868 44.3205C30.2124 44.6672 30.1565 45.0111 30.1188 45.3521C30.1071 45.4437 30.0978 45.5336 30.0885 45.6241C30.0571 45.926 30.035 46.2243 30.0246 46.5133V46.5956H30.0252C28.4906 46.1116 27.1574 45.1337 26.2315 43.8125C25.3054 42.4913 24.8386 40.9011 24.9026 39.2868C24.8427 35.0394 26.7506 31.0046 30.0658 28.367C30.3519 30.1127 31.1093 31.7461 32.2545 33.0906C33.5543 34.6477 34.402 36.5346 34.7036 38.5441C34.6583 38.5622 34.6234 38.5896 34.5775 38.6095L34.581 38.6107ZM5.95434 17.9315L20.1932 9.67566L30.7617 3.55127C32.2597 2.67611 34.0445 2.44025 35.7163 2.89739C36.2598 3.04743 36.7819 3.26754 37.2701 3.55127L47.9752 9.75383L62.0775 17.9297V17.9303C64.0795 19.1108 65.3161 21.261 65.3341 23.5928V52.3637C65.3312 54.6966 64.0906 56.8521 62.0787 58.0187L60.0812 59.1799C60.1115 58.923 60.1266 58.6644 60.1266 58.4057V25.1092C60.1248 23.7057 59.3813 22.4079 58.1734 21.7014L35.9697 8.83446C35.3756 8.49 34.7024 8.30844 34.0165 8.30844C33.3305 8.30844 32.6573 8.49 32.0632 8.83446L9.85957 21.7026C8.65159 22.409 7.90812 23.7057 7.90634 25.1092V58.4057C7.90634 58.6644 7.92145 58.923 7.95168 59.1799L5.95023 58.0175C3.94059 56.8493 2.70242 54.6955 2.70004 52.3638V23.5929C2.70934 21.26 3.94813 19.1057 5.95544 17.9315L5.95434 17.9315Z" fill="#417940"/>
</svg>
