<svg width="6" height="9" viewBox="0 0 6 9" xmlns="http://www.w3.org/2000/svg">
<path d="M0.554879 0.377845C0.691198 0.241538 0.872569 0.159655 1.06496 0.147557C1.25736 0.13546 1.44756 0.193979 1.59988 0.312136L1.6743 0.377845L5.23679 3.94034C5.3731 4.07666 5.45498 4.25803 5.46708 4.45043C5.47918 4.64283 5.42066 4.83302 5.3025 4.98534L5.23679 5.05976L1.67429 8.62226C1.53183 8.76425 1.34066 8.84668 1.13962 8.85282C0.938573 8.85896 0.742731 8.78834 0.591866 8.65531C0.441002 8.52229 0.346428 8.33682 0.327354 8.13659C0.30828 7.93636 0.366136 7.73638 0.48917 7.57726L0.554878 7.50284L3.55688 4.50005L0.554879 1.49726C0.418572 1.36094 0.336689 1.17957 0.324592 0.987175C0.312494 0.79478 0.371013 0.604581 0.489171 0.452261L0.554879 0.377845Z"/>
</svg>
