<svg width="18" height="17" viewBox="0 0 18 17" fill="none" xmlns="http://www.w3.org/2000/svg">
<path d="M10.3908 9.81987C9.34703 10.8787 8.08413 11.6961 6.69077 12.2149L4.80578 10.7149C4.74989 10.6764 4.68364 10.6558 4.61578 10.6558C4.54792 10.6558 4.48167 10.6764 4.42578 10.7149L0.925777 12.9698C0.792902 13.0497 0.680423 13.1594 0.597224 13.2903C0.514024 13.4211 0.462385 13.5695 0.446382 13.7237C0.430378 13.8779 0.450452 14.0338 0.505015 14.1789C0.559579 14.324 0.647138 14.4544 0.760777 14.5599L2.40078 16.1799C2.63564 16.4119 2.92431 16.5822 3.24101 16.6756C3.5577 16.769 3.89259 16.7825 4.21577 16.7149C7.43967 16.049 10.4112 14.4896 12.7908 12.2149C15.1175 9.91749 16.7277 6.99429 17.4258 3.79987C17.4947 3.48169 17.4803 3.15109 17.384 2.8401C17.2876 2.52913 17.1126 2.24831 16.8757 2.02487L15.1758 0.38487C15.0706 0.276763 14.9423 0.193857 14.8005 0.142358C14.6587 0.09086 14.5072 0.0721039 14.3571 0.0874939C14.207 0.102884 14.0623 0.152023 13.934 0.23123C13.8056 0.310436 13.6968 0.417659 13.6157 0.544869L11.2857 3.99986C11.2456 4.05412 11.2239 4.11986 11.2239 4.18737C11.2239 4.25489 11.2456 4.32061 11.2857 4.37487L12.8208 6.21987C12.288 7.58534 11.4579 8.81508 10.3908 9.81987Z" fill="white"/>
</svg>
