<svg width="17" height="19" viewBox="0 0 17 19" xmlns="http://www.w3.org/2000/svg">
<path fill-rule="evenodd" clip-rule="evenodd" d="M15.0833 1.86141C16.5601 3.22301 17.3795 6.23267 16.8265 10.9991C16.3418 15.2056 13.5727 15.9502 12.642 16.2005C12.5692 16.219 12.497 16.2397 12.4254 16.2626C12.1742 16.348 9.96393 16.9331 7.08689 16.6776L6.80028 17.028C5.33605 18.8219 5.08316 19.1308 4.56221 18.9582C4.07835 18.8029 4.10701 18.0263 4.10701 18.0263L4.11122 16.1142H4.10701C-0.0968649 14.8596 -0.0387004 10.2424 0.0110346 7.77634C0.0607696 5.312 0.511756 3.32051 1.79306 1.96409C4.64482 -0.808295 12.6994 -0.464012 15.0833 1.86141ZM9.99597 10.251C10.1561 10.0293 10.5456 9.88863 10.9274 10.1147C11.4417 10.4219 12.0975 10.8999 12.5316 11.3339C12.7761 11.5453 12.8317 11.868 12.6648 12.2089V12.214C12.2863 12.919 11.5791 13.6982 10.8507 13.4488L10.844 13.4376C10.1047 13.2184 8.36567 12.2693 7.2656 11.3434C5.33099 9.72468 4.49477 7.67279 4.03704 6.55107C3.94094 6.31551 3.86086 6.12137 3.79258 5.97986C3.55824 5.20846 4.28993 4.45949 4.9584 4.05998H4.96515C5.28632 3.88137 5.59568 3.94091 5.80137 4.20408C5.84942 4.27311 5.90842 4.34732 5.97923 4.43533C6.19672 4.70541 6.52126 5.10836 6.95202 5.90651C7.16613 6.31033 7.03378 6.72192 6.82304 6.89277L6.40325 7.24827C6.18998 7.42947 6.21779 7.76771 6.21779 7.76771C6.21779 7.76771 6.84159 10.2622 9.16986 10.893C9.16986 10.893 9.48934 10.9223 9.66047 10.6963L9.99597 10.251ZM8.37747 3.40938C8.08075 3.40938 8.08075 3.88396 8.37747 3.88827C10.6864 3.90553 12.5872 5.5536 12.6083 8.57362C12.6083 8.89288 13.0635 8.88857 13.0601 8.56931C13.0349 5.31459 10.9586 3.4275 8.37831 3.40938H8.37747ZM11.8665 8.08352C11.8623 8.40278 11.4071 8.38725 11.4138 8.07316C11.4501 6.50103 10.522 5.27058 8.76018 5.13339C8.46346 5.11181 8.4938 4.63293 8.79137 4.65536C10.8229 4.81067 11.9036 6.28962 11.8665 8.08352ZM9.11001 6.42078C9.85182 6.46479 10.2126 6.8617 10.2514 7.67711C10.2649 7.99637 10.7175 7.97393 10.7032 7.65554C10.6535 6.59076 10.1115 5.99711 9.1353 5.94189C8.83689 5.92463 8.80907 6.40266 9.11001 6.42078Z"/>
</svg>
