<svg width="19" height="19" viewBox="0 0 19 19" xmlns="http://www.w3.org/2000/svg">
<path fill-rule="evenodd" clip-rule="evenodd" d="M9.49811 0H9.50286C14.7393 0 19 4.2617 19 9.5C19 14.7383 14.7402 19 9.50191 19C7.64355 19.0039 5.82558 18.4578 4.27691 17.4306L0.623213 18.5972L1.80786 15.0679C0.629807 13.4508 -0.00333016 11.5008 1.31731e-05 9.5C1.31731e-05 4.26075 4.25981 0 9.49811 0ZM12.9846 14.211C13.7104 14.0543 14.6205 13.5175 14.8495 12.8696C15.0794 12.2217 15.0794 11.6698 15.0119 11.552C14.9587 11.4589 14.8314 11.3981 14.6414 11.3059C14.588 11.2805 14.5348 11.2545 14.4818 11.228C14.2025 11.0884 12.845 10.4177 12.5885 10.3284C12.3367 10.2334 12.0973 10.2666 11.9073 10.5355L11.799 10.6875C11.5701 11.0105 11.3487 11.3202 11.1644 11.5187C10.9972 11.6973 10.7246 11.7192 10.4947 11.6242C10.4662 11.6123 10.4377 11.6006 10.4092 11.589C10.0463 11.4427 9.24161 11.1178 8.26691 10.2505C7.44611 9.519 6.88751 8.60795 6.72601 8.3353C6.56736 8.06075 6.70416 7.9002 6.83051 7.752L6.83716 7.74345C6.91886 7.64275 6.99866 7.55915 7.07751 7.4746C7.13451 7.4138 7.19151 7.353 7.25136 7.2846L7.27606 7.2561C7.40051 7.1136 7.47556 7.0281 7.55821 6.8495C7.65321 6.6652 7.58576 6.4752 7.51831 6.33555C7.47081 6.23675 7.18391 5.53945 6.93691 4.93905L6.66426 4.27975C6.47996 3.83895 6.34031 3.8228 6.06101 3.81045L6.03536 3.8095C5.94701 3.80475 5.85011 3.8 5.74276 3.8C5.37891 3.8 5.00081 3.9064 4.77186 4.14105L4.74621 4.1667C4.45361 4.46405 3.80001 5.12905 3.80001 6.45335C3.80001 7.77955 4.74051 9.06395 4.91531 9.30145L4.92766 9.31855C4.93906 9.33185 4.95806 9.36035 4.98751 9.40215C5.34281 9.91705 7.07466 12.426 9.65771 13.4966C11.8408 14.401 12.4878 14.3165 12.9846 14.211Z"/>
</svg>
