<svg width="201" height="45" viewBox="0 0 201 45" fill="none" xmlns="http://www.w3.org/2000/svg">
<g clip-path="url(#clip0_7_117)">
<path d="M73.4693 22.2954C73.3048 22.6858 73.0238 23.0207 72.6731 23.288C72.6343 23.329 72.5943 23.3701 72.5555 23.4111L72.5646 23.4078C72.4858 23.4056 72.4058 23.4022 72.327 23.4C71.7764 23.2326 71.1264 23.2991 70.7312 22.7635C70.6912 22.718 70.6524 22.6725 70.6124 22.627V22.6293C70.6158 22.5106 70.5518 22.423 70.4787 22.3343C69.1171 20.6841 67.7749 19.0194 66.3881 17.3892C65.9712 16.8979 65.6091 16.3445 65.0471 15.9785C64.6907 15.3575 64.1401 14.895 63.6489 14.3882C60.8148 11.4615 57.8083 8.72891 54.2283 6.65838C51.9494 5.34088 49.5311 4.40376 46.8524 4.22188C43.5294 3.99786 40.5617 5.04033 37.7756 6.6728C33.9021 8.94295 30.5597 11.8918 27.0688 14.6499C26.1675 15.3442 25.2674 16.0384 24.3661 16.7326C23.6464 17.2073 22.9268 17.6831 22.206 18.1555C18.8967 20.3247 15.3933 22.0858 11.4717 22.9664C9.94675 23.3579 8.38636 23.5298 6.81797 23.6163C5.16505 23.7072 3.52013 23.5475 1.87635 23.3978C1.16927 23.298 0.555847 22.9353 0.383358 22.2943C0.315962 22.0437 0.305682 21.7653 0.383358 21.518C0.542139 21.0101 1.02648 20.6707 1.52338 20.4179C1.58849 20.4501 1.65475 20.4711 1.72214 20.4789C3.09976 20.6319 4.47282 20.8138 5.863 20.7428C7.11269 20.826 8.34638 20.673 9.57093 20.4656C13.4525 19.8079 16.9148 18.1854 20.1658 16.0883C21.3184 15.3087 22.4904 14.5557 23.5596 13.6651C24.7602 12.9143 25.8123 11.9816 26.9157 11.1111C29.7475 8.87862 32.5073 6.55746 35.6075 4.66771C38.14 3.12396 40.8165 1.93288 43.8093 1.517C44.1086 1.47486 44.409 1.43716 44.7094 1.39612C44.7665 1.38725 44.8237 1.37727 44.8819 1.36951C45.3 1.31073 46.809 1.34289 47.0158 1.3684C47.1357 1.38281 47.2842 1.40278 47.419 1.41941C48.5316 1.55249 49.6328 1.74324 50.7077 2.06153C54.7023 3.24374 58.0402 5.49947 61.1461 8.11673C64.9214 11.2974 68.1953 14.9349 71.2692 18.7466C72.046 19.7103 73.194 20.521 73.4659 21.7398C73.5058 21.9206 73.5378 22.1224 73.4659 22.2943L73.4693 22.2954Z" fill="#2AA9E0"/>
<path d="M72.3268 23.4011C72.4056 23.4033 72.4856 23.4066 72.5644 23.4089C71.1891 25.2909 69.6709 27.0631 68.1311 28.8175C64.8698 32.536 61.3744 36.0239 57.326 38.9517C54.099 41.285 50.6367 43.1703 46.6774 44.0742C45.7693 44.2816 44.8509 44.4246 43.9233 44.5089C43.7497 44.5244 41.1567 44.571 40.878 44.5477C36.6765 44.2073 32.9606 42.6169 29.4777 40.4167C25.9 38.1565 22.7244 35.405 19.5122 32.6979C16.8301 30.4378 14.1468 28.1798 11.1403 26.3211C10.8684 26.1526 10.592 25.9906 10.3178 25.8265C10.3886 25.7467 10.4789 25.7467 10.5771 25.7622C12.3397 26.0527 14.1171 26.1215 15.9014 26.0749C15.9208 26.1681 15.9677 26.2335 16.051 26.2956C18.8486 28.3695 21.4427 30.6762 24.1146 32.8942C26.9041 35.211 29.7427 37.4645 32.9686 39.2034C35.8678 40.766 38.9303 41.7907 42.2887 41.7874C45.6425 41.7841 48.7165 40.7771 51.6213 39.2322C55.6994 37.0641 59.1389 34.113 62.3465 30.8869C62.9999 30.2293 63.7127 29.6193 64.2267 28.8397L64.221 28.8419C64.3181 28.8541 64.3638 28.7931 64.4015 28.7221C64.4597 28.6534 64.5043 28.5558 64.5797 28.5203C66.4302 27.6619 68.1402 26.5784 69.7886 25.4051C70.6682 24.7785 71.582 24.1874 72.3291 23.4L72.3268 23.4011Z" fill="#0859A3"/>
<path d="M15.9002 26.0749C14.116 26.1226 12.3397 26.0539 10.576 25.7622C10.4777 25.7455 10.3886 25.7467 10.3167 25.8265C9.25202 25.4372 8.112 25.3596 7.02452 25.0624C5.28136 24.5855 3.54049 24.1075 1.87729 23.3989C3.52107 23.5486 5.16599 23.7083 6.81891 23.6174C8.3873 23.5309 9.94769 23.3578 11.4727 22.9675C11.5286 23.0994 11.6543 23.0728 11.7628 23.0872C14.1834 23.41 16.6028 23.39 19.0153 23.0296C22.7358 22.474 26.1479 21.0688 29.4526 19.382C29.5805 19.3166 29.7496 19.2789 29.7496 19.087C30.8256 18.7521 31.7829 18.1987 32.6967 17.5666C33.0234 17.5677 33.2599 17.3603 33.5215 17.2206C35.5685 16.1271 37.6235 15.0525 39.771 14.1508C44.643 12.1047 49.6714 11.406 54.9123 12.4341C58.3655 13.1117 64.8481 15.8587 65.048 15.9774C65.5677 16.289 65.9721 16.8979 66.3891 17.388C67.7747 19.0183 69.118 20.6829 70.4797 22.3331C70.5528 22.4218 70.6167 22.5095 70.6145 22.6281C70.1861 22.556 69.9439 22.139 69.5133 22.0692C69.4562 21.9184 69.3168 21.8496 69.1911 21.7686C66.4839 20.0197 63.6852 18.4283 60.7004 17.1585C57.6356 15.8543 54.46 14.9482 51.1016 14.7774C47.8243 14.61 44.6818 15.2388 41.6547 16.4409C39.5471 17.2782 37.5013 18.2375 35.5616 19.402C34.8009 19.6892 34.136 20.1506 33.4164 20.5132C33.1936 20.6252 32.8886 20.6508 32.8064 20.9535C32.5779 20.9114 32.4089 21.0456 32.2272 21.1409C30.1083 22.2544 27.9653 23.319 25.7081 24.1475C22.5473 25.3075 19.3032 26.0694 15.9002 26.0727V26.0749Z" fill="#4CC0AE"/>
<path d="M5.86738 20.745C4.47719 20.816 3.09957 20.6652 1.72195 20.5121C1.65455 20.5044 1.59172 20.4511 1.52661 20.419C5.73373 17.1429 10.2698 14.4902 15.6569 13.4921C18.298 13.003 20.9424 13.0407 23.564 13.6662C22.4959 14.5567 21.3228 15.3109 20.1702 16.0894C20.0434 15.9208 19.8561 15.9929 19.6961 15.9885C18.1483 15.9474 16.6268 16.1293 15.1235 16.4831C11.7331 17.2794 8.72086 18.8497 5.86738 20.745Z" fill="#1A84C3"/>
<path d="M32.8064 20.9557C32.8898 20.6541 33.1948 20.6275 33.4164 20.5154C34.136 20.1528 34.802 19.6926 35.5616 19.4042C36.3384 19.9365 37.1163 20.4667 37.8919 21.0001C40.7489 22.9597 43.5875 24.946 46.7677 26.4098C51.5619 28.6179 56.411 28.8319 61.3469 26.8767C64.3341 25.6934 66.9888 23.9911 69.5121 22.0703C69.9428 22.139 70.185 22.556 70.6133 22.6292L70.6122 22.627C70.6522 22.6725 70.691 22.7179 70.731 22.7634C71.1251 23.3002 71.7762 23.2325 72.3268 23.4C71.5797 24.1874 70.667 24.7785 69.7863 25.4051C68.1368 26.5784 66.4279 27.6619 64.5774 28.5203C64.502 28.5547 64.4574 28.6534 64.3992 28.7221C64.2941 28.7 64.1959 28.6844 64.2187 28.8419L64.2244 28.8397C63.996 28.6767 63.8395 28.8896 63.6761 28.9617C61.0774 30.1162 58.3747 30.8869 55.5063 31.0289C51.5779 31.2241 47.9488 30.1894 44.4991 28.4549C40.3273 26.3577 36.656 23.5264 32.8064 20.9557Z" fill="#1A84C3"/>
<path d="M29.7496 19.087C28.0281 18.1466 26.2541 17.3215 24.3682 16.7337C25.2694 16.0395 26.1696 15.3452 27.0709 14.651C28.4348 15.3098 29.8375 15.892 31.1466 16.655C31.6641 16.9566 32.1793 17.2627 32.6956 17.5666C31.7817 18.1987 30.8245 18.7521 29.7484 19.087H29.7496Z" fill="#1A84C3"/>
</g>
<path d="M87.3277 21.6023V8.30478H89.9426L95.758 17.6891H94.3724L100.09 8.30478H102.686L102.725 21.6023H99.7584L99.7389 12.731H100.285L95.7189 20.1966H94.2944L89.6304 12.731H90.2939V21.6023H87.3277Z" fill="#193C63"/>
<path d="M112.601 21.8303C111.521 21.8303 110.519 21.6593 109.595 21.3174C108.685 20.9755 107.891 20.4942 107.215 19.8737C106.551 19.2531 106.031 18.5249 105.653 17.6891C105.289 16.8532 105.107 15.9414 105.107 14.9536C105.107 13.9657 105.289 13.0539 105.653 12.2181C106.031 11.3822 106.558 10.654 107.234 10.0335C107.911 9.41291 108.704 8.93166 109.615 8.58973C110.526 8.24779 111.514 8.07682 112.581 8.07682C113.661 8.07682 114.65 8.24779 115.547 8.58973C116.458 8.93166 117.245 9.41291 117.909 10.0335C118.585 10.654 119.112 11.3822 119.489 12.2181C119.866 13.0412 120.055 13.9531 120.055 14.9536C120.055 15.9414 119.866 16.8595 119.489 17.7081C119.112 18.5439 118.585 19.2721 117.909 19.8927C117.245 20.5005 116.458 20.9755 115.547 21.3174C114.65 21.6593 113.667 21.8303 112.601 21.8303ZM112.581 19.2088C113.192 19.2088 113.752 19.1075 114.259 18.9048C114.78 18.7022 115.235 18.4109 115.625 18.031C116.016 17.6511 116.315 17.2015 116.523 16.6822C116.744 16.163 116.855 15.5868 116.855 14.9536C116.855 14.3203 116.744 13.7441 116.523 13.2249C116.315 12.7056 116.016 12.2561 115.625 11.8761C115.248 11.4962 114.799 11.2049 114.279 11.0023C113.758 10.7997 113.192 10.6983 112.581 10.6983C111.97 10.6983 111.404 10.7997 110.883 11.0023C110.376 11.2049 109.927 11.4962 109.537 11.8761C109.146 12.2561 108.841 12.7056 108.62 13.2249C108.411 13.7441 108.307 14.3203 108.307 14.9536C108.307 15.5741 108.411 16.1503 108.62 16.6822C108.841 17.2015 109.14 17.6511 109.517 18.031C109.908 18.4109 110.363 18.7022 110.883 18.9048C111.404 19.1075 111.97 19.2088 112.581 19.2088Z" fill="#193C63"/>
<path d="M122.431 21.6023V8.30478H125.046L133.105 17.879H131.837V8.30478H134.959V21.6023H132.364L124.285 12.0281H125.553V21.6023H122.431Z" fill="#193C63"/>
<path d="M136.396 21.6023L142.485 8.30478H145.607L151.715 21.6023H148.397L143.402 9.86249H144.651L139.635 21.6023H136.396ZM139.44 18.7529L140.279 16.4163H147.305L148.163 18.7529H139.44Z" fill="#193C63"/>
<path d="M153.132 21.6023V8.30478H159.338C160.821 8.30478 162.128 8.58339 163.26 9.14062C164.392 9.68519 165.277 10.4514 165.914 11.4392C166.552 12.427 166.87 13.5985 166.87 14.9536C166.87 16.296 166.552 17.4674 165.914 18.4679C165.277 19.4557 164.392 20.2283 163.26 20.7855C162.128 21.3301 160.821 21.6023 159.338 21.6023H153.132ZM156.294 19.0758H159.182C160.092 19.0758 160.879 18.9112 161.543 18.5819C162.219 18.24 162.74 17.7587 163.104 17.1382C163.481 16.5176 163.67 15.7894 163.67 14.9536C163.67 14.105 163.481 13.3768 163.104 12.769C162.74 12.1484 162.219 11.6735 161.543 11.3442C160.879 11.0023 160.092 10.8313 159.182 10.8313H156.294V19.0758Z" fill="#193C63"/>
<path d="M169.255 21.6023V8.30478H172.416V21.6023H169.255Z" fill="#193C63"/>
<path d="M173.862 21.6023L179.951 8.30478H183.073L189.181 21.6023H185.864L180.868 9.86249H182.117L177.102 21.6023H173.862ZM176.907 18.7529L177.746 16.4163H184.771L185.63 18.7529H176.907Z" fill="#193C63"/>
<path d="M190.599 21.6023V8.30478H193.76V19.0948H200.61V21.6023H190.599Z" fill="#193C63"/>
<path d="M88.0682 33.5221H92.22V34.2103H88.0682V33.5221ZM88.158 37.0503H92.882V37.7493H87.3277V30.1033H92.7137V30.8023H88.158V37.0503Z" fill="#1A84C3"/>
<path d="M94.8338 37.7493V30.1033H95.5183L100.938 36.7444H100.579V30.1033H101.398V37.7493H100.714L95.3051 31.1082H95.6642V37.7493H94.8338Z" fill="#1A84C3"/>
<path d="M105.488 37.7493V30.8023H102.727V30.1033H109.078V30.8023H106.318V37.7493H105.488Z" fill="#1A84C3"/>
<path d="M111.146 33.5221H115.297V34.2103H111.146V33.5221ZM111.235 37.0503H115.959V37.7493H110.405V30.1033H115.791V30.8023H111.235V37.0503Z" fill="#1A84C3"/>
<path d="M117.911 37.7493V30.1033H120.851C121.517 30.1033 122.089 30.2088 122.568 30.42C123.047 30.6239 123.413 30.9225 123.667 31.3157C123.929 31.7017 124.06 32.1713 124.06 32.7248C124.06 33.2636 123.929 33.7297 123.667 34.1229C123.413 34.5089 123.047 34.8074 122.568 35.0186C122.089 35.2225 121.517 35.3244 120.851 35.3244H118.371L118.741 34.9531V37.7493H117.911ZM123.275 37.7493L121.255 34.9749H122.153L124.184 37.7493H123.275ZM118.741 35.0186L118.371 34.6363H120.829C121.614 34.6363 122.209 34.4688 122.613 34.1338C123.024 33.7989 123.23 33.3292 123.23 32.7248C123.23 32.1131 123.024 31.6398 122.613 31.3048C122.209 30.9698 121.614 30.8023 120.829 30.8023H118.371L118.741 30.42V35.0186Z" fill="#1A84C3"/>
<path d="M126.02 37.7493V30.1033H128.96C129.626 30.1033 130.198 30.2088 130.677 30.42C131.155 30.6239 131.522 30.9225 131.776 31.3157C132.038 31.7017 132.169 32.1713 132.169 32.7248C132.169 33.2636 132.038 33.7297 131.776 34.1229C131.522 34.5089 131.155 34.8074 130.677 35.0186C130.198 35.2298 129.626 35.3354 128.96 35.3354H126.48L126.85 34.9531V37.7493H126.02ZM126.85 35.0186L126.48 34.6254H128.937C129.723 34.6254 130.318 34.4615 130.722 34.1338C131.133 33.7989 131.339 33.3292 131.339 32.7248C131.339 32.1131 131.133 31.6398 130.722 31.3048C130.318 30.9698 129.723 30.8023 128.937 30.8023H126.48L126.85 30.42V35.0186Z" fill="#1A84C3"/>
<path d="M133.964 37.7493V30.1033H136.904C137.57 30.1033 138.142 30.2088 138.621 30.42C139.1 30.6239 139.466 30.9225 139.721 31.3157C139.983 31.7017 140.113 32.1713 140.113 32.7248C140.113 33.2636 139.983 33.7297 139.721 34.1229C139.466 34.5089 139.1 34.8074 138.621 35.0186C138.142 35.2225 137.57 35.3244 136.904 35.3244H134.424L134.795 34.9531V37.7493H133.964ZM139.328 37.7493L137.308 34.9749H138.206L140.237 37.7493H139.328ZM134.795 35.0186L134.424 34.6363H136.882C137.667 34.6363 138.262 34.4688 138.666 34.1338C139.077 33.7989 139.283 33.3292 139.283 32.7248C139.283 32.1131 139.077 31.6398 138.666 31.3048C138.262 30.9698 137.667 30.8023 136.882 30.8023H134.424L134.795 30.42V35.0186Z" fill="#1A84C3"/>
<path d="M142.073 37.7493V30.1033H142.904V37.7493H142.073Z" fill="#1A84C3"/>
<path d="M147.625 37.8149C147.041 37.8149 146.48 37.7239 145.942 37.5418C145.411 37.3525 144.999 37.1122 144.707 36.8209L145.033 36.1983C145.31 36.4604 145.68 36.6825 146.144 36.8646C146.615 37.0394 147.109 37.1267 147.625 37.1267C148.119 37.1267 148.519 37.0685 148.826 36.952C149.14 36.8282 149.368 36.6643 149.51 36.4604C149.66 36.2565 149.734 36.0308 149.734 35.7832C149.734 35.4846 149.645 35.2443 149.465 35.0623C149.293 34.8802 149.065 34.7382 148.781 34.6363C148.496 34.5271 148.182 34.4324 147.838 34.3523C147.494 34.2722 147.15 34.1885 146.806 34.1011C146.462 34.0064 146.144 33.8826 145.852 33.7297C145.568 33.5768 145.336 33.3765 145.156 33.1289C144.984 32.8741 144.898 32.5427 144.898 32.1349C144.898 31.7563 144.999 31.4104 145.201 31.0972C145.411 30.7768 145.729 30.522 146.155 30.3326C146.581 30.136 147.127 30.0377 147.793 30.0377C148.235 30.0377 148.672 30.0996 149.106 30.2234C149.54 30.3399 149.914 30.5038 150.228 30.7149L149.948 31.3594C149.611 31.1409 149.252 30.9807 148.87 30.8788C148.496 30.7768 148.134 30.7259 147.782 30.7259C147.311 30.7259 146.922 30.7878 146.615 30.9116C146.308 31.0353 146.08 31.2028 145.931 31.414C145.788 31.6179 145.717 31.8509 145.717 32.1131C145.717 32.4116 145.803 32.652 145.975 32.834C146.155 33.0161 146.387 33.1581 146.671 33.26C146.963 33.3619 147.281 33.453 147.625 33.5331C147.969 33.6132 148.309 33.7006 148.646 33.7952C148.99 33.8899 149.304 34.0137 149.589 34.1666C149.88 34.3122 150.112 34.5089 150.284 34.7564C150.464 35.004 150.554 35.3281 150.554 35.7286C150.554 36.1 150.449 36.4459 150.239 36.7663C150.03 37.0794 149.708 37.3343 149.274 37.5309C148.848 37.7202 148.298 37.8149 147.625 37.8149Z" fill="#1A84C3"/>
<path d="M153.103 33.5221H157.255V34.2103H153.103V33.5221ZM153.193 37.0503H157.917V37.7493H152.363V30.1033H157.749V30.8023H153.193V37.0503Z" fill="#1A84C3"/>
<path d="M162.035 37.8149C161.451 37.8149 160.89 37.7239 160.351 37.5418C159.82 37.3525 159.409 37.1122 159.117 36.8209L159.442 36.1983C159.719 36.4604 160.09 36.6825 160.553 36.8646C161.025 37.0394 161.518 37.1267 162.035 37.1267C162.528 37.1267 162.928 37.0685 163.235 36.952C163.549 36.8282 163.777 36.6643 163.92 36.4604C164.069 36.2565 164.144 36.0308 164.144 35.7832C164.144 35.4846 164.054 35.2443 163.875 35.0623C163.703 34.8802 163.475 34.7382 163.19 34.6363C162.906 34.5271 162.592 34.4324 162.248 34.3523C161.904 34.2722 161.559 34.1885 161.215 34.1011C160.871 34.0064 160.553 33.8826 160.262 33.7297C159.977 33.5768 159.745 33.3765 159.566 33.1289C159.394 32.8741 159.308 32.5427 159.308 32.1349C159.308 31.7563 159.409 31.4104 159.611 31.0972C159.82 30.7768 160.138 30.522 160.565 30.3326C160.991 30.136 161.537 30.0377 162.203 30.0377C162.644 30.0377 163.082 30.0996 163.516 30.2234C163.95 30.3399 164.324 30.5038 164.638 30.7149L164.357 31.3594C164.021 31.1409 163.662 30.9807 163.28 30.8788C162.906 30.7768 162.543 30.7259 162.192 30.7259C161.72 30.7259 161.331 30.7878 161.025 30.9116C160.718 31.0353 160.49 31.2028 160.34 31.414C160.198 31.6179 160.127 31.8509 160.127 32.1131C160.127 32.4116 160.213 32.652 160.385 32.834C160.565 33.0161 160.796 33.1581 161.081 33.26C161.372 33.3619 161.69 33.453 162.035 33.5331C162.379 33.6132 162.719 33.7006 163.056 33.7952C163.4 33.8899 163.714 34.0137 163.998 34.1666C164.29 34.3122 164.522 34.5089 164.694 34.7564C164.873 35.004 164.963 35.3281 164.963 35.7286C164.963 36.1 164.858 36.4459 164.649 36.7663C164.439 37.0794 164.118 37.3343 163.684 37.5309C163.258 37.7202 162.708 37.8149 162.035 37.8149Z" fill="#1A84C3"/>
<defs>
<clipPath id="clip0_7_117">
<rect width="73.1796" height="43.2171" fill="white" transform="translate(0.331757 1.33731)"/>
</clipPath>
</defs>
</svg>
