<svg width="84" height="44" viewBox="0 0 84 44" xmlns="http://www.w3.org/2000/svg">
<path d="M35.6011 26.2027C34.7353 25.2391 33.2917 25.143 32.3298 25.9137C31.3673 26.7806 31.2714 28.2259 32.0412 29.1889L34.3507 31.9822C19.5331 31.4043 10.3918 29.1889 6.54299 27.3584C5.38855 26.7805 5.38855 25.335 6.54299 24.7572C9.14111 23.5047 14.0482 22.156 21.2647 21.193V16.5692C10.6801 17.9178 0 20.6152 0 26.0097C0 34.2944 24.5362 36.2209 35.0242 36.6067L31.5603 40.0747C30.6945 40.9416 30.6945 42.483 31.5603 43.3499C32.4261 44.2167 33.9658 44.2167 34.8316 43.3499L41.471 36.7996C42.3368 35.9327 42.4335 34.3912 41.6636 33.3316C40.0273 31.4051 37.3332 28.2259 35.6016 26.2027L35.6011 26.2027Z"/>
<path d="M62.7354 16.5693V21.1932C69.8558 22.1568 74.859 23.5053 77.4571 24.7573C78.6115 25.3352 78.6115 26.8766 77.4571 27.3585C73.5119 29.285 63.6012 31.5973 47.725 32.079C46.4739 32.079 45.4155 33.1387 45.4155 34.4873C45.4155 35.7399 46.474 36.7995 47.725 36.7028C57.347 36.4139 84.0001 34.7763 84.0001 26.1058C84.0001 20.6158 73.3196 17.9185 62.7354 16.5692V16.5693Z"/>
<path d="M29.2506 16.5693C29.8278 16.2804 30.309 15.8947 30.6936 15.5096C31.4635 14.7389 31.8481 13.5831 31.8481 12.2345C31.8481 10.7897 31.3668 9.53714 30.3084 8.67031C29.2499 7.7067 27.7103 7.22559 25.69 7.22559C24.4389 7.22559 23.2845 7.41844 22.226 7.80348C21.2636 8.18852 20.3977 8.67033 19.7245 9.24821L19.3399 9.53715L20.9756 11.8493L21.3601 11.5604C22.034 11.1753 22.7072 10.7896 23.3811 10.5007C24.055 10.2117 24.8241 10.1156 25.6906 10.1156C26.5564 10.1156 27.3262 10.3085 27.8074 10.6935C28.2887 11.0786 28.4813 11.6571 28.4813 12.3311C28.4813 13.198 28.1927 13.8726 27.5188 14.4504C26.8449 15.0283 25.7872 15.3173 24.4394 15.3173H22.13V18.2075H24.3429C25.8825 18.2075 27.037 18.4003 27.9028 18.8821C28.6727 19.2672 28.9613 19.9418 28.9613 20.9055C28.9613 21.8691 28.6727 22.6391 27.9988 23.2176C27.3249 23.7955 26.2672 24.0845 24.8235 24.0845C24.0537 24.0845 23.1879 23.9884 22.418 23.7955C21.5522 23.6027 20.7824 23.3137 20.0125 22.9287L19.2427 22.5436V25.7226L19.5313 25.8187C20.3011 26.2038 21.1669 26.4934 22.0328 26.6856C22.8987 26.8784 23.7645 26.8784 24.727 26.8784C26.3627 26.8784 27.8064 26.5895 28.8641 26.1077C30.0186 25.6259 30.7884 24.8551 31.3657 23.9883C31.9429 23.1215 32.1356 22.0619 32.1356 20.9053C32.1356 19.5567 31.751 18.497 30.8845 17.6302C30.6945 17.2438 30.0207 16.8588 29.2508 16.5691L29.2506 16.5693Z"/>
<path d="M41.4706 14.3537C40.3161 14.3537 39.3537 14.5466 38.5838 15.0284C38.1992 15.2212 37.9099 15.4134 37.6213 15.703C37.7173 15.2212 37.8139 14.7394 37.9099 14.2583C38.1025 13.3915 38.3912 12.7168 38.7757 12.0428C39.1603 11.4649 39.7382 10.9831 40.4114 10.5981C41.3739 10.1163 42.7209 9.92342 44.164 10.1163C44.5486 10.1163 44.8379 10.2124 45.1265 10.3091L45.8003 10.502V7.61044L45.4158 7.51435C45.1271 7.41826 44.7419 7.32149 44.2613 7.32149C43.7801 7.32149 43.3955 7.2254 43.0102 7.2254C41.1819 7.2254 39.7389 7.51435 38.5838 8.18901C37.4293 8.86367 36.4669 9.7305 35.8896 10.7902C35.2157 11.8499 34.8311 13.1024 34.5425 14.3543C34.3499 15.6069 34.158 16.9555 34.158 18.3042C34.158 20.2307 34.4466 21.7722 35.0238 23.0247C35.601 24.2772 36.4668 25.2402 37.4293 25.9148C38.3918 26.4927 39.5461 26.8785 40.7974 26.8785C42.7216 26.8785 44.2613 26.3006 45.4158 25.048C46.5702 23.8922 47.1474 22.2546 47.1474 20.2313C47.1474 18.3048 46.5702 16.8593 45.5117 15.7996C44.5492 14.8353 43.2023 14.3536 41.4705 14.3536L41.4706 14.3537ZM43.9721 20.3269C43.9721 21.6755 43.6835 22.6391 43.1063 23.2171C42.5291 23.7951 41.7592 24.0839 40.8934 24.0839C40.1236 24.0839 39.5463 23.891 39.065 23.506C38.5838 23.121 38.1992 22.5424 37.9106 21.9645C37.622 21.2899 37.526 20.6159 37.526 19.9412C37.526 19.4594 37.622 19.0743 37.9106 18.5925C38.1992 18.1107 38.5845 17.7257 39.1617 17.4367C39.6429 17.1478 40.3161 16.9549 40.99 16.9549C42.0485 16.9549 42.7217 17.2439 43.2995 17.8218C43.7794 18.4964 43.9721 19.3634 43.9721 20.3269Z"/>
<path d="M60.1372 9.92231C59.0788 8.0918 57.3472 7.22498 55.1336 7.22498C53.5939 7.22498 52.2468 7.61002 51.2851 8.47752C50.3226 9.24827 49.6495 10.404 49.1683 11.9455C48.7837 13.3902 48.5911 15.1245 48.5911 17.1472C48.5911 20.1333 49.0723 22.5417 50.1307 24.276C51.1892 26.1065 52.9208 26.9733 55.1344 26.9733C56.6741 26.9733 58.0212 26.5883 58.9828 25.7208C59.9453 24.95 60.6185 23.7943 61.0997 22.2528C61.4843 20.8081 61.7736 19.0738 61.7736 17.0511C61.7729 14.0643 61.1957 11.656 60.1372 9.92231ZM58.5016 17.1473C58.5016 19.5556 58.213 21.3861 57.6357 22.5418C57.1545 23.6015 56.2887 24.0833 55.1342 24.0833C53.9797 24.0833 53.1132 23.6015 52.6326 22.5418C52.0554 21.386 51.8628 19.5556 51.8628 17.1473C51.8628 14.739 52.1514 12.9085 52.6326 11.7528C53.1139 10.6931 53.8837 10.2113 55.1342 10.2113C56.2886 10.2113 57.0584 10.6931 57.6357 11.7528C58.2123 12.9086 58.5016 14.739 58.5016 17.1473Z"/>
<path d="M62.5429 7.514C60.5219 7.514 58.7903 5.87642 58.7903 3.757C58.7903 1.63767 60.4259 0 62.5429 0C64.5638 0 66.2955 1.63758 66.2955 3.757C66.2955 5.87633 64.5632 7.514 62.5429 7.514ZM62.5429 2.02266C61.5804 2.02266 60.8113 2.79341 60.8113 3.75631C60.8113 4.71992 61.5811 5.48997 62.5429 5.48997C63.5054 5.48997 64.2745 4.71921 64.2745 3.75631C64.2745 2.79341 63.5047 2.02266 62.5429 2.02266Z"/>
</svg>
