<svg width="21" height="21" viewBox="0 0 21 21" xmlns="http://www.w3.org/2000/svg">
<path d="M20.444 6.3767C20.396 5.31185 20.2239 4.58327 19.9799 3.94676C19.7238 3.29023 19.3838 2.72978 18.8277 2.17734C18.2716 1.6249 17.7154 1.27662 17.0593 1.02442C16.4232 0.776221 15.695 0.608086 14.6308 0.560048C13.5626 0.51201 13.2225 0.5 10.51 0.5C7.79346 0.5 7.45339 0.51201 6.38918 0.560048C5.32497 0.608086 4.59682 0.780224 3.96069 1.02442C3.30056 1.28062 2.74045 1.6209 2.18834 2.17734C1.63623 2.73379 1.28816 3.29023 1.03611 3.94676C0.79206 4.58327 0.620026 5.31185 0.572016 6.3767C0.524007 7.44556 0.512004 7.78583 0.512004 10.5C0.512004 13.2182 0.524007 13.5584 0.572016 14.6233C0.620026 15.6882 0.79206 16.4167 1.03611 17.0532C1.29216 17.7098 1.63223 18.2702 2.18834 18.8227C2.74045 19.3791 3.30056 19.7234 3.95669 19.9756C4.59282 20.2238 5.32097 20.3919 6.38518 20.44C7.45339 20.488 7.79346 20.5 10.506 20.5C13.2225 20.5 13.5626 20.488 14.6268 20.44C15.691 20.3919 16.4192 20.2198 17.0553 19.9756C17.7114 19.7194 18.2716 19.3791 18.8237 18.8227C19.3758 18.2662 19.7238 17.7098 19.9759 17.0532C20.2239 16.4167 20.392 15.6882 20.44 14.6233C20.488 13.5544 20.5 13.2142 20.5 10.5C20.5 7.78583 20.492 7.44155 20.444 6.3767ZM18.6476 14.5432C18.6036 15.52 18.4396 16.0524 18.3036 16.4007C18.1235 16.8651 17.9035 17.2014 17.5514 17.5536C17.1993 17.9059 16.8673 18.1181 16.3992 18.3062C16.0471 18.4424 15.515 18.6065 14.5428 18.6505C13.4906 18.6986 13.1745 18.7106 10.502 18.7106C7.82947 18.7106 7.5134 18.6986 6.46119 18.6505C5.485 18.6065 4.95289 18.4424 4.60482 18.3062C4.14073 18.1261 3.80466 17.9059 3.45259 17.5536C3.10052 17.2014 2.88848 16.8691 2.70044 16.4007C2.56441 16.0484 2.40038 15.516 2.35637 14.5432C2.30836 13.4904 2.29636 13.1741 2.29636 10.5C2.29636 7.82586 2.30836 7.50961 2.35637 6.45677C2.40038 5.47998 2.56441 4.94756 2.70044 4.59928C2.88048 4.13491 3.10052 3.79864 3.45259 3.44636C3.80466 3.09408 4.13673 2.88191 4.60482 2.69376C4.95689 2.55765 5.489 2.39351 6.46119 2.34948C7.5134 2.30144 7.82947 2.28943 10.502 2.28943C13.1745 2.28943 13.4906 2.30144 14.5428 2.34948C15.519 2.39351 16.0511 2.55765 16.3992 2.69376C16.8633 2.8739 17.1993 3.09408 17.5514 3.44636C17.9035 3.79864 18.1155 4.1309 18.3036 4.59928C18.4396 4.95156 18.6036 5.48399 18.6476 6.45677C18.6956 7.50961 18.7076 7.82586 18.7076 10.5C18.7076 13.1741 18.6916 13.4904 18.6476 14.5432Z"/>
<path d="M10.502 5.35989C7.66147 5.35989 5.36501 7.66173 5.36501 10.5C5.36501 13.3423 7.66547 15.6401 10.502 15.6401C13.3386 15.6401 15.6391 13.3343 15.6391 10.5C15.6391 7.65773 13.3426 5.35989 10.502 5.35989ZM10.502 13.8347C8.66167 13.8347 7.16937 12.3415 7.16937 10.5C7.16937 8.65853 8.66167 7.16533 10.502 7.16533C12.3424 7.16533 13.8347 8.65853 13.8347 10.5C13.8347 12.3415 12.3424 13.8347 10.502 13.8347Z"/>
<path d="M15.8391 6.36069C16.502 6.36069 17.0393 5.823 17.0393 5.15973C17.0393 4.49646 16.502 3.95877 15.8391 3.95877C15.1762 3.95877 14.6388 4.49646 14.6388 5.15973C14.6388 5.823 15.1762 6.36069 15.8391 6.36069Z"/>
<path d="M0.5 10.5C0.5 13.2182 0.512002 13.5584 0.560012 14.6233C0.608022 15.6882 0.780056 16.4167 1.0241 17.0532C1.28016 17.7098 1.62022 18.2702 2.17634 18.8227C2.72845 19.3751 3.28856 19.7234 3.94469 19.9756C4.58082 20.2238 5.30896 20.3919 6.37317 20.44C7.44139 20.488 7.78146 20.5 10.494 20.5C13.2105 20.5 13.5506 20.488 14.6148 20.44C15.679 20.3919 16.4072 20.2198 17.0433 19.9756C17.6994 19.7194 18.2596 19.3791 18.8117 18.8227C19.3638 18.2702 19.7118 17.7098 19.9639 17.0532C20.2119 16.4167 20.38 15.6882 20.428 14.6233C20.476 13.5544 20.488 13.2142 20.488 10.5C20.488 7.78183 20.476 7.44155 20.428 6.3767C20.38 5.31185 20.2079 4.58327 19.9639 3.94676C19.7078 3.29023 19.3678 2.72978 18.8117 2.17734C18.2636 1.6209 17.7034 1.27662 17.0473 1.02442C16.4112 0.776221 15.683 0.608086 14.6188 0.560048C13.5506 0.51201 13.2105 0.5 10.498 0.5C7.78146 0.5 7.44139 0.51201 6.37717 0.560048C5.31296 0.608086 4.58482 0.780224 3.94869 1.02442C3.29256 1.28062 2.73245 1.6209 2.18034 2.17734C1.62823 2.73379 1.28016 3.29023 1.02811 3.94676C0.780056 4.58327 0.608022 5.31185 0.560012 6.3767C0.512002 7.44155 0.5 7.78183 0.5 10.5ZM2.30436 10.5C2.30436 7.82986 2.31636 7.50961 2.36437 6.45677C2.40838 5.47998 2.57241 4.94756 2.70844 4.59928C2.88848 4.13491 3.10852 3.79864 3.46059 3.44636C3.81266 3.09408 4.14473 2.88191 4.61282 2.69376C4.96489 2.55765 5.497 2.39351 6.46919 2.34948C7.5214 2.30144 7.83747 2.28943 10.51 2.28943C13.1825 2.28943 13.4986 2.30144 14.5508 2.34948C15.527 2.39351 16.0591 2.55765 16.4072 2.69376C16.8713 2.8739 17.2073 3.09408 17.5594 3.44636C17.9115 3.79864 18.1235 4.1309 18.3116 4.59928C18.4476 4.95156 18.6116 5.48399 18.6556 6.45677C18.7036 7.50961 18.7156 7.82586 18.7156 10.5C18.7156 13.1741 18.7036 13.4904 18.6556 14.5432C18.6116 15.52 18.4476 16.0524 18.3116 16.4007C18.1315 16.8651 17.9115 17.2014 17.5594 17.5536C17.2073 17.9059 16.8753 18.1181 16.4072 18.3062C16.0551 18.4424 15.523 18.6065 14.5508 18.6505C13.4986 18.6986 13.1825 18.7106 10.51 18.7106C7.83747 18.7106 7.5214 18.6986 6.46919 18.6505C5.493 18.6065 4.96089 18.4424 4.61282 18.3062C4.14873 18.1261 3.81266 17.9059 3.46059 17.5536C3.10852 17.2014 2.89648 16.8691 2.70844 16.4007C2.57241 16.0484 2.40838 15.516 2.36437 14.5432C2.31236 13.4904 2.30436 13.1701 2.30436 10.5Z"/>
</svg>
