<svg width="23" height="21" viewBox="0 0 23 21" xmlns="http://www.w3.org/2000/svg">
<path fill-rule="evenodd" clip-rule="evenodd" d="M0 5.1C0 3.11177 1.79086 1.5 4 1.5H19C21.2091 1.5 23 3.11177 23 5.1V15.9C23 17.8882 21.2091 19.5 19 19.5H4C1.79086 19.5 0 17.8882 0 15.9V5.1ZM4 3.12H19C19.29 3.12 19.5669 3.17049 19.8204 3.26224L12.9272 9.46617C12.1461 10.1691 10.8798 10.1691 10.0987 9.46616L3.19816 3.25563C3.44661 3.16807 3.71707 3.12 4 3.12ZM1.9367 4.41137C1.8483 4.62584 1.8 4.85784 1.8 5.1V15.9C1.8 16.9935 2.78497 17.88 4 17.88H19C20.215 17.88 21.2 16.9935 21.2 15.9V5.1C21.2 4.86425 21.1542 4.63813 21.0702 4.42843L12.7916 11.8792C12.7884 11.8821 12.7884 11.8869 12.7916 11.8898C12.7949 11.8927 12.7949 11.8975 12.7916 11.9004L12.162 12.4671C11.8101 12.7838 11.2395 12.7838 10.8876 12.4671L1.9367 4.41137Z"/>
</svg>
