<svg viewBox="0 0 23 21" xmlns="http://www.w3.org/2000/svg">
<path d="M16 12.5C15.75 12.375 14.5 11.75 14.25 11.75C14 11.625 13.875 11.625 13.75 11.875C13.6875 12 13.5312 12.1875 13.375 12.375C13.2188 12.5625 13.0625 12.75 13 12.875C12.875 13 12.75 13 12.5 13C12.461 12.9805 12.4097 12.9579 12.3473 12.9304C12.0097 12.7817 11.3439 12.4884 10.5 11.75C9.75002 11.125 9.25001 10.25 9.12501 10C9.00002 9.75001 9.125 9.62502 9.25 9.50002L9.625 9.125C9.6875 9.06251 9.71876 9 9.75001 8.9375C9.78126 8.875 9.81251 8.81249 9.87502 8.75C9.95835 8.66667 9.93057 8.58333 9.90279 8.5C9.8889 8.45834 9.87502 8.41667 9.87502 8.375C9.87502 8.25 9.375 7 9.12501 6.5C9.00001 6.125 8.75001 6.125 8.62502 6.125H8.12498C7.99999 6.125 7.74998 6.125 7.49998 6.375C7.24999 6.625 6.62501 7.25001 6.62501 8.5C6.62501 9.53716 7.22738 10.4883 7.50392 10.9249C7.56053 11.0143 7.60374 11.0825 7.62499 11.125C7.64046 11.1405 7.67891 11.1942 7.73916 11.2785C8.16564 11.8749 9.6844 13.9988 11.875 14.875C13.6399 15.6017 14.1977 15.5524 14.6225 15.5148C14.7092 15.5072 14.7903 15.5 14.875 15.5C15.375 15.5 16.375 14.875 16.5 14.375C16.75 13.75 16.75 13.25 16.625 13.25C16.5195 12.7223 16.3248 12.6402 16.1163 12.5521C16.0779 12.5359 16.0389 12.5195 16 12.5Z"/>
<path d="M18.5 3.375C16.625 1.5 14.125 0.5 11.5 0.5C6 0.5 1.5 5 1.5 10.5C1.5 12.25 2.00001 14 2.87501 15.5L1.5 20.5L6.75002 19.125C8.25001 19.875 9.875 20.375 11.5 20.375C17 20.375 21.5 15.875 21.5 10.375C21.5 7.75 20.375 5.25 18.5 3.375ZM11.5 18.75C10 18.75 8.50001 18.375 7.25001 17.625L6.99999 17.5L3.87499 18.375L4.75001 15.375L4.49999 15C3.625 13.625 3.24999 12.125 3.24999 10.625C3.24999 6.125 7 2.375 11.5 2.375C13.75 2.375 15.75 3.25 17.375 4.75C19 6.375 19.75 8.375 19.75 10.625C19.75 15 16.125 18.75 11.5 18.75Z"/>
</svg>
