<svg width="1920" height="1229" viewBox="0 0 1920 1229" fill="none" xmlns="http://www.w3.org/2000/svg">
<g opacity="0.05" clip-path="url(#clip0_20_1307)">
<path d="M789.931 1211.94C768.256 1180.63 711.339 1166.38 667.605 1166.38C654.123 1166.38 641.664 1167.61 630.443 1170C589.312 1178.88 554.197 1186.81 523.221 1193.85C440.277 1212.67 390.229 1224.06 348.629 1224.06C313.984 1224.06 284.288 1216.34 242.731 1196.5C199.339 1175.76 167.467 1156.05 141.909 1140.18C101.76 1115.3 75.264 1098.92 38.9973 1098.92C27.136 1098.92 14.336 1100.75 0 1104.51V1107.58C14.3787 1103.78 27.1787 1101.95 38.9973 1101.95C74.4533 1101.95 100.651 1118.21 140.331 1142.78C165.973 1158.65 197.888 1178.45 241.451 1199.23C283.477 1219.28 313.515 1227.09 348.629 1227.09C390.571 1227.09 440.747 1215.7 523.861 1196.84C554.837 1189.8 589.909 1181.86 631.04 1172.99C642.005 1170.64 654.293 1169.45 667.563 1169.45C710.571 1169.45 766.421 1183.31 787.456 1213.74C796.715 1227.18 798.251 1242.41 791.979 1259.09C779.435 1292.37 720.768 1321.73 668.971 1347.67C637.696 1363.33 608.128 1378.13 592.939 1391.87C548.523 1432.02 559.189 1486.46 577.195 1545.13H580.309C562.432 1487.06 551.637 1433.26 594.901 1394.09C609.792 1380.61 639.189 1365.93 670.293 1350.35C722.56 1324.2 781.781 1294.5 794.752 1260.16C801.408 1242.54 799.787 1226.32 789.931 1212.07V1211.94Z" fill="#417940"/>
<path d="M13.568 870.44C19.6267 738.856 103.509 642.898 170.923 565.8L175.701 560.338C183.509 552.104 201.557 530.088 200.149 503.506C199.296 487.336 191.275 472.658 176.299 459.944C167.339 452.306 159.061 445.224 151.168 438.44C116.309 408.488 88.7467 384.85 45.9947 355.197C30.3787 344.36 14.976 334.12 -9.08226e-06 324.477V326.013C14.7627 335.528 29.9093 345.597 45.2693 356.264C87.9787 385.874 115.499 409.512 150.315 439.421C158.208 446.205 166.485 453.33 175.445 460.925C190.123 473.384 197.973 487.72 198.827 503.549C200.235 529.661 182.443 551.336 174.72 559.485L169.899 564.989C102.357 642.216 18.304 738.344 12.2027 870.397C11.5627 884.477 6.10132 893.053 -0.0853424 895.997V897.533C6.57066 894.802 12.7573 886.098 13.4827 870.482L13.568 870.44Z" fill="#417940"/>
<path d="M43.392 871.805C48.9813 750.632 129.067 659.069 193.408 585.469L198.229 579.965C211.755 564.52 222.677 550.781 230.784 539.261C240.811 524.925 259.413 498.258 215.424 455.805C167.979 409.981 116.693 367.912 63.0613 330.706C41.1733 315.517 20.1387 301.864 0.0426667 289.576V291.069C19.9253 303.229 40.704 316.754 62.336 331.73C115.925 368.893 167.125 410.962 214.528 456.701C257.749 498.429 239.531 524.498 229.717 538.493C221.653 550.013 210.731 563.666 197.248 579.112L192.427 584.616C127.957 658.344 47.7013 750.12 42.112 871.72C39.5093 928.125 29.4827 960.936 10.5813 975.016C6.82667 977.789 3.28533 979.325 0 979.666V980.946C3.584 980.605 7.33867 979.026 11.3493 976.04C30.592 961.746 40.7467 928.594 43.392 871.762V871.805Z" fill="#417940"/>
<path d="M564.181 5.11717C555.904 -27.6082 489.003 -36.3975 411.52 -46.5095C392.363 -49.0268 372.565 -51.5868 353.365 -54.6588C268.416 -68.0562 190.677 -110.68 115.499 -151.939C77.8667 -172.59 39.3813 -193.667 0 -210.99V-207.747C38.8267 -190.552 76.8427 -169.731 114.048 -149.293C189.44 -107.949 267.435 -65.1548 352.896 -51.6722C372.181 -48.6428 391.979 -46.0401 411.136 -43.5228C484.352 -33.9228 553.472 -24.8775 561.28 5.88516C567.339 29.8638 536.107 66.2585 465.792 117.117C367.104 188.499 284.331 221.736 205.227 221.736C160.256 221.736 115.712 210.557 72.7467 188.584C45.9947 174.888 22.4853 158.248 0.0426667 141.437V145.149C22.0587 161.576 45.184 177.789 71.424 191.229C114.816 213.459 159.829 224.723 205.269 224.723C285.013 224.723 368.384 191.315 467.584 119.549C540.032 67.1545 570.709 30.8452 564.224 5.15984L564.181 5.11717Z" fill="#417940"/>
<path d="M11.0507 678.568C22.528 658.344 37.4613 639.997 51.8827 622.248C72.6613 596.648 94.1653 570.195 105.728 537.683C126.123 480.339 86.144 453.885 43.776 425.811C39.8507 423.208 35.9253 420.605 32 417.96C25.0027 413.224 18.432 408.787 11.9467 404.264C8.74667 402.045 4.82134 399.229 -0.0426636 395.688V397.267C4.43734 400.552 8.192 403.24 11.2213 405.331C17.7067 409.853 24.32 414.291 31.3173 419.027C35.2427 421.672 39.168 424.275 43.0507 426.877C84.9493 454.653 124.544 480.851 104.491 537.256C92.9707 569.555 71.552 595.923 50.816 621.437C36.352 639.229 21.4187 657.619 9.89867 677.928C6.44267 684.029 3.28534 691.923 -0.0426636 700.328V703.784C0.29867 702.931 0.640003 702.035 0.981336 701.181C4.352 692.691 7.552 684.669 11.008 678.568H11.0507Z" fill="#417940"/>
<path d="M534.955 1310.12C541.867 1305.77 549.845 1305.21 556.715 1305.21C559.957 1305.21 563.243 1305.34 566.699 1305.51C570.155 1305.68 573.696 1305.85 577.237 1305.85C585.173 1305.85 595.541 1305.08 604.928 1299.28C629.163 1284.26 637.227 1266.81 634.411 1257C632.576 1250.51 626.261 1246.76 617.131 1246.76C608.981 1246.76 598.656 1249.66 587.221 1255.21C579.925 1258.75 573.355 1265.02 566.997 1271.16C559.317 1278.55 551.381 1286.18 542.251 1288.66C539.435 1289.43 536.661 1289.81 533.76 1289.81C528 1289.81 522.837 1288.32 517.376 1286.78C511.957 1285.24 506.411 1283.62 500.267 1283.62C498.133 1283.62 496 1283.84 493.867 1284.22C483.029 1286.23 475.648 1293.1 468.48 1299.75C462.507 1305.3 456.363 1311.02 448.256 1313.83C439.083 1317.03 426.624 1318.61 410.197 1318.61C388.864 1318.61 365.227 1315.92 346.197 1313.79C340.736 1313.15 335.659 1312.59 331.136 1312.13C291.669 1308.16 250.581 1295.78 205.611 1274.32C157.995 1251.58 123.947 1230.5 96.5547 1213.52C81.6213 1204.26 66.304 1199.57 51.1147 1199.57C31.7867 1199.57 14.6347 1206.91 0 1218.22V1219.79C14.5493 1208.32 31.744 1200.85 51.1147 1200.85C66.0907 1200.85 81.152 1205.46 95.9147 1214.63C123.307 1231.61 157.397 1252.73 205.099 1275.47C250.197 1297.02 291.413 1309.44 331.008 1313.4C335.531 1313.87 340.608 1314.43 346.069 1315.07C365.099 1317.24 388.821 1319.89 410.197 1319.89C426.752 1319.89 439.339 1318.31 448.64 1315.07C457.003 1312.17 463.275 1306.32 469.333 1300.69C476.672 1293.86 483.627 1287.42 494.08 1285.46C496.128 1285.07 498.133 1284.9 500.224 1284.9C506.197 1284.9 511.701 1286.48 516.992 1288.02C522.283 1289.55 527.787 1291.13 533.76 1291.13C536.747 1291.13 539.648 1290.75 542.592 1289.94C552.021 1287.34 560.085 1279.61 567.893 1272.15C574.165 1266.13 580.693 1259.86 587.819 1256.44C599.083 1251.03 609.237 1248.13 617.173 1248.13C625.835 1248.13 631.509 1251.41 633.216 1257.43C635.904 1266.81 627.968 1283.62 604.288 1298.3C595.157 1303.98 585.045 1304.7 577.237 1304.7C573.739 1304.7 570.197 1304.53 566.784 1304.36C563.456 1304.19 560.043 1304.06 556.757 1304.06C549.675 1304.06 541.483 1304.66 534.315 1309.18C526.421 1314.13 520.405 1326.67 514.603 1338.83C511.104 1346.17 507.776 1353.09 504.277 1357.86C475.093 1397.63 473.301 1440.47 479.616 1492.52C481.792 1510.4 485.419 1528.02 489.771 1545.21H491.093C486.699 1527.98 483.029 1510.31 480.853 1492.39C474.581 1440.64 476.331 1398.1 505.301 1358.67C508.885 1353.77 512.213 1346.81 515.755 1339.43C521.472 1327.48 527.403 1315.11 534.997 1310.33L534.955 1310.12Z" fill="#417940"/>
<path d="M115.328 584.616C117.248 582.355 119.168 580.051 121.131 577.747C148.608 545.448 176.981 512.04 144.725 472.104C119.765 441.213 82.0907 415.741 48.8107 393.256C41.9413 388.605 35.4133 384.211 29.0133 379.773C24.704 376.787 18.9013 372.52 12.1173 367.613C8.40534 364.925 4.352 361.939 3.09199e-06 358.781V360.36C4.05334 363.304 7.89334 366.077 11.3493 368.637C18.0907 373.587 23.936 377.811 28.2453 380.797C34.6453 385.235 41.1733 389.629 48.0427 394.323C81.1947 416.765 118.827 442.195 143.659 472.915C175.275 512.04 147.2 545.021 120.107 576.936C118.144 579.24 116.224 581.501 114.304 583.805C90.4533 612.221 59.9893 650.28 35.8827 692.691C21.248 718.419 9.216 745.469 -0.0426636 773.203V777.384C9.30134 748.371 21.7173 720.125 36.992 693.288C61.056 651.005 91.4773 612.989 115.285 584.616H115.328Z" fill="#417940"/>
<path d="M91.008 152.787C123.435 169.384 150.997 177.149 177.707 177.149C204.416 177.149 230.571 168.744 259.371 159.016C275.712 153.512 294.229 147.24 315.221 141.949C325.888 139.261 335.147 138.963 341.205 138.963C345.259 138.963 349.184 139.133 352.939 139.261C356.523 139.389 359.893 139.56 363.221 139.56C380.501 139.56 394.283 135.464 409.344 115.112C419.499 101.373 423.339 90.7492 426.667 81.4052C431.701 67.4105 435.669 56.3599 457.771 40.5305C463.445 36.4772 471.552 33.2772 479.445 30.2052C492.075 25.2132 502.997 20.9465 503.467 13.6505C503.851 7.76253 496.981 1.19186 481.835 -7.0428C463.744 -16.8561 437.888 -18.1788 414.976 -18.1788C404.779 -18.1788 394.027 -17.8801 383.659 -17.5815C373.248 -17.2828 362.453 -16.9415 352.171 -16.9415C329.173 -16.9415 313.088 -18.5201 299.947 -22.1041C225.707 -42.2855 156.075 -80.4295 94.6347 -114.136C62.3787 -131.8 31.104 -148.952 -0.128006 -163.672V-161.325C30.7627 -146.733 61.696 -129.752 93.6107 -112.259C155.136 -78.5094 224.853 -40.2801 299.392 -20.0561C312.704 -16.4294 329.003 -14.8081 352.171 -14.8081C362.496 -14.8081 373.291 -15.1068 383.744 -15.4481C394.112 -15.7468 404.821 -16.0455 414.976 -16.0455C437.589 -16.0455 463.104 -14.7655 480.811 -5.16545C494.72 2.38655 501.632 8.7012 501.333 13.5225C500.949 19.4532 490.112 23.7199 478.677 28.1999C470.699 31.3572 462.464 34.5999 456.576 38.7812C433.92 54.9946 429.653 66.8985 424.704 80.6799C421.376 89.8959 417.621 100.349 407.637 113.832C393.088 133.459 379.861 137.427 363.221 137.427C359.936 137.427 356.565 137.299 353.024 137.128C349.227 136.957 345.301 136.829 341.205 136.829C335.019 136.829 325.589 137.128 314.709 139.859C293.632 145.149 275.072 151.421 258.688 156.968C230.059 166.653 205.355 175.016 177.707 175.016C150.059 175.016 124.075 167.336 91.9467 150.909C62.592 135.848 36.1813 115.837 10.624 96.4665C7.08266 93.7785 3.54133 91.0905 -0.0426727 88.4025V91.0905C3.11466 93.4372 6.22933 95.8265 9.34399 98.1732C34.944 117.587 61.44 137.683 90.9653 152.787H91.008Z" fill="#417940"/>
<path d="M110.677 114.429C142.208 130.6 173.099 138.451 205.184 138.451C223.147 138.451 261.931 131.112 295.723 118.867C325.333 108.115 360.661 90.28 360.747 66.3013C360.832 38.056 306.304 22.3546 273.707 12.968C266.624 10.92 260.48 9.17063 256.427 7.6773C198.059 -13.4854 140.117 -40.1947 74.112 -76.3761C48.896 -90.2001 24.32 -103.683 0.0853271 -115.8V-114.349C24.1067 -102.317 48.512 -88.9627 73.5146 -75.224C139.605 -39 197.589 -12.248 256 8.91464C260.139 10.408 266.283 12.1573 273.365 14.2053C305.621 23.464 359.595 38.9946 359.509 66.3013C359.381 107.773 242.475 137.171 205.227 137.171C173.355 137.171 142.635 129.363 111.317 113.277C85.248 99.9226 60.3307 81.0213 36.2667 62.8026C24.6187 53.9706 12.6293 44.8826 0.0853271 36.0506V37.6293C12.3307 46.2906 24.064 55.1653 35.4987 63.8266C59.648 82.1306 84.5653 101.032 110.763 114.429H110.677Z" fill="#417940"/>
<path d="M124.288 87.8478C151.467 101.8 177.92 108.541 205.184 108.584C228.864 108.584 259.755 101.544 271.659 86.1412C276.821 79.4425 278.315 71.5918 276.011 62.8025C270.592 42.1092 227.285 27.4745 195.627 16.8078C185.387 13.3518 176.555 10.3652 171.136 7.84785C134.571 -9.13348 98.3893 -28.9735 63.4027 -48.1308L59.52 -50.2642C39.296 -61.3575 19.4987 -72.1948 -9.07481e-06 -82.2642V-80.8135C19.2853 -70.8295 38.8693 -60.1202 58.88 -49.1122L62.7627 -46.9788C97.7493 -27.7788 133.973 -7.93883 170.539 9.04251C176.043 11.6025 184.875 14.5892 195.157 18.0452C224.768 28.0292 269.483 43.1332 274.688 63.1438C276.864 71.5492 275.499 79.0158 270.592 85.3732C258.944 100.434 228.523 107.304 205.056 107.304C178.091 107.304 151.808 100.562 124.8 86.6958C101.077 74.5358 77.2267 56.4451 54.144 38.9518C37.4613 26.3225 19.5413 12.7545 -0.0853424 -0.0455093V1.49049C19.2427 14.1625 36.9067 27.5172 53.376 40.0185C76.4587 57.5118 100.352 75.6452 124.203 87.8478H124.288Z" fill="#417940"/>
<path d="M757.248 -349.443C759.381 -358.061 761.472 -366.552 763.435 -375H761.259C759.339 -366.723 757.291 -358.403 755.2 -349.955C751.275 -334.125 747.221 -317.784 743.936 -301.059C733.013 -245.379 723.584 -172.376 747.947 -101.549C757.845 -72.7493 782.549 -49.24 804.309 -28.504C823.68 -10.0293 840.405 5.92801 838.912 19.3253C838.229 25.4694 833.707 30.9734 825.131 36.0934C821.163 38.44 814.421 39.6347 805.035 39.6347C772.267 39.6347 714.496 25.1707 671.744 10.8347C625.237 -4.73865 567.979 -29.5706 559.104 -59.352C556.288 -68.824 558.592 -78.424 566.016 -87.8107C575.531 -99.8853 585.728 -110.467 595.584 -120.749C614.997 -140.931 633.344 -160.003 645.504 -188.291C662.827 -228.653 664.917 -270.765 651.733 -313.432C648.533 -323.757 645.333 -333.272 642.475 -341.677C638.293 -354.093 634.624 -364.931 632.149 -375H629.931C632.448 -364.717 636.16 -353.667 640.469 -340.995C643.285 -332.589 646.528 -323.117 649.685 -312.792C662.699 -270.637 660.608 -229.037 643.499 -189.144C631.509 -161.197 613.291 -142.253 594.005 -122.243C584.107 -111.96 573.867 -101.293 564.267 -89.1333C556.416 -79.1493 553.941 -68.9093 556.971 -58.712C566.101 -28.0773 624.043 -2.8613 670.976 12.8827C713.899 27.2614 771.925 41.768 804.949 41.768C814.72 41.768 821.845 40.488 826.155 37.928C835.328 32.4667 840.192 26.4507 840.96 19.5814C842.581 5.11737 825.515 -11.1813 805.717 -30.04C784.128 -50.6053 759.637 -73.944 749.909 -102.275C725.717 -172.632 735.104 -245.293 745.984 -300.675C749.269 -317.315 753.28 -333.656 757.205 -349.443H757.248Z" fill="#417940"/>
<path d="M403.755 648.488C401.621 652.029 399.616 655.357 397.867 657.832C376.277 688.253 350.72 715.219 321.963 744.829C318.08 748.797 314.112 752.851 310.101 756.904C286.379 780.883 261.803 805.672 247.125 834.984C241.451 846.333 239.659 855.208 242.048 860.627C243.115 863.101 244.992 864.723 247.637 865.448C248.704 865.747 249.941 865.917 251.264 865.917C256.512 865.917 263.509 863.357 271.445 858.579C287.232 849.021 302.208 837.245 316.715 825.811C328.576 816.467 340.864 806.781 353.536 798.419C404.608 764.584 438.357 742.184 454.144 679.08C457.429 665.981 459.349 636.2 449.237 623.229C445.739 618.792 441.173 616.659 435.541 616.915C422.4 617.597 411.648 635.432 403.755 648.445V648.488ZM436.523 618.195C441.259 618.195 445.227 620.157 448.213 624.04C458.027 636.627 456.107 665.896 452.907 678.781C437.248 741.416 403.669 763.645 352.811 797.352C340.096 805.757 327.808 815.443 315.904 824.829C301.44 836.221 286.464 847.997 270.763 857.512C261.205 863.315 253.013 865.704 247.979 864.253C245.717 863.613 244.139 862.205 243.2 860.115C241.024 855.123 242.816 846.419 248.235 835.581C262.827 806.44 287.317 781.736 310.955 757.8C314.965 753.747 318.976 749.693 322.859 745.725C351.659 716.072 377.216 689.064 398.891 658.6C400.683 656.083 402.688 652.755 404.821 649.213C412.544 636.413 423.083 618.92 435.541 618.28C435.84 618.28 436.181 618.28 436.48 618.28L436.523 618.195Z" fill="#417940"/>
<path d="M137.685 61.6505C146.176 66.0025 170.112 73.8105 187.435 73.8105C193.621 73.8105 198.357 72.7865 201.472 70.7385C208.213 66.3438 211.2 62.2478 210.603 58.1518C209.237 49.1491 189.653 43.7305 173.952 39.3785C167.467 37.5865 161.92 36.0078 158.72 34.5571C121.259 17.1918 84.6507 -2.90417 49.2373 -22.3175L45.312 -24.4508C29.952 -32.8562 14.848 -41.1335 -0.0426757 -49.0269V-46.5949C14.5067 -38.8722 29.2693 -30.7655 44.288 -22.5735L48.2133 -20.4402C83.6693 -0.9842 120.32 19.1118 157.824 36.5198C161.152 38.0558 166.827 39.6345 173.355 41.4691C187.691 45.4371 207.275 50.8985 208.469 58.5358C208.939 61.6505 206.208 65.1918 200.277 68.9891C197.504 70.7811 193.195 71.6772 187.392 71.6772C170.624 71.6772 146.688 63.9118 138.581 59.7731C117.248 48.8505 94.5067 31.6131 72.448 14.8878C51.4133 -1.02687 27.52 -19.1602 -0.0853424 -35.6722V-33.1548C26.9653 -16.8988 50.5173 0.93581 71.2107 16.6371C93.2693 33.3625 116.096 50.6425 137.6 61.6931L137.685 61.6505Z" fill="#417940"/>
<path d="M73.6427 873.213C78.7627 762.621 154.965 675.453 216.192 605.437L221.013 599.933C293.845 516.563 290.901 487.464 256.725 453.757C219.264 416.808 160.213 361.256 80.2987 305.832C53.0347 286.931 26.0267 269.651 0 254.248V256.723C25.6427 271.912 52.224 288.979 79.0613 307.581C158.848 362.92 217.813 418.387 255.232 455.293C288.427 488.019 291.115 516.477 219.435 598.568L214.613 604.072C153.173 674.344 76.672 761.811 71.552 873.171C66.7307 977.661 27.392 1008.38 0.0426667 1016.96V1019.18C28.032 1010.64 68.7787 979.795 73.6853 873.256L73.6427 873.213Z" fill="#417940"/>
<path d="M429.483 577.448C410.752 582.056 394.411 607.997 381.227 628.819C376.619 636.115 372.267 642.984 368.469 647.891C347.307 675.24 323.413 699.858 300.288 723.624C294.272 729.81 286.677 736.85 278.699 744.274C254.891 766.333 225.28 793.81 216.277 818.941C208.725 840.061 213.163 860.243 217.472 879.699C221.013 895.699 224.683 912.253 221.781 929.405C219.989 940.072 213.547 950.568 206.677 961.661C198.485 974.973 190.037 988.712 189.525 1003.52C189.355 1008.55 190.123 1013.5 191.829 1018.28C197.461 1034.11 203.349 1041.45 210.347 1041.45C217.344 1041.45 224.811 1034.24 235.989 1016.62C246.656 999.763 250.837 980.264 254.891 961.405C258.944 942.461 263.168 922.877 273.92 905.939C294.4 873.683 330.496 849.875 362.325 828.925C365.013 827.176 367.659 825.384 370.304 823.677C423.168 788.648 464.939 760.957 483.584 686.419C488.533 666.707 487.211 616.445 467.157 590.76C457.429 578.259 444.629 573.736 429.525 577.448H429.483ZM465.451 592.04C483.413 615.08 486.997 663.763 481.493 685.864C463.061 759.592 421.589 787.069 369.109 821.843C366.507 823.592 363.819 825.341 361.131 827.09C329.088 848.168 292.779 872.104 272.085 904.744C261.12 922.024 256.896 941.778 252.757 960.936C248.747 979.624 244.608 998.952 234.155 1015.46C226.688 1027.24 218.027 1039.31 210.347 1039.31C204.459 1039.31 199.083 1032.19 193.835 1017.55C192.213 1012.99 191.488 1008.38 191.659 1003.56C192.171 989.352 200.448 975.827 208.512 962.771C215.467 951.464 222.037 940.797 223.872 929.746C226.859 912.168 223.147 895.4 219.563 879.229C215.125 859.133 210.901 840.189 218.283 819.624C227.115 795.005 256.512 767.741 280.149 745.811C288.171 738.344 295.765 731.346 301.824 725.074C324.992 701.224 348.928 676.563 370.176 649.128C374.059 644.136 378.411 637.181 383.061 629.885C396.032 609.405 412.117 583.891 429.995 579.453C433.237 578.643 436.395 578.259 439.381 578.259C449.536 578.259 458.325 582.867 465.451 591.997V592.04Z" fill="#417940"/>
<path d="M449.109 484.819C438.955 470.184 430.123 468.307 420.736 466.301C414.293 464.936 407.595 463.485 399.957 457.725L399.317 457C377.557 432.637 304.555 353.192 279.851 353.192C276.949 353.192 274.688 354.216 273.109 356.264C269.824 360.573 269.995 369.235 273.621 382.76C275.797 390.781 296.448 401.875 318.336 413.651C336.555 423.421 355.413 433.533 361.813 441.128C367.531 447.955 375.083 457.384 374.4 460.627C374.229 461.523 373.248 462.035 371.584 462.845C367.787 464.723 362.027 467.624 365.099 481.064C367.232 490.365 372.992 499.624 378.539 508.584C383.744 516.904 388.651 524.797 390.613 532.435C396.075 553.427 361.685 591.955 338.944 617.427C331.435 625.832 324.949 633.085 320.811 638.589C304.256 660.563 283.563 680.957 263.595 700.627C224.725 738.941 184.576 778.536 170.411 833.192C149.291 914.899 145.067 987.048 157.909 1047.63C164.736 1079.98 188.288 1125.03 211.115 1125.03C225.323 1125.03 235.691 1107.97 241.877 1074.26C265.771 944.467 330.923 901.288 393.984 859.517C449.835 822.525 502.571 787.581 525.269 696.787C533.803 662.525 520.661 609.875 503.552 580.733C495.915 567.72 486.315 560.424 477.013 553.341C468.864 547.112 461.141 541.267 455.168 531.88C450.944 525.267 451.712 517.501 452.48 509.352C453.291 500.904 454.144 492.157 449.024 484.733L449.109 484.819ZM452.736 533.587C458.965 543.4 466.901 549.416 475.307 555.816C484.352 562.728 493.739 569.853 501.077 582.355C517.888 610.984 530.816 662.653 522.453 696.189C500.053 785.832 447.787 820.477 392.405 857.128C328.875 899.24 263.125 942.803 239.019 1073.83C233.216 1105.45 223.573 1122.17 211.157 1122.17C191.787 1122.17 168.192 1081.81 160.853 1047.12C148.139 987.005 152.32 915.283 173.355 834.045C187.264 780.157 227.157 740.861 265.728 702.845C285.781 683.091 306.517 662.653 323.243 640.467C327.296 635.091 333.739 627.88 341.205 619.517C365.781 591.997 399.403 554.28 393.515 531.795C391.381 523.688 386.389 515.667 381.056 507.133C375.595 498.387 370.005 489.384 368 480.552C365.44 469.373 369.408 467.411 372.907 465.661C374.827 464.68 376.832 463.699 377.344 461.352C377.984 458.237 376.021 453.459 364.117 439.336C357.376 431.315 338.261 421.075 319.787 411.133C300.373 400.723 278.4 388.904 276.565 382.12C272.384 366.675 273.707 360.616 275.541 358.227C276.523 356.947 277.931 356.349 279.893 356.349C298.539 356.349 352.683 409.469 397.141 459.133C397.696 459.731 397.995 460.072 398.037 460.072C406.357 466.387 413.696 467.965 420.139 469.331C429.269 471.293 437.163 472.957 446.677 486.653C451.2 493.139 450.432 500.989 449.621 509.267C448.811 517.587 447.957 526.205 452.736 533.715V533.587Z" fill="#417940"/>
<path d="M0 207.869C143.872 289.277 298.923 418.813 327.168 483.197C344.107 521.853 303.019 568.061 251.008 626.557C191.872 693.032 118.315 775.762 113.707 875.048C108.117 996.093 48.128 1045.8 0 1060.82V1063.93C49.2373 1048.91 111.019 998.568 116.693 875.176C121.216 776.957 194.432 694.653 253.227 628.52C305.963 569.213 347.605 522.408 329.899 481.96C301.44 417.106 144.896 286.418 0 204.626V207.826L0 207.869Z" fill="#417940"/>
<path d="M724.779 -374.744C724.779 -374.744 724.907 -374.915 724.992 -375H723.243C720.555 -372.141 717.867 -369.155 715.989 -364.803C710.699 -352.344 712.192 -339.373 713.643 -326.829C714.453 -319.832 715.307 -312.621 714.965 -305.539C714.453 -294.403 712.149 -282.883 709.973 -271.704C708.181 -262.488 706.304 -252.973 705.408 -243.672C699.947 -187.224 704.896 -136.195 720.085 -91.992C723.243 -82.8186 735.616 -68.696 748.715 -53.7626C765.44 -34.648 782.763 -14.8933 783.445 -2.90399C783.616 -0.215973 782.933 1.87469 781.355 3.5387C776.832 8.31735 764.715 9.21335 745.301 6.14136C731.221 3.9227 717.653 -1.96533 704.555 -7.68268C696.917 -11.0107 688.981 -14.4667 681.088 -17.112C678.869 -17.88 676.565 -18.6053 674.176 -19.416C645.803 -28.76 606.976 -41.6027 601.387 -64.0453C598.741 -74.7547 603.947 -87 616.875 -100.44C637.227 -121.603 658.304 -143.491 672.555 -176.728C686.208 -208.6 701.952 -270.595 695.936 -304.131C694.699 -311 691.84 -315.651 689.067 -320.131C685.355 -326.147 681.856 -331.821 683.435 -342.104C684.629 -349.699 687.573 -354.136 690.176 -358.019C693.291 -362.712 696.021 -366.979 695.253 -375H693.973C694.741 -367.363 692.181 -363.395 689.109 -358.701C686.421 -354.691 683.392 -350.125 682.197 -342.275C680.533 -331.523 684.16 -325.635 688 -319.448C690.731 -315.053 693.504 -310.531 694.699 -303.875C700.672 -270.552 685.013 -208.899 671.403 -177.197C657.237 -144.173 636.245 -122.371 615.979 -101.293C602.752 -87.512 597.419 -74.8827 600.192 -63.704C605.909 -40.5786 645.163 -27.608 673.835 -18.136C676.224 -17.368 678.528 -16.6 680.747 -15.832C688.597 -13.1866 696.491 -9.77332 704.085 -6.44531C717.269 -0.727997 730.88 5.2027 745.131 7.46402C752.768 8.65869 759.339 9.29868 764.715 9.29868C773.504 9.29868 779.264 7.72003 782.293 4.47736C784.085 2.55737 784.896 0.0826721 784.725 -2.90399C784 -15.32 766.549 -35.2453 749.653 -54.5306C736.64 -69.3787 724.352 -83.416 721.28 -92.3333C706.133 -136.365 701.227 -187.224 706.645 -243.459C707.541 -252.675 709.419 -262.189 711.211 -271.363C713.429 -282.584 715.691 -294.147 716.203 -305.368C716.544 -312.536 715.691 -319.832 714.88 -326.872C713.387 -339.843 711.936 -352.045 717.141 -364.205C719.061 -368.685 721.92 -371.715 724.736 -374.701L724.779 -374.744Z" fill="#417940"/>
<path d="M39.8507 513.235C37.76 499.496 28.2453 487.165 10.8373 475.645C7.25333 473.299 3.66933 470.909 0 468.392V469.928C3.41333 472.232 6.784 474.493 10.1547 476.712C27.264 488.019 36.5653 500.051 38.6133 513.405C41.984 535.549 25.1733 558.333 4.56533 583.763C3.15733 585.469 1.62133 587.603 0.0426667 589.864V592.083C2.048 589.224 3.88267 586.621 5.58933 584.573C26.4107 558.931 43.392 535.891 39.936 513.235H39.8507Z" fill="#417940"/>
<path d="M77.6107 527.698C88.704 496.552 77.5253 484.008 27.3067 450.77C23.3387 448.125 19.328 445.48 15.232 442.706C9.984 439.165 4.94933 435.752 0 432.338V433.874C4.736 437.117 9.51467 440.36 14.5493 443.773C18.6027 446.504 22.6133 449.192 26.624 451.794C76.16 484.605 87.2107 496.893 76.416 527.229C66.6453 554.706 47.744 577.96 27.7333 602.578C18.432 614.056 8.91733 625.746 0 638.248V640.466C9.17333 627.453 19.0293 615.293 28.7147 603.389C48.8107 578.685 67.7547 555.304 77.6107 527.656V527.698Z" fill="#417940"/>
<path d="M414.165 688.509H413.867C407.808 688.509 401.664 696.189 397.184 701.821C396.203 703.016 395.349 704.125 394.581 704.979C390.357 709.8 386.261 714.877 382.336 719.827C379.776 723.027 377.259 726.184 374.656 729.299L374.357 729.683C365.824 739.795 362.368 746.365 363.733 749.779C364.117 750.717 365.056 751.912 367.36 752.168C367.701 752.168 368.043 752.211 368.384 752.211H368.597C385.664 751.827 399.488 736.381 406.229 727.208C412.629 718.461 417.195 708.989 418.816 701.267C419.2 699.475 420.224 693.331 417.792 690.259C416.939 689.149 415.701 688.552 414.208 688.467L414.165 688.509ZM416.683 700.883C415.147 708.307 410.709 717.48 404.48 725.971C397.995 734.846 384.683 749.779 368.512 750.12L368.341 751.187V750.12C368.085 750.12 367.829 750.12 367.573 750.077C366.037 749.907 365.781 749.224 365.696 749.011C365.227 747.816 365.312 743.72 375.979 731.048L376.32 730.664C378.923 727.507 381.483 724.349 384.043 721.149C387.968 716.243 392.021 711.165 396.245 706.387C397.013 705.533 397.909 704.381 398.891 703.144C402.859 698.152 408.875 690.643 414.123 690.643C414.976 690.643 415.616 690.984 416.128 691.624C417.621 693.501 417.365 697.811 416.725 700.883H416.683Z" fill="#417940"/>
<path d="M864.299 1120.77C920.917 1114.32 981.632 1048.74 982.4 993.192C983.595 908.029 934.656 839.976 887.296 774.184C879.275 763.005 870.955 751.443 863.104 740.093L858.368 733.267C836.096 701.181 810.837 664.787 802.603 625.491C795.648 592.168 785.024 514.643 796.587 487.848C805.077 468.221 829.227 457 852.565 446.163C868.693 438.653 883.925 431.571 894.635 421.885L895.147 421.416C919.552 399.315 940.075 387.979 956.715 387.411C964.267 387.155 973.653 386.813 986.923 385.576C1004.71 383.912 1015.21 381.309 1022.89 379.432C1027.75 378.237 1031.3 377.341 1034.41 377.341C1042.09 377.341 1048.53 382.803 1069.82 400.808C1132.76 454.099 1131.56 546.771 1130.45 636.413C1129 749.181 1127.51 865.832 1255.17 902.739C1273.51 908.029 1291.39 910.76 1308.29 910.76C1356.29 910.76 1397.12 889.299 1426.43 848.765C1469.44 789.245 1480.87 696.403 1454.85 617.683C1394.82 436.008 1251.37 332.115 1097.09 233.128C956.843 143.144 823.296 118.355 709.077 102.184C700.8 101.032 692.949 100.435 685.696 100.435C639.403 100.435 617.387 123.987 589.525 153.811C578.859 165.245 567.808 177.021 554.112 189.096C538.411 202.877 518.485 212.307 499.157 221.437C467.669 236.328 437.931 250.365 425.643 281.64C399.573 347.987 463.616 399.656 520.149 445.309C546.304 466.429 571.008 486.355 585.515 506.28C642.901 585.299 625.749 718.547 573.696 793.427C557.44 816.808 526.293 845.693 493.312 876.328C438.699 927.016 376.789 984.488 365.867 1032.74C360.747 1055.44 362.069 1071.31 369.963 1081.21C376.576 1089.49 387.712 1093.5 404.011 1093.5C430.848 1093.5 469.248 1082.45 509.909 1070.76C559.616 1056.47 615.979 1040.25 664.021 1040.25C686.933 1040.25 705.92 1043.79 722.005 1051.13C740.523 1059.58 756.224 1071.74 771.371 1083.56C796.416 1103.02 820.053 1121.41 853.504 1121.41C857.003 1121.41 860.629 1121.19 864.256 1120.77H864.299ZM722.944 1049.17C706.56 1041.7 687.317 1038.08 664.064 1038.08C615.723 1038.08 559.189 1054.33 509.355 1068.67C468.821 1080.32 430.549 1091.33 404.011 1091.33C388.395 1091.33 377.813 1087.57 371.669 1079.85C364.203 1070.5 362.965 1055.23 367.957 1033.21C378.752 985.597 440.405 928.381 494.763 877.864C527.829 847.187 559.061 818.173 575.445 794.621C627.925 719.144 645.163 584.744 587.221 505C572.587 484.861 547.755 464.808 521.472 443.603C465.536 398.461 402.133 347.261 427.605 282.408C439.595 251.944 468.949 238.035 500.053 223.357C519.509 214.184 539.605 204.669 555.52 190.675C569.301 178.557 580.395 166.696 591.104 155.261C618.624 125.821 640.341 102.568 685.739 102.568C692.907 102.568 700.672 103.165 708.821 104.317C822.784 120.445 956.075 145.192 1095.98 234.963C1249.92 333.736 1393.07 437.373 1452.89 618.408C1478.7 696.531 1467.39 788.605 1424.77 847.571C1395.88 887.549 1355.61 908.669 1308.33 908.669C1291.65 908.669 1273.98 906.024 1255.81 900.733C1199.27 884.392 1163.48 850.771 1146.45 798.035C1131.18 750.803 1131.95 692.691 1132.67 636.499C1133.82 546.387 1135.02 453.203 1071.32 399.229C1040.9 373.459 1040.04 373.032 1022.46 377.384C1014.87 379.261 1004.42 381.821 986.795 383.485C973.611 384.723 964.224 385.064 956.715 385.32C939.563 385.917 918.585 397.437 893.781 419.88L893.269 420.349C882.816 429.821 867.712 436.861 851.712 444.285C827.989 455.293 803.456 466.728 794.667 487.08C782.891 514.344 793.557 592.424 800.555 626.003C808.832 665.725 834.219 702.291 856.619 734.589L861.355 741.416C869.205 752.765 877.525 764.328 885.589 775.507C932.736 841.043 981.504 908.755 980.309 993.234C979.541 1047.89 919.808 1112.36 864.085 1118.72C860.544 1119.1 857.003 1119.31 853.589 1119.31C820.864 1119.31 797.525 1101.14 772.779 1081.94C757.504 1070.08 741.717 1057.79 722.987 1049.26L722.944 1049.17Z" fill="#417940"/>
<path d="M1861.93 463.741C1859.75 462.163 1856.43 459.261 1852.2 455.549C1835.99 441.384 1808.81 417.704 1789.65 417.704C1782.14 417.704 1776.55 421.331 1773.01 428.499C1768.58 437.459 1778.35 458.28 1784.83 472.061C1786.41 475.432 1787.78 478.333 1788.63 480.424C1790.38 484.733 1792 488.659 1793.32 492.2C1802.37 515.923 1811.75 540.413 1818.71 567.037C1819.43 569.811 1820.12 572.968 1820.89 576.253C1824.09 590.461 1828.01 608.083 1837.82 616.744C1841.62 620.115 1845.33 622.333 1848.83 623.4C1850.45 623.869 1852.03 624.125 1853.61 624.125C1865.22 624.125 1873.19 610.941 1880.92 598.184C1882.67 595.283 1884.5 592.253 1886.29 589.523L1888 586.92C1917.4 542.163 1935.15 515.112 1881.09 477.608C1875.84 473.939 1869.01 468.989 1861.89 463.784L1861.93 463.741ZM1886.25 585.725L1884.54 588.328C1882.71 591.144 1880.87 594.131 1879.13 597.075C1871.7 609.32 1864.06 621.992 1853.65 621.992C1852.29 621.992 1850.92 621.779 1849.51 621.352C1846.31 620.413 1842.86 618.323 1839.27 615.165C1829.97 606.973 1826.09 589.693 1822.98 575.784C1822.21 572.413 1821.53 569.256 1820.8 566.483C1813.8 539.773 1804.42 515.197 1795.33 491.432C1793.96 487.891 1792.38 483.923 1790.59 479.613C1789.7 477.48 1788.33 474.536 1786.75 471.123C1780.82 458.536 1770.92 437.459 1774.93 429.437C1778.13 422.995 1782.95 419.837 1789.65 419.837C1808 419.837 1834.79 443.219 1850.79 457.171C1855.06 460.883 1858.43 463.827 1860.69 465.491C1867.82 470.696 1874.65 475.688 1879.94 479.357C1932.29 515.709 1914.97 542.077 1886.25 585.768V585.725Z" fill="#417940"/>
<path d="M1896.92 415.869C1887.49 409 1878.1 401.32 1868.16 393.213C1837.74 368.381 1803.31 340.221 1772.33 340.221C1766.23 340.221 1760.43 341.288 1754.58 343.506C1699.88 364.2 1707.73 422.013 1717.25 454.653C1723.09 474.578 1730.6 494.333 1737.9 513.405C1746.39 535.634 1755.18 558.632 1761.28 582.056C1764.99 596.178 1766.83 611.069 1768.62 625.448C1774.12 669.608 1779.33 711.293 1838.21 711.293C1842.86 711.293 1847.89 711.037 1853.14 710.525C1859.84 709.842 1865.34 708.818 1870.04 707.325C1885.7 702.29 1890.39 692.776 1897.47 678.397C1899.61 674.045 1902.04 669.138 1905.07 663.805C1909.67 655.656 1914.71 647.933 1919.96 640.509V638.29C1914.33 646.227 1908.91 654.461 1903.96 663.165C1900.93 668.499 1898.5 673.448 1896.32 677.8C1889.37 691.88 1884.8 701.181 1869.65 706.045C1865.05 707.538 1859.63 708.562 1853.01 709.202C1847.81 709.714 1842.82 709.97 1838.21 709.97C1780.44 709.97 1775.57 670.717 1769.9 625.234C1768.11 610.813 1766.23 595.88 1762.52 581.672C1756.37 558.162 1747.58 535.165 1739.05 512.893C1731.75 493.821 1724.25 474.152 1718.44 454.269C1709.01 422.056 1701.25 364.968 1754.97 344.658C1760.64 342.525 1766.31 341.458 1772.25 341.458C1802.75 341.458 1837.01 369.448 1867.26 394.152C1877.21 402.301 1886.63 409.981 1896.06 416.85C1903.19 422.056 1909.46 426.621 1914.15 429.864C1916.07 431.186 1917.99 432.509 1919.91 433.832V432.296C1918.25 431.144 1916.54 429.992 1914.88 428.84C1910.19 425.597 1903.91 421.032 1896.83 415.827L1896.92 415.869Z" fill="#417940"/>
<path d="M1766.61 -204.632C1761.02 -204.632 1755.56 -204.675 1750.19 -204.717C1745.02 -204.717 1739.95 -204.803 1734.95 -204.803C1705.86 -204.803 1682.69 -203.224 1657.17 -195.501C1643.82 -191.448 1631.32 -185.091 1619.2 -178.904C1599.02 -168.621 1579.9 -158.893 1557.08 -158.893C1553.28 -158.893 1549.44 -159.149 1545.69 -159.704C1528.83 -162.136 1516.25 -172.077 1504.04 -181.677C1490.35 -192.472 1477.38 -202.669 1459.24 -202.669C1457.58 -202.669 1455.91 -202.584 1454.21 -202.413C1442.99 -201.261 1425.07 -191.192 1407.7 -181.421C1396.52 -175.149 1385.98 -169.219 1378.52 -166.488C1367.64 -162.477 1359.49 -160.557 1353.56 -159.107C1335.64 -154.84 1333.38 -153.261 1324.63 -120.237C1322.24 -111.107 1320.49 -102.573 1318.78 -94.3387C1312.51 -63.7041 1307.56 -39.5121 1274.92 -16.4294C1252.91 -0.856079 1224.96 6.69592 1189.46 6.69592C1154.3 6.69592 1117.57 -0.642746 1085.14 -7.17075C1068.2 -10.5841 1052.16 -13.7841 1040.3 -15.0214C1033.39 -15.7467 1022.72 -16.2161 1011.8 -16.2161C980.48 -16.2161 943.787 -4.73875 941.227 11.6879C940.032 19.4959 946.091 31.1866 982.016 42.6639L986.027 43.9439C1122.86 87.8479 1218.3 145.107 1315.41 241.619C1342.21 268.243 1362.69 280.659 1379.8 280.659C1383.81 280.659 1387.78 279.933 1391.49 278.568C1409.71 271.784 1422.98 248.787 1438.38 222.163C1446.31 208.424 1455.32 192.851 1465.98 177.832C1517.53 105.213 1591.47 52.1359 1674.2 28.4133C1698.6 21.4159 1722.45 17.8746 1745.02 17.8746C1818.71 17.8746 1870.72 53.9706 1919.96 91.0906V88.4026C1870.81 51.4106 1818.79 15.7413 1745.02 15.7413C1722.24 15.7413 1698.22 19.3253 1673.6 26.3652C1590.4 50.2159 1516.03 103.592 1464.23 176.595C1453.53 191.656 1444.52 207.315 1436.54 221.096C1421.35 247.379 1408.26 270.035 1390.76 276.563C1387.26 277.885 1383.59 278.525 1379.8 278.525C1363.24 278.525 1343.27 266.323 1316.91 240.125C1219.54 143.357 1123.84 85.9279 986.667 41.9386L982.656 40.6586C955.776 32.0826 941.824 21.8853 943.36 12.0719C945.493 -1.58141 978.133 -14.0401 1011.84 -14.0401C1022.68 -14.0401 1033.26 -13.6134 1040.09 -12.8881C1051.86 -11.6507 1067.86 -8.45074 1084.76 -5.03741C1117.27 1.49059 1154.13 8.87193 1189.5 8.87193C1225.43 8.87193 1253.8 1.19193 1276.2 -14.6374C1309.53 -38.2321 1314.56 -62.8081 1320.92 -93.8694C1322.62 -102.104 1324.33 -110.595 1326.76 -119.683C1335.42 -152.579 1337.22 -153.005 1354.11 -157.016C1360.13 -158.467 1368.32 -160.387 1379.33 -164.44C1386.97 -167.256 1397.59 -173.229 1408.81 -179.544C1425.15 -188.717 1443.71 -199.171 1454.46 -200.28C1456.09 -200.451 1457.71 -200.536 1459.29 -200.536C1476.69 -200.536 1489.37 -190.552 1502.81 -180.013C1515.22 -170.243 1528.06 -160.131 1545.47 -157.613C1549.35 -157.059 1553.32 -156.76 1557.21 -156.76C1580.54 -156.76 1600.77 -167.043 1620.27 -176.984C1632.3 -183.085 1644.71 -189.443 1657.86 -193.411C1683.16 -201.091 1706.11 -202.627 1735 -202.627C1739.99 -202.627 1745.02 -202.627 1750.19 -202.541C1755.56 -202.499 1761.02 -202.456 1766.61 -202.456C1792.68 -202.456 1815.98 -199.427 1837.91 -193.155C1865.6 -185.261 1892.78 -174.211 1920 -161.325V-163.672C1892.99 -176.387 1866.03 -187.352 1838.51 -195.203C1816.41 -201.517 1792.9 -204.589 1766.61 -204.589V-204.632Z" fill="#417940"/>
<path d="M1897.94 453.373C1892.99 449.917 1886.29 445.053 1879.3 439.933C1869.27 432.595 1859.58 424.701 1849.26 416.296C1846.95 414.419 1844.39 412.243 1841.71 409.981C1824.51 395.389 1800.96 375.421 1779.29 375.421C1773.31 375.421 1767.77 376.957 1762.82 380.029C1725.35 403.197 1747.88 458.493 1761.32 491.517C1762.94 495.528 1764.52 499.325 1765.8 502.696C1774.59 525.651 1783.68 549.416 1790.21 574.461C1791.45 579.155 1792.68 584.701 1793.96 590.547C1799.94 617.341 1808.09 654.077 1828.61 667.304C1831.98 669.48 1835.56 670.845 1839.19 671.357C1840.26 671.528 1841.41 671.571 1842.52 671.571C1867.61 671.571 1892.61 633.469 1910.91 605.608C1914.24 600.573 1917.23 596.008 1920 592.04V589.821C1916.97 594.131 1913.6 599.208 1909.85 604.925C1891.75 632.531 1866.92 670.291 1842.52 670.291C1841.45 670.291 1840.43 670.205 1839.36 670.077C1835.9 669.608 1832.53 668.285 1829.29 666.237C1809.19 653.309 1801.09 616.872 1795.2 590.291C1793.88 584.445 1792.68 578.899 1791.45 574.163C1784.87 549.075 1775.79 525.267 1767 502.269C1765.72 498.899 1764.18 495.101 1762.52 491.091C1749.21 458.408 1726.98 403.752 1763.5 381.181C1768.28 378.237 1773.57 376.744 1779.29 376.744C1800.49 376.744 1823.83 396.541 1840.85 411.005C1843.54 413.309 1846.1 415.443 1848.49 417.405C1858.77 425.768 1868.46 433.704 1878.53 441.043C1885.53 446.163 1892.22 451.027 1897.17 454.483C1903.83 459.091 1910.57 463.656 1917.74 468.52C1918.51 469.032 1919.23 469.501 1919.96 470.013V468.477C1919.45 468.136 1918.93 467.795 1918.38 467.411C1911.25 462.589 1904.51 458.024 1897.86 453.416L1897.94 453.373Z" fill="#417940"/>
<path d="M1676.16 756.179C1678.59 759.336 1683.11 763.645 1694.51 764.584C1737.13 768.083 1801.6 773.331 1856 822.909L1856.64 823.464C1875.24 840.445 1890.35 861.949 1901.53 887.379C1904.64 894.376 1909.63 898.429 1915.31 898.429C1916.84 898.429 1918.42 898.13 1920 897.491V895.955C1918.46 896.68 1916.89 897.149 1915.31 897.149C1910.19 897.149 1905.58 893.395 1902.68 886.867C1891.41 861.267 1876.18 839.635 1857.45 822.525L1856.81 821.971C1802.07 772.093 1737.34 766.803 1694.55 763.304C1683.67 762.408 1679.36 758.355 1677.1 755.411C1671.68 748.328 1671 737.363 1671.59 733.992C1677.53 707.88 1684.91 675.368 1682.13 639.827C1677.48 579.624 1653.38 527.869 1630.12 477.821C1611.43 437.672 1590.27 392.147 1597.61 371.411C1610.71 334.504 1664.21 281.555 1686.57 260.52C1700.78 247.165 1717.72 240.381 1736.83 240.381C1747.75 240.381 1757.18 242.685 1763.2 244.605C1802.45 257.277 1858.01 286.248 1919.96 326.056V324.52C1858.22 284.883 1802.79 255.997 1763.58 243.368C1757.53 241.405 1747.93 239.059 1736.83 239.059C1717.38 239.059 1700.18 245.971 1685.72 259.581C1663.27 280.701 1609.6 333.821 1596.42 370.984C1588.91 392.232 1610.2 437.971 1628.97 478.376C1652.18 528.296 1676.2 579.923 1680.85 639.912C1683.63 675.283 1676.25 707.667 1670.36 733.779C1669.72 737.32 1670.4 748.797 1676.07 756.221L1676.16 756.179Z" fill="#417940"/>
<path d="M1756.46 717.523C1766.19 722.856 1779.5 725.118 1792.38 727.294C1801.94 728.915 1811.8 730.579 1819.82 733.48C1824.9 735.315 1830.49 738.088 1836.42 740.989C1848.66 747.005 1862.53 753.875 1875.16 753.875C1877.59 753.875 1879.94 753.619 1882.15 753.107C1882.75 752.979 1883.31 752.808 1883.9 752.638C1901.99 747.262 1911.64 724.563 1919.96 703.741V700.285C1919.96 700.285 1919.87 700.541 1919.79 700.669C1911.34 721.917 1901.78 745.982 1883.52 751.443C1882.97 751.614 1882.41 751.741 1881.86 751.869C1879.77 752.339 1877.5 752.595 1875.16 752.595C1862.83 752.595 1849.09 745.811 1836.97 739.838C1831 736.894 1825.37 734.12 1820.25 732.285C1812.1 729.341 1802.15 727.677 1792.55 726.013C1779.75 723.837 1766.53 721.576 1757.01 716.371C1735.94 704.808 1738.15 683.645 1740.46 661.245C1741.35 652.499 1742.29 643.411 1741.65 635.133C1736.15 564.136 1709.78 507.432 1684.27 452.648C1672.7 427.773 1671.85 400.467 1681.88 375.848C1692.76 349.181 1715.54 327.635 1744.38 316.755C1753.39 313.341 1762.73 311.635 1772.25 311.635C1813.42 311.635 1852.07 343.208 1886.17 371.069C1895.81 378.963 1904.94 386.387 1913.69 392.787C1915.95 394.451 1917.99 395.944 1919.91 397.352V395.773C1918.21 394.536 1916.37 393.213 1914.41 391.763C1905.71 385.405 1896.58 377.981 1886.93 370.088C1852.67 342.099 1813.8 310.397 1772.2 310.397C1762.56 310.397 1753.05 312.147 1743.91 315.603C1714.73 326.611 1691.69 348.413 1680.68 375.421C1670.49 400.381 1671.38 428.029 1683.11 453.245C1708.59 507.987 1734.91 564.563 1740.37 635.304C1741.01 643.453 1740.07 652.499 1739.18 661.203C1736.92 683.048 1734.57 705.619 1756.37 717.566L1756.46 717.523Z" fill="#417940"/>
<path d="M1766.61 -161.539C1730.73 -161.539 1692.59 -155.053 1652.1 -148.141C1606.57 -140.376 1559.47 -132.355 1509.33 -132.355C1505.71 -132.355 1502.12 -132.355 1498.71 -132.483C1481.3 -132.909 1466.54 -135.768 1453.53 -138.285C1442.26 -140.461 1432.53 -142.381 1423.19 -142.381C1401 -142.381 1384.7 -130.691 1366.91 -102.104C1358.34 -88.3227 1352.06 -71.8107 1346.01 -55.896C1335.3 -27.6933 1324.2 1.49066 1299.75 18.7707C1291.35 24.7013 1275.22 29.3093 1258.15 34.216C1228.33 42.7493 1194.54 52.392 1189.93 72.5307C1184.21 97.7893 1236.05 132.307 1263.91 150.867C1269.08 154.323 1273.56 157.309 1276.5 159.443C1309.18 183.421 1336.19 199.379 1361.88 199.379C1365.38 199.379 1368.87 199.08 1372.29 198.44C1392.77 194.771 1411.37 180.264 1430.83 152.829C1488 72.2746 1570.22 13.352 1662.34 -13.1013C1690.62 -21.208 1718.44 -25.304 1745.07 -25.304C1818.67 -25.304 1873.15 4.43466 1920 37.544V35.9653C1873.15 2.94133 1818.67 -26.584 1745.07 -26.584C1718.36 -26.584 1690.41 -22.4453 1661.99 -14.296C1569.58 12.2 1487.15 71.2933 1429.8 152.104C1410.56 179.24 1392.21 193.576 1372.07 197.16C1368.75 197.757 1365.33 198.056 1361.88 198.056C1336.53 198.056 1309.74 182.184 1277.27 158.376C1274.33 156.2 1269.8 153.213 1264.64 149.757C1237.03 131.368 1185.66 97.1494 1191.17 72.744C1195.61 53.3307 1229.01 43.816 1258.5 35.4107C1275.69 30.504 1291.9 25.896 1300.48 19.7946C1325.27 2.30132 1336.41 -27.0533 1347.2 -55.4267C1353.22 -71.2987 1359.49 -87.7253 1367.98 -101.421C1385.51 -129.624 1401.47 -141.101 1423.15 -141.101C1432.36 -141.101 1442.01 -139.224 1453.23 -137.048C1466.28 -134.488 1481.13 -131.629 1498.62 -131.203C1502.08 -131.117 1505.66 -131.075 1509.29 -131.075C1559.55 -131.075 1606.7 -139.096 1652.35 -146.904C1692.71 -153.773 1730.82 -160.301 1766.57 -160.301C1788.67 -160.301 1808.17 -157.784 1826.26 -152.621C1857.28 -143.789 1888.3 -130.264 1919.96 -114.435V-115.885C1888.43 -131.629 1857.54 -145.069 1826.6 -153.901C1808.38 -159.107 1788.76 -161.624 1766.53 -161.624L1766.61 -161.539Z" fill="#417940"/>
<path d="M1728.85 740.52C1737.6 742.696 1746.09 744.701 1754.37 746.578C1799 756.904 1837.48 765.864 1876.01 800.722L1876.78 801.405C1885.65 809.427 1892.61 813.309 1898.15 813.309C1899.01 813.309 1899.86 813.224 1900.67 813.01C1909.03 811.091 1913.22 799.4 1917.78 784.339C1918.51 781.992 1919.27 779.688 1920 777.384V773.202C1918.81 776.786 1917.65 780.413 1916.54 783.997C1912.06 798.675 1908.05 810.024 1900.37 811.816C1894.83 813.096 1887.53 809.427 1877.63 800.466L1876.86 799.784C1838.08 764.669 1799.42 755.709 1754.62 745.341C1746.39 743.421 1737.86 741.459 1729.15 739.283C1697.88 731.432 1703.17 701.992 1708.29 673.576C1710.51 661.16 1712.85 648.274 1712 637.522C1706.92 571.944 1681.71 517.714 1657.3 465.277C1654.4 459.005 1651.29 452.904 1648.26 446.973C1632.6 416.21 1619.03 389.672 1638.4 356.989C1652.95 332.413 1674.79 312.274 1695.87 292.818C1699.67 289.32 1703.47 285.821 1707.18 282.322C1715.33 274.685 1726.42 270.802 1740.12 270.802C1792.68 270.802 1873.54 326.738 1920.04 360.445V358.866C1873.28 325.032 1792.77 269.522 1740.12 269.522C1726.08 269.522 1714.69 273.533 1706.28 281.384C1702.57 284.882 1698.77 288.381 1694.98 291.88C1673.81 311.421 1651.93 331.602 1637.25 356.349C1617.54 389.629 1631.87 417.789 1647.06 447.57C1650.09 453.501 1653.21 459.602 1656.11 465.874C1680.43 518.227 1705.64 572.328 1710.68 637.693C1711.49 648.275 1709.18 661.074 1706.97 673.405C1701.76 702.418 1696.34 732.456 1728.81 740.605L1728.85 740.52Z" fill="#417940"/>
<path d="M830.933 1354.96C820.139 1371.26 806.699 1391.49 811.349 1405.48C813.227 1411.2 818.005 1415.46 825.515 1418.15C826.923 1418.66 828.501 1418.92 830.165 1418.92C846.635 1418.92 872.747 1393.45 895.787 1371.01C910.421 1356.71 924.288 1343.23 932.608 1339.43C972.373 1321.38 1027.24 1312.81 1075.63 1305.21C1094.74 1302.23 1112.79 1299.41 1129.43 1296.13C1167.4 1288.7 1204.05 1284.9 1238.4 1284.9C1350.78 1284.9 1445.12 1325.35 1518.85 1405.1C1527.13 1414.06 1539.11 1418.58 1554.6 1418.58C1602.73 1418.58 1685.29 1371.73 1743.4 1284.9C1778.18 1232.98 1828.69 1126.78 1776.17 999.25C1755.14 948.136 1723.86 924.328 1677.74 924.328C1642.67 924.328 1602.65 937.213 1556.31 952.146C1499.31 970.536 1434.67 991.357 1365.12 991.357C1310.98 991.357 1261.27 978.856 1213.14 953.213C1064.66 874.024 1060.35 729.597 1073.15 612.605C1078.14 567.122 1070.04 531.112 1049.77 508.456C1035.43 492.456 1015.94 484.008 993.323 484.008C950.485 484.008 897.024 517.245 877.739 580.818C859.605 640.637 902.613 695.037 952.405 758.013C1008.6 829.01 1072.26 909.48 1059.88 1016.87C1053.74 1070.12 1034.33 1121.19 1007.87 1153.53C987.819 1178.07 970.112 1180.24 951.339 1182.55C937.003 1184.3 922.197 1186.13 904.832 1197.14C891.563 1205.54 887.424 1219.88 883.029 1235.03C880 1245.48 876.843 1256.27 870.485 1265.15C866.987 1270.01 860.885 1271.08 854.485 1272.19C845.995 1273.68 836.352 1275.35 831.275 1286.31C827.733 1293.95 832.427 1302.95 836.949 1311.66C840.747 1318.91 844.629 1326.42 843.477 1332.65C842.539 1337.64 837.248 1345.66 831.104 1354.92L830.933 1354.96ZM838.997 1310.59C834.56 1302.06 830.336 1293.95 833.365 1287.42C837.931 1277.61 846.507 1276.11 854.784 1274.66C861.44 1273.51 868.267 1272.32 872.363 1266.64C878.976 1257.43 882.176 1246.42 885.291 1235.79C889.557 1221.07 893.611 1207.21 906.069 1199.31C922.965 1188.61 937.515 1186.81 951.552 1185.06C970.837 1182.67 989.013 1180.46 1009.71 1155.15C1036.42 1122.47 1056.09 1070.89 1062.27 1017.21C1074.73 908.797 1010.73 827.901 954.283 756.52C904.917 694.099 862.251 640.168 880.043 581.586C898.987 519.165 951.339 486.525 993.28 486.525C1015.17 486.525 1034.07 494.674 1047.89 510.12C1067.69 532.221 1075.58 567.549 1070.68 612.349C1057.79 730.109 1062.19 875.517 1211.95 955.389C1260.46 981.245 1310.55 993.832 1365.12 993.832C1435.05 993.832 1499.86 972.925 1557.03 954.493C1603.16 939.603 1643.01 926.76 1677.7 926.76C1723.31 926.76 1752.96 949.416 1773.87 1000.15C1825.96 1126.65 1775.83 1231.95 1741.35 1283.5C1685.76 1366.48 1602.73 1416.1 1554.56 1416.1C1539.84 1416.1 1528.41 1411.84 1520.64 1403.43C1446.44 1323.18 1351.47 1282.47 1238.4 1282.47C1203.93 1282.47 1167.1 1286.27 1128.96 1293.74C1112.36 1296.98 1094.31 1299.79 1075.24 1302.78C1026.69 1310.38 971.691 1318.99 931.584 1337.17C922.88 1341.14 909.525 1354.15 894.08 1369.21C871.381 1391.36 845.653 1416.45 830.165 1416.45C828.8 1416.45 827.52 1416.23 826.368 1415.85C819.541 1413.37 815.403 1409.75 813.739 1404.71C809.472 1391.87 822.528 1372.16 833.024 1356.33C839.339 1346.81 844.757 1338.62 845.781 1333.16C847.104 1326.08 843.008 1318.23 839.04 1310.59H838.997Z" fill="#417940"/>
<path d="M566.059 1362C585.301 1344.59 615.765 1329.36 651.051 1311.7C675.669 1299.37 708.779 1269.07 706.773 1244.28C705.707 1230.76 694.784 1220.61 674.389 1214.21C666.368 1211.69 657.579 1210.45 647.552 1210.45C621.44 1210.45 592 1219.11 566.059 1226.79C554.197 1230.29 543.019 1233.58 532.779 1235.92C446.933 1255.42 395.093 1267.2 348.629 1267.2C307.499 1267.2 271.445 1257.98 224.171 1235.41C178.688 1213.69 145.707 1193.26 119.211 1176.87C80.2133 1152.72 62.0373 1142.06 38.9973 1142.06C28.2453 1142.06 15.4027 1144.44 0 1149.35V1151.57C15.4453 1146.62 28.3307 1144.15 38.9973 1144.15C61.4827 1144.15 79.488 1154.73 118.144 1178.66C144.683 1195.09 177.664 1215.53 223.275 1237.33C270.848 1260.07 307.2 1269.33 348.672 1269.33C395.349 1269.33 447.275 1257.55 533.291 1238.01C543.573 1235.67 554.795 1232.38 566.699 1228.88C592.512 1221.29 621.781 1212.67 647.595 1212.67C657.408 1212.67 665.984 1213.86 673.792 1216.34C693.291 1222.48 703.659 1232 704.683 1244.58C706.603 1268.43 674.219 1297.83 650.112 1309.91C614.699 1327.66 584.107 1342.97 564.651 1360.55C505.941 1413.63 515.413 1482.92 533.205 1545.13H535.424C517.675 1483.35 508.117 1414.53 566.059 1362.13V1362Z" fill="#417940"/>
<path d="M1862.14 1063.76C1867.65 1067.26 1876.52 1069.18 1887.19 1069.18C1896.7 1069.18 1907.97 1067.6 1919.96 1063.93V1060.82C1907.97 1064.57 1896.7 1066.19 1887.19 1066.19C1877.21 1066.19 1868.67 1064.4 1863.72 1061.25C1838.68 1045.25 1827.58 1016.96 1815.85 987.048C1805.74 961.235 1795.24 934.525 1774.93 915.709V914.813H1773.99C1750.61 894.205 1719.17 884.179 1677.78 884.179C1636.39 884.179 1594.97 893.864 1560.87 901.629C1537.58 906.963 1517.44 911.528 1504.47 911.528C1496.87 911.528 1492.22 909.949 1490.3 906.749C1487.74 902.483 1489.66 894.419 1495.98 882.899C1525.46 829.053 1585.02 700.712 1580.89 647.592C1577.64 605.693 1557.5 562.387 1538.01 520.531C1509.8 459.901 1480.66 397.267 1501.87 337.363C1526.1 269.053 1632.81 146.941 1708.71 136.616C1713.15 136.019 1717.93 135.72 1722.92 135.72C1772.33 135.72 1844.57 165.16 1919.87 207.784V204.584C1844.52 162.045 1772.33 132.733 1722.92 132.733C1717.8 132.733 1712.9 133.032 1708.33 133.672C1631.45 144.168 1523.5 267.432 1499.05 336.381C1477.42 397.395 1506.86 460.627 1535.27 521.811C1554.65 563.411 1574.66 606.461 1577.86 647.848C1581.53 695.208 1529.6 815.229 1493.33 881.491C1486.29 894.376 1484.46 902.909 1487.7 908.328C1490.18 912.552 1495.68 914.557 1504.43 914.557C1517.74 914.557 1538.01 909.949 1561.47 904.573C1595.43 896.808 1637.72 887.165 1677.74 887.165C1717.76 887.165 1749.59 897.064 1772.42 917.416C1792.51 935.805 1802.92 962.387 1813.03 988.072C1824.94 1018.45 1836.2 1047.17 1862.1 1063.68L1862.14 1063.76Z" fill="#417940"/>
<path d="M1837.27 1258.58C1826.01 1284.26 1815.34 1308.54 1801.86 1329.58C1723.22 1451.9 1635.54 1472.51 1542.7 1494.31C1535.62 1495.98 1528.19 1497.55 1521.02 1499.09C1490.09 1505.66 1458.13 1512.49 1432.06 1529.38C1423.91 1534.67 1417.69 1539.88 1413.33 1545.04H1416.11C1420.25 1540.52 1425.92 1535.91 1433.22 1531.18C1458.94 1514.49 1490.73 1507.71 1521.45 1501.18C1528.66 1499.65 1536.09 1498.07 1543.17 1496.4C1636.39 1474.47 1724.5 1453.78 1803.61 1330.73C1817.22 1309.57 1827.88 1285.25 1839.23 1259.39C1857.19 1218.43 1877.59 1172.05 1905.71 1156.52C1910.7 1154.64 1915.43 1152.98 1920 1151.53V1149.31C1915.18 1150.85 1910.14 1152.59 1904.85 1154.6C1875.93 1170.51 1855.4 1217.28 1837.27 1258.58Z" fill="#417940"/>
<path d="M1393.71 1498.71C1444.01 1476.26 1489.49 1465.6 1533.53 1455.23C1621.93 1434.45 1698.26 1416.49 1768.11 1307.86C1779.88 1289.55 1789.91 1266.69 1800.53 1242.45C1822.72 1191.85 1845.67 1139.54 1888.3 1117.95C1899.78 1113.51 1910.23 1110.06 1920 1107.5V1104.42C1909.85 1107.07 1898.92 1110.65 1886.93 1115.3C1843.41 1137.36 1820.25 1190.18 1797.8 1241.26C1787.22 1265.36 1777.24 1288.15 1765.59 1306.24C1696.34 1413.89 1620.57 1431.72 1532.8 1452.33C1488.68 1462.7 1443.03 1473.45 1392.47 1495.98C1359.57 1510.65 1337.6 1527.63 1328.47 1545H1331.8C1340.97 1528.74 1362.22 1512.74 1393.66 1498.71H1393.71Z" fill="#417940"/>
<path d="M1166.85 1159.29C1168.6 1160.27 1170.47 1160.74 1172.44 1160.74C1180.03 1160.74 1187.46 1153.32 1194.07 1146.79C1197.87 1142.99 1201.49 1139.41 1204.44 1138C1208.28 1136.17 1211.86 1135.27 1215.4 1135.27C1222.19 1135.27 1227.95 1138.51 1234.6 1142.27C1236.99 1143.59 1239.47 1145 1242.11 1146.32C1248.47 1149.48 1254.7 1150.97 1261.14 1150.97C1267.58 1150.97 1273.6 1149.48 1279.96 1147.94C1286.57 1146.32 1293.4 1144.66 1301.38 1144.49H1302.4C1318.61 1144.49 1333.46 1152.89 1347.84 1161C1362.13 1169.06 1376.9 1177.43 1392.98 1177.43C1400.7 1177.43 1408.13 1175.55 1415.64 1171.75C1421.65 1168.68 1426.26 1164.93 1430.31 1161.55C1436.93 1156.09 1442.65 1151.4 1452.29 1151.4C1455.1 1151.4 1458.13 1151.78 1461.5 1152.59C1488.9 1159.08 1500.97 1184.25 1512.62 1208.62C1518.08 1220.05 1523.71 1231.83 1530.84 1241.26C1545.13 1260.16 1563.56 1270.57 1582.76 1270.57H1583.74C1602.99 1270.23 1621.46 1259.6 1635.8 1240.7C1655.21 1215.06 1690.5 1131.47 1675.86 1089.87C1671.55 1077.59 1663.23 1069.82 1651.2 1066.79C1646.93 1065.73 1643.01 1065.17 1639.13 1065.17C1626.67 1065.17 1617.32 1070.76 1606.53 1077.2C1604.1 1078.65 1601.58 1080.15 1598.93 1081.64C1577.05 1094.01 1555.37 1096.57 1532.37 1099.3C1523.37 1100.37 1514.03 1101.48 1504.6 1103.19C1494.1 1105.11 1484.63 1108.78 1475.5 1112.32C1463.47 1116.97 1452.12 1121.36 1439.62 1121.36C1431.17 1121.36 1422.93 1119.31 1414.4 1115.13C1396.82 1106.47 1377.66 1098.49 1356.5 1098.49C1349.5 1098.49 1342.59 1099.3 1335.47 1101.01C1332.22 1101.78 1329.02 1102.59 1325.91 1103.4C1313.66 1106.51 1302.1 1109.46 1290.37 1109.46C1280.85 1109.46 1271.89 1107.5 1263.02 1103.4L1259.26 1101.65C1243.14 1094.18 1226.45 1086.5 1209.43 1086.5C1200 1086.5 1191.34 1088.81 1182.85 1093.5C1172.18 1099.43 1157.89 1124.35 1157.89 1141.71C1157.89 1149.91 1161.05 1155.96 1166.93 1159.21L1166.85 1159.29ZM1183.79 1095.42C1191.94 1090.9 1200.3 1088.68 1209.34 1088.68C1225.94 1088.68 1242.37 1096.27 1258.28 1103.66L1262.04 1105.41C1271.17 1109.59 1280.43 1111.63 1290.28 1111.63C1302.27 1111.63 1313.96 1108.65 1326.34 1105.49C1329.45 1104.68 1332.61 1103.87 1335.85 1103.1C1342.81 1101.44 1349.5 1100.63 1356.37 1100.63C1377.11 1100.63 1396.01 1108.52 1413.33 1117.05C1422.17 1121.41 1430.7 1123.5 1439.49 1123.5C1452.37 1123.5 1463.94 1119.02 1476.14 1114.28C1485.18 1110.78 1494.53 1107.15 1504.85 1105.23C1514.24 1103.53 1523.5 1102.42 1532.5 1101.35C1555.67 1098.62 1577.6 1096.02 1599.83 1083.43C1602.47 1081.94 1605.03 1080.4 1607.47 1078.95C1618.01 1072.68 1627.09 1067.22 1638.95 1067.22C1642.62 1067.22 1646.42 1067.73 1650.47 1068.75C1661.78 1071.61 1669.59 1078.91 1673.64 1090.47C1688.02 1131.39 1653.08 1213.95 1633.88 1239.29C1619.97 1257.64 1602.09 1267.97 1583.49 1268.31H1582.55C1564.03 1268.31 1546.2 1258.19 1532.33 1239.85C1525.33 1230.59 1520 1219.41 1514.33 1207.59C1502.46 1182.76 1490.18 1157.12 1461.76 1150.42C1458.22 1149.56 1455.06 1149.18 1452.07 1149.18C1441.66 1149.18 1435.69 1154.13 1428.74 1159.81C1424.55 1163.22 1420.29 1166.76 1414.44 1169.75C1407.23 1173.42 1400.15 1175.21 1392.77 1175.21C1377.24 1175.21 1363.37 1167.36 1348.69 1159.04C1334.1 1150.76 1319 1142.23 1302.23 1142.23H1301.16C1292.93 1142.4 1286.02 1144.15 1279.27 1145.77C1273.05 1147.3 1267.16 1148.75 1260.97 1148.75C1254.78 1148.75 1249.02 1147.35 1242.88 1144.32C1240.28 1143.04 1237.85 1141.67 1235.5 1140.35C1228.84 1136.59 1222.57 1133.1 1215.27 1133.1C1211.39 1133.1 1207.51 1134.08 1203.37 1136.04C1200.09 1137.62 1196.37 1141.29 1192.45 1145.21C1186.18 1151.44 1179.05 1158.53 1172.35 1158.53C1170.77 1158.53 1169.28 1158.14 1167.83 1157.33C1162.58 1154.43 1159.89 1149.18 1159.89 1141.67C1159.89 1124.05 1174.74 1100.29 1183.74 1095.29L1183.79 1095.42Z" fill="#417940"/>
<path d="M891.648 1310.12C894.379 1310.85 899.285 1311.19 905.515 1311.19C918.485 1311.19 966.656 1309.27 1041.79 1284.43C1104.6 1263.7 1178.07 1252.26 1248.6 1252.26C1364.74 1252.26 1441.88 1269.67 1541.25 1364.78C1548.29 1371.52 1557.76 1374.93 1569.32 1374.93C1612.5 1374.93 1677.82 1327.91 1718.02 1267.88C1749.42 1220.99 1795.07 1125.25 1747.93 1010.77C1727.62 961.49 1702.14 954.706 1677.65 954.706C1647.36 954.706 1609.47 966.909 1565.57 981.074C1506.43 1000.15 1439.36 1021.74 1365.03 1021.74C1305.77 1021.74 1251.37 1008.08 1198.72 980.008C1032.28 891.261 1030.02 725.885 1042.82 609.234C1046.78 573.096 1041.15 544.509 1027.03 528.765C1018.54 519.293 1007.15 514.472 993.237 514.472C961.621 514.472 921.771 540.285 906.795 589.65C893.269 634.237 931.712 682.834 976.213 739.112C1033.09 811.005 1103.87 900.477 1090.05 1020.37C1086.08 1054.72 1076.95 1087.36 1062.83 1117.39C1040.34 1165.22 1010.65 1205.8 974.507 1238.01C950.656 1259.26 926.72 1274.15 909.269 1284.99C893.355 1294.89 883.755 1300.82 884.437 1305.38C884.736 1307.43 887.04 1308.97 891.648 1310.12ZM909.952 1286.1C927.445 1275.22 951.424 1260.33 975.36 1238.99C1011.63 1206.65 1041.45 1165.95 1064.02 1117.99C1078.23 1087.83 1087.4 1055.02 1091.37 1020.58C1105.24 900.178 1034.28 810.45 977.237 738.386C932.949 682.408 894.72 634.066 908.032 590.12C922.837 541.352 962.091 515.837 993.237 515.837C1006.76 515.837 1017.81 520.488 1026.09 529.704C1040 545.192 1045.46 573.437 1041.58 609.192C1028.78 726.226 1031.04 892.114 1198.17 981.245C1251.03 1009.45 1305.64 1023.14 1365.08 1023.14C1439.62 1023.14 1506.77 1001.51 1566.04 982.397C1609.81 968.274 1647.57 956.114 1677.7 956.114C1701.76 956.114 1726.76 962.813 1746.77 1011.37C1793.66 1125.29 1748.22 1220.61 1716.99 1267.28C1677.7 1325.99 1611.43 1373.74 1569.37 1373.74C1558.1 1373.74 1548.97 1370.45 1542.14 1363.92C1493.97 1317.84 1449.17 1288.53 1401.09 1271.68C1359.7 1257.21 1314.09 1251.03 1248.55 1251.03C1177.86 1251.03 1104.26 1262.46 1041.32 1283.24C966.4 1307.99 918.4 1309.91 905.472 1309.91C899.371 1309.91 894.549 1309.52 891.947 1308.84C888.021 1307.82 885.931 1306.58 885.675 1305.13C885.12 1301.42 895.531 1294.97 909.909 1286.01L909.952 1286.1Z" fill="#417940"/>
<path d="M993.237 543.955C970.368 543.955 945.237 567.08 937.003 587.859C931.541 601.64 935.723 625.149 948.139 650.835C959.83 675.027 975.446 693.629 986.966 697.085C988.715 697.597 990.507 697.896 992.214 697.896C994.134 697.896 996.054 697.555 997.888 696.915C1012.74 691.752 1012.39 682.621 1011.67 662.653C1011.2 650.365 1010.6 633.555 1013.12 610.472C1016.53 579.453 1011.67 555.816 1005.1 548.52C1003.01 546.173 1000.11 543.997 993.237 543.997V543.955ZM1010.99 610.216C1008.43 633.469 1009.07 650.408 1009.54 662.739C1010.26 682.749 1010.56 690.259 997.163 694.909C994.048 695.976 990.805 696.061 987.52 695.08C976.555 691.795 961.494 673.661 950.016 649.939C937.856 624.808 933.718 601.896 938.966 588.669C946.944 568.531 971.179 546.131 993.237 546.088C999.253 546.088 1001.73 547.923 1003.52 549.885C1009.75 556.84 1014.36 579.795 1010.99 610.173V610.216Z" fill="#417940"/>
<path d="M1509.72 1162.28C1514.37 1164.16 1517.1 1165.69 1520.55 1167.61C1521.92 1168.38 1523.37 1169.19 1525.12 1170.13C1542.7 1179.56 1557.42 1189.16 1567.74 1197.86C1573.59 1202.81 1578.37 1205.2 1582.34 1205.2C1588.18 1205.2 1591.59 1200.25 1594.37 1195.56C1604.69 1177.98 1608.32 1164.41 1612.59 1140.6C1613.1 1137.7 1613.18 1133.61 1610.75 1130.71C1607.68 1127.04 1601.58 1126.4 1592.62 1128.87C1565.57 1136.38 1547.35 1139.79 1524.27 1144.19C1520.21 1144.96 1516.07 1145.72 1511.68 1146.58C1507.24 1147.43 1503.87 1150.59 1503.53 1154.22C1503.36 1155.84 1503.66 1159.85 1509.76 1162.28H1509.72ZM1512.11 1149.01C1516.46 1148.16 1520.64 1147.39 1524.65 1146.62C1547.78 1142.23 1566.08 1138.77 1593.22 1131.26C1596.59 1130.32 1599.49 1129.85 1601.92 1129.85C1605.12 1129.85 1607.47 1130.66 1608.79 1132.28C1610.62 1134.46 1610.5 1137.79 1610.07 1140.18C1605.89 1163.64 1602.3 1177.04 1592.15 1194.32C1589.16 1199.36 1586.35 1202.73 1582.25 1202.73C1578.88 1202.73 1574.61 1200.51 1569.24 1195.99C1558.78 1187.15 1543.89 1177.47 1526.19 1167.95C1524.48 1167.02 1522.99 1166.2 1521.66 1165.44C1518.12 1163.47 1515.35 1161.9 1510.53 1159.98C1507.33 1158.7 1505.62 1156.65 1505.83 1154.43C1506.09 1151.91 1508.69 1149.61 1512.02 1148.97L1512.11 1149.01Z" fill="#417940"/>
<path d="M1117.87 1207.21C1121.79 1207.21 1126.61 1206.87 1132.63 1206.18C1135.23 1205.89 1197.14 1198.97 1263.57 1198.97C1289.47 1198.97 1312.55 1200.04 1332.18 1202.17C1430.27 1212.71 1515.18 1259.52 1555.8 1301.2C1563.26 1308.88 1572.18 1312.77 1582.34 1312.77C1605.08 1312.77 1633.07 1292.97 1659.18 1258.49C1704.92 1198.08 1718.74 1082.41 1696.09 1036.88C1690.07 1024.81 1681.66 1018.41 1671.77 1018.41C1670.95 1018.41 1670.1 1018.41 1669.25 1018.54C1651.33 1020.37 1626.41 1027.67 1594.92 1036.93C1535.91 1054.25 1455.1 1077.93 1367.47 1079.34C1292.59 1080.57 1207 1050.92 1177.9 1036.75C1168.38 1032.1 1162.24 1030.06 1157.97 1030.06C1149.27 1030.06 1148.93 1038.29 1148.29 1051.99C1147.78 1062.87 1147.14 1077.76 1141.8 1094.74C1132.16 1125.63 1121.24 1149.05 1113.26 1166.16C1104.43 1185.15 1099.05 1196.58 1102.85 1202.56C1104.94 1205.84 1109.59 1207.29 1117.87 1207.29V1207.21ZM1114.41 1166.63C1122.39 1149.48 1133.35 1126.01 1143 1095.04C1148.33 1077.89 1149.01 1062.87 1149.53 1051.94C1150.12 1038.59 1150.46 1031.25 1157.93 1031.25C1161.94 1031.25 1168.09 1033.34 1177.3 1037.82C1205.93 1051.77 1289 1080.57 1363.07 1080.57C1364.52 1080.57 1366.02 1080.57 1367.47 1080.57C1455.27 1079.17 1536.17 1055.44 1595.26 1038.08C1626.71 1028.86 1651.54 1021.57 1669.38 1019.73C1679.96 1018.66 1688.58 1024.59 1694.89 1037.35C1717.38 1082.58 1703.59 1197.52 1658.11 1257.6C1632.26 1291.77 1604.61 1311.36 1582.29 1311.36C1572.52 1311.36 1563.9 1307.6 1556.69 1300.18C1515.9 1258.32 1430.74 1211.39 1332.31 1200.81C1312.64 1198.67 1289.51 1197.61 1263.57 1197.61C1197.1 1197.61 1135.1 1204.56 1132.5 1204.82C1126.53 1205.5 1121.75 1205.84 1117.87 1205.84C1110.14 1205.84 1105.71 1204.52 1103.91 1201.7C1100.5 1196.37 1105.75 1185.15 1114.41 1166.55V1166.63Z" fill="#417940"/>
<path d="M1022.38 1256.1C1026.35 1256.1 1031.42 1255.08 1036.71 1253.25C1096.45 1232.51 1165.74 1222.44 1248.55 1222.44C1351.68 1222.44 1453.87 1231.87 1569.96 1346.05C1573.29 1349.33 1577.69 1350.99 1582.98 1350.99C1615.45 1350.99 1675.43 1288.79 1693.23 1251.28C1694.85 1247.87 1696.6 1244.24 1698.47 1240.45C1721.13 1194.02 1759.02 1116.29 1720.28 1022.25C1704.79 984.659 1690.37 984.659 1677.61 984.659C1652.01 984.659 1616.17 996.221 1574.7 1009.58C1513.47 1029.33 1444.05 1051.69 1365.03 1051.69C1297.41 1051.69 1242.71 1039.27 1187.58 1011.41C1179.05 1007.1 1170.86 1002.37 1163.61 998.227C1149.1 989.907 1137.66 983.336 1130.28 983.336C1124.52 983.336 1121.71 987.347 1121.58 995.624C1121.58 996.947 1121.75 999.037 1122.05 1001.98C1129.94 1082.96 1098.58 1158.57 1028.86 1226.71C1016.7 1238.61 1011.54 1247.14 1013.55 1252.09C1014.61 1254.74 1017.69 1256.1 1022.38 1256.1ZM1029.76 1227.6C1074.6 1183.78 1104 1136.25 1117.1 1086.29C1127.64 1046.14 1124.61 1015.08 1123.33 1001.85C1123.03 998.952 1122.86 996.861 1122.86 995.624C1122.99 985.768 1127.17 984.616 1130.28 984.616C1137.32 984.616 1149.23 991.443 1162.97 999.336C1170.22 1003.52 1178.45 1008.21 1187.03 1012.56C1242.33 1040.51 1297.19 1053.01 1365.03 1053.01C1444.27 1053.01 1513.77 1030.61 1575.13 1010.81C1616.51 997.459 1652.27 985.939 1677.65 985.939C1689.98 985.939 1703.98 985.939 1719.13 1022.72C1757.61 1116.2 1719.89 1193.6 1697.32 1239.85C1695.45 1243.69 1693.7 1247.27 1692.07 1250.73C1674.41 1287.98 1615.02 1349.71 1582.98 1349.71C1578.03 1349.71 1573.93 1348.18 1570.86 1345.15C1516.93 1292.11 1461.08 1257.38 1400.19 1238.95C1345.92 1222.53 1295.53 1221.16 1248.55 1221.16C1165.61 1221.16 1096.19 1231.27 1036.29 1252.05C1031.13 1253.84 1026.18 1254.82 1022.38 1254.82C1019.48 1254.82 1015.81 1254.27 1014.74 1251.62C1013.72 1249.15 1014.31 1242.71 1029.76 1227.65V1227.6Z" fill="#417940"/>
<path d="M754.816 818.984C751.957 816.381 749.397 815.144 747.008 815.144C741.035 815.144 736.853 822.739 730.539 834.216C723.968 846.12 715.008 862.419 699.477 878.931L694.912 883.752C677.12 902.611 668.971 911.229 670.976 915.88C671.872 917.971 674.645 918.909 679.893 918.909C684.373 918.909 690.944 918.269 701.909 916.733C706.432 916.093 711.04 915.795 715.605 915.795C752.597 915.795 783.445 936.531 805.973 951.677C819.157 960.552 829.568 967.549 837.035 967.549C840.149 967.549 842.709 966.312 844.629 963.837C868.267 933.501 785.621 846.931 754.816 818.984ZM842.965 962.515C841.472 964.477 839.509 965.416 837.035 965.416C830.208 965.416 820.053 958.589 807.168 949.885C784.427 934.568 753.28 913.619 715.605 913.619C710.955 913.619 706.219 913.96 701.611 914.6C690.773 916.136 684.245 916.776 679.893 916.776C675.797 916.776 673.451 916.179 672.939 915.027C671.488 911.699 681.429 901.16 696.491 885.203L701.056 880.381C716.757 863.699 725.845 847.229 732.416 835.24C738.389 824.403 742.315 817.277 747.051 817.277C748.885 817.277 750.976 818.344 753.408 820.563C791.68 855.251 863.915 935.635 842.965 962.515Z" fill="#417940"/>
<path d="M755.413 854.568C740.48 854.568 721.237 878.12 721.152 889.299C721.152 893.864 723.968 896.552 728.96 896.637C750.976 897.021 774.229 910.973 791.211 921.171C801.28 927.187 808.533 931.581 812.843 931.581C814.208 931.581 815.317 931.155 816.085 930.301C817.067 929.235 817.451 927.613 817.28 925.352C815.701 904.829 776.747 863.741 760.96 855.848C759.296 854.995 757.419 854.611 755.456 854.611L755.413 854.568ZM814.293 925.523C814.421 927.315 814.08 927.997 813.867 928.211C813.781 928.296 813.568 928.552 812.8 928.552C809.301 928.552 801.621 923.944 792.704 918.568C775.424 908.2 751.787 894.035 729.003 893.651C725.632 893.608 724.139 892.243 724.139 889.299C724.224 879.315 742.101 857.512 755.413 857.512C756.949 857.512 758.357 857.811 759.595 858.451C776.619 866.941 812.843 906.92 814.293 925.48V925.523Z" fill="#417940"/>
<path d="M702.635 467.581C706.304 467.581 709.248 462.376 712.107 450.728C722.816 407.165 758.187 349.523 813.141 318.888C868.736 287.869 905.771 279.805 925.696 275.496C935.595 273.363 940.544 272.253 941.739 269.651C942.208 268.669 942.037 267.475 941.312 266.109C937.472 259.112 868.608 220.584 769.579 212.563L765.397 212.221C756.48 211.496 748.757 210.856 741.376 210.856C715.52 210.856 694.699 218.067 646.059 259.155C638.379 265.64 630.528 271.656 622.933 277.501C599.424 295.549 579.115 311.08 580.437 328.787C581.461 342.355 594.901 355.837 622.72 371.155C653.525 388.136 672.299 421.843 684.715 444.115C692.608 458.237 697.771 467.581 702.72 467.581H702.635ZM623.232 370.045C596.181 355.155 582.571 341.629 581.589 328.701C580.309 311.72 600.363 296.36 623.616 278.568C631.211 272.723 639.104 266.707 646.784 260.179C695.083 219.347 715.733 212.179 741.248 212.179C748.587 212.179 756.267 212.819 765.184 213.544L769.365 213.885C866.133 221.693 936.448 260.093 940.075 266.749C940.8 268.115 940.672 268.755 940.459 269.139C939.52 271.144 934.187 272.339 925.312 274.259C905.344 278.611 868.181 286.675 812.416 317.779C757.163 348.627 721.536 406.653 710.784 450.472C708.139 461.139 705.451 466.344 702.549 466.344C698.368 466.344 692.779 456.275 685.653 443.56C673.152 421.16 654.293 387.24 623.147 370.088L623.232 370.045Z" fill="#417940"/>
<path d="M710.699 540.84C714.411 540.84 716.971 536.402 718.763 526.845C729.856 468.093 753.877 384.893 834.133 340.52C858.923 326.781 886.955 315.944 919.765 307.282C926.379 305.533 933.419 300.797 940.288 296.189C949.12 290.216 958.293 284.072 966.741 284.072C967.723 284.072 968.704 284.157 969.6 284.328C974.336 285.181 977.877 287.912 981.291 290.557C985.131 293.544 988.757 296.36 993.792 296.36C995.669 296.36 997.632 295.976 999.723 295.122C1003.31 293.714 1005.18 290.941 1006.98 288.253C1009.54 284.456 1011.93 280.872 1019.18 281.512C1026.39 282.109 1030.27 287.613 1034.37 293.416C1037.23 297.469 1040.21 301.693 1044.44 304.04C1047.51 305.746 1053.06 307.581 1057.96 307.581C1061.38 307.581 1063.81 306.685 1065.17 304.893C1066.45 303.186 1066.71 300.754 1065.86 297.725C1063.04 287.656 1041.49 278.269 1027.2 272.04C1022.98 270.205 1019.35 268.626 1017 267.389C995.755 256.125 974.549 246.61 956.629 238.76C881.024 205.693 812.075 185.512 745.899 177.064C738.432 176.125 731.989 175.656 726.144 175.656C693.547 175.656 668.288 189.906 618.027 236.669C605.696 248.146 592.981 258.002 580.736 267.517C553.259 288.85 531.541 305.704 532.053 326.909C532.48 343.634 546.987 361.469 577.792 383.016C627.371 417.704 660.267 470.397 682.069 505.256C695.509 526.717 704.341 540.925 710.784 540.925L710.699 540.84ZM578.432 381.864C548.011 360.573 533.632 343.037 533.248 326.738C532.736 306.173 554.24 289.49 581.461 268.37C593.749 258.813 606.464 248.957 618.837 237.437C668.843 190.93 693.888 176.765 726.101 176.765C731.904 176.765 738.304 177.234 745.685 178.173C811.733 186.578 880.555 206.76 956.032 239.784C973.952 247.634 995.115 257.149 1016.32 268.37C1018.71 269.65 1022.38 271.229 1026.6 273.064C1040.64 279.165 1061.89 288.424 1064.53 297.896C1065.26 300.541 1065.13 302.589 1064.06 303.954C1062.7 305.746 1059.93 306.13 1057.88 306.13C1053.44 306.13 1048.02 304.424 1044.99 302.717C1041.02 300.541 1038.17 296.445 1035.35 292.477C1031.25 286.674 1027.03 280.701 1019.22 280.018C1011.2 279.293 1008.51 283.432 1005.87 287.357C1004.07 290.002 1002.41 292.477 999.211 293.757C997.248 294.525 995.499 294.909 993.749 294.909C989.184 294.909 985.685 292.221 982.016 289.405C978.475 286.674 974.805 283.816 969.771 282.962C968.789 282.792 967.723 282.706 966.699 282.706C957.867 282.706 948.565 288.978 939.563 295.037C932.523 299.773 925.824 304.296 919.467 305.96C886.528 314.621 858.453 325.544 833.536 339.325C752.811 383.954 728.661 467.538 717.525 526.546C715.861 535.25 713.643 539.517 710.699 539.517C704.939 539.517 695.765 524.797 683.051 504.445C661.205 469.501 628.224 416.68 578.432 381.821V381.864Z" fill="#417940"/>
<path d="M868.309 1076.18C897.493 1072.85 924.971 1052.8 938.368 1025.11C950.571 999.805 957.184 956.883 919.296 896.125C903.04 870.013 885.291 843.688 868.139 818.216C819.072 745.384 772.736 676.563 753.579 607.528C731.947 529.448 749.312 465.021 808.277 404.819C859.349 352.68 926.805 322.771 993.408 322.771C1043.46 322.771 1088.13 340.392 1119.15 372.349C1153.24 407.464 1170.3 458.877 1168.43 520.957C1168 535.379 1167.32 550.269 1166.59 566.056C1164.03 622.12 1161.09 685.651 1170.13 738.515C1180.54 799.315 1205.25 836.861 1245.61 853.331C1267.24 862.163 1287.72 866.6 1306.54 866.6C1340.71 866.6 1369.81 851.667 1390.68 823.464C1426.13 775.464 1434.62 693.288 1411.84 618.963C1362.9 459.475 1245.23 364.285 1071.27 262.312C939.136 184.872 827.52 160.979 726.613 146.685C719.104 145.619 711.936 145.064 705.323 145.064C663.168 145.064 643.115 166.525 617.728 193.704C607.957 204.157 597.888 214.909 585.344 225.96C570.923 238.632 558.379 246.355 547.285 253.181C529.493 264.104 514.176 273.533 497.237 298.792C463.701 348.925 508.587 379.688 556.075 412.243C581.163 429.437 607.147 447.229 621.056 468.307C708.437 600.701 673.195 741.928 611.029 829.949C593.28 855.123 567.339 878.888 539.861 904.019C506.283 934.781 471.552 966.568 451.712 1002.11C443.179 1017.38 440.747 1027.75 444.288 1033.81C446.891 1038.25 452.651 1040.38 461.824 1040.38C478.208 1040.38 504.235 1033.6 534.4 1025.7C576.683 1014.7 629.291 1000.96 675.797 1000.96C700.416 1000.96 721.536 1004.88 738.56 1012.61C755.499 1020.33 769.835 1031.46 783.701 1042.26C806.528 1060.01 828.032 1076.73 858.496 1076.73C861.696 1076.73 864.981 1076.56 868.267 1076.18H868.309ZM739.115 1011.45C721.707 1003.52 701.013 999.677 675.84 999.677C629.205 999.677 576.469 1013.42 534.144 1024.47C504.064 1032.32 478.123 1039.06 461.867 1039.1C453.163 1039.1 447.787 1037.14 445.397 1033.13C442.112 1027.5 444.544 1017.55 452.821 1002.71C472.576 967.379 507.221 935.635 540.757 904.957C568.277 879.741 594.261 855.976 612.096 830.675C648.533 779.091 670.037 720.253 674.261 660.52C679.125 592.253 661.589 527.315 622.123 467.581C608.085 446.333 582.016 428.456 556.8 411.176C509.824 378.963 465.451 348.584 498.304 299.475C515.029 274.429 530.304 265.085 547.925 254.248C559.061 247.421 571.648 239.656 586.155 226.899C598.741 215.848 608.853 205.011 618.624 194.557C643.797 167.635 663.723 146.344 705.28 146.344C711.808 146.344 718.933 146.899 726.4 147.923C827.179 162.216 938.667 186.067 1070.59 263.379C1244.29 365.139 1361.75 460.2 1410.56 619.261C1433.26 693.245 1424.85 774.952 1389.61 822.653C1369 850.515 1340.29 865.277 1306.5 865.277C1287.85 865.277 1267.54 860.84 1246.08 852.093C1206.14 835.795 1181.7 798.589 1171.37 738.259C1162.33 685.523 1165.27 622.035 1167.83 566.056C1168.55 550.269 1169.24 535.379 1169.66 520.957C1171.54 458.493 1154.39 406.781 1120.04 371.411C1088.77 339.197 1043.8 321.448 993.408 321.448C926.464 321.448 858.624 351.485 807.339 403.88C776.021 435.88 756.693 468.861 748.203 504.787C740.651 536.872 741.973 570.536 752.299 607.827C771.499 677.075 817.877 745.939 867.029 818.899C884.181 844.371 901.931 870.696 918.187 896.765C955.776 957.053 949.248 999.507 937.173 1024.51C923.989 1051.82 896.896 1071.61 868.139 1074.86C864.896 1075.24 861.653 1075.41 858.496 1075.41C828.501 1075.41 807.125 1058.77 784.512 1041.19C770.603 1030.35 756.181 1019.18 739.115 1011.37V1011.45Z" fill="#417940"/>
<path d="M896.299 1023.27C907.477 1015.12 914.048 1003.73 915.755 989.438C920.832 947.496 883.627 886.269 850.219 846.632C808.533 797.139 767.147 744.317 746.88 693.203C745.899 690.685 744.363 683.56 742.443 674.557C735.915 644.179 725.035 593.363 709.248 593.363C707.797 593.363 706.304 593.789 704.853 594.685C698.283 598.568 696.363 606.248 698.923 618.067C701.013 627.752 705.835 638.931 710.101 648.787C714.624 659.197 718.507 668.2 718.421 673.32C718.251 686.504 712.107 692.307 706.176 697.939C701.525 702.333 696.747 706.856 694.997 714.749C692.779 724.904 696.96 732.541 701.013 739.923C704.768 746.749 708.608 753.789 707.413 762.877C705.152 779.56 652.331 839.677 605.781 892.755C567.211 936.659 533.931 974.589 534.485 981.843C534.485 982.397 534.741 982.824 535.083 983.123C538.283 985.768 544.043 987.048 552.789 987.048C566.571 987.048 585.728 983.976 607.957 980.392C634.88 976.083 665.387 971.176 691.883 971.176C712.576 971.176 728.064 974.12 739.2 980.179C745.259 983.464 752.043 987.389 759.168 991.528C790.997 1010.05 830.592 1033.04 864.128 1033.04C876.544 1033.04 887.381 1029.76 896.256 1023.31L896.299 1023.27ZM739.883 978.984C728.533 972.84 712.832 969.811 691.968 969.811C665.387 969.811 634.837 974.717 607.829 979.027C585.685 982.568 566.528 985.64 552.875 985.64C544.469 985.64 538.923 984.445 535.979 982.013C535.979 982.013 535.851 981.885 535.808 981.629C535.296 974.888 570.027 935.379 606.763 893.48C653.483 840.275 706.389 779.987 708.736 762.963C710.016 753.448 706.048 746.237 702.208 739.24C698.069 731.731 694.187 724.648 696.32 714.963C697.941 707.453 702.421 703.272 707.115 698.835C713.259 693.032 719.616 687.016 719.787 673.32C719.872 667.944 715.904 658.813 711.339 648.232C707.115 638.419 702.293 627.325 700.203 617.768C697.771 606.547 699.52 599.336 705.536 595.752C706.773 595.027 708.053 594.643 709.291 594.643C724.053 594.643 735.232 646.781 741.205 674.813C743.211 684.243 744.661 691.027 745.728 693.672C766.037 744.957 807.509 797.864 849.28 847.443C882.517 886.909 919.552 947.709 914.517 989.267C912.811 1003.22 906.453 1014.31 895.573 1022.25C886.912 1028.56 876.373 1031.72 864.213 1031.72C831.061 1031.72 791.595 1008.81 759.893 990.376C752.725 986.237 745.984 982.312 739.883 978.984Z" fill="#417940"/>
<path d="M881.707 969.725C885.504 934.568 847.872 879.442 829.056 858.237C796.587 821.672 773.931 790.482 758.955 769.874C744.107 749.437 735.915 738.13 730.624 738.13C726.997 738.13 724.992 742.824 723.755 754.386C714.453 841.256 658.261 888.317 624.683 916.392C609.963 928.722 600.277 936.829 599.851 943.528C599.723 945.448 600.405 947.24 601.899 948.776C604.971 952.018 609.792 953.554 617.173 953.554C625.451 953.554 635.904 951.634 648.021 949.416C663.723 946.514 681.557 943.272 699.776 943.272C724.608 943.272 744.619 949.458 761.003 962.173C784.085 980.093 818.219 999.25 844.971 999.25C854.613 999.25 862.848 996.818 869.504 991.954C876.544 986.834 880.683 979.325 881.707 969.682V969.725ZM844.971 998.013C818.56 998.013 784.725 979.026 761.813 961.234C745.173 948.306 724.907 942.034 699.819 942.034C681.472 942.034 663.595 945.32 647.808 948.221C635.776 950.44 625.365 952.317 617.216 952.317C610.219 952.317 605.653 950.909 602.88 947.922C601.643 946.6 601.088 945.192 601.173 943.613C601.557 937.469 611.627 929.021 625.536 917.373C659.243 889.128 715.691 841.896 725.035 754.514C726.144 744.061 727.893 739.41 730.624 739.41C735.275 739.41 743.808 751.144 757.931 770.6C772.907 791.25 795.605 822.44 828.075 859.048C846.763 880.125 884.181 934.824 880.427 969.554C879.403 978.813 875.477 986.024 868.736 990.93C862.293 995.624 854.315 997.97 844.928 997.97L844.971 998.013Z" fill="#417940"/>
<path d="M1246.25 618.664C1241.86 685.395 1261.01 731.347 1280.43 752.04C1289.3 761.512 1299.03 766.76 1307.86 766.76C1320.28 766.76 1329.62 756.989 1334.14 739.24C1363.29 625.021 1264.04 504.616 1251.88 494.547C1248.38 491.645 1245.95 491.261 1244.37 493.011C1241.51 496.125 1242.41 506.323 1244.03 524.797C1245.95 546.685 1248.81 579.752 1246.25 618.664ZM1245.95 494.461C1246.17 494.205 1246.38 494.12 1246.72 494.12C1247.32 494.12 1248.47 494.504 1250.56 496.211C1262.63 506.195 1361.02 625.533 1332.14 738.728C1327.87 755.411 1319.3 764.627 1307.9 764.627C1299.71 764.627 1290.5 759.635 1282.05 750.589C1262.93 730.195 1244.07 684.84 1248.43 618.792C1250.99 579.709 1248.13 546.557 1246.21 524.627C1244.8 508.499 1243.78 496.893 1245.99 494.461H1245.95Z" fill="#417940"/>
<path d="M1766.61 -131.672C1733.25 -131.672 1696.3 -125.358 1657.13 -118.702C1610.37 -110.723 1562.03 -102.488 1509.33 -102.488C1505.45 -102.488 1501.61 -102.531 1497.98 -102.616C1494.83 -102.702 1491.75 -102.787 1488.68 -102.872C1480.7 -103.086 1473.19 -103.299 1465.94 -103.299C1420.54 -103.299 1392.43 -94.0402 1373.91 -45.2722C1362.22 -14.4242 1348.91 20.5198 1317.08 43.0905C1308.07 49.4905 1299.07 54.9091 1291.09 59.7305C1272.66 70.8665 1258.11 79.6558 1257.56 91.8158C1257.05 102.994 1268.35 116.434 1294.17 135.378C1318.95 153.554 1339.31 162.386 1356.46 162.386C1357.99 162.386 1359.57 162.301 1361.07 162.173C1385.98 159.869 1402.71 139.261 1423.87 113.192C1433.47 101.33 1444.39 87.9331 1457.19 75.1331C1512.62 19.7092 1580.71 -20.6962 1654.1 -41.7309C1685.08 -50.6055 1715.67 -55.1282 1745.07 -55.1282C1817.69 -55.1282 1873.66 -28.8882 1920 1.49046V-0.0455322C1873.66 -30.2962 1817.64 -56.4082 1745.07 -56.4082C1715.54 -56.4082 1684.82 -51.8855 1653.76 -42.9682C1580.16 -21.8482 1511.85 18.6852 1456.3 74.2372C1443.46 87.0798 1432.53 100.52 1422.89 112.381C1401.94 138.194 1385.34 158.632 1360.98 160.893C1359.49 161.021 1357.99 161.107 1356.5 161.107C1339.65 161.107 1319.51 152.36 1294.93 134.354C1269.5 115.666 1258.37 102.568 1258.84 91.9011C1259.35 80.4238 1273.64 71.8051 1291.78 60.8398C1299.75 56.0185 1308.8 50.5571 1317.85 44.1571C1350.02 21.3731 1363.37 -13.7842 1375.15 -44.8029C1393.41 -92.8882 1421.14 -102.019 1465.98 -102.019C1473.24 -102.019 1480.75 -101.806 1488.68 -101.592C1491.71 -101.507 1494.83 -101.422 1497.98 -101.336C1501.65 -101.251 1505.45 -101.208 1509.38 -101.208C1562.15 -101.208 1610.58 -109.486 1657.39 -117.464C1696.47 -124.12 1733.42 -130.435 1766.66 -130.435C1785.94 -130.435 1802.75 -128.302 1818.15 -123.907C1851.22 -114.478 1885.1 -98.9895 1920.04 -80.8988V-82.3495C1885.23 -100.312 1851.48 -115.715 1818.5 -125.144C1803.01 -129.582 1786.03 -131.715 1766.66 -131.715L1766.61 -131.672Z" fill="#417940"/>
<path d="M1213.23 614.824C1208.28 679.549 1221.08 731.944 1249.24 762.365C1263.96 778.28 1282.05 787.027 1300.18 787.027C1326.04 787.027 1346.69 769.064 1352.87 741.288C1370.84 660.051 1343.02 587.005 1316.57 539.987C1285.42 484.776 1245.61 445.693 1226.41 432.893C1219.41 428.243 1214.46 425.341 1211.48 425.341C1210.37 425.341 1209.51 425.725 1208.87 426.451C1206.4 429.224 1207.42 437.16 1209.43 452.861C1212.97 480.723 1219.58 532.52 1213.27 614.824H1213.23ZM1209.77 427.261C1210.15 426.792 1210.71 426.579 1211.43 426.579C1214.08 426.579 1219.07 429.523 1225.69 433.917C1268.99 462.803 1384.02 594.387 1351.59 740.947C1345.58 768.125 1325.4 785.704 1300.18 785.704C1282.39 785.704 1264.64 777.085 1250.18 761.469C1222.27 731.347 1209.6 679.293 1214.51 614.909C1220.82 532.477 1214.21 480.552 1210.62 452.648C1208.79 438.269 1207.68 429.608 1209.77 427.219V427.261Z" fill="#417940"/>
<path d="M1188.69 619.005C1183.79 699.56 1199.19 763.219 1232.13 798.205C1249.15 816.296 1269.8 825.853 1291.9 825.853C1334.14 825.853 1369.9 791.677 1380.95 740.819C1397.21 665.811 1383.21 591.955 1339.39 521.299C1294.98 449.747 1233.54 403.496 1200.85 382.248C1184.21 371.453 1177.09 366.931 1174.36 370.216C1172.1 372.947 1173.59 380.712 1176.49 396.157C1182.81 429.651 1195.99 499.325 1188.69 618.92V619.005ZM1175.34 371.112C1175.68 370.685 1176.15 370.515 1176.87 370.515C1180.33 370.515 1187.8 375.379 1200.17 383.4C1309.06 454.056 1413.38 585.043 1379.67 740.563C1368.79 790.824 1333.5 824.573 1291.9 824.573C1270.19 824.573 1249.83 815.144 1233.07 797.309C1200.38 762.579 1185.11 699.261 1189.97 619.048C1197.27 499.283 1184.09 429.523 1177.73 395.987C1175.04 381.864 1173.46 373.373 1175.3 371.112H1175.34Z" fill="#417940"/>
<path d="M697.685 351.314C709.76 351.314 718.421 339.666 727.68 322.173C743.851 291.624 777.643 276.818 795.776 268.882C804.949 264.872 808.405 263.378 807.979 260.818C807.595 258.685 805.248 257.789 792.704 256.936C754.901 254.376 670.08 290.429 660.309 317.565C658.048 323.837 659.712 329.554 665.173 334.034C679.723 346.109 689.493 351.229 697.728 351.229L697.685 351.314ZM663.125 318.632C672.043 293.842 750.891 259.837 788.651 259.837C789.973 259.837 791.253 259.837 792.491 259.965C799.872 260.477 803.157 260.989 804.48 261.416C802.901 262.525 798.677 264.36 794.581 266.152C776.107 274.216 741.717 289.277 725.035 320.765C714.539 340.562 706.859 348.285 697.685 348.285C690.219 348.285 681.045 343.336 667.051 331.773C662.571 328.061 661.248 323.752 663.125 318.589V318.632Z" fill="#417940"/>
<path d="M734.805 349.778C763.861 296.829 816.981 278.354 859.989 268.157C864.128 267.176 864.512 265.042 864.384 263.89C863.36 255.272 823.083 238.76 762.965 238.76C756.181 238.76 749.227 238.973 742.357 239.4C714.88 241.064 650.112 279.378 626.859 307.752C620.8 315.133 618.069 321.234 618.709 325.97C620.331 337.746 630.784 342.952 642.944 349.01C655.787 355.41 670.336 362.664 677.461 379.56C681.6 389.416 687.019 394.408 693.589 394.408C704.725 394.408 718.635 379.389 734.848 349.821L734.805 349.778ZM679.381 378.706C672 361.085 657.067 353.618 643.883 347.048C632.277 341.288 622.251 336.296 620.8 325.629C620.245 321.576 622.891 315.858 628.48 309.074C651.477 281.042 715.435 243.154 742.485 241.533C749.355 241.106 756.224 240.893 762.965 240.893C822.059 240.893 861.44 257.234 862.251 264.146C862.379 265.256 860.587 265.853 859.52 266.109C816.085 276.392 762.453 295.08 732.971 348.754C708.48 393.341 690.091 404.136 679.424 378.706H679.381Z" fill="#417940"/>
<path d="M1296.17 715.645C1298.43 715.645 1300.39 714.067 1302.06 710.995C1310.38 695.421 1310.21 641.491 1288.15 608.68C1285.29 604.413 1281.15 604.968 1277.99 610.344C1269.72 624.595 1266.22 669.907 1288.79 709.459C1291.14 713.555 1293.61 715.645 1296.13 715.645H1296.17ZM1280.6 611.837C1281.71 609.96 1282.86 608.808 1283.75 608.808C1284.52 608.808 1285.29 609.747 1285.67 610.344C1306.75 641.747 1307.22 694.952 1299.41 709.587C1298.35 711.549 1297.19 712.659 1296.17 712.659C1294.85 712.659 1293.1 710.952 1291.39 707.965C1269.72 669.949 1272.83 625.192 1280.6 611.837Z" fill="#417940"/>
<path d="M1573.72 846.589C1576.75 850.984 1584.21 852.861 1598.59 852.861C1607.59 852.861 1618.3 852.136 1630.72 851.325C1646.08 850.301 1663.53 849.149 1681.54 849.149C1738.58 849.149 1777.07 861.266 1802.71 887.378C1826.56 905.725 1839.7 935.635 1851.31 962.045C1865.43 994.13 1877.59 1021.82 1904.51 1021.82C1907.37 1021.82 1910.4 1021.48 1913.47 1020.84C1915.52 1020.41 1917.7 1019.86 1919.96 1019.18V1016.96C1917.57 1017.73 1915.22 1018.32 1913.05 1018.79C1910.1 1019.39 1907.2 1019.73 1904.51 1019.73C1879 1019.73 1867.09 992.637 1853.27 961.234C1841.54 934.61 1828.27 904.445 1804.12 885.843C1778.13 859.389 1739.18 847.059 1681.54 847.059C1663.45 847.059 1645.99 848.211 1630.55 849.234C1618.18 850.045 1607.47 850.771 1598.55 850.771C1585.32 850.771 1577.98 849.064 1575.47 845.437C1574.1 843.432 1574.06 840.744 1575.38 837.16C1602.52 764.584 1625.26 672.723 1623.04 644.435C1619.2 594.899 1597.44 548.093 1576.36 502.824C1550.59 447.485 1526.27 395.219 1541.72 351.613C1563.22 291.027 1661.35 185.853 1714.47 178.6C1717.03 178.259 1719.89 178.088 1722.97 178.088C1764.35 178.088 1837.27 207.741 1919.91 256.723V254.248C1837.35 205.437 1764.48 175.955 1722.97 175.955C1719.77 175.955 1716.82 176.125 1714.18 176.509C1660.46 183.848 1561.34 289.875 1539.67 350.931C1523.93 395.347 1548.42 447.997 1574.36 503.763C1595.35 548.861 1617.02 595.453 1620.86 644.605C1622.78 669.395 1602.43 758.568 1573.33 836.392C1571.75 840.659 1571.84 844.029 1573.63 846.632L1573.72 846.589Z" fill="#417940"/>
<path d="M1776.04 1521.92C1773.61 1521.92 1769.47 1522.17 1764.27 1522.51C1755.48 1523.07 1743.45 1523.84 1731.5 1523.84C1701.85 1523.84 1686.31 1518.97 1685.33 1509.33C1683.84 1494.87 1718.23 1473.36 1740.97 1459.15C1750.02 1453.48 1757.82 1448.62 1761.45 1445.46C1789.78 1420.63 1815.94 1389.69 1839.19 1353.51C1854.59 1329.53 1865.94 1303.72 1877.93 1276.37C1886.98 1255.81 1901.31 1234.43 1920.04 1219.67V1218.09C1900.76 1233.02 1885.99 1254.82 1876.78 1275.86C1864.79 1303.17 1853.48 1328.94 1838.12 1352.83C1814.91 1388.93 1788.84 1419.73 1760.64 1444.48C1757.1 1447.59 1749.33 1452.46 1740.33 1458.09C1715.93 1473.32 1682.56 1494.23 1684.1 1509.46C1685.16 1520 1700.69 1525.12 1731.54 1525.12C1743.53 1525.12 1755.61 1524.35 1764.39 1523.75C1769.6 1523.41 1773.7 1523.15 1776.09 1523.15C1820.97 1523.15 1860.91 1530.37 1897 1544.96H1900.46C1863.42 1529.47 1822.38 1521.87 1776.09 1521.87L1776.04 1521.92Z" fill="#417940"/>
<path d="M1766.61 -102.232C1735.77 -102.232 1699.97 -96.1309 1662.08 -89.6882C1614.12 -81.4962 1564.5 -73.0482 1509.33 -73.0482C1505.28 -73.0482 1501.27 -73.0909 1497.3 -73.1762L1487.91 -73.4322C1480.15 -73.6456 1472.85 -73.8589 1465.98 -73.8589C1406.21 -73.8589 1403.26 -41.0056 1400.11 -6.23222C1398.4 12.8398 1396.61 32.5944 1386.11 49.3624C1382.36 55.3358 1372.29 62.9304 1361.58 70.9518C1338.84 88.0184 1313.07 107.389 1325.44 125.522C1330.77 133.33 1337.17 137.256 1344.47 137.256C1348.48 137.256 1352.83 136.061 1357.35 133.714C1377.54 123.304 1399.08 92.4984 1416.41 67.7518C1426.22 53.7144 1434.71 41.5971 1439.36 38.7811C1444.22 35.8798 1449.69 35.4958 1454.34 35.4958C1456.13 35.4958 1457.96 35.5811 1459.8 35.6238C1461.67 35.7091 1463.55 35.7518 1465.39 35.7518C1472.43 35.7518 1479.85 34.8984 1486.55 28.7971C1494.61 21.4584 1495.64 11.9011 1496.62 2.6851C1497.51 -5.59224 1498.33 -13.4002 1503.83 -20.0136C1520.47 -39.8962 1578.84 -53.8056 1617.45 -62.9789C1628.8 -65.6669 1638.61 -68.0136 1645.95 -70.1042C1679.53 -79.7469 1712.9 -84.6109 1745.02 -84.6109C1816.36 -84.6109 1873.41 -61.2296 1919.96 -33.2402V-35.7575C1873.37 -63.5762 1816.32 -86.7442 1745.02 -86.7442C1712.68 -86.7442 1679.15 -81.8375 1645.35 -72.1522C1638.1 -70.0615 1628.29 -67.7149 1616.94 -65.0269C1575.72 -55.2136 1519.27 -41.7736 1502.21 -21.3362C1496.28 -14.2536 1495.38 -5.72021 1494.49 2.51446C1493.5 11.7305 1492.57 20.4344 1485.1 27.2611C1478.91 32.8931 1471.96 33.6611 1465.39 33.6611C1463.55 33.6611 1461.67 33.5758 1459.84 33.5331C1458.01 33.4478 1456.13 33.4051 1454.29 33.4051C1449.34 33.4051 1443.54 33.8318 1438.21 36.9891C1433.17 40.0184 1424.98 51.7091 1414.57 66.5571C1398.27 89.8104 1376 121.682 1356.29 131.837C1344.26 138.024 1334.78 135.592 1327.06 124.328C1315.84 107.901 1340.76 89.1704 1362.73 72.6584C1374.04 64.1678 1383.81 56.8291 1387.78 50.5145C1398.57 33.3198 1400.36 13.3091 1402.11 -6.01888C1405.27 -41.2615 1408.04 -71.7256 1465.86 -71.7256C1472.73 -71.7256 1480.02 -71.5122 1487.74 -71.2989L1497.13 -71.0429C1501.14 -70.9576 1505.15 -70.9149 1509.21 -70.9149C1564.59 -70.9149 1614.25 -79.4056 1662.34 -87.5976C1700.14 -94.0402 1735.81 -100.142 1766.49 -100.142C1782.91 -100.142 1797.03 -98.3922 1809.66 -94.7656C1844.52 -84.8242 1881.34 -67.1176 1919.87 -46.6802V-49.1122C1881.6 -69.3789 1844.99 -86.9149 1810.26 -96.8136C1797.42 -100.483 1783.08 -102.275 1766.49 -102.275L1766.61 -102.232Z" fill="#417940"/>
<path d="M1638.14 790.995C1646.08 802.387 1662.85 803.667 1686.02 805.459C1688.53 805.672 1691.14 805.843 1693.78 806.056C1701.12 806.653 1708.8 806.909 1716.91 807.208C1754.62 808.488 1797.38 809.981 1835.99 845.139L1836.46 845.565C1857.88 864.296 1870.59 897.32 1881.86 926.461C1893.16 955.816 1902.98 981.16 1918.51 981.16C1918.98 981.16 1919.49 981.075 1919.96 981.032V979.752C1919.49 979.795 1918.98 979.923 1918.51 979.923C1903.83 979.923 1894.23 954.963 1883.05 926.035C1871.74 896.765 1858.94 863.571 1837.31 844.627L1836.84 844.2C1797.89 808.744 1754.88 807.251 1716.95 805.971C1708.84 805.672 1701.16 805.416 1693.87 804.819C1691.22 804.605 1688.62 804.392 1686.1 804.221C1663.27 802.472 1646.76 801.192 1639.17 790.312C1632 779.987 1632.98 760.616 1642.45 727.592C1651.2 697 1654.49 669.053 1652.39 642.173C1648.13 587.347 1625.22 538.109 1603.07 490.451C1579.95 440.701 1558.06 393.725 1569.49 361.469C1588.52 307.752 1680.43 212.947 1718.49 207.784C1719.34 207.656 1720.79 207.528 1723.01 207.528C1754.79 207.528 1826.73 233.981 1919.96 291.112V289.619C1826.77 232.659 1754.88 206.248 1723.01 206.248C1720.75 206.248 1719.21 206.376 1718.31 206.504C1679.96 211.752 1587.41 307.069 1568.3 361.043C1556.69 393.811 1578.67 441 1601.92 491.005C1624.02 538.536 1646.89 587.645 1651.11 642.259C1653.21 669.011 1649.96 696.829 1641.22 727.251C1631.49 761.128 1630.55 780.243 1638.1 791.08L1638.14 790.995Z" fill="#417940"/>
<path d="M860.16 1176.83C923.691 1169.58 999.339 1094.1 1019.61 1036.41C1054.81 936.274 992.213 855.634 931.669 777.64C873.259 702.376 818.048 631.293 844.885 544.722C868.267 469.33 943.787 428.626 1002.97 428.626C1034.88 428.626 1062.44 439.933 1080.66 460.499C1102.29 484.904 1110.78 521.981 1105.24 567.72C1086.17 724.861 1080.49 896.765 1255.68 947.453C1275.78 953.256 1295.62 956.2 1314.69 956.2C1388.46 956.2 1435.52 913.96 1462.02 878.504C1512.83 810.536 1530.5 708.861 1505.92 625.533C1485.1 554.877 1444.1 486.312 1380.65 415.997C1286.31 311.464 1157.8 221.608 987.819 141.224L980.48 137.725C908.971 103.89 835.029 68.9038 757.163 49.6184C752.555 48.4664 747.435 47.1011 741.973 45.6504C717.909 39.2504 688 31.3145 662.315 31.3145C652.032 31.3145 643.115 32.6371 635.861 35.2398C624.768 39.2078 618.539 46.8024 612.48 54.1411C607.957 59.6024 603.307 65.2771 596.651 69.3304C592.341 71.9758 583.893 75.2184 575.019 78.6744C560.64 84.2211 545.707 89.9811 541.013 95.5278C531.925 106.194 534.443 112.594 536.832 118.824C538.581 123.261 540.203 127.485 538.069 133.757L536.405 138.706C527.787 164.05 513.55 179.595 493.696 185.341C487.936 187.005 480.768 189.096 472.277 191.784C447.744 199.592 437.675 211.624 427.947 223.272C420.48 232.232 413.397 240.68 400.043 247.506C399.701 247.506 399.275 247.506 398.848 247.506C383.488 247.506 267.008 255.186 258.048 283.816C255.659 291.538 260.864 299.901 273.621 308.733C289.579 319.784 301.653 321.064 309.376 321.064C313.131 321.064 316.544 320.722 319.829 320.424C322.645 320.168 325.291 319.912 327.808 319.912C337.195 319.912 346.667 322.557 359.637 354.6C362.837 362.493 365.312 368.936 367.36 374.312C377.429 400.68 377.771 401.021 403.328 411.944C409.685 414.632 417.579 418.002 427.605 422.653C460.544 437.842 467.285 455.08 475.819 476.925C480.341 488.445 485.461 501.544 495.147 516.264C505.515 532.008 517.675 544.68 529.451 556.925C550.315 578.642 570.027 599.165 576.299 633.426C587.179 692.776 554.965 749.437 518.528 801.832C500.864 827.261 464.555 856.829 426.112 888.146C360.832 941.309 286.848 1001.6 286.592 1057.41C286.421 1089.28 294.613 1113.73 310.912 1130.11C328.661 1147.94 355.627 1156.61 393.387 1156.61C448.128 1156.61 515.371 1138.13 574.72 1121.87C621.44 1109.07 661.803 1097.98 687.573 1097.98C693.419 1097.98 698.368 1098.58 702.251 1099.73C727.125 1107.11 746.837 1122.9 765.952 1138.17C791.253 1158.44 815.189 1177.55 849.365 1177.55C852.864 1177.55 856.448 1177.34 860.032 1176.96L860.16 1176.83ZM703.232 1096.74C698.965 1095.46 693.888 1094.87 687.701 1094.87C661.504 1094.87 620.971 1106 574.037 1118.85C514.859 1135.06 447.787 1153.49 393.472 1153.49C356.565 1153.49 330.283 1145.13 313.131 1127.89C297.429 1112.1 289.536 1088.38 289.664 1057.32C289.92 1002.92 363.307 943.101 428.075 890.365C466.688 858.92 503.125 829.224 521.045 803.453C557.824 750.504 590.379 693.203 579.285 632.786C572.843 597.629 552.832 576.808 531.669 554.749C519.979 542.589 507.904 530.002 497.707 514.514C488.192 500.05 483.115 487.165 478.677 475.73C469.888 453.245 462.933 435.538 428.928 419.837C418.859 415.186 410.923 411.816 404.565 409.085C388.124 402.059 376.661 390.07 370.176 373.117C368.128 367.741 365.653 361.256 362.453 353.362C350.037 322.77 340.352 316.797 327.851 316.797C325.205 316.797 322.475 317.053 319.573 317.352C316.373 317.65 313.045 317.992 309.419 317.992C301.483 317.992 290.475 316.669 275.371 306.216C263.808 298.237 258.987 290.984 260.949 284.669C268.715 259.794 377.301 250.45 398.891 250.45C399.403 250.45 399.744 250.45 399.957 250.45L400.299 249.085L400.939 250.408C415.104 243.24 422.827 234.066 430.251 225.149C440.149 213.33 449.493 202.152 473.216 194.6C481.664 191.912 488.789 189.864 494.549 188.2C525.568 179.24 525.952 178.77 539.264 139.645L540.928 134.696C543.403 127.4 541.397 122.28 539.648 117.714C537.344 111.826 535.381 106.749 543.317 97.4478C547.541 92.4985 562.731 86.6105 576.128 81.4478C585.173 77.9491 593.707 74.6638 598.272 71.8904C605.355 67.5811 610.176 61.7358 614.827 56.0611C620.885 48.7224 626.603 41.7678 636.885 38.0984C643.84 35.6238 652.416 34.3438 662.357 34.3438C687.659 34.3438 717.355 42.2371 741.248 48.5944C746.709 50.0451 751.829 51.4104 756.48 52.5624C834.048 71.7624 907.861 106.706 979.243 140.456L986.581 143.954C1156.18 224.125 1284.39 313.768 1378.47 418.002C1441.62 487.976 1482.41 556.157 1503.1 626.386C1527.42 708.861 1509.97 809.469 1459.67 876.712C1433.56 911.613 1387.22 953.213 1314.73 953.213C1295.96 953.213 1276.42 950.312 1256.58 944.552C1083.65 894.546 1089.32 724.008 1108.27 568.061C1113.94 521.469 1105.19 483.581 1082.97 458.536C1064.19 437.33 1035.82 425.682 1003.05 425.682C942.805 425.682 865.92 467.112 842.112 543.912C814.805 631.933 873.045 706.984 929.408 779.56C989.44 856.914 1051.56 936.914 1016.87 1035.52C996.864 1092.39 922.368 1166.85 859.904 1173.97C856.405 1174.35 852.949 1174.57 849.579 1174.57C816.427 1174.57 792.917 1155.75 768 1135.83C748.715 1120.38 728.747 1104.42 703.317 1096.83L703.232 1096.74Z" fill="#417940"/>
<path d="M1250.05 -51.5867C1235.58 -41.3894 1215.79 -36.3974 1189.5 -36.3974C1158.66 -36.3974 1124.1 -43.3094 1093.67 -49.4107C1075.71 -52.9947 1058.77 -56.408 1044.91 -57.8587C1038.12 -58.584 1019.9 -60.2481 997.461 -60.2481C955.904 -60.2481 902.571 -54.6161 884.693 -27.7787C876.885 -16.1307 876.587 -1.45341 883.755 15.7839C887.125 23.8906 895.829 28.2853 904.235 32.552C910.891 35.9226 917.76 39.3786 921.6 44.5839C926.123 50.7279 928.811 59.3466 931.371 67.7093C934.827 78.8026 938.368 90.2799 946.432 97.0639C956.459 105.469 967.424 109.395 981.035 109.395C990.464 109.395 1000.11 107.475 1009.41 105.64C1018.62 103.805 1028.14 101.928 1037.35 101.928C1046.57 101.928 1053.87 103.677 1060.86 107.261C1077.8 116.008 1084.97 127.784 1091.84 139.133C1100.84 153.981 1109.33 167.976 1137.32 174.547C1195.9 188.243 1211.99 202.579 1250.77 237.181C1255.77 241.661 1261.14 246.44 1267.03 251.603C1280.98 263.848 1291.31 277.843 1301.29 291.368C1310.17 303.443 1319.38 315.901 1331.24 327.336C1345.79 341.373 1359.53 347.603 1372.8 353.619C1390.46 361.64 1407.19 369.235 1422.34 395.261L1424.68 399.357C1443.75 432.296 1463 462.803 1474.86 462.803C1476.78 462.803 1478.4 462.077 1479.77 460.584C1484.03 455.891 1485.18 443.475 1483.31 422.611C1482.2 410.365 1473.37 399.443 1464.79 388.861C1455.57 377.469 1446.87 366.675 1447.38 354.771C1448.02 340.52 1456.64 333.48 1465.77 326.056C1472.47 320.637 1479.38 315.005 1483.43 306.259C1493.16 285.309 1495.51 266.579 1497.81 248.445C1500.97 223.187 1503.96 199.379 1526.57 172.413C1566.98 124.157 1623.68 87.72 1686.23 69.7573C1707.05 63.784 1726.34 60.8826 1745.15 60.8826C1809.07 60.8826 1854.89 95.656 1903.45 132.435C1908.95 136.616 1914.5 140.797 1920.09 144.979V141.267C1915.09 137.512 1910.14 133.8 1905.24 130.088C1856.3 92.968 1810.05 57.9386 1745.15 57.9386C1726.04 57.9386 1706.5 60.8826 1685.38 66.9413C1622.27 85.0319 1565.06 121.811 1524.22 170.536C1501.06 198.184 1498.03 222.419 1494.78 248.104C1492.52 266.024 1490.22 284.541 1480.66 305.021C1476.91 313.128 1470.25 318.504 1463.85 323.752C1454.59 331.261 1445.03 339.069 1444.35 354.685C1443.8 367.699 1453.27 379.432 1462.4 390.781C1470.68 401.021 1479.21 411.603 1480.23 422.909C1482.45 447.485 1479.98 455.891 1477.46 458.579C1476.69 459.432 1475.84 459.816 1474.77 459.816C1463.04 459.816 1437.91 416.381 1427.2 397.864L1424.81 393.768C1409.19 366.931 1392.04 359.165 1373.95 350.888C1360.9 344.957 1347.41 338.813 1333.25 325.16C1321.6 313.939 1312.47 301.565 1303.64 289.576C1293.57 275.923 1283.16 261.8 1268.95 249.341C1263.06 244.179 1257.69 239.4 1252.69 234.92C1213.48 199.933 1197.27 185.469 1137.92 171.603C1111.13 165.331 1102.93 151.848 1094.31 137.555C1087.19 125.821 1079.85 113.704 1062.14 104.573C1054.72 100.733 1046.61 98.8986 1037.27 98.8986C1027.93 98.8986 1018.11 100.819 1008.77 102.653C999.595 104.488 990.08 106.323 980.949 106.323C968.107 106.323 957.739 102.611 948.267 94.6746C940.885 88.4453 937.429 77.3946 934.144 66.6853C931.499 58.1093 928.725 49.2346 923.904 42.6639C919.68 36.9039 912.469 33.2773 905.515 29.7359C897.237 25.5546 889.387 21.5866 886.443 14.504C879.701 -1.75203 879.915 -15.4907 887.125 -26.2854C904.32 -52.0134 956.587 -57.432 997.419 -57.432C1019.73 -57.432 1037.78 -55.7681 1044.52 -55.0427C1058.22 -53.5921 1075.11 -50.1787 1092.99 -46.6374C1123.58 -40.4934 1158.27 -33.5814 1189.42 -33.5814C1216.34 -33.5814 1236.69 -38.744 1251.67 -49.3254C1289 -75.736 1278.29 -115.544 1267.93 -154.029C1256.87 -195.16 1245.44 -237.699 1291.43 -265.432C1296.94 -268.76 1304.32 -270.467 1313.32 -270.467C1340.84 -270.467 1379.58 -255.448 1417.05 -240.899C1449.69 -228.227 1480.49 -216.28 1500.54 -215.811C1503.45 -215.725 1506.3 -215.725 1509.21 -215.725C1552.3 -215.725 1595.86 -223.149 1638.02 -230.36C1680.09 -237.528 1723.56 -244.952 1766.49 -244.952C1796.52 -244.952 1823.66 -241.368 1849.39 -234.029C1873.19 -227.245 1896.66 -218.243 1919.87 -208.003V-211.245C1896.96 -221.357 1873.75 -230.189 1850.2 -236.888C1824.17 -244.312 1796.78 -247.939 1766.49 -247.939C1723.31 -247.939 1679.66 -240.515 1637.5 -233.304C1595.48 -226.136 1552.04 -218.712 1509.21 -218.712C1506.3 -218.627 1503.49 -218.712 1500.59 -218.797C1481.05 -219.267 1450.5 -231.128 1418.11 -243.672C1380.39 -258.307 1341.4 -273.453 1313.32 -273.453C1303.59 -273.453 1295.96 -271.661 1289.86 -267.992C1241.94 -239.064 1253.67 -195.459 1265.02 -153.261C1275.56 -114.008 1285.55 -76.9734 1249.92 -51.7574L1250.05 -51.5867Z" fill="#417940"/>
</g>
<defs>
<clipPath id="clip0_20_1307">
<rect width="1920" height="1920" fill="white" transform="translate(0 -375)"/>
</clipPath>
</defs>
</svg>
