<svg width="120" height="120" viewBox="0 0 120 120" fill="none" xmlns="http://www.w3.org/2000/svg">
<g clip-path="url(#clip0_202_34)">
<path d="M115.779 57.6886C115.278 57.3962 114.782 57.0967 114.286 56.7997C110.4 54.4716 106.629 51.9695 102.983 49.3049C102.787 51.1919 102.281 52.9908 101.451 54.6968C100.2 57.2708 98.2545 59.4039 95.6191 61.0983C92.9791 62.795 89.7322 63.6422 85.8691 63.6422C83.206 63.6422 80.2683 63.1501 77.0583 62.166L77.303 61.3467C79.8622 62.1149 82.1168 62.4956 84.0737 62.4956C87.3922 62.4956 90.2053 61.6879 92.5199 60.077C94.8299 58.4616 96.5699 56.4654 97.7422 54.0863C98.866 51.7954 99.4106 49.2956 99.4014 46.6008C97.2299 44.9111 95.0999 43.1679 93.0276 41.3598C92.1876 40.6147 92.8106 41.1834 92.0976 40.5265C88.8714 37.6646 85.7676 34.6704 82.8022 31.5393L82.2437 30.9614C81.9876 30.6875 81.7406 30.4043 81.4868 30.1281C80.9214 30.1002 80.3445 30.084 79.7491 30.084C76.3222 30.084 72.9783 30.6712 69.713 31.8503C66.4499 33.0248 63.5676 34.7633 61.0637 37.0588C58.5645 39.3567 56.5499 42.2163 55.0268 45.6352C53.506 49.0519 52.7422 52.9791 52.7422 57.4101C52.7422 62.3888 53.5568 66.7942 55.1906 70.6217C56.8222 74.4515 58.9983 77.6778 61.7168 80.3053C64.4376 82.9304 67.5391 84.9289 71.0168 86.296C74.4991 87.6608 78.1153 88.3478 81.8676 88.3478C82.2345 88.3478 82.5968 88.3292 82.9614 88.3176C87.5353 83.506 92.4183 78.9962 97.5945 74.8368C97.613 74.8205 97.5991 74.788 97.6176 74.7718C99.2629 73.5741 98.0906 74.4213 99.5699 73.3049C105.955 68.347 112.742 63.8859 119.896 60.019C118.507 59.267 117.136 58.4871 115.774 57.6933L115.779 57.6886Z" fill="#292929"/>
<path d="M36.0694 52.1039C39.3764 47.8029 42.9187 43.987 46.6941 40.6656C50.4741 37.3395 54.5841 34.6725 59.0264 32.6602C63.4687 30.6478 71.7187 29.0973 77.1071 29.0973H79.7425C80.0217 29.0973 80.2871 29.1089 80.5594 29.1135C72.6325 20.37 65.7141 10.6865 60.0302 0.220703C51.7387 15.4865 40.8441 29.1066 27.9694 40.524L27.0394 41.3573C20.4394 47.1112 13.3248 52.2803 5.77867 56.7994C5.28251 57.0965 4.78637 57.3959 4.2856 57.6884C2.92406 58.4822 1.55329 59.2644 0.164062 60.0141C7.31791 63.881 14.1048 68.3422 20.4902 73.3C20.7094 73.4741 20.8848 73.6133 21.0394 73.7364C22.8671 70.9836 24.6925 68.2424 26.5294 65.4687C29.5848 60.859 32.7648 56.4072 36.0694 52.1015V52.1039Z" fill="#292929"/>
<path d="M68.5653 88.591C64.8684 87.2216 61.5914 85.2138 58.7345 82.5608C55.8799 79.9055 53.5953 76.6397 51.8807 72.7519C50.1684 68.8688 49.3099 64.4378 49.3099 59.4591C49.3099 54.4804 50.1545 50.2676 51.8391 46.4935C53.5261 42.7194 55.7853 39.5465 58.6099 36.9747C61.4391 34.4053 64.6768 32.4486 68.3184 31.1094C68.9622 30.8726 69.613 30.6637 70.2661 30.4688C66.5299 31.0908 61.8499 32.2606 58.8591 34.0014C55.5061 35.9535 53.983 37.1651 52.483 38.444C50.4568 40.1778 48.4999 42.1043 46.6099 44.2258L45.5276 45.5674C42.2507 49.3693 39.1122 53.5426 36.1122 58.0989C33.1122 62.6529 30.0868 67.2486 27.0291 71.8838C26.0691 73.3438 25.0768 74.7643 24.0938 76.1941C26.4476 78.1438 28.7553 80.1492 30.9845 82.2382C30.9891 82.2382 30.9938 82.2382 30.9984 82.2359L31.333 82.5585C31.333 82.5585 31.3237 82.5585 31.3191 82.5585C42.7376 93.3237 52.4645 105.883 60.0291 119.807C65.7753 109.228 72.7745 99.4351 80.8099 90.615C80.5353 90.622 80.2607 90.6382 79.9861 90.6382C76.0699 90.6382 72.2645 89.9535 68.563 88.5863L68.5653 88.591Z" fill="#292929"/>
</g>
<defs>
<clipPath id="clip0_202_34">
<rect width="120" height="120" fill="white"/>
</clipPath>
</defs>
</svg>
