<svg width="185" height="60" viewBox="0 0 185 60" fill="none" xmlns="http://www.w3.org/2000/svg">
<g clip-path="url(#clip0_118_53627)">
<path d="M71.7654 9.60626C72.4412 8.99364 73.1581 8.42462 73.939 7.9382C74.7175 7.45177 75.5532 7.03878 76.4413 6.69231L76.4071 6.534C74.4755 6.65331 72.5737 7.45177 70.9663 8.59211C70.5622 8.87663 70.1741 9.18179 69.795 9.49613C69.4434 9.80358 69.0987 10.1179 68.7676 10.4437C68.0096 9.89995 67.1923 9.40894 66.3041 8.98217C64.3269 8.02768 62.0209 7.55273 59.3953 7.55273C56.7696 7.55273 54.4568 8.02768 52.459 8.98217C50.4636 9.93437 48.8083 11.1803 47.4932 12.7175C46.1804 14.2548 45.1895 16.0192 44.5251 18.0085C43.8584 19.9955 43.5273 22.0192 43.5273 24.075C43.5273 26.1309 43.8584 28.1523 44.5251 30.1415C45.1895 32.1285 46.1804 33.893 47.4932 35.4302C48.8083 36.9675 50.4636 38.2134 52.459 39.1656C54.4545 40.1178 56.7651 40.5927 59.3953 40.5927C62.0255 40.5927 64.3269 40.1178 66.3041 39.1656C68.2836 38.2134 69.9389 36.9675 71.27 35.4302C72.5988 33.893 73.5897 32.1285 74.2381 30.1415C74.8865 28.1523 75.213 26.1309 75.213 24.075C75.213 22.0192 74.8888 19.9955 74.2381 18.0085C73.5897 16.0192 72.5988 14.2571 71.27 12.7175C70.8727 12.2586 70.4435 11.8296 69.9891 11.4235C70.2494 11.1298 70.5142 10.8453 70.7859 10.5653C71.1033 10.2349 71.4275 9.91142 71.7677 9.60855L71.7654 9.60626ZM46.9361 16.1477C47.0114 15.5764 47.1758 15.0166 47.4019 14.4797C47.6233 14.108 47.8608 13.7454 48.1165 13.3967C49.1804 11.942 50.5686 10.7718 52.281 9.88618C53.9956 9.00053 56.0162 8.5577 58.345 8.5577C60.6738 8.5577 62.7926 9.00053 64.6054 9.88618C65.674 10.407 66.6443 11.0311 67.5233 11.7516C67.263 12.0475 67.0073 12.3458 66.7585 12.6487C65.5347 14.1332 64.4936 15.7187 63.304 17.155C62.715 17.8777 62.0962 18.5684 61.4204 19.1787C60.7423 19.789 60.0209 20.3466 59.24 20.8032C57.6898 21.7278 55.9203 22.2716 54.1189 22.2624C53.2193 22.2624 52.3198 22.1293 51.4476 21.8769C51.0115 21.7508 50.5823 21.597 50.1645 21.4181L49.8517 21.2781L49.5549 21.1313C49.3608 21.0257 49.1736 20.9133 48.9932 20.7848C48.2695 20.2823 47.6713 19.5917 47.306 18.7817C46.9361 17.9741 46.8151 17.0517 46.9361 16.1477ZM72.1901 18.3596C72.907 20.2158 73.3225 22.1202 73.4367 24.075C73.5531 26.0299 73.3796 27.9366 72.9138 29.7905C72.4481 31.6467 71.6741 33.301 70.5919 34.7557C69.5119 36.2103 68.1238 37.3782 66.4274 38.2662C64.731 39.1518 62.7173 39.5947 60.3907 39.5947C58.0642 39.5947 55.9911 39.1518 54.1783 38.2662C52.3654 37.3805 50.8197 36.2103 49.5389 34.7557C48.2603 33.301 47.2694 31.6467 46.5708 29.7905C45.8721 27.9343 45.4543 26.0299 45.3242 24.075C45.1918 22.1202 45.3562 20.2135 45.8242 18.3596C45.9749 17.763 46.1575 17.1894 46.3699 16.6341C46.3014 17.4395 46.4018 18.2701 46.7032 19.0364C47.0685 19.984 47.7124 20.8192 48.5137 21.4433C48.911 21.7531 49.3677 22.0192 49.8083 22.2188C50.2535 22.4276 50.7124 22.6089 51.1828 22.7603C52.1211 23.0655 53.1075 23.2444 54.1029 23.2766C56.0984 23.3592 58.0984 22.7947 59.8245 21.8242C60.6944 21.3446 61.4958 20.7573 62.2446 20.1171C62.9867 19.4655 63.6785 18.7749 64.3383 18.0659C65.6465 16.6364 66.8817 15.1772 68.0621 13.7202L68.7516 12.8781C68.9137 13.0456 69.0713 13.2177 69.2243 13.3944C70.4868 14.8491 71.4777 16.5034 72.1924 18.3596H72.1901Z" fill="#292929"/>
<path d="M85.2772 38.5668C85.1425 38.8834 84.9439 39.1174 84.6791 39.2689C84.4119 39.4203 84.0626 39.5121 83.6311 39.5442C83.1973 39.5786 82.6836 39.5947 82.0854 39.5947L82.0352 39.9457H90.9669V39.5947C90.3687 39.5947 89.8504 39.5786 89.4212 39.5442C88.9874 39.5121 88.6312 39.4203 88.3481 39.2689C88.0673 39.1174 87.8663 38.8834 87.7499 38.5668C87.6335 38.2478 87.5764 37.8073 87.5764 37.2383V27.0096H94.0628C96.7569 27.0096 98.9944 26.5507 100.775 25.6307C102.554 24.7106 103.894 23.5496 104.791 22.1454C105.689 20.7412 106.138 19.2384 106.138 17.6322C106.138 16.0261 105.689 14.5233 104.791 13.1191C103.894 11.7149 102.554 10.5539 100.775 9.6361C98.9944 8.71603 96.7569 8.25714 94.0628 8.25714H82.0374L82.0877 8.60819C82.6859 8.60819 83.2018 8.62655 83.6334 8.65867C84.0649 8.69309 84.4142 8.78486 84.6813 8.93629C84.9462 9.08773 85.1471 9.31947 85.2795 9.63839C85.4119 9.95503 85.4782 10.3979 85.4782 10.9669V37.2406C85.4782 37.8096 85.4097 38.2524 85.2795 38.5691L85.2772 38.5668ZM87.5718 8.80781H94.0582V8.85828C96.2204 8.85828 98.0264 9.29423 99.4716 10.1615C100.919 11.0311 102.006 12.1164 102.739 13.4196C103.469 14.7229 103.837 16.1363 103.837 17.6552C103.837 19.1741 103.469 20.5898 102.739 21.893C102.006 23.1963 100.919 24.2838 99.4716 25.1511C98.0241 26.0207 96.2181 26.4544 94.0582 26.4544H90.0673C89.17 26.4544 88.5285 26.3305 88.1472 26.0781C87.7636 25.828 87.5718 25.1993 87.5718 24.1967V8.80322V8.80781Z" fill="#292929"/>
<path d="M184.274 33.574C182.32 36.1278 180.048 38.0184 177.459 39.2459C174.87 40.4734 172.224 41.0861 169.52 41.0861C167.274 41.0861 165.107 40.6754 163.022 39.8585C160.94 39.0417 159.082 37.8463 157.454 36.2746C155.826 34.7029 154.522 32.7733 153.545 30.4811C152.568 28.1913 152.079 25.555 152.079 22.5768C152.079 19.9267 152.536 17.5772 153.447 15.5328C154.36 13.4862 155.566 11.7768 157.061 10.4025C158.559 9.02808 160.285 7.98869 162.239 7.28659C164.194 6.5822 166.196 6.23115 168.249 6.23115C170.92 6.23115 173.119 6.71527 174.845 7.67894C176.571 8.6449 177.858 9.84031 178.703 11.2629C179.55 12.6877 179.991 14.2411 180.023 15.9275C180.057 17.6116 179.721 19.1672 179.023 20.5921C178.322 22.0169 177.281 23.21 175.897 24.176C174.511 25.1397 172.826 25.6238 170.84 25.6238C169.666 25.6238 168.317 25.3967 166.785 24.9355L166.639 25.4265C168.561 26.0162 170.319 26.3098 171.915 26.3098C174.228 26.3098 176.173 25.8028 177.753 24.7886C179.333 23.7745 180.498 22.4988 181.247 20.9592C181.998 19.4219 182.313 17.7607 182.201 15.978C182.087 14.1929 181.509 12.534 180.466 10.9944C179.425 9.45714 177.895 8.17913 175.874 7.16499C173.856 6.15084 171.315 5.64377 168.253 5.64377C165.876 5.64377 163.595 6.0453 161.413 6.84835C159.232 7.64911 157.294 8.81928 155.6 10.3589C153.908 11.8984 152.554 13.7959 151.545 16.0537C150.536 18.3114 150.031 20.8972 150.031 23.8112C150.031 26.7251 150.545 29.4418 151.57 31.7637C152.595 34.088 153.963 36.0429 155.673 37.6306C157.383 39.2184 159.344 40.4184 161.559 41.2375C163.774 42.0543 166.054 42.465 168.399 42.465C169.897 42.465 171.397 42.2929 172.895 41.9511C174.392 41.6069 175.851 41.0838 177.267 40.3794C178.685 39.675 180.027 38.7916 181.297 37.7293C182.566 36.6647 183.724 35.3958 184.765 33.9228L184.276 33.5786L184.274 33.574Z" fill="#292929"/>
<path d="M19.0877 34.6799L5.81572 8.20435H0.726562V8.5554C1.32475 8.5554 1.84988 8.57375 2.29966 8.60587C2.74944 8.64029 3.10333 8.73207 3.37046 8.8835C3.63531 9.03493 3.83622 9.26667 3.96865 9.5856C4.10107 9.90223 4.16728 10.3451 4.16728 10.9141V37.1878C4.16728 37.7568 4.09879 38.1996 3.96865 38.5163C3.83622 38.8329 3.63531 39.0669 3.37046 39.2184C3.10333 39.3698 2.74716 39.4616 2.29966 39.4937C1.84988 39.5281 1.32475 39.5442 0.726562 39.5442V39.8952H8.31121V39.5442C7.71302 39.5442 7.19018 39.5281 6.73811 39.4937C6.29062 39.4616 5.93216 39.3698 5.66503 39.2184C5.3979 39.0669 5.19927 38.8329 5.06684 38.5163C4.93442 38.1973 4.86821 37.7568 4.86821 37.1878V10.8636L17.9895 37.0868H18.6882L31.2113 11.0632V37.1878C31.2113 37.7568 31.1428 38.1996 31.0126 38.5163C30.8779 38.8329 30.6793 39.0669 30.4144 39.2184C30.1473 39.3698 29.7911 39.4616 29.3414 39.4937C28.8939 39.5281 28.3687 39.5442 27.7705 39.5442V39.8952H36.7022V39.5442C36.1041 39.5442 35.5789 39.5281 35.1314 39.4937C34.6817 39.4616 34.3232 39.3698 34.0583 39.2184C33.7912 39.0669 33.5926 38.8329 33.4602 38.5163C33.3255 38.1973 33.2615 37.7568 33.2615 37.1878V10.9141C33.2615 10.3474 33.3277 9.90223 33.4602 9.5856C33.5926 9.26667 33.7912 9.03493 34.0583 8.8835C34.3232 8.73207 34.6817 8.64029 35.1314 8.60587C35.5789 8.57375 36.1041 8.5554 36.7022 8.5554V8.20435H31.9122L19.09 34.6799H19.0877Z" fill="#292929"/>
<path d="M155.621 1.05026V0.800171C152.395 0.800171 149.45 1.40131 146.79 2.6059C144.13 3.80819 141.669 5.40512 139.406 7.3944C137.146 9.38139 135.023 11.6644 133.043 14.2387C131.066 16.8131 129.162 19.4769 127.331 22.2349C125.502 24.9951 123.68 27.7347 121.867 30.4582C120.054 33.184 118.168 35.6826 116.205 37.9541V10.8774C116.205 10.3106 116.305 9.86552 116.504 9.54889C116.703 9.23226 116.97 8.99822 117.303 8.84908C117.636 8.69765 118.009 8.60587 118.424 8.57146C118.842 8.53933 119.248 8.52098 119.648 8.52098V8.16993H112.063V8.52098C112.463 8.52098 112.869 8.53933 113.285 8.57146C113.703 8.60587 114.077 8.69765 114.408 8.84908C114.741 8.99822 115.006 9.23226 115.207 9.54889C115.406 9.86782 115.506 10.3106 115.506 10.8774V38.7067C113.18 41.3132 110.675 43.4356 107.997 45.0738C105.321 46.7097 102.319 47.5311 98.9922 47.5311V47.7812C102.319 47.7812 105.346 47.1709 108.072 45.9525C110.801 44.7319 113.303 43.1097 115.582 41.0883C117.86 39.0646 119.981 36.7495 121.945 34.143C123.908 31.5366 125.803 28.8452 127.632 26.0712C129.463 23.2972 131.274 20.5485 133.071 17.8227C134.867 15.0969 136.746 12.6005 138.708 10.3267V37.1534C138.708 37.7224 138.607 38.1652 138.409 38.4818C138.21 38.7985 137.943 39.0325 137.609 39.1816C137.278 39.3331 136.904 39.4157 136.486 39.4317C136.071 39.4501 135.664 39.457 135.265 39.457V39.8585H142.749V39.457C142.349 39.457 141.95 39.4478 141.553 39.4317C141.153 39.4157 140.788 39.3308 140.454 39.1816C140.123 39.0325 139.856 38.7985 139.655 38.4818C139.457 38.1629 139.356 37.7224 139.356 37.1534V9.52594C140.489 8.25712 141.66 7.10301 142.872 6.06592C143.769 5.30187 143.434 5.2078 146.69 3.40895C148.018 2.67473 149.425 2.09653 150.904 1.67894C152.386 1.26135 153.957 1.05256 155.621 1.05256V1.05026Z" fill="#292929"/>
<path d="M67.2036 52.7441C65.3474 52.7441 63.8359 54.3319 63.8359 56.273C63.8359 58.2141 65.3017 59.7445 67.2036 59.7445C69.1055 59.7445 70.5712 58.1476 70.5712 56.2156C70.5712 54.2837 69.1055 52.7441 67.2036 52.7441ZM67.2995 59.5242C66.0437 59.5242 65.1693 58.042 65.1693 55.9747C65.1693 54.185 65.9593 52.9644 67.11 52.9644C68.3954 52.9644 69.3269 54.465 69.3269 56.5323C69.3269 58.3311 68.5278 59.5242 67.2995 59.5242Z" fill="#292929"/>
<path d="M77.7531 52.8497L77.5156 55.1189H77.5636C77.7531 54.4558 78.0111 53.9946 78.3239 53.6275C78.5613 53.3476 78.9426 53.0791 79.381 53.0791C79.7234 53.0791 79.8764 53.2627 79.8764 53.6665V58.6959C79.8764 59.2443 79.6207 59.5816 79.1823 59.6091V59.6665H81.7509V59.6091C81.2554 59.5793 81.0568 59.2443 81.0568 58.6959V53.6665C81.0568 53.2627 81.2098 53.0791 81.5317 53.0791C81.9038 53.0791 82.2463 53.3292 82.4632 53.5701C82.8057 53.9441 83.1208 54.4558 83.2806 55.1189H83.3285L83.0911 52.8497H77.7531Z" fill="#292929"/>
<path d="M94.8614 58.7648C94.5463 59.1112 93.9093 59.437 93.3773 59.437H93.2244C92.7107 59.437 92.4253 59.2535 92.4253 58.7648V56.2546H93.2426C94.0417 56.2546 94.27 56.7847 94.3363 57.3307H94.3842V54.9078H94.3363C94.27 55.4562 94.0417 55.9954 93.2426 55.9954H92.4253V53.717C92.4253 53.2833 92.6444 53.0814 93.2814 53.0814H93.4047C93.891 53.0814 94.3089 53.226 94.6217 53.4944C95.0212 53.8409 95.2587 54.3892 95.3934 55.0707H95.4413L95.2518 52.8497H90.5508V52.907C90.9891 52.9369 91.2449 53.2719 91.2449 53.8202V58.6959C91.2449 59.2443 90.9891 59.5816 90.5508 59.6091V59.6665H95.3751L95.8043 57.099H95.7564C95.5463 57.9846 95.1468 58.455 94.8614 58.7625V58.7648Z" fill="#292929"/>
<path d="M108 58.6959V53.8202C108 53.2902 108.246 52.9345 108.694 52.907V52.8497H103.803V52.907C104.203 52.9368 104.44 53.2145 104.488 53.6481C104.449 56.2156 104.413 58.7946 103.557 58.7946C103.367 58.7946 103.299 58.728 103.1 58.728C102.824 58.728 102.625 58.9116 102.625 59.2282C102.625 59.5448 102.853 59.7376 103.205 59.7376C104.68 59.7376 104.707 56.3533 104.755 53.0929H106.819V58.7005C106.819 59.2305 106.563 59.5862 106.116 59.6137V59.671H108.705V59.6137C108.258 59.5839 108.002 59.2282 108.002 58.7005L108 58.6959Z" fill="#292929"/>
<path d="M118.637 55.9173H118.066V53.8202C118.066 53.2719 118.324 52.9346 118.76 52.907V52.8497H116.191V52.907C116.63 52.9369 116.885 53.2719 116.885 53.8202V58.6959C116.885 59.2443 116.63 59.5816 116.191 59.6091V59.6665H119.009C120.664 59.6665 121.655 58.9552 121.655 57.7919C121.655 56.6286 120.676 55.9173 118.639 55.9173H118.637ZM119.036 59.437C118.399 59.4278 118.066 59.1089 118.066 58.4848V56.1766H118.532C119.835 56.1766 120.397 56.8122 120.397 57.8309C120.397 58.907 119.913 59.4278 119.036 59.437Z" fill="#292929"/>
</g>
<defs>
<clipPath id="clip0_118_53627">
<rect width="185" height="60" fill="white"/>
</clipPath>
</defs>
</svg>
